%
M48
M72
T01C0.03150
T02C0.03543
T03C0.03800
T04C0.04000
%
T01
X191800Y60000
X201800Y60000
X201800Y70000
X191800Y70000
X191800Y80000
X201800Y80000
X201800Y90000
X191800Y90000
X191800Y100000
X201800Y100000
X201800Y110000
X191800Y110000
X191800Y120000
X201800Y120000
X201800Y130000
X201800Y140000
X191800Y140000
X191800Y130000
X191800Y150000
X201800Y150000
X201800Y160000
X191800Y160000
X191800Y170000
X201800Y170000
X201800Y180000
X191800Y180000
X191800Y190000
X201800Y190000
X201800Y200000
X191800Y200000
X191800Y210000
X201800Y210000
X211800Y210000
X221800Y210000
X221800Y200000
X211800Y200000
X211800Y190000
X221800Y190000
X221800Y180000
X211800Y180000
X211800Y170000
X221800Y170000
X221800Y160000
X211800Y160000
X211800Y150000
X221800Y150000
X221800Y140000
X221800Y130000
X211800Y130000
X211800Y140000
X211800Y120000
X221800Y120000
X221800Y110000
X211800Y110000
X211800Y100000
X221800Y100000
X221800Y90000
X211800Y90000
X211800Y80000
X221800Y80000
X221800Y70000
X211800Y70000
X211800Y60000
X221800Y60000
X231800Y60000
X231800Y70000
X231800Y80000
X231800Y90000
X231800Y100000
X231800Y110000
X231800Y120000
X231800Y130000
X231800Y140000
X231800Y150000
X231800Y160000
X231800Y170000
X231800Y180000
X231800Y190000
X231800Y200000
X231800Y210000
X241800Y210000
X251800Y210000
X251800Y200000
X241800Y200000
X241800Y190000
X251800Y190000
X251800Y180000
X241800Y180000
X241800Y170000
X251800Y170000
X251800Y160000
X241800Y160000
X241800Y150000
X251800Y150000
X251800Y140000
X251800Y130000
X241800Y130000
X241800Y140000
X241800Y120000
X251800Y120000
X251800Y110000
X241800Y110000
X241800Y100000
X251800Y100000
X251800Y90000
X241800Y90000
X241800Y80000
X251800Y80000
X251800Y70000
X241800Y70000
X241800Y60000
X251800Y60000
X261800Y60000
X271800Y60000
X271800Y70000
X261800Y70000
X261800Y80000
X271800Y80000
X271800Y90000
X261800Y90000
X261800Y100000
X271800Y100000
X271800Y110000
X261800Y110000
X261800Y120000
X271800Y120000
X271800Y130000
X271800Y140000
X261800Y140000
X261800Y130000
X261800Y150000
X271800Y150000
X271800Y160000
X261800Y160000
X261800Y170000
X271800Y170000
X271800Y180000
X261800Y180000
X261800Y190000
X271800Y190000
X271800Y200000
X261800Y200000
X261800Y210000
X271800Y210000
X281800Y210000
X281800Y200000
X281800Y190000
X281800Y180000
X281800Y170000
X281800Y160000
X281800Y150000
X281800Y140000
X281800Y130000
X281800Y120000
X281800Y110000
X281800Y100000
X281800Y90000
X281800Y80000
X281800Y70000
X281800Y60000
X291800Y60000
X301800Y60000
X301800Y70000
X291800Y70000
X291800Y80000
X301800Y80000
X301800Y90000
X291800Y90000
X291800Y100000
X301800Y100000
X301800Y110000
X291800Y110000
X291800Y120000
X301800Y120000
X301800Y130000
X301800Y140000
X291800Y140000
X291800Y130000
X291800Y150000
X301800Y150000
X301800Y160000
X291800Y160000
X291800Y170000
X301800Y170000
X301800Y180000
X291800Y180000
X291800Y190000
X301800Y190000
X301800Y200000
X291800Y200000
X291800Y210000
X301800Y210000
X311800Y210000
X321800Y210000
X321800Y200000
X311800Y200000
X311800Y190000
X321800Y190000
X321800Y180000
X311800Y180000
X311800Y170000
X321800Y170000
X321800Y160000
X311800Y160000
X311800Y150000
X321800Y150000
X321800Y140000
X321800Y130000
X311800Y130000
X311800Y140000
X311800Y120000
X321800Y120000
X321800Y110000
X311800Y110000
X311800Y100000
X321800Y100000
X321800Y90000
X311800Y90000
X311800Y80000
X321800Y80000
X321800Y70000
X311800Y70000
X311800Y60000
X321800Y60000
X331800Y60000
X331800Y70000
X331800Y80000
X331800Y90000
X331800Y100000
X331800Y110000
X331800Y120000
X331800Y130000
X331800Y140000
X331800Y150000
X331800Y160000
X331800Y170000
X331800Y180000
X331800Y190000
X331800Y200000
X331800Y210000
X341800Y210000
X341800Y200000
X341800Y190000
X341800Y180000
X341800Y170000
X341800Y160000
X341800Y150000
X341800Y140000
X341800Y130000
X341800Y120000
X341800Y110000
X341800Y100000
X341800Y90000
X341800Y80000
X341800Y70000
X341800Y60000
T02
X226800Y235000
X226800Y265000
X181800Y265000
X181800Y235000
X131800Y235000
X131800Y265000
X71800Y275000
X56800Y275000
X56800Y245000
X71800Y245000
X41800Y207795
X41800Y182205
T03
X91800Y75000
X91800Y85000
X91800Y95000
X91800Y105000
X91800Y115000
X91800Y125000
X91800Y135000
X91800Y145000
X91800Y155000
X91800Y165000
X91800Y175000
X91800Y185000
X91800Y195000
X91800Y205000
X151800Y205000
X151800Y195000
X151800Y185000
X151800Y175000
X151800Y165000
X151800Y155000
X151800Y145000
X151800Y135000
X151800Y125000
X151800Y115000
X151800Y105000
X151800Y95000
X151800Y85000
X151800Y75000
T04
X252800Y233000
X262800Y233000
X246800Y280000
X236800Y280000
X226800Y280000
X201800Y280000
X191800Y280000
X181800Y280000
X151800Y280000
X141800Y280000
X131800Y280000
X101800Y264000
X91800Y264000
X91800Y310000
X81800Y310000
X71800Y310000
X116800Y310000
X126800Y310000
X136800Y310000
X146800Y310000
X176800Y310000
X186800Y310000
X196800Y310000
X206800Y310000
M30
