G75*
%MOIN*%
%OFA0B0*%
%FSLAX25Y25*%
%IPPOS*%
%LPD*%
%AMOC8*
5,1,8,0,0,1.08239X$1,22.5*
%
%ADD10C,0.08200*%
%ADD11R,0.08200X0.08200*%
%ADD12C,0.06800*%
%ADD13C,0.08062*%
%ADD14C,0.08246*%
%ADD15C,0.06600*%
%ADD16C,0.07800*%
%ADD17C,0.01422*%
D10*
X0252800Y0233000D03*
X0262800Y0233000D03*
X0196800Y0310000D03*
X0186800Y0310000D03*
X0176800Y0310000D03*
X0136800Y0310000D03*
X0126800Y0310000D03*
X0116800Y0310000D03*
X0091800Y0310000D03*
X0081800Y0310000D03*
X0071800Y0310000D03*
X0091800Y0264000D03*
X0101800Y0264000D03*
D11*
X0146800Y0310000D03*
X0206800Y0310000D03*
D12*
X0201800Y0283000D02*
X0201800Y0277000D01*
X0191800Y0277000D02*
X0191800Y0283000D01*
X0181800Y0283000D02*
X0181800Y0277000D01*
X0151800Y0277000D02*
X0151800Y0283000D01*
X0141800Y0283000D02*
X0141800Y0277000D01*
X0131800Y0277000D02*
X0131800Y0283000D01*
X0226800Y0283000D02*
X0226800Y0277000D01*
X0236800Y0277000D02*
X0236800Y0283000D01*
X0246800Y0283000D02*
X0246800Y0277000D01*
D13*
X0226800Y0235000D03*
X0181800Y0235000D03*
X0131800Y0235000D03*
X0071800Y0275000D03*
X0056800Y0275000D03*
D14*
X0056800Y0245000D03*
X0071800Y0245000D03*
X0131800Y0265000D03*
X0181800Y0265000D03*
X0226800Y0265000D03*
D15*
X0151800Y0205000D03*
X0151800Y0195000D03*
X0151800Y0185000D03*
X0151800Y0175000D03*
X0151800Y0165000D03*
X0151800Y0155000D03*
X0151800Y0145000D03*
X0151800Y0135000D03*
X0151800Y0125000D03*
X0151800Y0115000D03*
X0151800Y0105000D03*
X0151800Y0095000D03*
X0151800Y0085000D03*
X0151800Y0075000D03*
X0091800Y0075000D03*
X0091800Y0085000D03*
X0091800Y0095000D03*
X0091800Y0105000D03*
X0091800Y0115000D03*
X0091800Y0125000D03*
X0091800Y0135000D03*
X0091800Y0145000D03*
X0091800Y0155000D03*
X0091800Y0165000D03*
X0091800Y0175000D03*
X0091800Y0185000D03*
X0091800Y0195000D03*
X0091800Y0205000D03*
D16*
X0041800Y0207795D03*
X0041800Y0182205D03*
X0191800Y0180000D03*
X0201800Y0180000D03*
X0201800Y0170000D03*
X0191800Y0170000D03*
X0191800Y0160000D03*
X0201800Y0160000D03*
X0201800Y0150000D03*
X0191800Y0150000D03*
X0191800Y0140000D03*
X0191800Y0130000D03*
X0201800Y0130000D03*
X0201800Y0140000D03*
X0211800Y0140000D03*
X0211800Y0130000D03*
X0221800Y0130000D03*
X0221800Y0140000D03*
X0221800Y0150000D03*
X0211800Y0150000D03*
X0211800Y0160000D03*
X0221800Y0160000D03*
X0221800Y0170000D03*
X0211800Y0170000D03*
X0211800Y0180000D03*
X0221800Y0180000D03*
X0221800Y0190000D03*
X0211800Y0190000D03*
X0211800Y0200000D03*
X0221800Y0200000D03*
X0221800Y0210000D03*
X0211800Y0210000D03*
X0201800Y0210000D03*
X0191800Y0210000D03*
X0191800Y0200000D03*
X0201800Y0200000D03*
X0201800Y0190000D03*
X0191800Y0190000D03*
X0231800Y0190000D03*
X0231800Y0180000D03*
X0231800Y0170000D03*
X0231800Y0160000D03*
X0231800Y0150000D03*
X0231800Y0140000D03*
X0231800Y0130000D03*
X0231800Y0120000D03*
X0231800Y0110000D03*
X0231800Y0100000D03*
X0231800Y0090000D03*
X0231800Y0080000D03*
X0231800Y0070000D03*
X0231800Y0060000D03*
X0221800Y0060000D03*
X0211800Y0060000D03*
X0211800Y0070000D03*
X0221800Y0070000D03*
X0221800Y0080000D03*
X0211800Y0080000D03*
X0211800Y0090000D03*
X0221800Y0090000D03*
X0221800Y0100000D03*
X0211800Y0100000D03*
X0211800Y0110000D03*
X0221800Y0110000D03*
X0221800Y0120000D03*
X0211800Y0120000D03*
X0201800Y0120000D03*
X0191800Y0120000D03*
X0191800Y0110000D03*
X0201800Y0110000D03*
X0201800Y0100000D03*
X0191800Y0100000D03*
X0191800Y0090000D03*
X0201800Y0090000D03*
X0201800Y0080000D03*
X0191800Y0080000D03*
X0191800Y0070000D03*
X0201800Y0070000D03*
X0201800Y0060000D03*
X0191800Y0060000D03*
X0241800Y0060000D03*
X0251800Y0060000D03*
X0251800Y0070000D03*
X0241800Y0070000D03*
X0241800Y0080000D03*
X0251800Y0080000D03*
X0251800Y0090000D03*
X0241800Y0090000D03*
X0241800Y0100000D03*
X0251800Y0100000D03*
X0251800Y0110000D03*
X0241800Y0110000D03*
X0241800Y0120000D03*
X0251800Y0120000D03*
X0251800Y0130000D03*
X0251800Y0140000D03*
X0241800Y0140000D03*
X0241800Y0130000D03*
X0241800Y0150000D03*
X0251800Y0150000D03*
X0251800Y0160000D03*
X0241800Y0160000D03*
X0241800Y0170000D03*
X0251800Y0170000D03*
X0251800Y0180000D03*
X0241800Y0180000D03*
X0241800Y0190000D03*
X0251800Y0190000D03*
X0251800Y0200000D03*
X0241800Y0200000D03*
X0241800Y0210000D03*
X0251800Y0210000D03*
X0261800Y0210000D03*
X0271800Y0210000D03*
X0271800Y0200000D03*
X0261800Y0200000D03*
X0261800Y0190000D03*
X0271800Y0190000D03*
X0271800Y0180000D03*
X0261800Y0180000D03*
X0261800Y0170000D03*
X0271800Y0170000D03*
X0271800Y0160000D03*
X0261800Y0160000D03*
X0261800Y0150000D03*
X0271800Y0150000D03*
X0271800Y0140000D03*
X0271800Y0130000D03*
X0261800Y0130000D03*
X0261800Y0140000D03*
X0261800Y0120000D03*
X0271800Y0120000D03*
X0271800Y0110000D03*
X0261800Y0110000D03*
X0261800Y0100000D03*
X0271800Y0100000D03*
X0271800Y0090000D03*
X0261800Y0090000D03*
X0261800Y0080000D03*
X0271800Y0080000D03*
X0271800Y0070000D03*
X0261800Y0070000D03*
X0261800Y0060000D03*
X0271800Y0060000D03*
X0281800Y0060000D03*
X0281800Y0070000D03*
X0281800Y0080000D03*
X0281800Y0090000D03*
X0281800Y0100000D03*
X0281800Y0110000D03*
X0281800Y0120000D03*
X0281800Y0130000D03*
X0281800Y0140000D03*
X0281800Y0150000D03*
X0281800Y0160000D03*
X0281800Y0170000D03*
X0281800Y0180000D03*
X0281800Y0190000D03*
X0281800Y0200000D03*
X0281800Y0210000D03*
X0291800Y0210000D03*
X0301800Y0210000D03*
X0301800Y0200000D03*
X0291800Y0200000D03*
X0291800Y0190000D03*
X0301800Y0190000D03*
X0301800Y0180000D03*
X0291800Y0180000D03*
X0291800Y0170000D03*
X0301800Y0170000D03*
X0301800Y0160000D03*
X0291800Y0160000D03*
X0291800Y0150000D03*
X0301800Y0150000D03*
X0301800Y0140000D03*
X0301800Y0130000D03*
X0291800Y0130000D03*
X0291800Y0140000D03*
X0291800Y0120000D03*
X0301800Y0120000D03*
X0301800Y0110000D03*
X0291800Y0110000D03*
X0291800Y0100000D03*
X0301800Y0100000D03*
X0301800Y0090000D03*
X0291800Y0090000D03*
X0291800Y0080000D03*
X0301800Y0080000D03*
X0301800Y0070000D03*
X0291800Y0070000D03*
X0291800Y0060000D03*
X0301800Y0060000D03*
X0311800Y0060000D03*
X0321800Y0060000D03*
X0321800Y0070000D03*
X0311800Y0070000D03*
X0311800Y0080000D03*
X0321800Y0080000D03*
X0321800Y0090000D03*
X0311800Y0090000D03*
X0311800Y0100000D03*
X0321800Y0100000D03*
X0321800Y0110000D03*
X0311800Y0110000D03*
X0311800Y0120000D03*
X0321800Y0120000D03*
X0321800Y0130000D03*
X0321800Y0140000D03*
X0311800Y0140000D03*
X0311800Y0130000D03*
X0311800Y0150000D03*
X0321800Y0150000D03*
X0321800Y0160000D03*
X0311800Y0160000D03*
X0311800Y0170000D03*
X0321800Y0170000D03*
X0321800Y0180000D03*
X0311800Y0180000D03*
X0311800Y0190000D03*
X0321800Y0190000D03*
X0321800Y0200000D03*
X0311800Y0200000D03*
X0311800Y0210000D03*
X0321800Y0210000D03*
X0331800Y0210000D03*
X0331800Y0200000D03*
X0331800Y0190000D03*
X0331800Y0180000D03*
X0331800Y0170000D03*
X0331800Y0160000D03*
X0331800Y0150000D03*
X0331800Y0140000D03*
X0331800Y0130000D03*
X0331800Y0120000D03*
X0331800Y0110000D03*
X0331800Y0100000D03*
X0331800Y0090000D03*
X0331800Y0080000D03*
X0331800Y0070000D03*
X0331800Y0060000D03*
X0341800Y0060000D03*
X0341800Y0070000D03*
X0341800Y0080000D03*
X0341800Y0090000D03*
X0341800Y0100000D03*
X0341800Y0110000D03*
X0341800Y0120000D03*
X0341800Y0130000D03*
X0341800Y0140000D03*
X0341800Y0150000D03*
X0341800Y0160000D03*
X0341800Y0170000D03*
X0341800Y0180000D03*
X0341800Y0190000D03*
X0341800Y0200000D03*
X0341800Y0210000D03*
X0231800Y0210000D03*
X0231800Y0200000D03*
D17*
X0041332Y0027327D02*
X0041332Y0012201D01*
X0039198Y0012201D01*
X0039198Y0027327D01*
X0041332Y0027327D01*
X0041332Y0013622D02*
X0039198Y0013622D01*
X0039198Y0015043D02*
X0041332Y0015043D01*
X0041332Y0016464D02*
X0039198Y0016464D01*
X0039198Y0017885D02*
X0041332Y0017885D01*
X0041332Y0019306D02*
X0039198Y0019306D01*
X0039198Y0020727D02*
X0041332Y0020727D01*
X0041332Y0022148D02*
X0039198Y0022148D01*
X0039198Y0023569D02*
X0041332Y0023569D01*
X0041332Y0024990D02*
X0039198Y0024990D01*
X0039198Y0026411D02*
X0041332Y0026411D01*
X0045269Y0027327D02*
X0045269Y0012201D01*
X0043135Y0012201D01*
X0043135Y0027327D01*
X0045269Y0027327D01*
X0045269Y0013622D02*
X0043135Y0013622D01*
X0043135Y0015043D02*
X0045269Y0015043D01*
X0045269Y0016464D02*
X0043135Y0016464D01*
X0043135Y0017885D02*
X0045269Y0017885D01*
X0045269Y0019306D02*
X0043135Y0019306D01*
X0043135Y0020727D02*
X0045269Y0020727D01*
X0045269Y0022148D02*
X0043135Y0022148D01*
X0043135Y0023569D02*
X0045269Y0023569D01*
X0045269Y0024990D02*
X0043135Y0024990D01*
X0043135Y0026411D02*
X0045269Y0026411D01*
X0049206Y0027327D02*
X0049206Y0012201D01*
X0047072Y0012201D01*
X0047072Y0027327D01*
X0049206Y0027327D01*
X0049206Y0013622D02*
X0047072Y0013622D01*
X0047072Y0015043D02*
X0049206Y0015043D01*
X0049206Y0016464D02*
X0047072Y0016464D01*
X0047072Y0017885D02*
X0049206Y0017885D01*
X0049206Y0019306D02*
X0047072Y0019306D01*
X0047072Y0020727D02*
X0049206Y0020727D01*
X0049206Y0022148D02*
X0047072Y0022148D01*
X0047072Y0023569D02*
X0049206Y0023569D01*
X0049206Y0024990D02*
X0047072Y0024990D01*
X0047072Y0026411D02*
X0049206Y0026411D01*
X0053143Y0027327D02*
X0053143Y0012201D01*
X0051009Y0012201D01*
X0051009Y0027327D01*
X0053143Y0027327D01*
X0053143Y0013622D02*
X0051009Y0013622D01*
X0051009Y0015043D02*
X0053143Y0015043D01*
X0053143Y0016464D02*
X0051009Y0016464D01*
X0051009Y0017885D02*
X0053143Y0017885D01*
X0053143Y0019306D02*
X0051009Y0019306D01*
X0051009Y0020727D02*
X0053143Y0020727D01*
X0053143Y0022148D02*
X0051009Y0022148D01*
X0051009Y0023569D02*
X0053143Y0023569D01*
X0053143Y0024990D02*
X0051009Y0024990D01*
X0051009Y0026411D02*
X0053143Y0026411D01*
X0057080Y0027327D02*
X0057080Y0012201D01*
X0054946Y0012201D01*
X0054946Y0027327D01*
X0057080Y0027327D01*
X0057080Y0013622D02*
X0054946Y0013622D01*
X0054946Y0015043D02*
X0057080Y0015043D01*
X0057080Y0016464D02*
X0054946Y0016464D01*
X0054946Y0017885D02*
X0057080Y0017885D01*
X0057080Y0019306D02*
X0054946Y0019306D01*
X0054946Y0020727D02*
X0057080Y0020727D01*
X0057080Y0022148D02*
X0054946Y0022148D01*
X0054946Y0023569D02*
X0057080Y0023569D01*
X0057080Y0024990D02*
X0054946Y0024990D01*
X0054946Y0026411D02*
X0057080Y0026411D01*
X0061017Y0027327D02*
X0061017Y0012201D01*
X0058883Y0012201D01*
X0058883Y0027327D01*
X0061017Y0027327D01*
X0061017Y0013622D02*
X0058883Y0013622D01*
X0058883Y0015043D02*
X0061017Y0015043D01*
X0061017Y0016464D02*
X0058883Y0016464D01*
X0058883Y0017885D02*
X0061017Y0017885D01*
X0061017Y0019306D02*
X0058883Y0019306D01*
X0058883Y0020727D02*
X0061017Y0020727D01*
X0061017Y0022148D02*
X0058883Y0022148D01*
X0058883Y0023569D02*
X0061017Y0023569D01*
X0061017Y0024990D02*
X0058883Y0024990D01*
X0058883Y0026411D02*
X0061017Y0026411D01*
X0064954Y0027327D02*
X0064954Y0012201D01*
X0062820Y0012201D01*
X0062820Y0027327D01*
X0064954Y0027327D01*
X0064954Y0013622D02*
X0062820Y0013622D01*
X0062820Y0015043D02*
X0064954Y0015043D01*
X0064954Y0016464D02*
X0062820Y0016464D01*
X0062820Y0017885D02*
X0064954Y0017885D01*
X0064954Y0019306D02*
X0062820Y0019306D01*
X0062820Y0020727D02*
X0064954Y0020727D01*
X0064954Y0022148D02*
X0062820Y0022148D01*
X0062820Y0023569D02*
X0064954Y0023569D01*
X0064954Y0024990D02*
X0062820Y0024990D01*
X0062820Y0026411D02*
X0064954Y0026411D01*
X0068891Y0027327D02*
X0068891Y0012201D01*
X0066757Y0012201D01*
X0066757Y0027327D01*
X0068891Y0027327D01*
X0068891Y0013622D02*
X0066757Y0013622D01*
X0066757Y0015043D02*
X0068891Y0015043D01*
X0068891Y0016464D02*
X0066757Y0016464D01*
X0066757Y0017885D02*
X0068891Y0017885D01*
X0068891Y0019306D02*
X0066757Y0019306D01*
X0066757Y0020727D02*
X0068891Y0020727D01*
X0068891Y0022148D02*
X0066757Y0022148D01*
X0066757Y0023569D02*
X0068891Y0023569D01*
X0068891Y0024990D02*
X0066757Y0024990D01*
X0066757Y0026411D02*
X0068891Y0026411D01*
X0072828Y0027327D02*
X0072828Y0012201D01*
X0070694Y0012201D01*
X0070694Y0027327D01*
X0072828Y0027327D01*
X0072828Y0013622D02*
X0070694Y0013622D01*
X0070694Y0015043D02*
X0072828Y0015043D01*
X0072828Y0016464D02*
X0070694Y0016464D01*
X0070694Y0017885D02*
X0072828Y0017885D01*
X0072828Y0019306D02*
X0070694Y0019306D01*
X0070694Y0020727D02*
X0072828Y0020727D01*
X0072828Y0022148D02*
X0070694Y0022148D01*
X0070694Y0023569D02*
X0072828Y0023569D01*
X0072828Y0024990D02*
X0070694Y0024990D01*
X0070694Y0026411D02*
X0072828Y0026411D01*
X0076765Y0027327D02*
X0076765Y0012201D01*
X0074631Y0012201D01*
X0074631Y0027327D01*
X0076765Y0027327D01*
X0076765Y0013622D02*
X0074631Y0013622D01*
X0074631Y0015043D02*
X0076765Y0015043D01*
X0076765Y0016464D02*
X0074631Y0016464D01*
X0074631Y0017885D02*
X0076765Y0017885D01*
X0076765Y0019306D02*
X0074631Y0019306D01*
X0074631Y0020727D02*
X0076765Y0020727D01*
X0076765Y0022148D02*
X0074631Y0022148D01*
X0074631Y0023569D02*
X0076765Y0023569D01*
X0076765Y0024990D02*
X0074631Y0024990D01*
X0074631Y0026411D02*
X0076765Y0026411D01*
X0080702Y0027327D02*
X0080702Y0012201D01*
X0078568Y0012201D01*
X0078568Y0027327D01*
X0080702Y0027327D01*
X0080702Y0013622D02*
X0078568Y0013622D01*
X0078568Y0015043D02*
X0080702Y0015043D01*
X0080702Y0016464D02*
X0078568Y0016464D01*
X0078568Y0017885D02*
X0080702Y0017885D01*
X0080702Y0019306D02*
X0078568Y0019306D01*
X0078568Y0020727D02*
X0080702Y0020727D01*
X0080702Y0022148D02*
X0078568Y0022148D01*
X0078568Y0023569D02*
X0080702Y0023569D01*
X0080702Y0024990D02*
X0078568Y0024990D01*
X0078568Y0026411D02*
X0080702Y0026411D01*
X0092513Y0027327D02*
X0092513Y0012201D01*
X0090379Y0012201D01*
X0090379Y0027327D01*
X0092513Y0027327D01*
X0092513Y0013622D02*
X0090379Y0013622D01*
X0090379Y0015043D02*
X0092513Y0015043D01*
X0092513Y0016464D02*
X0090379Y0016464D01*
X0090379Y0017885D02*
X0092513Y0017885D01*
X0092513Y0019306D02*
X0090379Y0019306D01*
X0090379Y0020727D02*
X0092513Y0020727D01*
X0092513Y0022148D02*
X0090379Y0022148D01*
X0090379Y0023569D02*
X0092513Y0023569D01*
X0092513Y0024990D02*
X0090379Y0024990D01*
X0090379Y0026411D02*
X0092513Y0026411D01*
X0096450Y0027327D02*
X0096450Y0012201D01*
X0094316Y0012201D01*
X0094316Y0027327D01*
X0096450Y0027327D01*
X0096450Y0013622D02*
X0094316Y0013622D01*
X0094316Y0015043D02*
X0096450Y0015043D01*
X0096450Y0016464D02*
X0094316Y0016464D01*
X0094316Y0017885D02*
X0096450Y0017885D01*
X0096450Y0019306D02*
X0094316Y0019306D01*
X0094316Y0020727D02*
X0096450Y0020727D01*
X0096450Y0022148D02*
X0094316Y0022148D01*
X0094316Y0023569D02*
X0096450Y0023569D01*
X0096450Y0024990D02*
X0094316Y0024990D01*
X0094316Y0026411D02*
X0096450Y0026411D01*
X0100387Y0027327D02*
X0100387Y0012201D01*
X0098253Y0012201D01*
X0098253Y0027327D01*
X0100387Y0027327D01*
X0100387Y0013622D02*
X0098253Y0013622D01*
X0098253Y0015043D02*
X0100387Y0015043D01*
X0100387Y0016464D02*
X0098253Y0016464D01*
X0098253Y0017885D02*
X0100387Y0017885D01*
X0100387Y0019306D02*
X0098253Y0019306D01*
X0098253Y0020727D02*
X0100387Y0020727D01*
X0100387Y0022148D02*
X0098253Y0022148D01*
X0098253Y0023569D02*
X0100387Y0023569D01*
X0100387Y0024990D02*
X0098253Y0024990D01*
X0098253Y0026411D02*
X0100387Y0026411D01*
X0104324Y0027327D02*
X0104324Y0012201D01*
X0102190Y0012201D01*
X0102190Y0027327D01*
X0104324Y0027327D01*
X0104324Y0013622D02*
X0102190Y0013622D01*
X0102190Y0015043D02*
X0104324Y0015043D01*
X0104324Y0016464D02*
X0102190Y0016464D01*
X0102190Y0017885D02*
X0104324Y0017885D01*
X0104324Y0019306D02*
X0102190Y0019306D01*
X0102190Y0020727D02*
X0104324Y0020727D01*
X0104324Y0022148D02*
X0102190Y0022148D01*
X0102190Y0023569D02*
X0104324Y0023569D01*
X0104324Y0024990D02*
X0102190Y0024990D01*
X0102190Y0026411D02*
X0104324Y0026411D01*
X0108261Y0027327D02*
X0108261Y0012201D01*
X0106127Y0012201D01*
X0106127Y0027327D01*
X0108261Y0027327D01*
X0108261Y0013622D02*
X0106127Y0013622D01*
X0106127Y0015043D02*
X0108261Y0015043D01*
X0108261Y0016464D02*
X0106127Y0016464D01*
X0106127Y0017885D02*
X0108261Y0017885D01*
X0108261Y0019306D02*
X0106127Y0019306D01*
X0106127Y0020727D02*
X0108261Y0020727D01*
X0108261Y0022148D02*
X0106127Y0022148D01*
X0106127Y0023569D02*
X0108261Y0023569D01*
X0108261Y0024990D02*
X0106127Y0024990D01*
X0106127Y0026411D02*
X0108261Y0026411D01*
X0112198Y0027327D02*
X0112198Y0012201D01*
X0110064Y0012201D01*
X0110064Y0027327D01*
X0112198Y0027327D01*
X0112198Y0013622D02*
X0110064Y0013622D01*
X0110064Y0015043D02*
X0112198Y0015043D01*
X0112198Y0016464D02*
X0110064Y0016464D01*
X0110064Y0017885D02*
X0112198Y0017885D01*
X0112198Y0019306D02*
X0110064Y0019306D01*
X0110064Y0020727D02*
X0112198Y0020727D01*
X0112198Y0022148D02*
X0110064Y0022148D01*
X0110064Y0023569D02*
X0112198Y0023569D01*
X0112198Y0024990D02*
X0110064Y0024990D01*
X0110064Y0026411D02*
X0112198Y0026411D01*
X0116135Y0027327D02*
X0116135Y0012201D01*
X0114001Y0012201D01*
X0114001Y0027327D01*
X0116135Y0027327D01*
X0116135Y0013622D02*
X0114001Y0013622D01*
X0114001Y0015043D02*
X0116135Y0015043D01*
X0116135Y0016464D02*
X0114001Y0016464D01*
X0114001Y0017885D02*
X0116135Y0017885D01*
X0116135Y0019306D02*
X0114001Y0019306D01*
X0114001Y0020727D02*
X0116135Y0020727D01*
X0116135Y0022148D02*
X0114001Y0022148D01*
X0114001Y0023569D02*
X0116135Y0023569D01*
X0116135Y0024990D02*
X0114001Y0024990D01*
X0114001Y0026411D02*
X0116135Y0026411D01*
X0120072Y0027327D02*
X0120072Y0012201D01*
X0117938Y0012201D01*
X0117938Y0027327D01*
X0120072Y0027327D01*
X0120072Y0013622D02*
X0117938Y0013622D01*
X0117938Y0015043D02*
X0120072Y0015043D01*
X0120072Y0016464D02*
X0117938Y0016464D01*
X0117938Y0017885D02*
X0120072Y0017885D01*
X0120072Y0019306D02*
X0117938Y0019306D01*
X0117938Y0020727D02*
X0120072Y0020727D01*
X0120072Y0022148D02*
X0117938Y0022148D01*
X0117938Y0023569D02*
X0120072Y0023569D01*
X0120072Y0024990D02*
X0117938Y0024990D01*
X0117938Y0026411D02*
X0120072Y0026411D01*
X0124009Y0027327D02*
X0124009Y0012201D01*
X0121875Y0012201D01*
X0121875Y0027327D01*
X0124009Y0027327D01*
X0124009Y0013622D02*
X0121875Y0013622D01*
X0121875Y0015043D02*
X0124009Y0015043D01*
X0124009Y0016464D02*
X0121875Y0016464D01*
X0121875Y0017885D02*
X0124009Y0017885D01*
X0124009Y0019306D02*
X0121875Y0019306D01*
X0121875Y0020727D02*
X0124009Y0020727D01*
X0124009Y0022148D02*
X0121875Y0022148D01*
X0121875Y0023569D02*
X0124009Y0023569D01*
X0124009Y0024990D02*
X0121875Y0024990D01*
X0121875Y0026411D02*
X0124009Y0026411D01*
X0127946Y0027327D02*
X0127946Y0012201D01*
X0125812Y0012201D01*
X0125812Y0027327D01*
X0127946Y0027327D01*
X0127946Y0013622D02*
X0125812Y0013622D01*
X0125812Y0015043D02*
X0127946Y0015043D01*
X0127946Y0016464D02*
X0125812Y0016464D01*
X0125812Y0017885D02*
X0127946Y0017885D01*
X0127946Y0019306D02*
X0125812Y0019306D01*
X0125812Y0020727D02*
X0127946Y0020727D01*
X0127946Y0022148D02*
X0125812Y0022148D01*
X0125812Y0023569D02*
X0127946Y0023569D01*
X0127946Y0024990D02*
X0125812Y0024990D01*
X0125812Y0026411D02*
X0127946Y0026411D01*
X0131883Y0027327D02*
X0131883Y0012201D01*
X0129749Y0012201D01*
X0129749Y0027327D01*
X0131883Y0027327D01*
X0131883Y0013622D02*
X0129749Y0013622D01*
X0129749Y0015043D02*
X0131883Y0015043D01*
X0131883Y0016464D02*
X0129749Y0016464D01*
X0129749Y0017885D02*
X0131883Y0017885D01*
X0131883Y0019306D02*
X0129749Y0019306D01*
X0129749Y0020727D02*
X0131883Y0020727D01*
X0131883Y0022148D02*
X0129749Y0022148D01*
X0129749Y0023569D02*
X0131883Y0023569D01*
X0131883Y0024990D02*
X0129749Y0024990D01*
X0129749Y0026411D02*
X0131883Y0026411D01*
X0135820Y0027327D02*
X0135820Y0012201D01*
X0133686Y0012201D01*
X0133686Y0027327D01*
X0135820Y0027327D01*
X0135820Y0013622D02*
X0133686Y0013622D01*
X0133686Y0015043D02*
X0135820Y0015043D01*
X0135820Y0016464D02*
X0133686Y0016464D01*
X0133686Y0017885D02*
X0135820Y0017885D01*
X0135820Y0019306D02*
X0133686Y0019306D01*
X0133686Y0020727D02*
X0135820Y0020727D01*
X0135820Y0022148D02*
X0133686Y0022148D01*
X0133686Y0023569D02*
X0135820Y0023569D01*
X0135820Y0024990D02*
X0133686Y0024990D01*
X0133686Y0026411D02*
X0135820Y0026411D01*
X0139757Y0027327D02*
X0139757Y0012201D01*
X0137623Y0012201D01*
X0137623Y0027327D01*
X0139757Y0027327D01*
X0139757Y0013622D02*
X0137623Y0013622D01*
X0137623Y0015043D02*
X0139757Y0015043D01*
X0139757Y0016464D02*
X0137623Y0016464D01*
X0137623Y0017885D02*
X0139757Y0017885D01*
X0139757Y0019306D02*
X0137623Y0019306D01*
X0137623Y0020727D02*
X0139757Y0020727D01*
X0139757Y0022148D02*
X0137623Y0022148D01*
X0137623Y0023569D02*
X0139757Y0023569D01*
X0139757Y0024990D02*
X0137623Y0024990D01*
X0137623Y0026411D02*
X0139757Y0026411D01*
X0143694Y0027327D02*
X0143694Y0012201D01*
X0141560Y0012201D01*
X0141560Y0027327D01*
X0143694Y0027327D01*
X0143694Y0013622D02*
X0141560Y0013622D01*
X0141560Y0015043D02*
X0143694Y0015043D01*
X0143694Y0016464D02*
X0141560Y0016464D01*
X0141560Y0017885D02*
X0143694Y0017885D01*
X0143694Y0019306D02*
X0141560Y0019306D01*
X0141560Y0020727D02*
X0143694Y0020727D01*
X0143694Y0022148D02*
X0141560Y0022148D01*
X0141560Y0023569D02*
X0143694Y0023569D01*
X0143694Y0024990D02*
X0141560Y0024990D01*
X0141560Y0026411D02*
X0143694Y0026411D01*
X0147631Y0027327D02*
X0147631Y0012201D01*
X0145497Y0012201D01*
X0145497Y0027327D01*
X0147631Y0027327D01*
X0147631Y0013622D02*
X0145497Y0013622D01*
X0145497Y0015043D02*
X0147631Y0015043D01*
X0147631Y0016464D02*
X0145497Y0016464D01*
X0145497Y0017885D02*
X0147631Y0017885D01*
X0147631Y0019306D02*
X0145497Y0019306D01*
X0145497Y0020727D02*
X0147631Y0020727D01*
X0147631Y0022148D02*
X0145497Y0022148D01*
X0145497Y0023569D02*
X0147631Y0023569D01*
X0147631Y0024990D02*
X0145497Y0024990D01*
X0145497Y0026411D02*
X0147631Y0026411D01*
X0151568Y0027327D02*
X0151568Y0012201D01*
X0149434Y0012201D01*
X0149434Y0027327D01*
X0151568Y0027327D01*
X0151568Y0013622D02*
X0149434Y0013622D01*
X0149434Y0015043D02*
X0151568Y0015043D01*
X0151568Y0016464D02*
X0149434Y0016464D01*
X0149434Y0017885D02*
X0151568Y0017885D01*
X0151568Y0019306D02*
X0149434Y0019306D01*
X0149434Y0020727D02*
X0151568Y0020727D01*
X0151568Y0022148D02*
X0149434Y0022148D01*
X0149434Y0023569D02*
X0151568Y0023569D01*
X0151568Y0024990D02*
X0149434Y0024990D01*
X0149434Y0026411D02*
X0151568Y0026411D01*
X0155505Y0027327D02*
X0155505Y0012201D01*
X0153371Y0012201D01*
X0153371Y0027327D01*
X0155505Y0027327D01*
X0155505Y0013622D02*
X0153371Y0013622D01*
X0153371Y0015043D02*
X0155505Y0015043D01*
X0155505Y0016464D02*
X0153371Y0016464D01*
X0153371Y0017885D02*
X0155505Y0017885D01*
X0155505Y0019306D02*
X0153371Y0019306D01*
X0153371Y0020727D02*
X0155505Y0020727D01*
X0155505Y0022148D02*
X0153371Y0022148D01*
X0153371Y0023569D02*
X0155505Y0023569D01*
X0155505Y0024990D02*
X0153371Y0024990D01*
X0153371Y0026411D02*
X0155505Y0026411D01*
X0159442Y0027327D02*
X0159442Y0012201D01*
X0157308Y0012201D01*
X0157308Y0027327D01*
X0159442Y0027327D01*
X0159442Y0013622D02*
X0157308Y0013622D01*
X0157308Y0015043D02*
X0159442Y0015043D01*
X0159442Y0016464D02*
X0157308Y0016464D01*
X0157308Y0017885D02*
X0159442Y0017885D01*
X0159442Y0019306D02*
X0157308Y0019306D01*
X0157308Y0020727D02*
X0159442Y0020727D01*
X0159442Y0022148D02*
X0157308Y0022148D01*
X0157308Y0023569D02*
X0159442Y0023569D01*
X0159442Y0024990D02*
X0157308Y0024990D01*
X0157308Y0026411D02*
X0159442Y0026411D01*
X0163379Y0027327D02*
X0163379Y0012201D01*
X0161245Y0012201D01*
X0161245Y0027327D01*
X0163379Y0027327D01*
X0163379Y0013622D02*
X0161245Y0013622D01*
X0161245Y0015043D02*
X0163379Y0015043D01*
X0163379Y0016464D02*
X0161245Y0016464D01*
X0161245Y0017885D02*
X0163379Y0017885D01*
X0163379Y0019306D02*
X0161245Y0019306D01*
X0161245Y0020727D02*
X0163379Y0020727D01*
X0163379Y0022148D02*
X0161245Y0022148D01*
X0161245Y0023569D02*
X0163379Y0023569D01*
X0163379Y0024990D02*
X0161245Y0024990D01*
X0161245Y0026411D02*
X0163379Y0026411D01*
X0167316Y0027327D02*
X0167316Y0012201D01*
X0165182Y0012201D01*
X0165182Y0027327D01*
X0167316Y0027327D01*
X0167316Y0013622D02*
X0165182Y0013622D01*
X0165182Y0015043D02*
X0167316Y0015043D01*
X0167316Y0016464D02*
X0165182Y0016464D01*
X0165182Y0017885D02*
X0167316Y0017885D01*
X0167316Y0019306D02*
X0165182Y0019306D01*
X0165182Y0020727D02*
X0167316Y0020727D01*
X0167316Y0022148D02*
X0165182Y0022148D01*
X0165182Y0023569D02*
X0167316Y0023569D01*
X0167316Y0024990D02*
X0165182Y0024990D01*
X0165182Y0026411D02*
X0167316Y0026411D01*
X0171253Y0027327D02*
X0171253Y0012201D01*
X0169119Y0012201D01*
X0169119Y0027327D01*
X0171253Y0027327D01*
X0171253Y0013622D02*
X0169119Y0013622D01*
X0169119Y0015043D02*
X0171253Y0015043D01*
X0171253Y0016464D02*
X0169119Y0016464D01*
X0169119Y0017885D02*
X0171253Y0017885D01*
X0171253Y0019306D02*
X0169119Y0019306D01*
X0169119Y0020727D02*
X0171253Y0020727D01*
X0171253Y0022148D02*
X0169119Y0022148D01*
X0169119Y0023569D02*
X0171253Y0023569D01*
X0171253Y0024990D02*
X0169119Y0024990D01*
X0169119Y0026411D02*
X0171253Y0026411D01*
X0175190Y0027327D02*
X0175190Y0012201D01*
X0173056Y0012201D01*
X0173056Y0027327D01*
X0175190Y0027327D01*
X0175190Y0013622D02*
X0173056Y0013622D01*
X0173056Y0015043D02*
X0175190Y0015043D01*
X0175190Y0016464D02*
X0173056Y0016464D01*
X0173056Y0017885D02*
X0175190Y0017885D01*
X0175190Y0019306D02*
X0173056Y0019306D01*
X0173056Y0020727D02*
X0175190Y0020727D01*
X0175190Y0022148D02*
X0173056Y0022148D01*
X0173056Y0023569D02*
X0175190Y0023569D01*
X0175190Y0024990D02*
X0173056Y0024990D01*
X0173056Y0026411D02*
X0175190Y0026411D01*
X0179127Y0027327D02*
X0179127Y0012201D01*
X0176993Y0012201D01*
X0176993Y0027327D01*
X0179127Y0027327D01*
X0179127Y0013622D02*
X0176993Y0013622D01*
X0176993Y0015043D02*
X0179127Y0015043D01*
X0179127Y0016464D02*
X0176993Y0016464D01*
X0176993Y0017885D02*
X0179127Y0017885D01*
X0179127Y0019306D02*
X0176993Y0019306D01*
X0176993Y0020727D02*
X0179127Y0020727D01*
X0179127Y0022148D02*
X0176993Y0022148D01*
X0176993Y0023569D02*
X0179127Y0023569D01*
X0179127Y0024990D02*
X0176993Y0024990D01*
X0176993Y0026411D02*
X0179127Y0026411D01*
X0183064Y0027327D02*
X0183064Y0012201D01*
X0180930Y0012201D01*
X0180930Y0027327D01*
X0183064Y0027327D01*
X0183064Y0013622D02*
X0180930Y0013622D01*
X0180930Y0015043D02*
X0183064Y0015043D01*
X0183064Y0016464D02*
X0180930Y0016464D01*
X0180930Y0017885D02*
X0183064Y0017885D01*
X0183064Y0019306D02*
X0180930Y0019306D01*
X0180930Y0020727D02*
X0183064Y0020727D01*
X0183064Y0022148D02*
X0180930Y0022148D01*
X0180930Y0023569D02*
X0183064Y0023569D01*
X0183064Y0024990D02*
X0180930Y0024990D01*
X0180930Y0026411D02*
X0183064Y0026411D01*
X0187001Y0027327D02*
X0187001Y0012201D01*
X0184867Y0012201D01*
X0184867Y0027327D01*
X0187001Y0027327D01*
X0187001Y0013622D02*
X0184867Y0013622D01*
X0184867Y0015043D02*
X0187001Y0015043D01*
X0187001Y0016464D02*
X0184867Y0016464D01*
X0184867Y0017885D02*
X0187001Y0017885D01*
X0187001Y0019306D02*
X0184867Y0019306D01*
X0184867Y0020727D02*
X0187001Y0020727D01*
X0187001Y0022148D02*
X0184867Y0022148D01*
X0184867Y0023569D02*
X0187001Y0023569D01*
X0187001Y0024990D02*
X0184867Y0024990D01*
X0184867Y0026411D02*
X0187001Y0026411D01*
X0190938Y0027327D02*
X0190938Y0012201D01*
X0188804Y0012201D01*
X0188804Y0027327D01*
X0190938Y0027327D01*
X0190938Y0013622D02*
X0188804Y0013622D01*
X0188804Y0015043D02*
X0190938Y0015043D01*
X0190938Y0016464D02*
X0188804Y0016464D01*
X0188804Y0017885D02*
X0190938Y0017885D01*
X0190938Y0019306D02*
X0188804Y0019306D01*
X0188804Y0020727D02*
X0190938Y0020727D01*
X0190938Y0022148D02*
X0188804Y0022148D01*
X0188804Y0023569D02*
X0190938Y0023569D01*
X0190938Y0024990D02*
X0188804Y0024990D01*
X0188804Y0026411D02*
X0190938Y0026411D01*
X0194875Y0027327D02*
X0194875Y0012201D01*
X0192741Y0012201D01*
X0192741Y0027327D01*
X0194875Y0027327D01*
X0194875Y0013622D02*
X0192741Y0013622D01*
X0192741Y0015043D02*
X0194875Y0015043D01*
X0194875Y0016464D02*
X0192741Y0016464D01*
X0192741Y0017885D02*
X0194875Y0017885D01*
X0194875Y0019306D02*
X0192741Y0019306D01*
X0192741Y0020727D02*
X0194875Y0020727D01*
X0194875Y0022148D02*
X0192741Y0022148D01*
X0192741Y0023569D02*
X0194875Y0023569D01*
X0194875Y0024990D02*
X0192741Y0024990D01*
X0192741Y0026411D02*
X0194875Y0026411D01*
X0198812Y0027327D02*
X0198812Y0012201D01*
X0196678Y0012201D01*
X0196678Y0027327D01*
X0198812Y0027327D01*
X0198812Y0013622D02*
X0196678Y0013622D01*
X0196678Y0015043D02*
X0198812Y0015043D01*
X0198812Y0016464D02*
X0196678Y0016464D01*
X0196678Y0017885D02*
X0198812Y0017885D01*
X0198812Y0019306D02*
X0196678Y0019306D01*
X0196678Y0020727D02*
X0198812Y0020727D01*
X0198812Y0022148D02*
X0196678Y0022148D01*
X0196678Y0023569D02*
X0198812Y0023569D01*
X0198812Y0024990D02*
X0196678Y0024990D01*
X0196678Y0026411D02*
X0198812Y0026411D01*
X0202749Y0027327D02*
X0202749Y0012201D01*
X0200615Y0012201D01*
X0200615Y0027327D01*
X0202749Y0027327D01*
X0202749Y0013622D02*
X0200615Y0013622D01*
X0200615Y0015043D02*
X0202749Y0015043D01*
X0202749Y0016464D02*
X0200615Y0016464D01*
X0200615Y0017885D02*
X0202749Y0017885D01*
X0202749Y0019306D02*
X0200615Y0019306D01*
X0200615Y0020727D02*
X0202749Y0020727D01*
X0202749Y0022148D02*
X0200615Y0022148D01*
X0200615Y0023569D02*
X0202749Y0023569D01*
X0202749Y0024990D02*
X0200615Y0024990D01*
X0200615Y0026411D02*
X0202749Y0026411D01*
X0206686Y0027327D02*
X0206686Y0012201D01*
X0204552Y0012201D01*
X0204552Y0027327D01*
X0206686Y0027327D01*
X0206686Y0013622D02*
X0204552Y0013622D01*
X0204552Y0015043D02*
X0206686Y0015043D01*
X0206686Y0016464D02*
X0204552Y0016464D01*
X0204552Y0017885D02*
X0206686Y0017885D01*
X0206686Y0019306D02*
X0204552Y0019306D01*
X0204552Y0020727D02*
X0206686Y0020727D01*
X0206686Y0022148D02*
X0204552Y0022148D01*
X0204552Y0023569D02*
X0206686Y0023569D01*
X0206686Y0024990D02*
X0204552Y0024990D01*
X0204552Y0026411D02*
X0206686Y0026411D01*
X0210623Y0027327D02*
X0210623Y0012201D01*
X0208489Y0012201D01*
X0208489Y0027327D01*
X0210623Y0027327D01*
X0210623Y0013622D02*
X0208489Y0013622D01*
X0208489Y0015043D02*
X0210623Y0015043D01*
X0210623Y0016464D02*
X0208489Y0016464D01*
X0208489Y0017885D02*
X0210623Y0017885D01*
X0210623Y0019306D02*
X0208489Y0019306D01*
X0208489Y0020727D02*
X0210623Y0020727D01*
X0210623Y0022148D02*
X0208489Y0022148D01*
X0208489Y0023569D02*
X0210623Y0023569D01*
X0210623Y0024990D02*
X0208489Y0024990D01*
X0208489Y0026411D02*
X0210623Y0026411D01*
X0214560Y0027327D02*
X0214560Y0012201D01*
X0212426Y0012201D01*
X0212426Y0027327D01*
X0214560Y0027327D01*
X0214560Y0013622D02*
X0212426Y0013622D01*
X0212426Y0015043D02*
X0214560Y0015043D01*
X0214560Y0016464D02*
X0212426Y0016464D01*
X0212426Y0017885D02*
X0214560Y0017885D01*
X0214560Y0019306D02*
X0212426Y0019306D01*
X0212426Y0020727D02*
X0214560Y0020727D01*
X0214560Y0022148D02*
X0212426Y0022148D01*
X0212426Y0023569D02*
X0214560Y0023569D01*
X0214560Y0024990D02*
X0212426Y0024990D01*
X0212426Y0026411D02*
X0214560Y0026411D01*
X0218497Y0027327D02*
X0218497Y0012201D01*
X0216363Y0012201D01*
X0216363Y0027327D01*
X0218497Y0027327D01*
X0218497Y0013622D02*
X0216363Y0013622D01*
X0216363Y0015043D02*
X0218497Y0015043D01*
X0218497Y0016464D02*
X0216363Y0016464D01*
X0216363Y0017885D02*
X0218497Y0017885D01*
X0218497Y0019306D02*
X0216363Y0019306D01*
X0216363Y0020727D02*
X0218497Y0020727D01*
X0218497Y0022148D02*
X0216363Y0022148D01*
X0216363Y0023569D02*
X0218497Y0023569D01*
X0218497Y0024990D02*
X0216363Y0024990D01*
X0216363Y0026411D02*
X0218497Y0026411D01*
X0222434Y0027327D02*
X0222434Y0012201D01*
X0220300Y0012201D01*
X0220300Y0027327D01*
X0222434Y0027327D01*
X0222434Y0013622D02*
X0220300Y0013622D01*
X0220300Y0015043D02*
X0222434Y0015043D01*
X0222434Y0016464D02*
X0220300Y0016464D01*
X0220300Y0017885D02*
X0222434Y0017885D01*
X0222434Y0019306D02*
X0220300Y0019306D01*
X0220300Y0020727D02*
X0222434Y0020727D01*
X0222434Y0022148D02*
X0220300Y0022148D01*
X0220300Y0023569D02*
X0222434Y0023569D01*
X0222434Y0024990D02*
X0220300Y0024990D01*
X0220300Y0026411D02*
X0222434Y0026411D01*
X0226371Y0027327D02*
X0226371Y0012201D01*
X0224237Y0012201D01*
X0224237Y0027327D01*
X0226371Y0027327D01*
X0226371Y0013622D02*
X0224237Y0013622D01*
X0224237Y0015043D02*
X0226371Y0015043D01*
X0226371Y0016464D02*
X0224237Y0016464D01*
X0224237Y0017885D02*
X0226371Y0017885D01*
X0226371Y0019306D02*
X0224237Y0019306D01*
X0224237Y0020727D02*
X0226371Y0020727D01*
X0226371Y0022148D02*
X0224237Y0022148D01*
X0224237Y0023569D02*
X0226371Y0023569D01*
X0226371Y0024990D02*
X0224237Y0024990D01*
X0224237Y0026411D02*
X0226371Y0026411D01*
X0230308Y0027327D02*
X0230308Y0012201D01*
X0228174Y0012201D01*
X0228174Y0027327D01*
X0230308Y0027327D01*
X0230308Y0013622D02*
X0228174Y0013622D01*
X0228174Y0015043D02*
X0230308Y0015043D01*
X0230308Y0016464D02*
X0228174Y0016464D01*
X0228174Y0017885D02*
X0230308Y0017885D01*
X0230308Y0019306D02*
X0228174Y0019306D01*
X0228174Y0020727D02*
X0230308Y0020727D01*
X0230308Y0022148D02*
X0228174Y0022148D01*
X0228174Y0023569D02*
X0230308Y0023569D01*
X0230308Y0024990D02*
X0228174Y0024990D01*
X0228174Y0026411D02*
X0230308Y0026411D01*
X0234245Y0027327D02*
X0234245Y0012201D01*
X0232111Y0012201D01*
X0232111Y0027327D01*
X0234245Y0027327D01*
X0234245Y0013622D02*
X0232111Y0013622D01*
X0232111Y0015043D02*
X0234245Y0015043D01*
X0234245Y0016464D02*
X0232111Y0016464D01*
X0232111Y0017885D02*
X0234245Y0017885D01*
X0234245Y0019306D02*
X0232111Y0019306D01*
X0232111Y0020727D02*
X0234245Y0020727D01*
X0234245Y0022148D02*
X0232111Y0022148D01*
X0232111Y0023569D02*
X0234245Y0023569D01*
X0234245Y0024990D02*
X0232111Y0024990D01*
X0232111Y0026411D02*
X0234245Y0026411D01*
X0238182Y0027327D02*
X0238182Y0012201D01*
X0236048Y0012201D01*
X0236048Y0027327D01*
X0238182Y0027327D01*
X0238182Y0013622D02*
X0236048Y0013622D01*
X0236048Y0015043D02*
X0238182Y0015043D01*
X0238182Y0016464D02*
X0236048Y0016464D01*
X0236048Y0017885D02*
X0238182Y0017885D01*
X0238182Y0019306D02*
X0236048Y0019306D01*
X0236048Y0020727D02*
X0238182Y0020727D01*
X0238182Y0022148D02*
X0236048Y0022148D01*
X0236048Y0023569D02*
X0238182Y0023569D01*
X0238182Y0024990D02*
X0236048Y0024990D01*
X0236048Y0026411D02*
X0238182Y0026411D01*
X0242119Y0027327D02*
X0242119Y0012201D01*
X0239985Y0012201D01*
X0239985Y0027327D01*
X0242119Y0027327D01*
X0242119Y0013622D02*
X0239985Y0013622D01*
X0239985Y0015043D02*
X0242119Y0015043D01*
X0242119Y0016464D02*
X0239985Y0016464D01*
X0239985Y0017885D02*
X0242119Y0017885D01*
X0242119Y0019306D02*
X0239985Y0019306D01*
X0239985Y0020727D02*
X0242119Y0020727D01*
X0242119Y0022148D02*
X0239985Y0022148D01*
X0239985Y0023569D02*
X0242119Y0023569D01*
X0242119Y0024990D02*
X0239985Y0024990D01*
X0239985Y0026411D02*
X0242119Y0026411D01*
X0246056Y0027327D02*
X0246056Y0012201D01*
X0243922Y0012201D01*
X0243922Y0027327D01*
X0246056Y0027327D01*
X0246056Y0013622D02*
X0243922Y0013622D01*
X0243922Y0015043D02*
X0246056Y0015043D01*
X0246056Y0016464D02*
X0243922Y0016464D01*
X0243922Y0017885D02*
X0246056Y0017885D01*
X0246056Y0019306D02*
X0243922Y0019306D01*
X0243922Y0020727D02*
X0246056Y0020727D01*
X0246056Y0022148D02*
X0243922Y0022148D01*
X0243922Y0023569D02*
X0246056Y0023569D01*
X0246056Y0024990D02*
X0243922Y0024990D01*
X0243922Y0026411D02*
X0246056Y0026411D01*
X0249993Y0027327D02*
X0249993Y0012201D01*
X0247859Y0012201D01*
X0247859Y0027327D01*
X0249993Y0027327D01*
X0249993Y0013622D02*
X0247859Y0013622D01*
X0247859Y0015043D02*
X0249993Y0015043D01*
X0249993Y0016464D02*
X0247859Y0016464D01*
X0247859Y0017885D02*
X0249993Y0017885D01*
X0249993Y0019306D02*
X0247859Y0019306D01*
X0247859Y0020727D02*
X0249993Y0020727D01*
X0249993Y0022148D02*
X0247859Y0022148D01*
X0247859Y0023569D02*
X0249993Y0023569D01*
X0249993Y0024990D02*
X0247859Y0024990D01*
X0247859Y0026411D02*
X0249993Y0026411D01*
X0253930Y0027327D02*
X0253930Y0012201D01*
X0251796Y0012201D01*
X0251796Y0027327D01*
X0253930Y0027327D01*
X0253930Y0013622D02*
X0251796Y0013622D01*
X0251796Y0015043D02*
X0253930Y0015043D01*
X0253930Y0016464D02*
X0251796Y0016464D01*
X0251796Y0017885D02*
X0253930Y0017885D01*
X0253930Y0019306D02*
X0251796Y0019306D01*
X0251796Y0020727D02*
X0253930Y0020727D01*
X0253930Y0022148D02*
X0251796Y0022148D01*
X0251796Y0023569D02*
X0253930Y0023569D01*
X0253930Y0024990D02*
X0251796Y0024990D01*
X0251796Y0026411D02*
X0253930Y0026411D01*
X0257867Y0027327D02*
X0257867Y0012201D01*
X0255733Y0012201D01*
X0255733Y0027327D01*
X0257867Y0027327D01*
X0257867Y0013622D02*
X0255733Y0013622D01*
X0255733Y0015043D02*
X0257867Y0015043D01*
X0257867Y0016464D02*
X0255733Y0016464D01*
X0255733Y0017885D02*
X0257867Y0017885D01*
X0257867Y0019306D02*
X0255733Y0019306D01*
X0255733Y0020727D02*
X0257867Y0020727D01*
X0257867Y0022148D02*
X0255733Y0022148D01*
X0255733Y0023569D02*
X0257867Y0023569D01*
X0257867Y0024990D02*
X0255733Y0024990D01*
X0255733Y0026411D02*
X0257867Y0026411D01*
X0261804Y0027327D02*
X0261804Y0012201D01*
X0259670Y0012201D01*
X0259670Y0027327D01*
X0261804Y0027327D01*
X0261804Y0013622D02*
X0259670Y0013622D01*
X0259670Y0015043D02*
X0261804Y0015043D01*
X0261804Y0016464D02*
X0259670Y0016464D01*
X0259670Y0017885D02*
X0261804Y0017885D01*
X0261804Y0019306D02*
X0259670Y0019306D01*
X0259670Y0020727D02*
X0261804Y0020727D01*
X0261804Y0022148D02*
X0259670Y0022148D01*
X0259670Y0023569D02*
X0261804Y0023569D01*
X0261804Y0024990D02*
X0259670Y0024990D01*
X0259670Y0026411D02*
X0261804Y0026411D01*
X0265741Y0027327D02*
X0265741Y0012201D01*
X0263607Y0012201D01*
X0263607Y0027327D01*
X0265741Y0027327D01*
X0265741Y0013622D02*
X0263607Y0013622D01*
X0263607Y0015043D02*
X0265741Y0015043D01*
X0265741Y0016464D02*
X0263607Y0016464D01*
X0263607Y0017885D02*
X0265741Y0017885D01*
X0265741Y0019306D02*
X0263607Y0019306D01*
X0263607Y0020727D02*
X0265741Y0020727D01*
X0265741Y0022148D02*
X0263607Y0022148D01*
X0263607Y0023569D02*
X0265741Y0023569D01*
X0265741Y0024990D02*
X0263607Y0024990D01*
X0263607Y0026411D02*
X0265741Y0026411D01*
X0269678Y0027327D02*
X0269678Y0012201D01*
X0267544Y0012201D01*
X0267544Y0027327D01*
X0269678Y0027327D01*
X0269678Y0013622D02*
X0267544Y0013622D01*
X0267544Y0015043D02*
X0269678Y0015043D01*
X0269678Y0016464D02*
X0267544Y0016464D01*
X0267544Y0017885D02*
X0269678Y0017885D01*
X0269678Y0019306D02*
X0267544Y0019306D01*
X0267544Y0020727D02*
X0269678Y0020727D01*
X0269678Y0022148D02*
X0267544Y0022148D01*
X0267544Y0023569D02*
X0269678Y0023569D01*
X0269678Y0024990D02*
X0267544Y0024990D01*
X0267544Y0026411D02*
X0269678Y0026411D01*
X0273615Y0027327D02*
X0273615Y0012201D01*
X0271481Y0012201D01*
X0271481Y0027327D01*
X0273615Y0027327D01*
X0273615Y0013622D02*
X0271481Y0013622D01*
X0271481Y0015043D02*
X0273615Y0015043D01*
X0273615Y0016464D02*
X0271481Y0016464D01*
X0271481Y0017885D02*
X0273615Y0017885D01*
X0273615Y0019306D02*
X0271481Y0019306D01*
X0271481Y0020727D02*
X0273615Y0020727D01*
X0273615Y0022148D02*
X0271481Y0022148D01*
X0271481Y0023569D02*
X0273615Y0023569D01*
X0273615Y0024990D02*
X0271481Y0024990D01*
X0271481Y0026411D02*
X0273615Y0026411D01*
X0277552Y0027327D02*
X0277552Y0012201D01*
X0275418Y0012201D01*
X0275418Y0027327D01*
X0277552Y0027327D01*
X0277552Y0013622D02*
X0275418Y0013622D01*
X0275418Y0015043D02*
X0277552Y0015043D01*
X0277552Y0016464D02*
X0275418Y0016464D01*
X0275418Y0017885D02*
X0277552Y0017885D01*
X0277552Y0019306D02*
X0275418Y0019306D01*
X0275418Y0020727D02*
X0277552Y0020727D01*
X0277552Y0022148D02*
X0275418Y0022148D01*
X0275418Y0023569D02*
X0277552Y0023569D01*
X0277552Y0024990D02*
X0275418Y0024990D01*
X0275418Y0026411D02*
X0277552Y0026411D01*
X0281489Y0027327D02*
X0281489Y0012201D01*
X0279355Y0012201D01*
X0279355Y0027327D01*
X0281489Y0027327D01*
X0281489Y0013622D02*
X0279355Y0013622D01*
X0279355Y0015043D02*
X0281489Y0015043D01*
X0281489Y0016464D02*
X0279355Y0016464D01*
X0279355Y0017885D02*
X0281489Y0017885D01*
X0281489Y0019306D02*
X0279355Y0019306D01*
X0279355Y0020727D02*
X0281489Y0020727D01*
X0281489Y0022148D02*
X0279355Y0022148D01*
X0279355Y0023569D02*
X0281489Y0023569D01*
X0281489Y0024990D02*
X0279355Y0024990D01*
X0279355Y0026411D02*
X0281489Y0026411D01*
X0285426Y0027327D02*
X0285426Y0012201D01*
X0283292Y0012201D01*
X0283292Y0027327D01*
X0285426Y0027327D01*
X0285426Y0013622D02*
X0283292Y0013622D01*
X0283292Y0015043D02*
X0285426Y0015043D01*
X0285426Y0016464D02*
X0283292Y0016464D01*
X0283292Y0017885D02*
X0285426Y0017885D01*
X0285426Y0019306D02*
X0283292Y0019306D01*
X0283292Y0020727D02*
X0285426Y0020727D01*
X0285426Y0022148D02*
X0283292Y0022148D01*
X0283292Y0023569D02*
X0285426Y0023569D01*
X0285426Y0024990D02*
X0283292Y0024990D01*
X0283292Y0026411D02*
X0285426Y0026411D01*
X0289363Y0027327D02*
X0289363Y0012201D01*
X0287229Y0012201D01*
X0287229Y0027327D01*
X0289363Y0027327D01*
X0289363Y0013622D02*
X0287229Y0013622D01*
X0287229Y0015043D02*
X0289363Y0015043D01*
X0289363Y0016464D02*
X0287229Y0016464D01*
X0287229Y0017885D02*
X0289363Y0017885D01*
X0289363Y0019306D02*
X0287229Y0019306D01*
X0287229Y0020727D02*
X0289363Y0020727D01*
X0289363Y0022148D02*
X0287229Y0022148D01*
X0287229Y0023569D02*
X0289363Y0023569D01*
X0289363Y0024990D02*
X0287229Y0024990D01*
X0287229Y0026411D02*
X0289363Y0026411D01*
X0293300Y0027327D02*
X0293300Y0012201D01*
X0291166Y0012201D01*
X0291166Y0027327D01*
X0293300Y0027327D01*
X0293300Y0013622D02*
X0291166Y0013622D01*
X0291166Y0015043D02*
X0293300Y0015043D01*
X0293300Y0016464D02*
X0291166Y0016464D01*
X0291166Y0017885D02*
X0293300Y0017885D01*
X0293300Y0019306D02*
X0291166Y0019306D01*
X0291166Y0020727D02*
X0293300Y0020727D01*
X0293300Y0022148D02*
X0291166Y0022148D01*
X0291166Y0023569D02*
X0293300Y0023569D01*
X0293300Y0024990D02*
X0291166Y0024990D01*
X0291166Y0026411D02*
X0293300Y0026411D01*
X0297237Y0027327D02*
X0297237Y0012201D01*
X0295103Y0012201D01*
X0295103Y0027327D01*
X0297237Y0027327D01*
X0297237Y0013622D02*
X0295103Y0013622D01*
X0295103Y0015043D02*
X0297237Y0015043D01*
X0297237Y0016464D02*
X0295103Y0016464D01*
X0295103Y0017885D02*
X0297237Y0017885D01*
X0297237Y0019306D02*
X0295103Y0019306D01*
X0295103Y0020727D02*
X0297237Y0020727D01*
X0297237Y0022148D02*
X0295103Y0022148D01*
X0295103Y0023569D02*
X0297237Y0023569D01*
X0297237Y0024990D02*
X0295103Y0024990D01*
X0295103Y0026411D02*
X0297237Y0026411D01*
X0301174Y0027327D02*
X0301174Y0012201D01*
X0299040Y0012201D01*
X0299040Y0027327D01*
X0301174Y0027327D01*
X0301174Y0013622D02*
X0299040Y0013622D01*
X0299040Y0015043D02*
X0301174Y0015043D01*
X0301174Y0016464D02*
X0299040Y0016464D01*
X0299040Y0017885D02*
X0301174Y0017885D01*
X0301174Y0019306D02*
X0299040Y0019306D01*
X0299040Y0020727D02*
X0301174Y0020727D01*
X0301174Y0022148D02*
X0299040Y0022148D01*
X0299040Y0023569D02*
X0301174Y0023569D01*
X0301174Y0024990D02*
X0299040Y0024990D01*
X0299040Y0026411D02*
X0301174Y0026411D01*
X0305111Y0027327D02*
X0305111Y0012201D01*
X0302977Y0012201D01*
X0302977Y0027327D01*
X0305111Y0027327D01*
X0305111Y0013622D02*
X0302977Y0013622D01*
X0302977Y0015043D02*
X0305111Y0015043D01*
X0305111Y0016464D02*
X0302977Y0016464D01*
X0302977Y0017885D02*
X0305111Y0017885D01*
X0305111Y0019306D02*
X0302977Y0019306D01*
X0302977Y0020727D02*
X0305111Y0020727D01*
X0305111Y0022148D02*
X0302977Y0022148D01*
X0302977Y0023569D02*
X0305111Y0023569D01*
X0305111Y0024990D02*
X0302977Y0024990D01*
X0302977Y0026411D02*
X0305111Y0026411D01*
X0309048Y0027327D02*
X0309048Y0012201D01*
X0306914Y0012201D01*
X0306914Y0027327D01*
X0309048Y0027327D01*
X0309048Y0013622D02*
X0306914Y0013622D01*
X0306914Y0015043D02*
X0309048Y0015043D01*
X0309048Y0016464D02*
X0306914Y0016464D01*
X0306914Y0017885D02*
X0309048Y0017885D01*
X0309048Y0019306D02*
X0306914Y0019306D01*
X0306914Y0020727D02*
X0309048Y0020727D01*
X0309048Y0022148D02*
X0306914Y0022148D01*
X0306914Y0023569D02*
X0309048Y0023569D01*
X0309048Y0024990D02*
X0306914Y0024990D01*
X0306914Y0026411D02*
X0309048Y0026411D01*
X0312985Y0027327D02*
X0312985Y0012201D01*
X0310851Y0012201D01*
X0310851Y0027327D01*
X0312985Y0027327D01*
X0312985Y0013622D02*
X0310851Y0013622D01*
X0310851Y0015043D02*
X0312985Y0015043D01*
X0312985Y0016464D02*
X0310851Y0016464D01*
X0310851Y0017885D02*
X0312985Y0017885D01*
X0312985Y0019306D02*
X0310851Y0019306D01*
X0310851Y0020727D02*
X0312985Y0020727D01*
X0312985Y0022148D02*
X0310851Y0022148D01*
X0310851Y0023569D02*
X0312985Y0023569D01*
X0312985Y0024990D02*
X0310851Y0024990D01*
X0310851Y0026411D02*
X0312985Y0026411D01*
X0316922Y0027327D02*
X0316922Y0012201D01*
X0314788Y0012201D01*
X0314788Y0027327D01*
X0316922Y0027327D01*
X0316922Y0013622D02*
X0314788Y0013622D01*
X0314788Y0015043D02*
X0316922Y0015043D01*
X0316922Y0016464D02*
X0314788Y0016464D01*
X0314788Y0017885D02*
X0316922Y0017885D01*
X0316922Y0019306D02*
X0314788Y0019306D01*
X0314788Y0020727D02*
X0316922Y0020727D01*
X0316922Y0022148D02*
X0314788Y0022148D01*
X0314788Y0023569D02*
X0316922Y0023569D01*
X0316922Y0024990D02*
X0314788Y0024990D01*
X0314788Y0026411D02*
X0316922Y0026411D01*
X0320859Y0027327D02*
X0320859Y0012201D01*
X0318725Y0012201D01*
X0318725Y0027327D01*
X0320859Y0027327D01*
X0320859Y0013622D02*
X0318725Y0013622D01*
X0318725Y0015043D02*
X0320859Y0015043D01*
X0320859Y0016464D02*
X0318725Y0016464D01*
X0318725Y0017885D02*
X0320859Y0017885D01*
X0320859Y0019306D02*
X0318725Y0019306D01*
X0318725Y0020727D02*
X0320859Y0020727D01*
X0320859Y0022148D02*
X0318725Y0022148D01*
X0318725Y0023569D02*
X0320859Y0023569D01*
X0320859Y0024990D02*
X0318725Y0024990D01*
X0318725Y0026411D02*
X0320859Y0026411D01*
X0324796Y0027327D02*
X0324796Y0012201D01*
X0322662Y0012201D01*
X0322662Y0027327D01*
X0324796Y0027327D01*
X0324796Y0013622D02*
X0322662Y0013622D01*
X0322662Y0015043D02*
X0324796Y0015043D01*
X0324796Y0016464D02*
X0322662Y0016464D01*
X0322662Y0017885D02*
X0324796Y0017885D01*
X0324796Y0019306D02*
X0322662Y0019306D01*
X0322662Y0020727D02*
X0324796Y0020727D01*
X0324796Y0022148D02*
X0322662Y0022148D01*
X0322662Y0023569D02*
X0324796Y0023569D01*
X0324796Y0024990D02*
X0322662Y0024990D01*
X0322662Y0026411D02*
X0324796Y0026411D01*
X0328733Y0027327D02*
X0328733Y0012201D01*
X0326599Y0012201D01*
X0326599Y0027327D01*
X0328733Y0027327D01*
X0328733Y0013622D02*
X0326599Y0013622D01*
X0326599Y0015043D02*
X0328733Y0015043D01*
X0328733Y0016464D02*
X0326599Y0016464D01*
X0326599Y0017885D02*
X0328733Y0017885D01*
X0328733Y0019306D02*
X0326599Y0019306D01*
X0326599Y0020727D02*
X0328733Y0020727D01*
X0328733Y0022148D02*
X0326599Y0022148D01*
X0326599Y0023569D02*
X0328733Y0023569D01*
X0328733Y0024990D02*
X0326599Y0024990D01*
X0326599Y0026411D02*
X0328733Y0026411D01*
X0332670Y0027327D02*
X0332670Y0012201D01*
X0330536Y0012201D01*
X0330536Y0027327D01*
X0332670Y0027327D01*
X0332670Y0013622D02*
X0330536Y0013622D01*
X0330536Y0015043D02*
X0332670Y0015043D01*
X0332670Y0016464D02*
X0330536Y0016464D01*
X0330536Y0017885D02*
X0332670Y0017885D01*
X0332670Y0019306D02*
X0330536Y0019306D01*
X0330536Y0020727D02*
X0332670Y0020727D01*
X0332670Y0022148D02*
X0330536Y0022148D01*
X0330536Y0023569D02*
X0332670Y0023569D01*
X0332670Y0024990D02*
X0330536Y0024990D01*
X0330536Y0026411D02*
X0332670Y0026411D01*
X0336607Y0027327D02*
X0336607Y0012201D01*
X0334473Y0012201D01*
X0334473Y0027327D01*
X0336607Y0027327D01*
X0336607Y0013622D02*
X0334473Y0013622D01*
X0334473Y0015043D02*
X0336607Y0015043D01*
X0336607Y0016464D02*
X0334473Y0016464D01*
X0334473Y0017885D02*
X0336607Y0017885D01*
X0336607Y0019306D02*
X0334473Y0019306D01*
X0334473Y0020727D02*
X0336607Y0020727D01*
X0336607Y0022148D02*
X0334473Y0022148D01*
X0334473Y0023569D02*
X0336607Y0023569D01*
X0336607Y0024990D02*
X0334473Y0024990D01*
X0334473Y0026411D02*
X0336607Y0026411D01*
X0340544Y0027327D02*
X0340544Y0012201D01*
X0338410Y0012201D01*
X0338410Y0027327D01*
X0340544Y0027327D01*
X0340544Y0013622D02*
X0338410Y0013622D01*
X0338410Y0015043D02*
X0340544Y0015043D01*
X0340544Y0016464D02*
X0338410Y0016464D01*
X0338410Y0017885D02*
X0340544Y0017885D01*
X0340544Y0019306D02*
X0338410Y0019306D01*
X0338410Y0020727D02*
X0340544Y0020727D01*
X0340544Y0022148D02*
X0338410Y0022148D01*
X0338410Y0023569D02*
X0340544Y0023569D01*
X0340544Y0024990D02*
X0338410Y0024990D01*
X0338410Y0026411D02*
X0340544Y0026411D01*
X0344481Y0027327D02*
X0344481Y0012201D01*
X0342347Y0012201D01*
X0342347Y0027327D01*
X0344481Y0027327D01*
X0344481Y0013622D02*
X0342347Y0013622D01*
X0342347Y0015043D02*
X0344481Y0015043D01*
X0344481Y0016464D02*
X0342347Y0016464D01*
X0342347Y0017885D02*
X0344481Y0017885D01*
X0344481Y0019306D02*
X0342347Y0019306D01*
X0342347Y0020727D02*
X0344481Y0020727D01*
X0344481Y0022148D02*
X0342347Y0022148D01*
X0342347Y0023569D02*
X0344481Y0023569D01*
X0344481Y0024990D02*
X0342347Y0024990D01*
X0342347Y0026411D02*
X0344481Y0026411D01*
X0348418Y0027327D02*
X0348418Y0012201D01*
X0346284Y0012201D01*
X0346284Y0027327D01*
X0348418Y0027327D01*
X0348418Y0013622D02*
X0346284Y0013622D01*
X0346284Y0015043D02*
X0348418Y0015043D01*
X0348418Y0016464D02*
X0346284Y0016464D01*
X0346284Y0017885D02*
X0348418Y0017885D01*
X0348418Y0019306D02*
X0346284Y0019306D01*
X0346284Y0020727D02*
X0348418Y0020727D01*
X0348418Y0022148D02*
X0346284Y0022148D01*
X0346284Y0023569D02*
X0348418Y0023569D01*
X0348418Y0024990D02*
X0346284Y0024990D01*
X0346284Y0026411D02*
X0348418Y0026411D01*
X0352355Y0027327D02*
X0352355Y0012201D01*
X0350221Y0012201D01*
X0350221Y0027327D01*
X0352355Y0027327D01*
X0352355Y0013622D02*
X0350221Y0013622D01*
X0350221Y0015043D02*
X0352355Y0015043D01*
X0352355Y0016464D02*
X0350221Y0016464D01*
X0350221Y0017885D02*
X0352355Y0017885D01*
X0352355Y0019306D02*
X0350221Y0019306D01*
X0350221Y0020727D02*
X0352355Y0020727D01*
X0352355Y0022148D02*
X0350221Y0022148D01*
X0350221Y0023569D02*
X0352355Y0023569D01*
X0352355Y0024990D02*
X0350221Y0024990D01*
X0350221Y0026411D02*
X0352355Y0026411D01*
X0356292Y0027327D02*
X0356292Y0012201D01*
X0354158Y0012201D01*
X0354158Y0027327D01*
X0356292Y0027327D01*
X0356292Y0013622D02*
X0354158Y0013622D01*
X0354158Y0015043D02*
X0356292Y0015043D01*
X0356292Y0016464D02*
X0354158Y0016464D01*
X0354158Y0017885D02*
X0356292Y0017885D01*
X0356292Y0019306D02*
X0354158Y0019306D01*
X0354158Y0020727D02*
X0356292Y0020727D01*
X0356292Y0022148D02*
X0354158Y0022148D01*
X0354158Y0023569D02*
X0356292Y0023569D01*
X0356292Y0024990D02*
X0354158Y0024990D01*
X0354158Y0026411D02*
X0356292Y0026411D01*
X0360229Y0027327D02*
X0360229Y0012201D01*
X0358095Y0012201D01*
X0358095Y0027327D01*
X0360229Y0027327D01*
X0360229Y0013622D02*
X0358095Y0013622D01*
X0358095Y0015043D02*
X0360229Y0015043D01*
X0360229Y0016464D02*
X0358095Y0016464D01*
X0358095Y0017885D02*
X0360229Y0017885D01*
X0360229Y0019306D02*
X0358095Y0019306D01*
X0358095Y0020727D02*
X0360229Y0020727D01*
X0360229Y0022148D02*
X0358095Y0022148D01*
X0358095Y0023569D02*
X0360229Y0023569D01*
X0360229Y0024990D02*
X0358095Y0024990D01*
X0358095Y0026411D02*
X0360229Y0026411D01*
X0364166Y0027327D02*
X0364166Y0012201D01*
X0362032Y0012201D01*
X0362032Y0027327D01*
X0364166Y0027327D01*
X0364166Y0013622D02*
X0362032Y0013622D01*
X0362032Y0015043D02*
X0364166Y0015043D01*
X0364166Y0016464D02*
X0362032Y0016464D01*
X0362032Y0017885D02*
X0364166Y0017885D01*
X0364166Y0019306D02*
X0362032Y0019306D01*
X0362032Y0020727D02*
X0364166Y0020727D01*
X0364166Y0022148D02*
X0362032Y0022148D01*
X0362032Y0023569D02*
X0364166Y0023569D01*
X0364166Y0024990D02*
X0362032Y0024990D01*
X0362032Y0026411D02*
X0364166Y0026411D01*
X0368103Y0027327D02*
X0368103Y0012201D01*
X0365969Y0012201D01*
X0365969Y0027327D01*
X0368103Y0027327D01*
X0368103Y0013622D02*
X0365969Y0013622D01*
X0365969Y0015043D02*
X0368103Y0015043D01*
X0368103Y0016464D02*
X0365969Y0016464D01*
X0365969Y0017885D02*
X0368103Y0017885D01*
X0368103Y0019306D02*
X0365969Y0019306D01*
X0365969Y0020727D02*
X0368103Y0020727D01*
X0368103Y0022148D02*
X0365969Y0022148D01*
X0365969Y0023569D02*
X0368103Y0023569D01*
X0368103Y0024990D02*
X0365969Y0024990D01*
X0365969Y0026411D02*
X0368103Y0026411D01*
M02*
