G75*
%MOIN*%
%OFA0B0*%
%FSLAX25Y25*%
%IPPOS*%
%LPD*%
%AMOC8*
5,1,8,0,0,1.08239X$1,22.5*
%
%ADD10R,0.00330X0.00333*%
%ADD11R,0.00340X0.00333*%
%ADD12R,0.02330X0.00333*%
%ADD13R,0.00670X0.00333*%
%ADD14R,0.01000X0.00333*%
%ADD15R,0.02670X0.00333*%
%ADD16R,0.03000X0.00333*%
%ADD17R,0.01000X0.00334*%
%ADD18R,0.02340X0.00334*%
%ADD19R,0.00670X0.00334*%
%ADD20R,0.00660X0.00334*%
%ADD21R,0.03340X0.00333*%
%ADD22R,0.03000X0.00334*%
%ADD23R,0.02660X0.00334*%
%ADD24R,0.02000X0.00334*%
%ADD25R,0.06330X0.00333*%
%ADD26R,0.06330X0.00334*%
%ADD27R,0.00660X0.00333*%
%ADD28R,0.01670X0.00333*%
%ADD29R,0.01670X0.00334*%
%ADD30R,0.01340X0.00333*%
%ADD31R,0.00330X0.00334*%
%ADD32R,0.01330X0.00333*%
%ADD33R,0.01330X0.00334*%
%ADD34R,0.01340X0.00334*%
%ADD35R,0.02000X0.00333*%
%ADD36R,0.01660X0.00334*%
%ADD37R,0.01660X0.00333*%
%ADD38R,0.05000X0.00333*%
%ADD39R,0.02340X0.00333*%
%ADD40R,0.02330X0.00334*%
%ADD41R,0.02670X0.00334*%
%ADD42R,0.00340X0.00334*%
%ADD43C,0.00300*%
%ADD44C,0.00800*%
%ADD45C,0.00600*%
%ADD46C,0.02000*%
%ADD47R,0.42000X0.03000*%
%ADD48R,0.07500X0.02000*%
%ADD49R,0.03000X0.02000*%
D10*
X0304436Y0288305D03*
X0305106Y0288305D03*
X0313106Y0298305D03*
X0309436Y0307305D03*
X0316106Y0317638D03*
X0316106Y0323638D03*
X0328106Y0288305D03*
D11*
X0328771Y0288305D03*
X0311771Y0288305D03*
D12*
X0321106Y0288305D03*
X0324106Y0321638D03*
X0308106Y0321638D03*
D13*
X0307936Y0320305D03*
X0308606Y0318305D03*
X0308936Y0317305D03*
X0309606Y0315305D03*
X0309936Y0314305D03*
X0311936Y0313638D03*
X0313606Y0312305D03*
X0313936Y0311638D03*
X0310606Y0310305D03*
X0308936Y0309638D03*
X0308936Y0309305D03*
X0308606Y0310305D03*
X0308606Y0310638D03*
X0307936Y0312305D03*
X0307606Y0313305D03*
X0306936Y0315305D03*
X0306606Y0316305D03*
X0311606Y0317638D03*
X0311936Y0316638D03*
X0313606Y0317305D03*
X0314606Y0319638D03*
X0314936Y0320638D03*
X0316936Y0321305D03*
X0320936Y0318305D03*
X0320606Y0317638D03*
X0318606Y0317638D03*
X0318936Y0313305D03*
X0318606Y0312305D03*
X0317936Y0310638D03*
X0317606Y0309638D03*
X0316606Y0307305D03*
X0315606Y0307305D03*
X0317606Y0302305D03*
X0317936Y0301305D03*
X0318606Y0299638D03*
X0319936Y0294305D03*
X0319936Y0293638D03*
X0319936Y0293305D03*
X0319936Y0292638D03*
X0319936Y0292305D03*
X0319936Y0291638D03*
X0319936Y0291305D03*
X0319936Y0290638D03*
X0319936Y0290305D03*
X0319936Y0289638D03*
X0319936Y0289305D03*
X0325936Y0289305D03*
X0325936Y0289638D03*
X0325936Y0290305D03*
X0325936Y0290638D03*
X0325936Y0291305D03*
X0325936Y0291638D03*
X0325936Y0292305D03*
X0325936Y0292638D03*
X0325936Y0293305D03*
X0325936Y0293638D03*
X0325936Y0294305D03*
X0325936Y0288638D03*
X0325936Y0288305D03*
X0313606Y0299305D03*
X0313936Y0300305D03*
X0309606Y0307638D03*
X0310936Y0319305D03*
X0304606Y0321638D03*
X0320606Y0313305D03*
X0322606Y0314638D03*
X0322936Y0315638D03*
X0323606Y0317638D03*
X0323936Y0318638D03*
X0324606Y0320638D03*
X0326936Y0319638D03*
X0326606Y0318638D03*
X0325936Y0316638D03*
X0325606Y0315638D03*
X0324936Y0313638D03*
X0324606Y0312638D03*
X0323936Y0310638D03*
X0323606Y0309638D03*
X0323606Y0309305D03*
X0322936Y0307638D03*
X0322936Y0307305D03*
X0327606Y0321638D03*
X0327936Y0322638D03*
D14*
X0327771Y0322305D03*
X0327441Y0321305D03*
X0327101Y0320305D03*
X0326771Y0319305D03*
X0326441Y0318305D03*
X0326101Y0317305D03*
X0325771Y0316305D03*
X0325441Y0315305D03*
X0325101Y0314305D03*
X0324771Y0313305D03*
X0324441Y0312305D03*
X0324101Y0311305D03*
X0323771Y0310305D03*
X0322101Y0309638D03*
X0321771Y0310305D03*
X0321771Y0310638D03*
X0321441Y0311305D03*
X0321441Y0311638D03*
X0322101Y0313305D03*
X0322441Y0314305D03*
X0322771Y0315305D03*
X0323101Y0316305D03*
X0323441Y0317305D03*
X0323771Y0318305D03*
X0324101Y0319305D03*
X0324441Y0320305D03*
X0321441Y0319638D03*
X0321101Y0318638D03*
X0320441Y0317305D03*
X0319101Y0316638D03*
X0318771Y0317305D03*
X0319771Y0315305D03*
X0320441Y0313638D03*
X0319101Y0313638D03*
X0318771Y0312638D03*
X0318101Y0311305D03*
X0317771Y0310305D03*
X0317441Y0309305D03*
X0317101Y0308638D03*
X0317101Y0308305D03*
X0316771Y0307638D03*
X0315441Y0307638D03*
X0315101Y0308638D03*
X0314771Y0309305D03*
X0314771Y0309638D03*
X0314441Y0310305D03*
X0314101Y0311305D03*
X0313441Y0312638D03*
X0313101Y0313638D03*
X0311771Y0313305D03*
X0311101Y0311638D03*
X0311101Y0311305D03*
X0310771Y0310638D03*
X0310101Y0309305D03*
X0308101Y0311638D03*
X0307771Y0312638D03*
X0307441Y0313638D03*
X0307101Y0314638D03*
X0306771Y0315638D03*
X0306441Y0316638D03*
X0306101Y0317638D03*
X0305771Y0318305D03*
X0305771Y0318638D03*
X0305441Y0319305D03*
X0305441Y0319638D03*
X0305101Y0320305D03*
X0305101Y0320638D03*
X0304771Y0321305D03*
X0304441Y0322305D03*
X0307771Y0320638D03*
X0308101Y0319638D03*
X0308441Y0318638D03*
X0308771Y0317638D03*
X0309101Y0316638D03*
X0309441Y0315638D03*
X0309771Y0314638D03*
X0311771Y0317305D03*
X0311101Y0318638D03*
X0310771Y0319638D03*
X0313771Y0317638D03*
X0314771Y0320305D03*
X0315441Y0321638D03*
X0316771Y0321638D03*
X0317441Y0320305D03*
X0317771Y0319638D03*
X0316101Y0323305D03*
X0316101Y0306305D03*
X0316101Y0305638D03*
X0315441Y0304305D03*
X0315101Y0303305D03*
X0314771Y0302638D03*
X0314771Y0302305D03*
X0314441Y0301638D03*
X0314101Y0300638D03*
X0313771Y0299638D03*
X0318101Y0300638D03*
X0317771Y0301638D03*
X0317441Y0302638D03*
X0317101Y0303305D03*
X0317101Y0303638D03*
X0316771Y0304305D03*
X0318771Y0299305D03*
X0315101Y0294638D03*
X0315101Y0294305D03*
X0315101Y0293638D03*
X0315101Y0293305D03*
X0315101Y0292638D03*
X0315101Y0292305D03*
X0315101Y0291638D03*
X0315101Y0291305D03*
X0315101Y0290638D03*
X0315101Y0290305D03*
X0315101Y0289638D03*
X0315101Y0289305D03*
X0311441Y0289305D03*
X0311441Y0289638D03*
X0311441Y0290305D03*
X0311441Y0290638D03*
X0311441Y0292305D03*
X0311441Y0292638D03*
X0311441Y0293305D03*
X0311441Y0293638D03*
X0311441Y0294305D03*
X0309101Y0294305D03*
X0309101Y0293638D03*
X0309101Y0293305D03*
X0309101Y0292638D03*
X0309101Y0292305D03*
X0309101Y0290638D03*
X0309101Y0290305D03*
X0309101Y0289638D03*
X0309101Y0289305D03*
X0309101Y0288638D03*
X0311441Y0288638D03*
X0304771Y0288638D03*
X0304771Y0289305D03*
X0304771Y0289638D03*
X0304771Y0290305D03*
X0304771Y0290638D03*
X0304771Y0291305D03*
X0304771Y0291638D03*
X0304771Y0292305D03*
X0304771Y0292638D03*
X0304771Y0293305D03*
X0304771Y0293638D03*
X0304771Y0294305D03*
X0322441Y0294305D03*
X0322441Y0293638D03*
X0322441Y0293305D03*
X0322441Y0292638D03*
X0322441Y0292305D03*
X0322441Y0291638D03*
X0322441Y0291305D03*
X0322441Y0290638D03*
X0322441Y0290305D03*
X0322441Y0289638D03*
X0322441Y0289305D03*
X0328441Y0289305D03*
X0328441Y0289638D03*
X0328441Y0290305D03*
X0328441Y0290638D03*
X0328441Y0291305D03*
X0328441Y0291638D03*
X0328441Y0292305D03*
X0328441Y0292638D03*
X0328441Y0293305D03*
X0328441Y0293638D03*
X0328441Y0294305D03*
X0328441Y0288638D03*
D15*
X0315936Y0288638D03*
X0313606Y0319305D03*
X0308606Y0321305D03*
D16*
X0305441Y0322638D03*
X0323771Y0321305D03*
X0321101Y0294638D03*
X0321101Y0288638D03*
X0304771Y0294638D03*
D17*
X0304771Y0293972D03*
X0304771Y0292972D03*
X0304771Y0291972D03*
X0304771Y0290972D03*
X0304771Y0289972D03*
X0304771Y0288972D03*
X0309101Y0288972D03*
X0309101Y0289972D03*
X0309101Y0290972D03*
X0309101Y0291972D03*
X0309101Y0292972D03*
X0309101Y0293972D03*
X0311441Y0293972D03*
X0311441Y0292972D03*
X0311441Y0291972D03*
X0311441Y0290972D03*
X0311441Y0289972D03*
X0311441Y0288972D03*
X0315101Y0289972D03*
X0315101Y0290972D03*
X0315101Y0291972D03*
X0315101Y0292972D03*
X0315101Y0293972D03*
X0315101Y0294972D03*
X0313771Y0299972D03*
X0315441Y0303972D03*
X0316101Y0305972D03*
X0317771Y0309972D03*
X0318101Y0310972D03*
X0318441Y0311972D03*
X0318771Y0312972D03*
X0320771Y0312972D03*
X0319771Y0314972D03*
X0320441Y0316972D03*
X0320771Y0317972D03*
X0321101Y0318972D03*
X0318441Y0317972D03*
X0317101Y0320972D03*
X0316771Y0321972D03*
X0316101Y0322972D03*
X0315441Y0321972D03*
X0315101Y0320972D03*
X0314771Y0319972D03*
X0313771Y0317972D03*
X0313441Y0316972D03*
X0311771Y0316972D03*
X0311441Y0317972D03*
X0311101Y0318972D03*
X0308771Y0317972D03*
X0309101Y0316972D03*
X0309441Y0315972D03*
X0309771Y0314972D03*
X0310101Y0313972D03*
X0310441Y0312972D03*
X0311771Y0312972D03*
X0313441Y0312972D03*
X0313771Y0311972D03*
X0314101Y0310972D03*
X0310771Y0310972D03*
X0310441Y0309972D03*
X0308771Y0309972D03*
X0308441Y0310972D03*
X0308101Y0311972D03*
X0307771Y0312972D03*
X0307441Y0313972D03*
X0309441Y0307972D03*
X0318101Y0300972D03*
X0318441Y0299972D03*
X0322441Y0293972D03*
X0322441Y0292972D03*
X0322441Y0291972D03*
X0322441Y0290972D03*
X0322441Y0289972D03*
X0328441Y0289972D03*
X0328441Y0290972D03*
X0328441Y0291972D03*
X0328441Y0292972D03*
X0328441Y0293972D03*
X0328441Y0288972D03*
X0323101Y0307972D03*
X0323771Y0309972D03*
X0324101Y0310972D03*
X0324441Y0311972D03*
X0324771Y0312972D03*
X0322101Y0309972D03*
X0308441Y0318972D03*
D18*
X0315771Y0288972D03*
D19*
X0319936Y0288972D03*
X0319936Y0289972D03*
X0319936Y0290972D03*
X0319936Y0291972D03*
X0319936Y0292972D03*
X0319936Y0293972D03*
X0325936Y0293972D03*
X0325936Y0294972D03*
X0325936Y0292972D03*
X0325936Y0291972D03*
X0325936Y0290972D03*
X0325936Y0289972D03*
X0325936Y0288972D03*
X0317606Y0301972D03*
X0316936Y0303972D03*
X0314936Y0302972D03*
X0314606Y0301972D03*
X0316936Y0307972D03*
X0314936Y0308972D03*
X0314606Y0309972D03*
X0321606Y0310972D03*
X0321936Y0312972D03*
X0322606Y0314972D03*
X0322936Y0315972D03*
X0323606Y0317972D03*
X0323936Y0318972D03*
X0324606Y0320972D03*
X0326936Y0319972D03*
X0326606Y0318972D03*
X0325936Y0316972D03*
X0325606Y0315972D03*
X0324936Y0313972D03*
X0318936Y0316972D03*
X0317606Y0319972D03*
X0312606Y0314972D03*
X0306936Y0314972D03*
X0306606Y0315972D03*
X0305936Y0317972D03*
X0305606Y0318972D03*
X0304936Y0320972D03*
X0304606Y0321972D03*
X0307606Y0320972D03*
X0307936Y0319972D03*
X0327606Y0321972D03*
D20*
X0327271Y0320972D03*
X0326271Y0317972D03*
X0324271Y0319972D03*
X0323271Y0316972D03*
X0325271Y0314972D03*
X0322271Y0313972D03*
X0317271Y0308972D03*
X0315271Y0307972D03*
X0317271Y0302972D03*
X0314271Y0300972D03*
X0322271Y0288972D03*
X0306271Y0316972D03*
X0305271Y0319972D03*
D21*
X0310271Y0294638D03*
X0310271Y0291638D03*
X0310271Y0291305D03*
X0327271Y0294638D03*
D22*
X0304771Y0294972D03*
D23*
X0310271Y0294972D03*
X0321271Y0294972D03*
D24*
X0327601Y0294972D03*
X0322941Y0308972D03*
X0318271Y0318972D03*
X0313941Y0318972D03*
X0309601Y0320972D03*
X0309601Y0308972D03*
X0322601Y0320972D03*
D25*
X0316106Y0298638D03*
D26*
X0316106Y0298972D03*
D27*
X0318271Y0300305D03*
X0314271Y0301305D03*
X0315271Y0303638D03*
X0315271Y0308305D03*
X0314271Y0310638D03*
X0313271Y0313305D03*
X0310271Y0313305D03*
X0310271Y0313638D03*
X0309271Y0316305D03*
X0307271Y0314305D03*
X0308271Y0311305D03*
X0310271Y0309638D03*
X0313271Y0316638D03*
X0311271Y0318305D03*
X0308271Y0319305D03*
X0306271Y0317305D03*
X0315271Y0321305D03*
X0317271Y0320638D03*
X0321271Y0319305D03*
X0320271Y0316638D03*
X0323271Y0316638D03*
X0325271Y0314638D03*
X0324271Y0311638D03*
X0322271Y0313638D03*
X0322271Y0309305D03*
X0318271Y0311638D03*
X0324271Y0319638D03*
X0326271Y0317638D03*
X0327271Y0320638D03*
D28*
X0325436Y0322305D03*
X0316106Y0322305D03*
X0316106Y0322638D03*
X0311106Y0312638D03*
X0311106Y0312305D03*
X0316106Y0306638D03*
X0316106Y0304638D03*
X0321436Y0312305D03*
D29*
X0316106Y0306972D03*
X0316106Y0304972D03*
X0312436Y0313972D03*
X0316106Y0317972D03*
X0307436Y0321972D03*
D30*
X0304271Y0323638D03*
X0316271Y0305305D03*
D31*
X0323106Y0306972D03*
X0309436Y0306972D03*
X0316106Y0323972D03*
X0328436Y0323972D03*
D32*
X0327936Y0323638D03*
X0319606Y0315638D03*
X0319606Y0314638D03*
X0322936Y0308638D03*
X0322936Y0308305D03*
X0312606Y0314305D03*
X0312606Y0314638D03*
X0312606Y0315305D03*
X0312606Y0315638D03*
X0309606Y0308638D03*
X0309606Y0308305D03*
D33*
X0310936Y0311972D03*
X0312606Y0315972D03*
X0319606Y0315972D03*
D34*
X0321271Y0311972D03*
D35*
X0321271Y0312638D03*
X0317601Y0318638D03*
X0319601Y0319638D03*
X0321271Y0320305D03*
X0321941Y0320638D03*
X0314601Y0318638D03*
X0312601Y0319638D03*
X0310941Y0320305D03*
X0310271Y0320638D03*
X0306601Y0322305D03*
X0304601Y0323305D03*
X0312601Y0316305D03*
X0326271Y0322638D03*
X0327601Y0323305D03*
D36*
X0324771Y0321972D03*
X0319771Y0313972D03*
D37*
X0319771Y0314305D03*
X0319771Y0316305D03*
D38*
X0316101Y0318305D03*
D39*
X0318771Y0319305D03*
D40*
X0311436Y0319972D03*
X0305106Y0322972D03*
X0327106Y0322972D03*
D41*
X0320606Y0319972D03*
D42*
X0303771Y0323972D03*
D43*
X0081885Y0073150D02*
X0079950Y0073150D01*
X0080917Y0073150D02*
X0080917Y0076052D01*
X0079950Y0075085D01*
X0082897Y0075569D02*
X0083380Y0076052D01*
X0084348Y0076052D01*
X0084831Y0075569D01*
X0084831Y0075085D01*
X0082897Y0073150D01*
X0084831Y0073150D01*
X0084831Y0083150D02*
X0082897Y0083150D01*
X0083864Y0083150D02*
X0083864Y0086052D01*
X0082897Y0085085D01*
X0081885Y0083150D02*
X0079950Y0083150D01*
X0080917Y0083150D02*
X0080917Y0086052D01*
X0079950Y0085085D01*
X0079897Y0093150D02*
X0081831Y0093150D01*
X0080864Y0093150D02*
X0080864Y0096052D01*
X0079897Y0095085D01*
X0078885Y0096052D02*
X0078401Y0095569D01*
X0077434Y0096536D01*
X0076950Y0096052D01*
X0082843Y0095569D02*
X0083327Y0096052D01*
X0084294Y0096052D01*
X0084778Y0095569D01*
X0082843Y0093634D01*
X0083327Y0093150D01*
X0084294Y0093150D01*
X0084778Y0093634D01*
X0084778Y0095569D01*
X0082843Y0095569D02*
X0082843Y0093634D01*
X0083380Y0103150D02*
X0084348Y0103150D01*
X0084831Y0103634D01*
X0084831Y0105569D01*
X0084348Y0106052D01*
X0083380Y0106052D01*
X0082897Y0105569D01*
X0082897Y0105085D01*
X0083380Y0104601D01*
X0084831Y0104601D01*
X0083380Y0103150D02*
X0082897Y0103634D01*
X0081401Y0105569D02*
X0081885Y0106052D01*
X0081401Y0105569D02*
X0080434Y0106536D01*
X0079950Y0106052D01*
X0083434Y0112150D02*
X0082950Y0112634D01*
X0082950Y0113117D01*
X0083434Y0113601D01*
X0084401Y0113601D01*
X0084885Y0113117D01*
X0084885Y0112634D01*
X0084401Y0112150D01*
X0083434Y0112150D01*
X0083434Y0113601D02*
X0082950Y0114085D01*
X0082950Y0114569D01*
X0083434Y0115052D01*
X0084401Y0115052D01*
X0084885Y0114569D01*
X0084885Y0114085D01*
X0084401Y0113601D01*
X0107917Y0136150D02*
X0107917Y0139052D01*
X0106950Y0139052D02*
X0108885Y0139052D01*
X0109897Y0139052D02*
X0109897Y0136150D01*
X0111831Y0136150D01*
X0112843Y0136150D02*
X0114778Y0136150D01*
X0115790Y0136150D02*
X0115790Y0139052D01*
X0117725Y0136150D01*
X0117725Y0139052D01*
X0118736Y0138569D02*
X0118736Y0138085D01*
X0119220Y0137601D01*
X0120187Y0137601D01*
X0120671Y0137117D01*
X0120671Y0136634D01*
X0120187Y0136150D01*
X0119220Y0136150D01*
X0118736Y0136634D01*
X0118736Y0138569D02*
X0119220Y0139052D01*
X0120187Y0139052D01*
X0120671Y0138569D01*
X0121683Y0138569D02*
X0122650Y0137601D01*
X0122650Y0136150D01*
X0122650Y0137601D02*
X0123618Y0138569D01*
X0123618Y0139052D01*
X0121683Y0139052D02*
X0121683Y0138569D01*
X0127576Y0138569D02*
X0128059Y0139052D01*
X0129027Y0139052D01*
X0129511Y0138569D01*
X0129511Y0138085D01*
X0129027Y0137601D01*
X0129511Y0137117D01*
X0129511Y0136634D01*
X0129027Y0136150D01*
X0128059Y0136150D01*
X0127576Y0136634D01*
X0128543Y0137601D02*
X0129027Y0137601D01*
X0130522Y0136634D02*
X0131006Y0136634D01*
X0131006Y0136150D01*
X0130522Y0136150D01*
X0130522Y0136634D01*
X0131995Y0136150D02*
X0133930Y0138085D01*
X0133930Y0138569D01*
X0133447Y0139052D01*
X0132479Y0139052D01*
X0131995Y0138569D01*
X0131995Y0136150D02*
X0133930Y0136150D01*
X0114778Y0139052D02*
X0112843Y0139052D01*
X0112843Y0136150D01*
X0112843Y0137601D02*
X0113811Y0137601D01*
X0111831Y0139052D02*
X0109897Y0139052D01*
X0109897Y0137601D02*
X0110864Y0137601D01*
X0083831Y0153150D02*
X0081897Y0156052D01*
X0080885Y0155569D02*
X0080885Y0154601D01*
X0080401Y0154117D01*
X0078950Y0154117D01*
X0078950Y0153150D02*
X0078950Y0156052D01*
X0080401Y0156052D01*
X0080885Y0155569D01*
X0079917Y0154117D02*
X0080885Y0153150D01*
X0081897Y0153150D02*
X0083831Y0156052D01*
X0076778Y0156117D02*
X0076778Y0155634D01*
X0076294Y0155150D01*
X0075327Y0155150D01*
X0074843Y0155634D01*
X0073831Y0155634D02*
X0073831Y0158052D01*
X0074843Y0157569D02*
X0074843Y0157085D01*
X0075327Y0156601D01*
X0076294Y0156601D01*
X0076778Y0156117D01*
X0076778Y0157569D02*
X0076294Y0158052D01*
X0075327Y0158052D01*
X0074843Y0157569D01*
X0073831Y0155634D02*
X0073348Y0155150D01*
X0072380Y0155150D01*
X0071897Y0155634D01*
X0071897Y0158052D01*
X0070885Y0157569D02*
X0070885Y0157085D01*
X0070401Y0156601D01*
X0068950Y0156601D01*
X0068950Y0155150D02*
X0070401Y0155150D01*
X0070885Y0155634D01*
X0070885Y0156117D01*
X0070401Y0156601D01*
X0070885Y0157569D02*
X0070401Y0158052D01*
X0068950Y0158052D01*
X0068950Y0155150D01*
X0069434Y0159950D02*
X0068950Y0160434D01*
X0068950Y0162369D01*
X0069434Y0162852D01*
X0070401Y0162852D01*
X0070885Y0162369D01*
X0071897Y0161885D02*
X0072864Y0162852D01*
X0073831Y0161885D01*
X0073831Y0159950D01*
X0074843Y0159950D02*
X0074843Y0162852D01*
X0076778Y0159950D01*
X0076778Y0162852D01*
X0079917Y0162750D02*
X0079917Y0165652D01*
X0078950Y0165652D02*
X0080885Y0165652D01*
X0081897Y0165652D02*
X0083831Y0162750D01*
X0081897Y0162750D02*
X0083831Y0165652D01*
X0073831Y0161401D02*
X0071897Y0161401D01*
X0071897Y0161885D02*
X0071897Y0159950D01*
X0070885Y0160434D02*
X0070401Y0159950D01*
X0069434Y0159950D01*
X0049618Y0166150D02*
X0048650Y0167117D01*
X0049134Y0167117D02*
X0047683Y0167117D01*
X0047683Y0166150D02*
X0047683Y0169052D01*
X0049134Y0169052D01*
X0049618Y0168569D01*
X0049618Y0167601D01*
X0049134Y0167117D01*
X0046671Y0166150D02*
X0044736Y0166150D01*
X0044736Y0169052D01*
X0046671Y0169052D01*
X0045704Y0167601D02*
X0044736Y0167601D01*
X0043725Y0168569D02*
X0041790Y0166634D01*
X0041790Y0166150D01*
X0043725Y0166150D01*
X0043725Y0168569D02*
X0043725Y0169052D01*
X0041790Y0169052D01*
X0040778Y0169052D02*
X0040778Y0168569D01*
X0038843Y0166634D01*
X0038843Y0166150D01*
X0040778Y0166150D01*
X0040778Y0169052D02*
X0038843Y0169052D01*
X0037831Y0169052D02*
X0037831Y0166634D01*
X0037348Y0166150D01*
X0036380Y0166150D01*
X0035897Y0166634D01*
X0035897Y0169052D01*
X0034885Y0168569D02*
X0034885Y0168085D01*
X0034401Y0167601D01*
X0032950Y0167601D01*
X0032950Y0166150D02*
X0032950Y0169052D01*
X0034401Y0169052D01*
X0034885Y0168569D01*
X0034401Y0167601D02*
X0034885Y0167117D01*
X0034885Y0166634D01*
X0034401Y0166150D01*
X0032950Y0166150D01*
X0048950Y0182117D02*
X0048950Y0183085D01*
X0049917Y0184052D01*
X0050914Y0182601D02*
X0052849Y0182601D01*
X0051882Y0181634D02*
X0051882Y0183569D01*
X0053861Y0184052D02*
X0054828Y0183085D01*
X0054828Y0182117D01*
X0053861Y0181150D01*
X0049917Y0181150D02*
X0048950Y0182117D01*
X0076950Y0204634D02*
X0077434Y0204150D01*
X0078401Y0204150D01*
X0078885Y0204634D01*
X0078885Y0205601D01*
X0077917Y0205601D01*
X0076950Y0204634D02*
X0076950Y0206569D01*
X0077434Y0207052D01*
X0078401Y0207052D01*
X0078885Y0206569D01*
X0079897Y0207052D02*
X0081831Y0204150D01*
X0081831Y0207052D01*
X0082843Y0207052D02*
X0084294Y0207052D01*
X0084778Y0206569D01*
X0084778Y0204634D01*
X0084294Y0204150D01*
X0082843Y0204150D01*
X0082843Y0207052D01*
X0079897Y0207052D02*
X0079897Y0204150D01*
X0088434Y0248150D02*
X0087950Y0248634D01*
X0088434Y0248150D02*
X0089401Y0248150D01*
X0089885Y0248634D01*
X0089885Y0249117D01*
X0089401Y0249601D01*
X0088434Y0249601D01*
X0087950Y0250085D01*
X0087950Y0250569D01*
X0088434Y0251052D01*
X0089401Y0251052D01*
X0089885Y0250569D01*
X0090897Y0251052D02*
X0090897Y0248150D01*
X0092831Y0248150D01*
X0093843Y0248150D02*
X0093843Y0251052D01*
X0095294Y0251052D01*
X0095778Y0250569D01*
X0095778Y0249601D01*
X0095294Y0249117D01*
X0093843Y0249117D01*
X0094811Y0249117D02*
X0095778Y0248150D01*
X0096790Y0248150D02*
X0097757Y0248150D01*
X0097273Y0248150D02*
X0097273Y0251052D01*
X0096790Y0251052D02*
X0097757Y0251052D01*
X0098754Y0250085D02*
X0099721Y0251052D01*
X0100689Y0250085D01*
X0100689Y0248150D01*
X0101700Y0248150D02*
X0103635Y0248150D01*
X0101700Y0248150D02*
X0101700Y0251052D01*
X0100689Y0249601D02*
X0098754Y0249601D01*
X0098754Y0250085D02*
X0098754Y0248150D01*
X0092831Y0251052D02*
X0090897Y0251052D01*
X0090897Y0249601D02*
X0091864Y0249601D01*
X0090897Y0252950D02*
X0092831Y0255852D01*
X0093843Y0254885D02*
X0094811Y0255852D01*
X0094811Y0252950D01*
X0095778Y0252950D02*
X0093843Y0252950D01*
X0092831Y0252950D02*
X0090897Y0255852D01*
X0089885Y0255369D02*
X0089885Y0254401D01*
X0089401Y0253917D01*
X0087950Y0253917D01*
X0087950Y0252950D02*
X0087950Y0255852D01*
X0089401Y0255852D01*
X0089885Y0255369D01*
X0088917Y0253917D02*
X0089885Y0252950D01*
X0099736Y0255852D02*
X0101671Y0255852D01*
X0100704Y0255852D02*
X0100704Y0252950D01*
X0102683Y0252950D02*
X0104618Y0255852D01*
X0105629Y0254885D02*
X0106597Y0255852D01*
X0106597Y0252950D01*
X0107564Y0252950D02*
X0105629Y0252950D01*
X0104618Y0252950D02*
X0102683Y0255852D01*
X0121950Y0291150D02*
X0121950Y0294853D01*
X0123802Y0294853D01*
X0124419Y0294236D01*
X0124419Y0293002D01*
X0123802Y0292384D01*
X0121950Y0292384D01*
X0123184Y0292384D02*
X0124419Y0291150D01*
X0125633Y0291150D02*
X0128102Y0291150D01*
X0129316Y0291150D02*
X0131168Y0291150D01*
X0131785Y0291767D01*
X0131785Y0294236D01*
X0131168Y0294853D01*
X0129316Y0294853D01*
X0129316Y0291150D01*
X0126868Y0293002D02*
X0125633Y0293002D01*
X0125633Y0294853D02*
X0125633Y0291150D01*
X0125633Y0294853D02*
X0128102Y0294853D01*
X0129151Y0317150D02*
X0129151Y0319619D01*
X0127917Y0320853D01*
X0126683Y0319619D01*
X0126683Y0317150D01*
X0126683Y0319002D02*
X0129151Y0319002D01*
X0130366Y0318384D02*
X0132217Y0318384D01*
X0132834Y0319002D01*
X0132834Y0320236D01*
X0132217Y0320853D01*
X0130366Y0320853D01*
X0130366Y0317150D01*
X0131600Y0318384D02*
X0132834Y0317150D01*
X0134049Y0317150D02*
X0134049Y0320853D01*
X0135900Y0320853D01*
X0136518Y0320236D01*
X0136518Y0319002D01*
X0135900Y0318384D01*
X0134049Y0318384D01*
X0135283Y0318384D02*
X0136518Y0317150D01*
X0137732Y0317150D02*
X0137732Y0319619D01*
X0138966Y0320853D01*
X0140201Y0319619D01*
X0140201Y0317150D01*
X0140201Y0319002D02*
X0137732Y0319002D01*
X0141415Y0320236D02*
X0142650Y0319002D01*
X0142650Y0317150D01*
X0142650Y0319002D02*
X0143884Y0320236D01*
X0143884Y0320853D01*
X0141415Y0320853D02*
X0141415Y0320236D01*
X0148781Y0319619D02*
X0150016Y0320853D01*
X0150016Y0317150D01*
X0151250Y0317150D02*
X0148781Y0317150D01*
X0171950Y0317150D02*
X0174419Y0317150D01*
X0175633Y0317150D02*
X0178102Y0317150D01*
X0179316Y0317150D02*
X0181168Y0317150D01*
X0181785Y0317767D01*
X0181785Y0320236D01*
X0181168Y0320853D01*
X0179316Y0320853D01*
X0179316Y0317150D01*
X0176868Y0319002D02*
X0175633Y0319002D01*
X0175633Y0320853D02*
X0175633Y0317150D01*
X0171950Y0317150D02*
X0171950Y0320853D01*
X0175633Y0320853D02*
X0178102Y0320853D01*
X0186683Y0319619D02*
X0186683Y0317150D01*
X0186683Y0319002D02*
X0189151Y0319002D01*
X0189151Y0319619D02*
X0189151Y0317150D01*
X0190366Y0317150D02*
X0190366Y0320853D01*
X0192217Y0320853D01*
X0192834Y0320236D01*
X0192834Y0319002D01*
X0192217Y0318384D01*
X0190366Y0318384D01*
X0191600Y0318384D02*
X0192834Y0317150D01*
X0194049Y0317150D02*
X0194049Y0320853D01*
X0195900Y0320853D01*
X0196518Y0320236D01*
X0196518Y0319002D01*
X0195900Y0318384D01*
X0194049Y0318384D01*
X0195283Y0318384D02*
X0196518Y0317150D01*
X0197732Y0317150D02*
X0197732Y0319619D01*
X0198966Y0320853D01*
X0200201Y0319619D01*
X0200201Y0317150D01*
X0200201Y0319002D02*
X0197732Y0319002D01*
X0201415Y0320236D02*
X0202650Y0319002D01*
X0202650Y0317150D01*
X0202650Y0319002D02*
X0203884Y0320236D01*
X0203884Y0320853D01*
X0201415Y0320853D02*
X0201415Y0320236D01*
X0208781Y0320236D02*
X0209399Y0320853D01*
X0210633Y0320853D01*
X0211250Y0320236D01*
X0211250Y0319619D01*
X0208781Y0317150D01*
X0211250Y0317150D01*
X0189151Y0319619D02*
X0187917Y0320853D01*
X0186683Y0319619D01*
X0186683Y0294853D02*
X0189151Y0291150D01*
X0189151Y0294853D01*
X0186683Y0294853D02*
X0186683Y0291150D01*
X0185468Y0291150D02*
X0182999Y0291150D01*
X0182999Y0294853D01*
X0185468Y0294853D01*
X0184234Y0293002D02*
X0182999Y0293002D01*
X0181785Y0294853D02*
X0179316Y0294853D01*
X0179316Y0291150D01*
X0181785Y0291150D01*
X0180551Y0293002D02*
X0179316Y0293002D01*
X0178102Y0293002D02*
X0177485Y0292384D01*
X0175633Y0292384D01*
X0175633Y0291150D02*
X0175633Y0294853D01*
X0177485Y0294853D01*
X0178102Y0294236D01*
X0178102Y0293002D01*
X0176868Y0292384D02*
X0178102Y0291150D01*
X0174419Y0291767D02*
X0174419Y0293002D01*
X0173184Y0293002D01*
X0171950Y0294236D02*
X0171950Y0291767D01*
X0172567Y0291150D01*
X0173802Y0291150D01*
X0174419Y0291767D01*
X0174419Y0294236D02*
X0173802Y0294853D01*
X0172567Y0294853D01*
X0171950Y0294236D01*
X0217950Y0294853D02*
X0217950Y0291150D01*
X0219802Y0291150D01*
X0220419Y0291767D01*
X0220419Y0292384D01*
X0219802Y0293002D01*
X0217950Y0293002D01*
X0217950Y0294853D02*
X0219802Y0294853D01*
X0220419Y0294236D01*
X0220419Y0293619D01*
X0219802Y0293002D01*
X0221633Y0294853D02*
X0221633Y0291150D01*
X0224102Y0291150D01*
X0225316Y0291767D02*
X0225933Y0291150D01*
X0227168Y0291150D01*
X0227785Y0291767D01*
X0227785Y0294853D01*
X0228999Y0294853D02*
X0228999Y0291150D01*
X0231468Y0291150D01*
X0230234Y0293002D02*
X0228999Y0293002D01*
X0228999Y0294853D02*
X0231468Y0294853D01*
X0225316Y0294853D02*
X0225316Y0291767D01*
X0282922Y0276760D02*
X0282922Y0274342D01*
X0283406Y0273858D01*
X0284374Y0273858D01*
X0284857Y0274342D01*
X0284857Y0276760D01*
X0285869Y0275793D02*
X0287320Y0275793D01*
X0287804Y0275309D01*
X0287804Y0273858D01*
X0288815Y0273858D02*
X0289783Y0273858D01*
X0289299Y0273858D02*
X0289299Y0275793D01*
X0288815Y0275793D01*
X0289299Y0276760D02*
X0289299Y0277244D01*
X0290780Y0275793D02*
X0291747Y0273858D01*
X0292715Y0275793D01*
X0293726Y0275309D02*
X0294210Y0275793D01*
X0295178Y0275793D01*
X0295661Y0275309D01*
X0295661Y0274825D01*
X0293726Y0274825D01*
X0293726Y0274342D02*
X0293726Y0275309D01*
X0293726Y0274342D02*
X0294210Y0273858D01*
X0295178Y0273858D01*
X0296673Y0273858D02*
X0296673Y0275793D01*
X0297640Y0275793D02*
X0298124Y0275793D01*
X0297640Y0275793D02*
X0296673Y0274825D01*
X0299128Y0275309D02*
X0299612Y0275793D01*
X0301063Y0275793D01*
X0302075Y0275793D02*
X0302559Y0275793D01*
X0302559Y0273858D01*
X0303042Y0273858D02*
X0302075Y0273858D01*
X0301063Y0274342D02*
X0300579Y0274825D01*
X0299612Y0274825D01*
X0299128Y0275309D01*
X0299128Y0273858D02*
X0300579Y0273858D01*
X0301063Y0274342D01*
X0302559Y0276760D02*
X0302559Y0277244D01*
X0304039Y0275793D02*
X0305007Y0275793D01*
X0304523Y0276277D02*
X0304523Y0274342D01*
X0305007Y0273858D01*
X0306003Y0274342D02*
X0306487Y0273858D01*
X0307938Y0273858D01*
X0307938Y0273374D02*
X0307938Y0275793D01*
X0306003Y0275793D02*
X0306003Y0274342D01*
X0306971Y0272890D02*
X0307455Y0272890D01*
X0307938Y0273374D01*
X0309903Y0271960D02*
X0309903Y0269058D01*
X0308452Y0269058D01*
X0307968Y0269542D01*
X0307968Y0270509D01*
X0308452Y0270993D01*
X0309903Y0270993D01*
X0306964Y0270993D02*
X0306480Y0270993D01*
X0305512Y0270025D01*
X0305512Y0269058D02*
X0305512Y0270993D01*
X0304501Y0270509D02*
X0304501Y0269058D01*
X0303050Y0269058D01*
X0302566Y0269542D01*
X0303050Y0270025D01*
X0304501Y0270025D01*
X0304501Y0270509D02*
X0304017Y0270993D01*
X0303050Y0270993D01*
X0301554Y0270509D02*
X0301554Y0269542D01*
X0301071Y0269058D01*
X0300103Y0269058D01*
X0299619Y0269542D01*
X0299619Y0270509D01*
X0300103Y0270993D01*
X0301071Y0270993D01*
X0301554Y0270509D01*
X0298608Y0270025D02*
X0298608Y0269542D01*
X0298124Y0269058D01*
X0296673Y0269058D01*
X0296673Y0271960D01*
X0298124Y0271960D01*
X0298608Y0271477D01*
X0298608Y0270993D01*
X0298124Y0270509D01*
X0296673Y0270509D01*
X0298124Y0270509D02*
X0298608Y0270025D01*
X0299619Y0267160D02*
X0300103Y0267160D01*
X0300103Y0264258D01*
X0299619Y0264258D02*
X0300587Y0264258D01*
X0298608Y0265225D02*
X0296673Y0265225D01*
X0296673Y0264742D02*
X0296673Y0265709D01*
X0297157Y0266193D01*
X0298124Y0266193D01*
X0298608Y0265709D01*
X0298608Y0265225D01*
X0298124Y0264258D02*
X0297157Y0264258D01*
X0296673Y0264742D01*
X0295661Y0265225D02*
X0294210Y0265225D01*
X0293726Y0264742D01*
X0294210Y0264258D01*
X0295661Y0264258D01*
X0295661Y0265709D01*
X0295178Y0266193D01*
X0294210Y0266193D01*
X0292715Y0265709D02*
X0292715Y0264258D01*
X0292715Y0265709D02*
X0292231Y0266193D01*
X0291264Y0266193D01*
X0290780Y0265709D01*
X0289768Y0266193D02*
X0288317Y0266193D01*
X0287833Y0265709D01*
X0287833Y0264742D01*
X0288317Y0264258D01*
X0289768Y0264258D01*
X0290780Y0264258D02*
X0290780Y0267160D01*
X0291264Y0269058D02*
X0292231Y0269058D01*
X0292715Y0269542D01*
X0292715Y0271477D01*
X0292231Y0271960D01*
X0291264Y0271960D01*
X0290780Y0271477D01*
X0290780Y0269542D01*
X0291264Y0269058D01*
X0289783Y0269058D02*
X0288815Y0269058D01*
X0289299Y0269058D02*
X0289299Y0271960D01*
X0288815Y0271960D02*
X0289783Y0271960D01*
X0287804Y0271477D02*
X0287804Y0270509D01*
X0287320Y0270025D01*
X0285869Y0270025D01*
X0285869Y0269058D02*
X0285869Y0271960D01*
X0287320Y0271960D01*
X0287804Y0271477D01*
X0284857Y0271477D02*
X0284374Y0271960D01*
X0283406Y0271960D01*
X0282922Y0271477D01*
X0282922Y0269542D01*
X0283406Y0269058D01*
X0284374Y0269058D01*
X0284857Y0269542D01*
X0284857Y0270509D01*
X0283890Y0270509D01*
X0284857Y0267160D02*
X0284857Y0264258D01*
X0285869Y0264258D02*
X0286836Y0264258D01*
X0286353Y0264258D02*
X0286353Y0266193D01*
X0285869Y0266193D01*
X0286353Y0267160D02*
X0286353Y0267644D01*
X0284857Y0267160D02*
X0283890Y0266193D01*
X0282922Y0267160D01*
X0282922Y0264258D01*
X0283890Y0262360D02*
X0282922Y0261393D01*
X0282922Y0259458D01*
X0282922Y0260909D02*
X0284857Y0260909D01*
X0284857Y0261393D02*
X0284857Y0259458D01*
X0285869Y0259942D02*
X0286353Y0259458D01*
X0287804Y0259458D01*
X0287804Y0261393D01*
X0288815Y0260909D02*
X0288815Y0259942D01*
X0289299Y0259458D01*
X0290750Y0259458D01*
X0290750Y0258974D02*
X0290750Y0261393D01*
X0289299Y0261393D01*
X0288815Y0260909D01*
X0289783Y0258490D02*
X0290267Y0258490D01*
X0290750Y0258974D01*
X0291762Y0259942D02*
X0292246Y0259458D01*
X0293697Y0259458D01*
X0293697Y0261393D01*
X0294708Y0260909D02*
X0295192Y0261393D01*
X0296643Y0261393D01*
X0297655Y0261393D02*
X0298622Y0261393D01*
X0298139Y0261877D02*
X0298139Y0259942D01*
X0298622Y0259458D01*
X0296643Y0259942D02*
X0296160Y0259458D01*
X0294708Y0259458D01*
X0295192Y0260425D02*
X0294708Y0260909D01*
X0295192Y0260425D02*
X0296160Y0260425D01*
X0296643Y0259942D01*
X0291762Y0259942D02*
X0291762Y0261393D01*
X0285869Y0261393D02*
X0285869Y0259942D01*
X0284857Y0261393D02*
X0283890Y0262360D01*
X0285869Y0273858D02*
X0285869Y0275793D01*
X0302566Y0261877D02*
X0303050Y0262360D01*
X0304017Y0262360D01*
X0304501Y0261877D01*
X0304501Y0261393D01*
X0302566Y0259458D01*
X0304501Y0259458D01*
X0305512Y0259942D02*
X0305996Y0259458D01*
X0306964Y0259458D01*
X0307447Y0259942D01*
X0307447Y0261877D01*
X0305512Y0259942D01*
X0305512Y0261877D01*
X0305996Y0262360D01*
X0306964Y0262360D01*
X0307447Y0261877D01*
X0308459Y0261393D02*
X0309426Y0262360D01*
X0309426Y0259458D01*
X0308459Y0259458D02*
X0310394Y0259458D01*
X0311405Y0259942D02*
X0311889Y0259458D01*
X0312857Y0259458D01*
X0313340Y0259942D01*
X0313340Y0260425D01*
X0312857Y0260909D01*
X0311405Y0260909D01*
X0311405Y0259942D01*
X0311405Y0260909D02*
X0312373Y0261877D01*
X0313340Y0262360D01*
X0312388Y0264258D02*
X0312388Y0266193D01*
X0313355Y0266193D02*
X0313839Y0266193D01*
X0313355Y0266193D02*
X0312388Y0265225D01*
X0311376Y0265225D02*
X0309441Y0265225D01*
X0309441Y0264742D02*
X0309441Y0265709D01*
X0309925Y0266193D01*
X0310892Y0266193D01*
X0311376Y0265709D01*
X0311376Y0265225D01*
X0310892Y0264258D02*
X0309925Y0264258D01*
X0309441Y0264742D01*
X0308444Y0264258D02*
X0307960Y0264742D01*
X0307960Y0266677D01*
X0307477Y0266193D02*
X0308444Y0266193D01*
X0306465Y0266677D02*
X0305981Y0267160D01*
X0305014Y0267160D01*
X0304530Y0266677D01*
X0304530Y0264742D01*
X0305014Y0264258D01*
X0305981Y0264258D01*
X0306465Y0264742D01*
X0306465Y0266677D01*
X0313861Y0269058D02*
X0315796Y0269058D01*
X0314828Y0269058D02*
X0314828Y0271960D01*
X0313861Y0270993D01*
X0313348Y0273858D02*
X0313831Y0274342D01*
X0313831Y0275309D01*
X0313348Y0275793D01*
X0312380Y0275793D01*
X0311896Y0275309D01*
X0311896Y0274342D01*
X0312380Y0273858D01*
X0313348Y0273858D01*
X0315327Y0273858D02*
X0315327Y0276277D01*
X0315810Y0276760D01*
X0315810Y0275309D02*
X0314843Y0275309D01*
X0317775Y0271960D02*
X0318742Y0270993D01*
X0318742Y0269058D01*
X0318742Y0270509D02*
X0316807Y0270509D01*
X0316807Y0270993D02*
X0317775Y0271960D01*
X0316807Y0270993D02*
X0316807Y0269058D01*
X0316294Y0266193D02*
X0315327Y0266193D01*
X0314843Y0265709D01*
X0314843Y0264742D01*
X0315327Y0264258D01*
X0316294Y0264258D01*
X0316778Y0264742D01*
X0316778Y0265709D01*
X0316294Y0266193D01*
X0319754Y0273858D02*
X0319754Y0276760D01*
X0321689Y0273858D01*
X0321689Y0276760D01*
X0322700Y0275309D02*
X0322700Y0274342D01*
X0323184Y0273858D01*
X0324152Y0273858D01*
X0324635Y0274342D01*
X0324635Y0275309D01*
X0324152Y0275793D01*
X0323184Y0275793D01*
X0322700Y0275309D01*
X0325647Y0274825D02*
X0326614Y0275793D01*
X0327098Y0275793D01*
X0328102Y0275793D02*
X0329070Y0275793D01*
X0328586Y0276277D02*
X0328586Y0274342D01*
X0329070Y0273858D01*
X0330067Y0273858D02*
X0330067Y0276760D01*
X0330550Y0275793D02*
X0331518Y0275793D01*
X0332002Y0275309D01*
X0332002Y0273858D01*
X0330067Y0275309D02*
X0330550Y0275793D01*
X0335960Y0275309D02*
X0336927Y0275309D01*
X0335960Y0273858D02*
X0335960Y0276760D01*
X0337895Y0276760D01*
X0338906Y0276760D02*
X0339390Y0276760D01*
X0339390Y0273858D01*
X0338906Y0273858D02*
X0339874Y0273858D01*
X0340871Y0274342D02*
X0341354Y0273858D01*
X0342322Y0273858D01*
X0342806Y0274342D01*
X0342806Y0275309D01*
X0342322Y0275793D01*
X0341354Y0275793D01*
X0340871Y0275309D01*
X0340871Y0274342D01*
X0343817Y0274825D02*
X0344785Y0275793D01*
X0345268Y0275793D01*
X0346273Y0275793D02*
X0346756Y0275793D01*
X0346756Y0273858D01*
X0346273Y0273858D02*
X0347240Y0273858D01*
X0348237Y0274342D02*
X0348237Y0275309D01*
X0348721Y0275793D01*
X0350172Y0275793D01*
X0350172Y0276760D02*
X0350172Y0273858D01*
X0348721Y0273858D01*
X0348237Y0274342D01*
X0346756Y0276760D02*
X0346756Y0277244D01*
X0343817Y0275793D02*
X0343817Y0273858D01*
X0351183Y0274342D02*
X0351667Y0274825D01*
X0353118Y0274825D01*
X0353118Y0275309D02*
X0353118Y0273858D01*
X0351667Y0273858D01*
X0351183Y0274342D01*
X0351667Y0275793D02*
X0352635Y0275793D01*
X0353118Y0275309D01*
X0325647Y0275793D02*
X0325647Y0273858D01*
X0264650Y0224885D02*
X0263683Y0225852D01*
X0264650Y0224885D02*
X0264650Y0223917D01*
X0263683Y0222950D01*
X0262671Y0224401D02*
X0260736Y0224401D01*
X0261704Y0225369D02*
X0261704Y0223434D01*
X0259739Y0222950D02*
X0258772Y0223917D01*
X0258772Y0224885D01*
X0259739Y0225852D01*
X0254828Y0224885D02*
X0253861Y0225852D01*
X0254828Y0224885D02*
X0254828Y0223917D01*
X0253861Y0222950D01*
X0252849Y0224401D02*
X0250914Y0224401D01*
X0249917Y0222950D02*
X0248950Y0223917D01*
X0248950Y0224885D01*
X0249917Y0225852D01*
X0248950Y0221052D02*
X0248950Y0219117D01*
X0249917Y0218150D01*
X0250885Y0219117D01*
X0250885Y0221052D01*
X0251897Y0221052D02*
X0252864Y0221052D01*
X0252380Y0221052D02*
X0252380Y0218150D01*
X0251897Y0218150D02*
X0252864Y0218150D01*
X0253861Y0218150D02*
X0253861Y0221052D01*
X0255796Y0218150D01*
X0255796Y0221052D01*
X0186778Y0210052D02*
X0186294Y0209569D01*
X0185327Y0210536D01*
X0184843Y0210052D01*
X0183831Y0209569D02*
X0183831Y0209085D01*
X0183348Y0208601D01*
X0183831Y0208117D01*
X0183831Y0207634D01*
X0183348Y0207150D01*
X0182380Y0207150D01*
X0181897Y0207634D01*
X0180885Y0207150D02*
X0178950Y0207150D01*
X0180885Y0209085D01*
X0180885Y0209569D01*
X0180401Y0210052D01*
X0179434Y0210052D01*
X0178950Y0209569D01*
X0181897Y0209569D02*
X0182380Y0210052D01*
X0183348Y0210052D01*
X0183831Y0209569D01*
X0183348Y0208601D02*
X0182864Y0208601D01*
X0185327Y0200536D02*
X0186294Y0199569D01*
X0186778Y0200052D01*
X0185327Y0200536D02*
X0184843Y0200052D01*
X0183831Y0199569D02*
X0183348Y0200052D01*
X0182380Y0200052D01*
X0181897Y0199569D01*
X0180885Y0199569D02*
X0180401Y0200052D01*
X0179434Y0200052D01*
X0178950Y0199569D01*
X0180885Y0199569D02*
X0180885Y0199085D01*
X0178950Y0197150D01*
X0180885Y0197150D01*
X0181897Y0197150D02*
X0183831Y0199085D01*
X0183831Y0199569D01*
X0183831Y0197150D02*
X0181897Y0197150D01*
X0185327Y0191536D02*
X0186294Y0190569D01*
X0186778Y0191052D01*
X0185327Y0191536D02*
X0184843Y0191052D01*
X0182864Y0191052D02*
X0182864Y0188150D01*
X0181897Y0188150D02*
X0183831Y0188150D01*
X0184963Y0186052D02*
X0183995Y0185085D01*
X0183995Y0183150D01*
X0182984Y0183150D02*
X0182984Y0184601D01*
X0182500Y0185085D01*
X0182016Y0184601D01*
X0182016Y0183150D01*
X0181049Y0183150D02*
X0181049Y0185085D01*
X0181533Y0185085D01*
X0182016Y0184601D01*
X0183995Y0184601D02*
X0185930Y0184601D01*
X0185930Y0185085D02*
X0185930Y0183150D01*
X0185327Y0181536D02*
X0186294Y0180569D01*
X0186778Y0181052D01*
X0185327Y0181536D02*
X0184843Y0181052D01*
X0183831Y0180569D02*
X0181897Y0178634D01*
X0182380Y0178150D01*
X0183348Y0178150D01*
X0183831Y0178634D01*
X0183831Y0180569D01*
X0183348Y0181052D01*
X0182380Y0181052D01*
X0181897Y0180569D01*
X0181897Y0178634D01*
X0180885Y0178150D02*
X0178950Y0178150D01*
X0180885Y0180085D01*
X0180885Y0180569D01*
X0180401Y0181052D01*
X0179434Y0181052D01*
X0178950Y0180569D01*
X0178586Y0183150D02*
X0178102Y0183634D01*
X0180037Y0185569D01*
X0180037Y0183634D01*
X0179554Y0183150D01*
X0178586Y0183150D01*
X0178102Y0183634D02*
X0178102Y0185569D01*
X0178586Y0186052D01*
X0179554Y0186052D01*
X0180037Y0185569D01*
X0180885Y0188150D02*
X0178950Y0188150D01*
X0180885Y0190085D01*
X0180885Y0190569D01*
X0180401Y0191052D01*
X0179434Y0191052D01*
X0178950Y0190569D01*
X0181897Y0190085D02*
X0182864Y0191052D01*
X0184963Y0186052D02*
X0185930Y0185085D01*
X0177091Y0184601D02*
X0177091Y0183634D01*
X0176607Y0183150D01*
X0175640Y0183150D01*
X0175156Y0183634D01*
X0175156Y0184601D02*
X0176123Y0185085D01*
X0176607Y0185085D01*
X0177091Y0184601D01*
X0177091Y0186052D02*
X0175156Y0186052D01*
X0175156Y0184601D01*
X0174144Y0185085D02*
X0174144Y0185569D01*
X0173661Y0186052D01*
X0172693Y0186052D01*
X0172209Y0185569D01*
X0174144Y0185085D02*
X0172209Y0183150D01*
X0174144Y0183150D01*
X0168251Y0184117D02*
X0168251Y0186052D01*
X0168251Y0184117D02*
X0167284Y0183150D01*
X0166316Y0184117D01*
X0166316Y0186052D01*
X0165305Y0185569D02*
X0165305Y0185085D01*
X0164821Y0184601D01*
X0165305Y0184117D01*
X0165305Y0183634D01*
X0164821Y0183150D01*
X0163854Y0183150D01*
X0163370Y0183634D01*
X0162380Y0183634D02*
X0162380Y0183150D01*
X0161897Y0183150D01*
X0161897Y0183634D01*
X0162380Y0183634D01*
X0160885Y0183634D02*
X0160401Y0183150D01*
X0159434Y0183150D01*
X0158950Y0183634D01*
X0159917Y0184601D02*
X0160401Y0184601D01*
X0160885Y0184117D01*
X0160885Y0183634D01*
X0160401Y0184601D02*
X0160885Y0185085D01*
X0160885Y0185569D01*
X0160401Y0186052D01*
X0159434Y0186052D01*
X0158950Y0185569D01*
X0163370Y0185569D02*
X0163854Y0186052D01*
X0164821Y0186052D01*
X0165305Y0185569D01*
X0164821Y0184601D02*
X0164337Y0184601D01*
X0164843Y0193150D02*
X0164843Y0196052D01*
X0166778Y0193150D01*
X0166778Y0196052D01*
X0167790Y0196052D02*
X0169241Y0196052D01*
X0169725Y0195569D01*
X0169725Y0193634D01*
X0169241Y0193150D01*
X0167790Y0193150D01*
X0167790Y0196052D01*
X0163831Y0195569D02*
X0163348Y0196052D01*
X0162380Y0196052D01*
X0161897Y0195569D01*
X0161897Y0193634D01*
X0162380Y0193150D01*
X0163348Y0193150D01*
X0163831Y0193634D01*
X0163831Y0194601D01*
X0162864Y0194601D01*
X0160885Y0194601D02*
X0158950Y0194601D01*
X0158950Y0195085D02*
X0158950Y0193150D01*
X0160885Y0193150D02*
X0160885Y0195085D01*
X0159917Y0196052D01*
X0158950Y0195085D01*
X0159917Y0203150D02*
X0160885Y0204117D01*
X0160885Y0206052D01*
X0161897Y0206052D02*
X0162864Y0206052D01*
X0162380Y0206052D02*
X0162380Y0203150D01*
X0161897Y0203150D02*
X0162864Y0203150D01*
X0163861Y0203150D02*
X0163861Y0206052D01*
X0165796Y0203150D01*
X0165796Y0206052D01*
X0159917Y0203150D02*
X0158950Y0204117D01*
X0158950Y0206052D01*
X0159434Y0176052D02*
X0158950Y0175569D01*
X0159434Y0176052D02*
X0160401Y0176052D01*
X0160885Y0175569D01*
X0160885Y0175085D01*
X0158950Y0173150D01*
X0160885Y0173150D01*
X0161897Y0173634D02*
X0162380Y0173150D01*
X0163348Y0173150D01*
X0163831Y0173634D01*
X0163831Y0174117D01*
X0163348Y0174601D01*
X0162864Y0174601D01*
X0163348Y0174601D02*
X0163831Y0175085D01*
X0163831Y0175569D01*
X0163348Y0176052D01*
X0162380Y0176052D01*
X0161897Y0175569D01*
X0164843Y0176052D02*
X0165327Y0176536D01*
X0166294Y0175569D01*
X0166778Y0176052D01*
X0165327Y0166536D02*
X0164843Y0166052D01*
X0165327Y0166536D02*
X0166294Y0165569D01*
X0166778Y0166052D01*
X0163831Y0165569D02*
X0163348Y0166052D01*
X0162380Y0166052D01*
X0161897Y0165569D01*
X0160885Y0165569D02*
X0160401Y0166052D01*
X0159434Y0166052D01*
X0158950Y0165569D01*
X0160885Y0165569D02*
X0160885Y0165085D01*
X0158950Y0163150D01*
X0160885Y0163150D01*
X0161897Y0163150D02*
X0163831Y0165085D01*
X0163831Y0165569D01*
X0163831Y0163150D02*
X0161897Y0163150D01*
X0165327Y0157536D02*
X0166294Y0156569D01*
X0166778Y0157052D01*
X0165327Y0157536D02*
X0164843Y0157052D01*
X0162864Y0157052D02*
X0162864Y0154150D01*
X0161897Y0154150D02*
X0163831Y0154150D01*
X0161897Y0156085D02*
X0162864Y0157052D01*
X0160885Y0156569D02*
X0160401Y0157052D01*
X0159434Y0157052D01*
X0158950Y0156569D01*
X0160885Y0156569D02*
X0160885Y0156085D01*
X0158950Y0154150D01*
X0160885Y0154150D01*
X0160401Y0147052D02*
X0159434Y0147052D01*
X0158950Y0146569D01*
X0160401Y0147052D02*
X0160885Y0146569D01*
X0160885Y0146085D01*
X0158950Y0144150D01*
X0160885Y0144150D01*
X0161897Y0144634D02*
X0163831Y0146569D01*
X0163831Y0144634D01*
X0163348Y0144150D01*
X0162380Y0144150D01*
X0161897Y0144634D01*
X0161897Y0146569D01*
X0162380Y0147052D01*
X0163348Y0147052D01*
X0163831Y0146569D01*
X0164843Y0147052D02*
X0165327Y0147536D01*
X0166294Y0146569D01*
X0166778Y0147052D01*
X0168273Y0137052D02*
X0167790Y0136569D01*
X0167790Y0136085D01*
X0168273Y0135601D01*
X0169241Y0135601D01*
X0169725Y0135117D01*
X0169725Y0134634D01*
X0169241Y0134150D01*
X0168273Y0134150D01*
X0167790Y0134634D01*
X0168273Y0137052D02*
X0169241Y0137052D01*
X0169725Y0136569D01*
X0170736Y0137052D02*
X0170736Y0134150D01*
X0172671Y0134150D01*
X0173683Y0134634D02*
X0174166Y0134150D01*
X0175134Y0134150D01*
X0175618Y0134634D01*
X0176629Y0134634D02*
X0178564Y0136569D01*
X0178564Y0134634D01*
X0178080Y0134150D01*
X0177113Y0134150D01*
X0176629Y0134634D01*
X0176629Y0136569D01*
X0177113Y0137052D01*
X0178080Y0137052D01*
X0178564Y0136569D01*
X0175618Y0136569D02*
X0175134Y0137052D01*
X0174166Y0137052D01*
X0173683Y0136569D01*
X0173683Y0134634D01*
X0174650Y0127052D02*
X0175618Y0126085D01*
X0175618Y0124150D01*
X0176629Y0124634D02*
X0178564Y0126569D01*
X0178564Y0124634D01*
X0178080Y0124150D01*
X0177113Y0124150D01*
X0176629Y0124634D01*
X0176629Y0126569D01*
X0177113Y0127052D01*
X0178080Y0127052D01*
X0178564Y0126569D01*
X0175618Y0125601D02*
X0173683Y0125601D01*
X0173683Y0126085D02*
X0174650Y0127052D01*
X0173683Y0126085D02*
X0173683Y0124150D01*
X0172671Y0124634D02*
X0172671Y0126569D01*
X0172187Y0127052D01*
X0170736Y0127052D01*
X0170736Y0124150D01*
X0172187Y0124150D01*
X0172671Y0124634D01*
X0169725Y0124634D02*
X0169241Y0124150D01*
X0168273Y0124150D01*
X0167790Y0124634D01*
X0168273Y0125601D02*
X0169241Y0125601D01*
X0169725Y0125117D01*
X0169725Y0124634D01*
X0168273Y0125601D02*
X0167790Y0126085D01*
X0167790Y0126569D01*
X0168273Y0127052D01*
X0169241Y0127052D01*
X0169725Y0126569D01*
X0163831Y0126569D02*
X0163831Y0126085D01*
X0163348Y0125601D01*
X0162380Y0125601D01*
X0161897Y0126085D01*
X0161897Y0126569D01*
X0162380Y0127052D01*
X0163348Y0127052D01*
X0163831Y0126569D01*
X0163348Y0125601D02*
X0163831Y0125117D01*
X0163831Y0124634D01*
X0163348Y0124150D01*
X0162380Y0124150D01*
X0161897Y0124634D01*
X0161897Y0125117D01*
X0162380Y0125601D01*
X0160885Y0124150D02*
X0158950Y0124150D01*
X0159917Y0124150D02*
X0159917Y0127052D01*
X0158950Y0126085D01*
X0158950Y0134150D02*
X0160885Y0134150D01*
X0159917Y0134150D02*
X0159917Y0137052D01*
X0158950Y0136085D01*
X0161897Y0136085D02*
X0162380Y0135601D01*
X0163831Y0135601D01*
X0163831Y0134634D02*
X0163831Y0136569D01*
X0163348Y0137052D01*
X0162380Y0137052D01*
X0161897Y0136569D01*
X0161897Y0136085D01*
X0161897Y0134634D02*
X0162380Y0134150D01*
X0163348Y0134150D01*
X0163831Y0134634D01*
X0181950Y0138150D02*
X0183885Y0138150D01*
X0182917Y0138150D02*
X0182917Y0141052D01*
X0181950Y0140085D01*
X0184897Y0139601D02*
X0185864Y0140569D01*
X0186831Y0141052D01*
X0186348Y0139601D02*
X0184897Y0139601D01*
X0184897Y0138634D01*
X0185380Y0138150D01*
X0186348Y0138150D01*
X0186831Y0138634D01*
X0186831Y0139117D01*
X0186348Y0139601D01*
X0186831Y0131052D02*
X0184897Y0131052D01*
X0184897Y0129601D01*
X0185864Y0130085D01*
X0186348Y0130085D01*
X0186831Y0129601D01*
X0186831Y0128634D01*
X0186348Y0128150D01*
X0185380Y0128150D01*
X0184897Y0128634D01*
X0183885Y0128150D02*
X0181950Y0128150D01*
X0182917Y0128150D02*
X0182917Y0131052D01*
X0181950Y0130085D01*
X0182917Y0121052D02*
X0182917Y0118150D01*
X0181950Y0118150D02*
X0183885Y0118150D01*
X0184897Y0119601D02*
X0186348Y0121052D01*
X0186348Y0118150D01*
X0186831Y0119601D02*
X0184897Y0119601D01*
X0182917Y0121052D02*
X0181950Y0120085D01*
X0182917Y0111052D02*
X0182917Y0108150D01*
X0181950Y0108150D02*
X0183885Y0108150D01*
X0184897Y0108634D02*
X0185380Y0108150D01*
X0186348Y0108150D01*
X0186831Y0108634D01*
X0186831Y0109117D01*
X0186348Y0109601D01*
X0185864Y0109601D01*
X0186348Y0109601D02*
X0186831Y0110085D01*
X0186831Y0110569D01*
X0186348Y0111052D01*
X0185380Y0111052D01*
X0184897Y0110569D01*
X0182917Y0111052D02*
X0181950Y0110085D01*
X0185434Y0101052D02*
X0186401Y0101052D01*
X0186885Y0100569D01*
X0186885Y0100085D01*
X0186401Y0099601D01*
X0185434Y0099601D01*
X0184950Y0100085D01*
X0184950Y0100569D01*
X0185434Y0101052D01*
X0185434Y0099601D02*
X0184950Y0099117D01*
X0184950Y0098634D01*
X0185434Y0098150D01*
X0186401Y0098150D01*
X0186885Y0098634D01*
X0186885Y0099117D01*
X0186401Y0099601D01*
X0182434Y0092536D02*
X0183401Y0091569D01*
X0183885Y0092052D01*
X0184897Y0091569D02*
X0184897Y0091085D01*
X0185380Y0090601D01*
X0186831Y0090601D01*
X0186831Y0089634D02*
X0186831Y0091569D01*
X0186348Y0092052D01*
X0185380Y0092052D01*
X0184897Y0091569D01*
X0184897Y0089634D02*
X0185380Y0089150D01*
X0186348Y0089150D01*
X0186831Y0089634D01*
X0182434Y0092536D02*
X0181950Y0092052D01*
X0179434Y0081536D02*
X0180401Y0080569D01*
X0180885Y0081052D01*
X0181897Y0080085D02*
X0182864Y0081052D01*
X0182864Y0078150D01*
X0181897Y0078150D02*
X0183831Y0078150D01*
X0184843Y0078634D02*
X0186778Y0080569D01*
X0186778Y0078634D01*
X0186294Y0078150D01*
X0185327Y0078150D01*
X0184843Y0078634D01*
X0184843Y0080569D01*
X0185327Y0081052D01*
X0186294Y0081052D01*
X0186778Y0080569D01*
X0179434Y0081536D02*
X0178950Y0081052D01*
X0175134Y0077052D02*
X0173683Y0077052D01*
X0173683Y0074150D01*
X0175134Y0074150D01*
X0175618Y0074634D01*
X0175618Y0076569D01*
X0175134Y0077052D01*
X0172671Y0077052D02*
X0170736Y0077052D01*
X0170736Y0074150D01*
X0172671Y0074150D01*
X0171704Y0075601D02*
X0170736Y0075601D01*
X0169725Y0074150D02*
X0167790Y0074150D01*
X0167790Y0077052D01*
X0163831Y0076569D02*
X0163831Y0076085D01*
X0163348Y0075601D01*
X0163831Y0075117D01*
X0163831Y0074634D01*
X0163348Y0074150D01*
X0162380Y0074150D01*
X0161897Y0074634D01*
X0160885Y0074150D02*
X0158950Y0074150D01*
X0159917Y0074150D02*
X0159917Y0077052D01*
X0158950Y0076085D01*
X0161897Y0076569D02*
X0162380Y0077052D01*
X0163348Y0077052D01*
X0163831Y0076569D01*
X0163348Y0075601D02*
X0162864Y0075601D01*
X0163348Y0083150D02*
X0163348Y0086052D01*
X0161897Y0084601D01*
X0163831Y0084601D01*
X0160885Y0083150D02*
X0158950Y0083150D01*
X0159917Y0083150D02*
X0159917Y0086052D01*
X0158950Y0085085D01*
X0158950Y0093150D02*
X0160885Y0093150D01*
X0159917Y0093150D02*
X0159917Y0096052D01*
X0158950Y0095085D01*
X0161897Y0094601D02*
X0161897Y0096052D01*
X0163831Y0096052D01*
X0163348Y0095085D02*
X0163831Y0094601D01*
X0163831Y0093634D01*
X0163348Y0093150D01*
X0162380Y0093150D01*
X0161897Y0093634D01*
X0161897Y0094601D02*
X0162864Y0095085D01*
X0163348Y0095085D01*
X0163348Y0103150D02*
X0163831Y0103634D01*
X0163831Y0104117D01*
X0163348Y0104601D01*
X0161897Y0104601D01*
X0161897Y0103634D01*
X0162380Y0103150D01*
X0163348Y0103150D01*
X0161897Y0104601D02*
X0162864Y0105569D01*
X0163831Y0106052D01*
X0159917Y0106052D02*
X0159917Y0103150D01*
X0158950Y0103150D02*
X0160885Y0103150D01*
X0158950Y0105085D02*
X0159917Y0106052D01*
X0159917Y0113150D02*
X0159917Y0116052D01*
X0158950Y0115085D01*
X0158950Y0113150D02*
X0160885Y0113150D01*
X0161897Y0113150D02*
X0161897Y0113634D01*
X0163831Y0115569D01*
X0163831Y0116052D01*
X0161897Y0116052D01*
X0181950Y0148150D02*
X0183885Y0148150D01*
X0182917Y0148150D02*
X0182917Y0151052D01*
X0181950Y0150085D01*
X0184897Y0151052D02*
X0186831Y0151052D01*
X0186831Y0150569D01*
X0184897Y0148634D01*
X0184897Y0148150D01*
X0185380Y0157150D02*
X0184897Y0157634D01*
X0184897Y0158117D01*
X0185380Y0158601D01*
X0186348Y0158601D01*
X0186831Y0158117D01*
X0186831Y0157634D01*
X0186348Y0157150D01*
X0185380Y0157150D01*
X0185380Y0158601D02*
X0184897Y0159085D01*
X0184897Y0159569D01*
X0185380Y0160052D01*
X0186348Y0160052D01*
X0186831Y0159569D01*
X0186831Y0159085D01*
X0186348Y0158601D01*
X0183885Y0157150D02*
X0181950Y0157150D01*
X0182917Y0157150D02*
X0182917Y0160052D01*
X0181950Y0159085D01*
X0181950Y0168150D02*
X0183885Y0168150D01*
X0182917Y0168150D02*
X0182917Y0171052D01*
X0181950Y0170085D01*
X0184897Y0170085D02*
X0185380Y0169601D01*
X0186831Y0169601D01*
X0186831Y0168634D02*
X0186831Y0170569D01*
X0186348Y0171052D01*
X0185380Y0171052D01*
X0184897Y0170569D01*
X0184897Y0170085D01*
X0184897Y0168634D02*
X0185380Y0168150D01*
X0186348Y0168150D01*
X0186831Y0168634D01*
X0185864Y0071052D02*
X0185864Y0068150D01*
X0184897Y0068150D02*
X0186831Y0068150D01*
X0184897Y0070085D02*
X0185864Y0071052D01*
X0182917Y0071052D02*
X0182917Y0068150D01*
X0181950Y0068150D02*
X0183885Y0068150D01*
X0181950Y0070085D02*
X0182917Y0071052D01*
X0182917Y0061052D02*
X0182917Y0058150D01*
X0181950Y0058150D02*
X0183885Y0058150D01*
X0184897Y0058150D02*
X0186831Y0060085D01*
X0186831Y0060569D01*
X0186348Y0061052D01*
X0185380Y0061052D01*
X0184897Y0060569D01*
X0182917Y0061052D02*
X0181950Y0060085D01*
X0184897Y0058150D02*
X0186831Y0058150D01*
X0198950Y0053569D02*
X0198950Y0051634D01*
X0199434Y0051150D01*
X0200401Y0051150D01*
X0200885Y0051634D01*
X0200885Y0052601D01*
X0199917Y0052601D01*
X0198950Y0053569D02*
X0199434Y0054052D01*
X0200401Y0054052D01*
X0200885Y0053569D01*
X0201897Y0053085D02*
X0202864Y0054052D01*
X0202864Y0051150D01*
X0201897Y0051150D02*
X0203831Y0051150D01*
X0209950Y0051634D02*
X0210434Y0051150D01*
X0211401Y0051150D01*
X0211885Y0051634D01*
X0211885Y0052601D01*
X0210917Y0052601D01*
X0209950Y0051634D02*
X0209950Y0053569D01*
X0210434Y0054052D01*
X0211401Y0054052D01*
X0211885Y0053569D01*
X0212897Y0053569D02*
X0213380Y0054052D01*
X0214348Y0054052D01*
X0214831Y0053569D01*
X0214831Y0053085D01*
X0212897Y0051150D01*
X0214831Y0051150D01*
X0218950Y0051634D02*
X0219434Y0051150D01*
X0220401Y0051150D01*
X0220885Y0051634D01*
X0220885Y0052601D01*
X0219917Y0052601D01*
X0218950Y0051634D02*
X0218950Y0053569D01*
X0219434Y0054052D01*
X0220401Y0054052D01*
X0220885Y0053569D01*
X0221897Y0053569D02*
X0222380Y0054052D01*
X0223348Y0054052D01*
X0223831Y0053569D01*
X0223831Y0053085D01*
X0223348Y0052601D01*
X0223831Y0052117D01*
X0223831Y0051634D01*
X0223348Y0051150D01*
X0222380Y0051150D01*
X0221897Y0051634D01*
X0222864Y0052601D02*
X0223348Y0052601D01*
X0228950Y0051634D02*
X0229434Y0051150D01*
X0230401Y0051150D01*
X0230885Y0051634D01*
X0230885Y0052601D01*
X0229917Y0052601D01*
X0228950Y0051634D02*
X0228950Y0053569D01*
X0229434Y0054052D01*
X0230401Y0054052D01*
X0230885Y0053569D01*
X0231897Y0052601D02*
X0233831Y0052601D01*
X0233348Y0051150D02*
X0233348Y0054052D01*
X0231897Y0052601D01*
X0238950Y0051634D02*
X0239434Y0051150D01*
X0240401Y0051150D01*
X0240885Y0051634D01*
X0240885Y0052601D01*
X0239917Y0052601D01*
X0238950Y0051634D02*
X0238950Y0053569D01*
X0239434Y0054052D01*
X0240401Y0054052D01*
X0240885Y0053569D01*
X0241897Y0054052D02*
X0241897Y0052601D01*
X0242864Y0053085D01*
X0243348Y0053085D01*
X0243831Y0052601D01*
X0243831Y0051634D01*
X0243348Y0051150D01*
X0242380Y0051150D01*
X0241897Y0051634D01*
X0241897Y0054052D02*
X0243831Y0054052D01*
X0249950Y0053569D02*
X0249950Y0051634D01*
X0250434Y0051150D01*
X0251401Y0051150D01*
X0251885Y0051634D01*
X0251885Y0052601D01*
X0250917Y0052601D01*
X0249950Y0053569D02*
X0250434Y0054052D01*
X0251401Y0054052D01*
X0251885Y0053569D01*
X0252897Y0052601D02*
X0254348Y0052601D01*
X0254831Y0052117D01*
X0254831Y0051634D01*
X0254348Y0051150D01*
X0253380Y0051150D01*
X0252897Y0051634D01*
X0252897Y0052601D01*
X0253864Y0053569D01*
X0254831Y0054052D01*
X0259950Y0053569D02*
X0259950Y0051634D01*
X0260434Y0051150D01*
X0261401Y0051150D01*
X0261885Y0051634D01*
X0261885Y0052601D01*
X0260917Y0052601D01*
X0259950Y0053569D02*
X0260434Y0054052D01*
X0261401Y0054052D01*
X0261885Y0053569D01*
X0262897Y0054052D02*
X0264831Y0054052D01*
X0264831Y0053569D01*
X0262897Y0051634D01*
X0262897Y0051150D01*
X0269950Y0051634D02*
X0270434Y0051150D01*
X0271401Y0051150D01*
X0271885Y0051634D01*
X0271885Y0052601D01*
X0270917Y0052601D01*
X0269950Y0051634D02*
X0269950Y0053569D01*
X0270434Y0054052D01*
X0271401Y0054052D01*
X0271885Y0053569D01*
X0272897Y0053569D02*
X0272897Y0053085D01*
X0273380Y0052601D01*
X0274348Y0052601D01*
X0274831Y0052117D01*
X0274831Y0051634D01*
X0274348Y0051150D01*
X0273380Y0051150D01*
X0272897Y0051634D01*
X0272897Y0052117D01*
X0273380Y0052601D01*
X0274348Y0052601D02*
X0274831Y0053085D01*
X0274831Y0053569D01*
X0274348Y0054052D01*
X0273380Y0054052D01*
X0272897Y0053569D01*
X0279950Y0053569D02*
X0279950Y0051634D01*
X0280434Y0051150D01*
X0281401Y0051150D01*
X0281885Y0051634D01*
X0281885Y0052601D01*
X0280917Y0052601D01*
X0279950Y0053569D02*
X0280434Y0054052D01*
X0281401Y0054052D01*
X0281885Y0053569D01*
X0282897Y0053569D02*
X0282897Y0053085D01*
X0283380Y0052601D01*
X0284831Y0052601D01*
X0284831Y0051634D02*
X0284831Y0053569D01*
X0284348Y0054052D01*
X0283380Y0054052D01*
X0282897Y0053569D01*
X0282897Y0051634D02*
X0283380Y0051150D01*
X0284348Y0051150D01*
X0284831Y0051634D01*
X0288950Y0051634D02*
X0289434Y0051150D01*
X0290401Y0051150D01*
X0290885Y0051634D01*
X0290885Y0052601D01*
X0289917Y0052601D01*
X0288950Y0051634D02*
X0288950Y0053569D01*
X0289434Y0054052D01*
X0290401Y0054052D01*
X0290885Y0053569D01*
X0291897Y0053085D02*
X0292864Y0054052D01*
X0292864Y0051150D01*
X0291897Y0051150D02*
X0293831Y0051150D01*
X0294843Y0051634D02*
X0295327Y0051150D01*
X0296294Y0051150D01*
X0296778Y0051634D01*
X0296778Y0053569D01*
X0294843Y0051634D01*
X0294843Y0053569D01*
X0295327Y0054052D01*
X0296294Y0054052D01*
X0296778Y0053569D01*
X0298950Y0053569D02*
X0298950Y0051634D01*
X0299434Y0051150D01*
X0300401Y0051150D01*
X0300885Y0051634D01*
X0300885Y0052601D01*
X0299917Y0052601D01*
X0298950Y0053569D02*
X0299434Y0054052D01*
X0300401Y0054052D01*
X0300885Y0053569D01*
X0301897Y0053085D02*
X0302864Y0054052D01*
X0302864Y0051150D01*
X0301897Y0051150D02*
X0303831Y0051150D01*
X0304843Y0051150D02*
X0306778Y0051150D01*
X0305811Y0051150D02*
X0305811Y0054052D01*
X0304843Y0053085D01*
X0308950Y0053569D02*
X0308950Y0051634D01*
X0309434Y0051150D01*
X0310401Y0051150D01*
X0310885Y0051634D01*
X0310885Y0052601D01*
X0309917Y0052601D01*
X0308950Y0053569D02*
X0309434Y0054052D01*
X0310401Y0054052D01*
X0310885Y0053569D01*
X0311897Y0053085D02*
X0312864Y0054052D01*
X0312864Y0051150D01*
X0311897Y0051150D02*
X0313831Y0051150D01*
X0314843Y0051150D02*
X0316778Y0053085D01*
X0316778Y0053569D01*
X0316294Y0054052D01*
X0315327Y0054052D01*
X0314843Y0053569D01*
X0314843Y0051150D02*
X0316778Y0051150D01*
X0318950Y0051634D02*
X0319434Y0051150D01*
X0320401Y0051150D01*
X0320885Y0051634D01*
X0320885Y0052601D01*
X0319917Y0052601D01*
X0318950Y0051634D02*
X0318950Y0053569D01*
X0319434Y0054052D01*
X0320401Y0054052D01*
X0320885Y0053569D01*
X0321897Y0053085D02*
X0322864Y0054052D01*
X0322864Y0051150D01*
X0321897Y0051150D02*
X0323831Y0051150D01*
X0324843Y0051634D02*
X0325327Y0051150D01*
X0326294Y0051150D01*
X0326778Y0051634D01*
X0326778Y0052117D01*
X0326294Y0052601D01*
X0325811Y0052601D01*
X0326294Y0052601D02*
X0326778Y0053085D01*
X0326778Y0053569D01*
X0326294Y0054052D01*
X0325327Y0054052D01*
X0324843Y0053569D01*
X0328950Y0053569D02*
X0328950Y0051634D01*
X0329434Y0051150D01*
X0330401Y0051150D01*
X0330885Y0051634D01*
X0330885Y0052601D01*
X0329917Y0052601D01*
X0328950Y0053569D02*
X0329434Y0054052D01*
X0330401Y0054052D01*
X0330885Y0053569D01*
X0331897Y0053085D02*
X0332864Y0054052D01*
X0332864Y0051150D01*
X0331897Y0051150D02*
X0333831Y0051150D01*
X0334843Y0052601D02*
X0336778Y0052601D01*
X0336294Y0051150D02*
X0336294Y0054052D01*
X0334843Y0052601D01*
X0338950Y0051634D02*
X0339434Y0051150D01*
X0340401Y0051150D01*
X0340885Y0051634D01*
X0340885Y0052601D01*
X0339917Y0052601D01*
X0338950Y0051634D02*
X0338950Y0053569D01*
X0339434Y0054052D01*
X0340401Y0054052D01*
X0340885Y0053569D01*
X0341897Y0054052D02*
X0343831Y0051150D01*
X0343831Y0054052D01*
X0344843Y0054052D02*
X0346294Y0054052D01*
X0346778Y0053569D01*
X0346778Y0051634D01*
X0346294Y0051150D01*
X0344843Y0051150D01*
X0344843Y0054052D01*
X0341897Y0054052D02*
X0341897Y0051150D01*
X0121168Y0317150D02*
X0121785Y0317767D01*
X0121785Y0320236D01*
X0121168Y0320853D01*
X0119316Y0320853D01*
X0119316Y0317150D01*
X0121168Y0317150D01*
X0118102Y0317150D02*
X0115633Y0317150D01*
X0115633Y0320853D01*
X0118102Y0320853D01*
X0116868Y0319002D02*
X0115633Y0319002D01*
X0114419Y0317150D02*
X0111950Y0317150D01*
X0111950Y0320853D01*
X0095300Y0320538D02*
X0094683Y0321155D01*
X0093449Y0321155D01*
X0092831Y0320538D01*
X0092831Y0319921D01*
X0093449Y0319304D01*
X0094683Y0319304D01*
X0095300Y0318686D01*
X0095300Y0318069D01*
X0094683Y0317452D01*
X0093449Y0317452D01*
X0092831Y0318069D01*
X0091617Y0317452D02*
X0089148Y0317452D01*
X0089148Y0321155D01*
X0091617Y0321155D01*
X0090383Y0319304D02*
X0089148Y0319304D01*
X0087934Y0319304D02*
X0085465Y0319304D01*
X0084251Y0320538D02*
X0083634Y0321155D01*
X0082399Y0321155D01*
X0081782Y0320538D01*
X0081782Y0318069D01*
X0082399Y0317452D01*
X0083634Y0317452D01*
X0084251Y0318069D01*
X0085465Y0317452D02*
X0085465Y0321155D01*
X0087934Y0321155D02*
X0087934Y0317452D01*
X0080568Y0321155D02*
X0078099Y0321155D01*
X0076878Y0321155D02*
X0075643Y0321155D01*
X0076261Y0321155D02*
X0076261Y0317452D01*
X0076878Y0317452D02*
X0075643Y0317452D01*
X0074429Y0317452D02*
X0074429Y0321155D01*
X0071960Y0321155D02*
X0071960Y0317452D01*
X0073195Y0318686D01*
X0074429Y0317452D01*
X0070746Y0318069D02*
X0070129Y0317452D01*
X0068894Y0317452D01*
X0068277Y0318069D01*
X0068894Y0319304D02*
X0070129Y0319304D01*
X0070746Y0318686D01*
X0070746Y0318069D01*
X0068894Y0319304D02*
X0068277Y0319921D01*
X0068277Y0320538D01*
X0068894Y0321155D01*
X0070129Y0321155D01*
X0070746Y0320538D01*
X0079333Y0321155D02*
X0079333Y0317452D01*
D44*
X0079300Y0315000D02*
X0084300Y0315000D01*
X0086800Y0312500D01*
X0089300Y0315000D01*
X0094300Y0315000D01*
X0096800Y0312500D01*
X0096800Y0307500D01*
X0094300Y0305000D01*
X0089300Y0305000D01*
X0086800Y0307500D01*
X0084300Y0305000D01*
X0079300Y0305000D01*
X0076800Y0307500D01*
X0074300Y0305000D01*
X0069300Y0305000D01*
X0066800Y0307500D01*
X0066800Y0312500D01*
X0069300Y0315000D01*
X0074300Y0315000D01*
X0076800Y0312500D01*
X0079300Y0315000D01*
X0111800Y0312500D02*
X0111800Y0307500D01*
X0114300Y0305000D01*
X0119300Y0305000D01*
X0121800Y0307500D01*
X0124300Y0305000D01*
X0129300Y0305000D01*
X0131800Y0307500D01*
X0134300Y0305000D01*
X0139300Y0305000D01*
X0141800Y0307500D01*
X0144300Y0305000D01*
X0149300Y0305000D01*
X0151800Y0307500D01*
X0151800Y0312500D01*
X0149300Y0315000D01*
X0144300Y0315000D01*
X0141800Y0312500D01*
X0139300Y0315000D01*
X0134300Y0315000D01*
X0131800Y0312500D01*
X0129300Y0315000D01*
X0124300Y0315000D01*
X0121800Y0312500D01*
X0119300Y0315000D01*
X0114300Y0315000D01*
X0111800Y0312500D01*
X0071800Y0271000D02*
X0071800Y0270000D01*
X0074800Y0270000D01*
X0074800Y0250000D01*
X0071800Y0250000D01*
X0071800Y0249000D01*
X0071800Y0250000D02*
X0068800Y0250000D01*
X0068800Y0270000D01*
X0071800Y0270000D01*
X0059800Y0270000D02*
X0056800Y0270000D01*
X0056800Y0271000D01*
X0056800Y0270000D02*
X0053800Y0270000D01*
X0053800Y0250000D01*
X0056800Y0250000D01*
X0056800Y0249000D01*
X0056800Y0250000D02*
X0059800Y0250000D01*
X0059800Y0270000D01*
X0086800Y0266500D02*
X0086800Y0261500D01*
X0089300Y0259000D01*
X0094300Y0259000D01*
X0096800Y0261500D01*
X0099300Y0259000D01*
X0104300Y0259000D01*
X0106800Y0261500D01*
X0106800Y0266500D01*
X0104300Y0269000D01*
X0099300Y0269000D01*
X0096800Y0266500D01*
X0094300Y0269000D01*
X0089300Y0269000D01*
X0086800Y0266500D01*
X0128800Y0260000D02*
X0128800Y0240000D01*
X0131800Y0240000D01*
X0131800Y0239000D01*
X0131800Y0240000D02*
X0134800Y0240000D01*
X0134800Y0260000D01*
X0131800Y0260000D01*
X0131800Y0261000D01*
X0131800Y0260000D02*
X0128800Y0260000D01*
X0178800Y0260000D02*
X0178800Y0240000D01*
X0181800Y0240000D01*
X0181800Y0239000D01*
X0181800Y0240000D02*
X0184800Y0240000D01*
X0184800Y0260000D01*
X0181800Y0260000D01*
X0181800Y0261000D01*
X0181800Y0260000D02*
X0178800Y0260000D01*
X0223800Y0260000D02*
X0223800Y0240000D01*
X0226800Y0240000D01*
X0226800Y0239000D01*
X0226800Y0240000D02*
X0229800Y0240000D01*
X0229800Y0260000D01*
X0226800Y0260000D01*
X0226800Y0261000D01*
X0226800Y0260000D02*
X0223800Y0260000D01*
X0247800Y0235500D02*
X0250300Y0238000D01*
X0255300Y0238000D01*
X0257800Y0235500D01*
X0260300Y0238000D01*
X0265300Y0238000D01*
X0267800Y0235500D01*
X0267800Y0230500D01*
X0265300Y0228000D01*
X0260300Y0228000D01*
X0257800Y0230500D01*
X0255300Y0228000D01*
X0250300Y0228000D01*
X0247800Y0230500D01*
X0247800Y0235500D01*
X0209300Y0305000D02*
X0204300Y0305000D01*
X0201800Y0307500D01*
X0199300Y0305000D01*
X0194300Y0305000D01*
X0191800Y0307500D01*
X0189300Y0305000D01*
X0184300Y0305000D01*
X0181800Y0307500D01*
X0179300Y0305000D01*
X0174300Y0305000D01*
X0171800Y0307500D01*
X0171800Y0312500D01*
X0174300Y0315000D01*
X0179300Y0315000D01*
X0181800Y0312500D01*
X0184300Y0315000D01*
X0189300Y0315000D01*
X0191800Y0312500D01*
X0194300Y0315000D01*
X0199300Y0315000D01*
X0201800Y0312500D01*
X0204300Y0315000D01*
X0209300Y0315000D01*
X0211800Y0312500D01*
X0211800Y0307500D01*
X0209300Y0305000D01*
X0156800Y0210000D02*
X0126800Y0210000D01*
X0126800Y0205000D01*
X0116800Y0205000D01*
X0116800Y0210000D01*
X0086800Y0210000D01*
X0086800Y0070000D01*
X0156800Y0070000D01*
X0156800Y0210000D01*
X0018572Y0195000D02*
X0018579Y0195570D01*
X0018600Y0196140D01*
X0018635Y0196709D01*
X0018684Y0197277D01*
X0018747Y0197843D01*
X0018823Y0198408D01*
X0018914Y0198971D01*
X0019018Y0199532D01*
X0019136Y0200089D01*
X0019268Y0200644D01*
X0019413Y0201195D01*
X0019572Y0201743D01*
X0019744Y0202286D01*
X0019930Y0202825D01*
X0020128Y0203360D01*
X0020340Y0203889D01*
X0020565Y0204413D01*
X0020802Y0204931D01*
X0021052Y0205444D01*
X0021315Y0205950D01*
X0021590Y0206449D01*
X0021877Y0206942D01*
X0022176Y0207427D01*
X0022487Y0207905D01*
X0022809Y0208375D01*
X0023143Y0208837D01*
X0023488Y0209291D01*
X0023845Y0209736D01*
X0024212Y0210172D01*
X0024589Y0210599D01*
X0024977Y0211017D01*
X0025375Y0211425D01*
X0025783Y0211823D01*
X0026201Y0212211D01*
X0026628Y0212588D01*
X0027064Y0212955D01*
X0027509Y0213312D01*
X0027963Y0213657D01*
X0028425Y0213991D01*
X0028895Y0214313D01*
X0029373Y0214624D01*
X0029858Y0214923D01*
X0030351Y0215210D01*
X0030850Y0215485D01*
X0031356Y0215748D01*
X0031869Y0215998D01*
X0032387Y0216235D01*
X0032911Y0216460D01*
X0033440Y0216672D01*
X0033975Y0216870D01*
X0034514Y0217056D01*
X0035057Y0217228D01*
X0035605Y0217387D01*
X0036156Y0217532D01*
X0036711Y0217664D01*
X0037268Y0217782D01*
X0037829Y0217886D01*
X0038392Y0217977D01*
X0038957Y0218053D01*
X0039523Y0218116D01*
X0040091Y0218165D01*
X0040660Y0218200D01*
X0041230Y0218221D01*
X0041800Y0218228D01*
X0042370Y0218221D01*
X0042940Y0218200D01*
X0043509Y0218165D01*
X0044077Y0218116D01*
X0044643Y0218053D01*
X0045208Y0217977D01*
X0045771Y0217886D01*
X0046332Y0217782D01*
X0046889Y0217664D01*
X0047444Y0217532D01*
X0047995Y0217387D01*
X0048543Y0217228D01*
X0049086Y0217056D01*
X0049625Y0216870D01*
X0050160Y0216672D01*
X0050689Y0216460D01*
X0051213Y0216235D01*
X0051731Y0215998D01*
X0052244Y0215748D01*
X0052750Y0215485D01*
X0053249Y0215210D01*
X0053742Y0214923D01*
X0054227Y0214624D01*
X0054705Y0214313D01*
X0055175Y0213991D01*
X0055637Y0213657D01*
X0056091Y0213312D01*
X0056536Y0212955D01*
X0056972Y0212588D01*
X0057399Y0212211D01*
X0057817Y0211823D01*
X0058225Y0211425D01*
X0058623Y0211017D01*
X0059011Y0210599D01*
X0059388Y0210172D01*
X0059755Y0209736D01*
X0060112Y0209291D01*
X0060457Y0208837D01*
X0060791Y0208375D01*
X0061113Y0207905D01*
X0061424Y0207427D01*
X0061723Y0206942D01*
X0062010Y0206449D01*
X0062285Y0205950D01*
X0062548Y0205444D01*
X0062798Y0204931D01*
X0063035Y0204413D01*
X0063260Y0203889D01*
X0063472Y0203360D01*
X0063670Y0202825D01*
X0063856Y0202286D01*
X0064028Y0201743D01*
X0064187Y0201195D01*
X0064332Y0200644D01*
X0064464Y0200089D01*
X0064582Y0199532D01*
X0064686Y0198971D01*
X0064777Y0198408D01*
X0064853Y0197843D01*
X0064916Y0197277D01*
X0064965Y0196709D01*
X0065000Y0196140D01*
X0065021Y0195570D01*
X0065028Y0195000D01*
X0065021Y0194430D01*
X0065000Y0193860D01*
X0064965Y0193291D01*
X0064916Y0192723D01*
X0064853Y0192157D01*
X0064777Y0191592D01*
X0064686Y0191029D01*
X0064582Y0190468D01*
X0064464Y0189911D01*
X0064332Y0189356D01*
X0064187Y0188805D01*
X0064028Y0188257D01*
X0063856Y0187714D01*
X0063670Y0187175D01*
X0063472Y0186640D01*
X0063260Y0186111D01*
X0063035Y0185587D01*
X0062798Y0185069D01*
X0062548Y0184556D01*
X0062285Y0184050D01*
X0062010Y0183551D01*
X0061723Y0183058D01*
X0061424Y0182573D01*
X0061113Y0182095D01*
X0060791Y0181625D01*
X0060457Y0181163D01*
X0060112Y0180709D01*
X0059755Y0180264D01*
X0059388Y0179828D01*
X0059011Y0179401D01*
X0058623Y0178983D01*
X0058225Y0178575D01*
X0057817Y0178177D01*
X0057399Y0177789D01*
X0056972Y0177412D01*
X0056536Y0177045D01*
X0056091Y0176688D01*
X0055637Y0176343D01*
X0055175Y0176009D01*
X0054705Y0175687D01*
X0054227Y0175376D01*
X0053742Y0175077D01*
X0053249Y0174790D01*
X0052750Y0174515D01*
X0052244Y0174252D01*
X0051731Y0174002D01*
X0051213Y0173765D01*
X0050689Y0173540D01*
X0050160Y0173328D01*
X0049625Y0173130D01*
X0049086Y0172944D01*
X0048543Y0172772D01*
X0047995Y0172613D01*
X0047444Y0172468D01*
X0046889Y0172336D01*
X0046332Y0172218D01*
X0045771Y0172114D01*
X0045208Y0172023D01*
X0044643Y0171947D01*
X0044077Y0171884D01*
X0043509Y0171835D01*
X0042940Y0171800D01*
X0042370Y0171779D01*
X0041800Y0171772D01*
X0041230Y0171779D01*
X0040660Y0171800D01*
X0040091Y0171835D01*
X0039523Y0171884D01*
X0038957Y0171947D01*
X0038392Y0172023D01*
X0037829Y0172114D01*
X0037268Y0172218D01*
X0036711Y0172336D01*
X0036156Y0172468D01*
X0035605Y0172613D01*
X0035057Y0172772D01*
X0034514Y0172944D01*
X0033975Y0173130D01*
X0033440Y0173328D01*
X0032911Y0173540D01*
X0032387Y0173765D01*
X0031869Y0174002D01*
X0031356Y0174252D01*
X0030850Y0174515D01*
X0030351Y0174790D01*
X0029858Y0175077D01*
X0029373Y0175376D01*
X0028895Y0175687D01*
X0028425Y0176009D01*
X0027963Y0176343D01*
X0027509Y0176688D01*
X0027064Y0177045D01*
X0026628Y0177412D01*
X0026201Y0177789D01*
X0025783Y0178177D01*
X0025375Y0178575D01*
X0024977Y0178983D01*
X0024589Y0179401D01*
X0024212Y0179828D01*
X0023845Y0180264D01*
X0023488Y0180709D01*
X0023143Y0181163D01*
X0022809Y0181625D01*
X0022487Y0182095D01*
X0022176Y0182573D01*
X0021877Y0183058D01*
X0021590Y0183551D01*
X0021315Y0184050D01*
X0021052Y0184556D01*
X0020802Y0185069D01*
X0020565Y0185587D01*
X0020340Y0186111D01*
X0020128Y0186640D01*
X0019930Y0187175D01*
X0019744Y0187714D01*
X0019572Y0188257D01*
X0019413Y0188805D01*
X0019268Y0189356D01*
X0019136Y0189911D01*
X0019018Y0190468D01*
X0018914Y0191029D01*
X0018823Y0191592D01*
X0018747Y0192157D01*
X0018684Y0192723D01*
X0018635Y0193291D01*
X0018600Y0193860D01*
X0018579Y0194430D01*
X0018572Y0195000D01*
D45*
X0122300Y0274000D02*
X0121800Y0285500D01*
X0122300Y0274000D02*
X0123300Y0273000D01*
X0160300Y0273000D01*
X0161300Y0274000D01*
X0161800Y0285500D01*
X0171800Y0285500D02*
X0172300Y0274000D01*
X0173300Y0273000D01*
X0210300Y0273000D01*
X0211300Y0274000D01*
X0211800Y0285500D01*
X0216800Y0285500D02*
X0217300Y0274000D01*
X0218300Y0273000D01*
X0255300Y0273000D01*
X0256300Y0274000D01*
X0256800Y0285500D01*
D46*
X0219100Y0275400D03*
X0174100Y0275400D03*
X0124100Y0275400D03*
D47*
X0141800Y0288500D03*
X0191800Y0288500D03*
X0236800Y0288500D03*
D48*
X0219550Y0286000D03*
X0209050Y0286000D03*
X0174550Y0286000D03*
X0159050Y0286000D03*
X0124550Y0286000D03*
X0254050Y0286000D03*
D49*
X0241800Y0286000D03*
X0231800Y0286000D03*
X0196800Y0286000D03*
X0186800Y0286000D03*
X0146800Y0286000D03*
X0136800Y0286000D03*
M02*
