G75*
%MOIN*%
%OFA0B0*%
%FSLAX25Y25*%
%IPPOS*%
%LPD*%
%AMOC8*
5,1,8,0,0,1.08239X$1,22.5*
%
%ADD10C,0.00000*%
%ADD11C,0.07400*%
%ADD12R,0.07400X0.07400*%
%ADD13C,0.06000*%
%ADD14C,0.05800*%
%ADD15C,0.07000*%
%ADD16C,0.01102*%
%ADD17C,0.01600*%
D10*
X0006800Y0023701D02*
X0018611Y0023701D01*
X0018611Y0040630D01*
X0028454Y0050473D02*
X0028692Y0050470D01*
X0028930Y0050462D01*
X0029167Y0050447D01*
X0029404Y0050427D01*
X0029640Y0050401D01*
X0029876Y0050370D01*
X0030111Y0050333D01*
X0030345Y0050290D01*
X0030578Y0050241D01*
X0030810Y0050187D01*
X0031040Y0050127D01*
X0031269Y0050062D01*
X0031496Y0049991D01*
X0031721Y0049915D01*
X0031944Y0049833D01*
X0032166Y0049746D01*
X0032385Y0049654D01*
X0032602Y0049556D01*
X0032816Y0049454D01*
X0033028Y0049346D01*
X0033238Y0049232D01*
X0033444Y0049114D01*
X0033648Y0048991D01*
X0033848Y0048863D01*
X0034045Y0048731D01*
X0034240Y0048593D01*
X0034430Y0048451D01*
X0034618Y0048304D01*
X0034801Y0048153D01*
X0034981Y0047998D01*
X0035157Y0047838D01*
X0035329Y0047674D01*
X0035498Y0047505D01*
X0035662Y0047333D01*
X0035822Y0047157D01*
X0035977Y0046977D01*
X0036128Y0046794D01*
X0036275Y0046606D01*
X0036417Y0046416D01*
X0036555Y0046221D01*
X0036687Y0046024D01*
X0036815Y0045824D01*
X0036938Y0045620D01*
X0037056Y0045414D01*
X0037170Y0045204D01*
X0037278Y0044992D01*
X0037380Y0044778D01*
X0037478Y0044561D01*
X0037570Y0044342D01*
X0037657Y0044120D01*
X0037739Y0043897D01*
X0037815Y0043672D01*
X0037886Y0043445D01*
X0037951Y0043216D01*
X0038011Y0042986D01*
X0038065Y0042754D01*
X0038114Y0042521D01*
X0038157Y0042287D01*
X0038194Y0042052D01*
X0038225Y0041816D01*
X0038251Y0041580D01*
X0038271Y0041343D01*
X0038286Y0041106D01*
X0038294Y0040868D01*
X0038297Y0040630D01*
X0038296Y0040630D02*
X0038296Y0027244D01*
X0038296Y0006378D01*
X0039083Y0005197D01*
X0080422Y0005197D01*
X0081603Y0006378D01*
X0081603Y0027244D01*
X0081603Y0027441D02*
X0081603Y0035709D01*
X0081605Y0035833D01*
X0081611Y0035956D01*
X0081620Y0036080D01*
X0081634Y0036202D01*
X0081651Y0036325D01*
X0081673Y0036447D01*
X0081698Y0036568D01*
X0081727Y0036688D01*
X0081759Y0036807D01*
X0081796Y0036926D01*
X0081836Y0037043D01*
X0081879Y0037158D01*
X0081927Y0037273D01*
X0081978Y0037385D01*
X0082032Y0037496D01*
X0082090Y0037606D01*
X0082151Y0037713D01*
X0082216Y0037819D01*
X0082284Y0037922D01*
X0082355Y0038023D01*
X0082429Y0038122D01*
X0082506Y0038219D01*
X0082587Y0038313D01*
X0082670Y0038404D01*
X0082756Y0038493D01*
X0082845Y0038579D01*
X0082936Y0038662D01*
X0083030Y0038743D01*
X0083127Y0038820D01*
X0083226Y0038894D01*
X0083327Y0038965D01*
X0083430Y0039033D01*
X0083536Y0039098D01*
X0083643Y0039159D01*
X0083753Y0039217D01*
X0083864Y0039271D01*
X0083976Y0039322D01*
X0084091Y0039370D01*
X0084206Y0039413D01*
X0084323Y0039453D01*
X0084442Y0039490D01*
X0084561Y0039522D01*
X0084681Y0039551D01*
X0084802Y0039576D01*
X0084924Y0039598D01*
X0085047Y0039615D01*
X0085169Y0039629D01*
X0085293Y0039638D01*
X0085416Y0039644D01*
X0085540Y0039646D01*
X0085664Y0039644D01*
X0085787Y0039638D01*
X0085911Y0039629D01*
X0086033Y0039615D01*
X0086156Y0039598D01*
X0086278Y0039576D01*
X0086399Y0039551D01*
X0086519Y0039522D01*
X0086638Y0039490D01*
X0086757Y0039453D01*
X0086874Y0039413D01*
X0086989Y0039370D01*
X0087104Y0039322D01*
X0087216Y0039271D01*
X0087327Y0039217D01*
X0087437Y0039159D01*
X0087544Y0039098D01*
X0087650Y0039033D01*
X0087753Y0038965D01*
X0087854Y0038894D01*
X0087953Y0038820D01*
X0088050Y0038743D01*
X0088144Y0038662D01*
X0088235Y0038579D01*
X0088324Y0038493D01*
X0088410Y0038404D01*
X0088493Y0038313D01*
X0088574Y0038219D01*
X0088651Y0038122D01*
X0088725Y0038023D01*
X0088796Y0037922D01*
X0088864Y0037819D01*
X0088929Y0037713D01*
X0088990Y0037606D01*
X0089048Y0037496D01*
X0089102Y0037385D01*
X0089153Y0037273D01*
X0089201Y0037158D01*
X0089244Y0037043D01*
X0089284Y0036926D01*
X0089321Y0036807D01*
X0089353Y0036688D01*
X0089382Y0036568D01*
X0089407Y0036447D01*
X0089429Y0036325D01*
X0089446Y0036202D01*
X0089460Y0036080D01*
X0089469Y0035956D01*
X0089475Y0035833D01*
X0089477Y0035709D01*
X0089477Y0027244D01*
X0089477Y0006378D01*
X0090658Y0005197D01*
X0367824Y0005197D01*
X0369005Y0006378D01*
X0369005Y0049764D01*
X0369004Y0049764D02*
X0369003Y0049814D01*
X0369006Y0049863D01*
X0369012Y0049913D01*
X0369022Y0049961D01*
X0369035Y0050009D01*
X0369052Y0050056D01*
X0369073Y0050101D01*
X0369096Y0050144D01*
X0369123Y0050186D01*
X0369153Y0050226D01*
X0369186Y0050263D01*
X0369221Y0050298D01*
X0369259Y0050330D01*
X0369299Y0050359D01*
X0369341Y0050385D01*
X0369385Y0050408D01*
X0369431Y0050428D01*
X0369478Y0050444D01*
X0369526Y0050457D01*
X0369575Y0050466D01*
X0369624Y0050471D01*
X0369674Y0050473D01*
X0369674Y0050472D02*
X0372942Y0050472D01*
X0375304Y0050472D01*
X0375304Y0334921D01*
X0006800Y0334921D01*
X0006800Y0023701D01*
X0018611Y0040630D02*
X0018614Y0040868D01*
X0018622Y0041106D01*
X0018637Y0041343D01*
X0018657Y0041580D01*
X0018683Y0041816D01*
X0018714Y0042052D01*
X0018751Y0042287D01*
X0018794Y0042521D01*
X0018843Y0042754D01*
X0018897Y0042986D01*
X0018957Y0043216D01*
X0019022Y0043445D01*
X0019093Y0043672D01*
X0019169Y0043897D01*
X0019251Y0044120D01*
X0019338Y0044342D01*
X0019430Y0044561D01*
X0019528Y0044778D01*
X0019630Y0044992D01*
X0019738Y0045204D01*
X0019852Y0045414D01*
X0019970Y0045620D01*
X0020093Y0045824D01*
X0020221Y0046024D01*
X0020353Y0046221D01*
X0020491Y0046416D01*
X0020633Y0046606D01*
X0020780Y0046794D01*
X0020931Y0046977D01*
X0021086Y0047157D01*
X0021246Y0047333D01*
X0021410Y0047505D01*
X0021579Y0047674D01*
X0021751Y0047838D01*
X0021927Y0047998D01*
X0022107Y0048153D01*
X0022290Y0048304D01*
X0022478Y0048451D01*
X0022668Y0048593D01*
X0022863Y0048731D01*
X0023060Y0048863D01*
X0023260Y0048991D01*
X0023464Y0049114D01*
X0023670Y0049232D01*
X0023880Y0049346D01*
X0024092Y0049454D01*
X0024306Y0049556D01*
X0024523Y0049654D01*
X0024742Y0049746D01*
X0024964Y0049833D01*
X0025187Y0049915D01*
X0025412Y0049991D01*
X0025639Y0050062D01*
X0025868Y0050127D01*
X0026098Y0050187D01*
X0026330Y0050241D01*
X0026563Y0050290D01*
X0026797Y0050333D01*
X0027032Y0050370D01*
X0027268Y0050401D01*
X0027504Y0050427D01*
X0027741Y0050447D01*
X0027978Y0050462D01*
X0028216Y0050470D01*
X0028454Y0050473D01*
D11*
X0131800Y0235000D03*
X0131800Y0265000D03*
X0101800Y0264000D03*
X0091800Y0264000D03*
X0071800Y0275000D03*
X0056800Y0275000D03*
X0056800Y0245000D03*
X0071800Y0245000D03*
X0071800Y0310000D03*
X0081800Y0310000D03*
X0091800Y0310000D03*
X0116800Y0310000D03*
X0126800Y0310000D03*
X0136800Y0310000D03*
X0176800Y0310000D03*
X0186800Y0310000D03*
X0196800Y0310000D03*
X0181800Y0265000D03*
X0181800Y0235000D03*
X0226800Y0235000D03*
X0252800Y0233000D03*
X0262800Y0233000D03*
X0226800Y0265000D03*
D12*
X0206800Y0310000D03*
X0146800Y0310000D03*
D13*
X0141800Y0283000D02*
X0141800Y0277000D01*
X0131800Y0277000D02*
X0131800Y0283000D01*
X0151800Y0283000D02*
X0151800Y0277000D01*
X0181800Y0277000D02*
X0181800Y0283000D01*
X0191800Y0283000D02*
X0191800Y0277000D01*
X0201800Y0277000D02*
X0201800Y0283000D01*
X0226800Y0283000D02*
X0226800Y0277000D01*
X0236800Y0277000D02*
X0236800Y0283000D01*
X0246800Y0283000D02*
X0246800Y0277000D01*
D14*
X0151800Y0205000D03*
X0151800Y0195000D03*
X0151800Y0185000D03*
X0151800Y0175000D03*
X0151800Y0165000D03*
X0151800Y0155000D03*
X0151800Y0145000D03*
X0151800Y0135000D03*
X0151800Y0125000D03*
X0151800Y0115000D03*
X0151800Y0105000D03*
X0151800Y0095000D03*
X0151800Y0085000D03*
X0151800Y0075000D03*
X0091800Y0075000D03*
X0091800Y0085000D03*
X0091800Y0095000D03*
X0091800Y0105000D03*
X0091800Y0115000D03*
X0091800Y0125000D03*
X0091800Y0135000D03*
X0091800Y0145000D03*
X0091800Y0155000D03*
X0091800Y0165000D03*
X0091800Y0175000D03*
X0091800Y0185000D03*
X0091800Y0195000D03*
X0091800Y0205000D03*
D15*
X0041800Y0207795D03*
X0041800Y0182205D03*
X0191800Y0180000D03*
X0201800Y0180000D03*
X0201800Y0170000D03*
X0191800Y0170000D03*
X0191800Y0160000D03*
X0201800Y0160000D03*
X0201800Y0150000D03*
X0191800Y0150000D03*
X0191800Y0140000D03*
X0191800Y0130000D03*
X0201800Y0130000D03*
X0201800Y0140000D03*
X0211800Y0140000D03*
X0211800Y0130000D03*
X0221800Y0130000D03*
X0221800Y0140000D03*
X0221800Y0150000D03*
X0211800Y0150000D03*
X0211800Y0160000D03*
X0221800Y0160000D03*
X0221800Y0170000D03*
X0211800Y0170000D03*
X0211800Y0180000D03*
X0221800Y0180000D03*
X0221800Y0190000D03*
X0211800Y0190000D03*
X0211800Y0200000D03*
X0221800Y0200000D03*
X0221800Y0210000D03*
X0211800Y0210000D03*
X0201800Y0210000D03*
X0191800Y0210000D03*
X0191800Y0200000D03*
X0201800Y0200000D03*
X0201800Y0190000D03*
X0191800Y0190000D03*
X0231800Y0190000D03*
X0231800Y0180000D03*
X0231800Y0170000D03*
X0231800Y0160000D03*
X0231800Y0150000D03*
X0231800Y0140000D03*
X0231800Y0130000D03*
X0231800Y0120000D03*
X0231800Y0110000D03*
X0231800Y0100000D03*
X0231800Y0090000D03*
X0231800Y0080000D03*
X0231800Y0070000D03*
X0231800Y0060000D03*
X0221800Y0060000D03*
X0211800Y0060000D03*
X0211800Y0070000D03*
X0221800Y0070000D03*
X0221800Y0080000D03*
X0211800Y0080000D03*
X0211800Y0090000D03*
X0221800Y0090000D03*
X0221800Y0100000D03*
X0211800Y0100000D03*
X0211800Y0110000D03*
X0221800Y0110000D03*
X0221800Y0120000D03*
X0211800Y0120000D03*
X0201800Y0120000D03*
X0191800Y0120000D03*
X0191800Y0110000D03*
X0201800Y0110000D03*
X0201800Y0100000D03*
X0191800Y0100000D03*
X0191800Y0090000D03*
X0201800Y0090000D03*
X0201800Y0080000D03*
X0191800Y0080000D03*
X0191800Y0070000D03*
X0201800Y0070000D03*
X0201800Y0060000D03*
X0191800Y0060000D03*
X0241800Y0060000D03*
X0251800Y0060000D03*
X0251800Y0070000D03*
X0241800Y0070000D03*
X0241800Y0080000D03*
X0251800Y0080000D03*
X0251800Y0090000D03*
X0241800Y0090000D03*
X0241800Y0100000D03*
X0251800Y0100000D03*
X0251800Y0110000D03*
X0241800Y0110000D03*
X0241800Y0120000D03*
X0251800Y0120000D03*
X0251800Y0130000D03*
X0251800Y0140000D03*
X0241800Y0140000D03*
X0241800Y0130000D03*
X0241800Y0150000D03*
X0251800Y0150000D03*
X0251800Y0160000D03*
X0241800Y0160000D03*
X0241800Y0170000D03*
X0251800Y0170000D03*
X0251800Y0180000D03*
X0241800Y0180000D03*
X0241800Y0190000D03*
X0251800Y0190000D03*
X0251800Y0200000D03*
X0241800Y0200000D03*
X0241800Y0210000D03*
X0251800Y0210000D03*
X0261800Y0210000D03*
X0271800Y0210000D03*
X0271800Y0200000D03*
X0261800Y0200000D03*
X0261800Y0190000D03*
X0271800Y0190000D03*
X0271800Y0180000D03*
X0261800Y0180000D03*
X0261800Y0170000D03*
X0271800Y0170000D03*
X0271800Y0160000D03*
X0261800Y0160000D03*
X0261800Y0150000D03*
X0271800Y0150000D03*
X0271800Y0140000D03*
X0271800Y0130000D03*
X0261800Y0130000D03*
X0261800Y0140000D03*
X0261800Y0120000D03*
X0271800Y0120000D03*
X0271800Y0110000D03*
X0261800Y0110000D03*
X0261800Y0100000D03*
X0271800Y0100000D03*
X0271800Y0090000D03*
X0261800Y0090000D03*
X0261800Y0080000D03*
X0271800Y0080000D03*
X0271800Y0070000D03*
X0261800Y0070000D03*
X0261800Y0060000D03*
X0271800Y0060000D03*
X0281800Y0060000D03*
X0281800Y0070000D03*
X0281800Y0080000D03*
X0281800Y0090000D03*
X0281800Y0100000D03*
X0281800Y0110000D03*
X0281800Y0120000D03*
X0281800Y0130000D03*
X0281800Y0140000D03*
X0281800Y0150000D03*
X0281800Y0160000D03*
X0281800Y0170000D03*
X0281800Y0180000D03*
X0281800Y0190000D03*
X0281800Y0200000D03*
X0281800Y0210000D03*
X0291800Y0210000D03*
X0301800Y0210000D03*
X0301800Y0200000D03*
X0291800Y0200000D03*
X0291800Y0190000D03*
X0301800Y0190000D03*
X0301800Y0180000D03*
X0291800Y0180000D03*
X0291800Y0170000D03*
X0301800Y0170000D03*
X0301800Y0160000D03*
X0291800Y0160000D03*
X0291800Y0150000D03*
X0301800Y0150000D03*
X0301800Y0140000D03*
X0301800Y0130000D03*
X0291800Y0130000D03*
X0291800Y0140000D03*
X0291800Y0120000D03*
X0301800Y0120000D03*
X0301800Y0110000D03*
X0291800Y0110000D03*
X0291800Y0100000D03*
X0301800Y0100000D03*
X0301800Y0090000D03*
X0291800Y0090000D03*
X0291800Y0080000D03*
X0301800Y0080000D03*
X0301800Y0070000D03*
X0291800Y0070000D03*
X0291800Y0060000D03*
X0301800Y0060000D03*
X0311800Y0060000D03*
X0321800Y0060000D03*
X0321800Y0070000D03*
X0311800Y0070000D03*
X0311800Y0080000D03*
X0321800Y0080000D03*
X0321800Y0090000D03*
X0311800Y0090000D03*
X0311800Y0100000D03*
X0321800Y0100000D03*
X0321800Y0110000D03*
X0311800Y0110000D03*
X0311800Y0120000D03*
X0321800Y0120000D03*
X0321800Y0130000D03*
X0321800Y0140000D03*
X0311800Y0140000D03*
X0311800Y0130000D03*
X0311800Y0150000D03*
X0321800Y0150000D03*
X0321800Y0160000D03*
X0311800Y0160000D03*
X0311800Y0170000D03*
X0321800Y0170000D03*
X0321800Y0180000D03*
X0311800Y0180000D03*
X0311800Y0190000D03*
X0321800Y0190000D03*
X0321800Y0200000D03*
X0311800Y0200000D03*
X0311800Y0210000D03*
X0321800Y0210000D03*
X0331800Y0210000D03*
X0331800Y0200000D03*
X0331800Y0190000D03*
X0331800Y0180000D03*
X0331800Y0170000D03*
X0331800Y0160000D03*
X0331800Y0150000D03*
X0331800Y0140000D03*
X0331800Y0130000D03*
X0331800Y0120000D03*
X0331800Y0110000D03*
X0331800Y0100000D03*
X0331800Y0090000D03*
X0331800Y0080000D03*
X0331800Y0070000D03*
X0331800Y0060000D03*
X0341800Y0060000D03*
X0341800Y0070000D03*
X0341800Y0080000D03*
X0341800Y0090000D03*
X0341800Y0100000D03*
X0341800Y0110000D03*
X0341800Y0120000D03*
X0341800Y0130000D03*
X0341800Y0140000D03*
X0341800Y0150000D03*
X0341800Y0160000D03*
X0341800Y0170000D03*
X0341800Y0180000D03*
X0341800Y0190000D03*
X0341800Y0200000D03*
X0341800Y0210000D03*
X0231800Y0210000D03*
X0231800Y0200000D03*
D16*
X0234005Y0027087D02*
X0234005Y0012441D01*
X0232351Y0012441D01*
X0232351Y0027087D01*
X0234005Y0027087D01*
X0234005Y0013542D02*
X0232351Y0013542D01*
X0232351Y0014643D02*
X0234005Y0014643D01*
X0234005Y0015744D02*
X0232351Y0015744D01*
X0232351Y0016845D02*
X0234005Y0016845D01*
X0234005Y0017946D02*
X0232351Y0017946D01*
X0232351Y0019047D02*
X0234005Y0019047D01*
X0234005Y0020148D02*
X0232351Y0020148D01*
X0232351Y0021249D02*
X0234005Y0021249D01*
X0234005Y0022350D02*
X0232351Y0022350D01*
X0232351Y0023451D02*
X0234005Y0023451D01*
X0234005Y0024552D02*
X0232351Y0024552D01*
X0232351Y0025653D02*
X0234005Y0025653D01*
X0234005Y0026754D02*
X0232351Y0026754D01*
X0230068Y0027087D02*
X0230068Y0012441D01*
X0228414Y0012441D01*
X0228414Y0027087D01*
X0230068Y0027087D01*
X0230068Y0013542D02*
X0228414Y0013542D01*
X0228414Y0014643D02*
X0230068Y0014643D01*
X0230068Y0015744D02*
X0228414Y0015744D01*
X0228414Y0016845D02*
X0230068Y0016845D01*
X0230068Y0017946D02*
X0228414Y0017946D01*
X0228414Y0019047D02*
X0230068Y0019047D01*
X0230068Y0020148D02*
X0228414Y0020148D01*
X0228414Y0021249D02*
X0230068Y0021249D01*
X0230068Y0022350D02*
X0228414Y0022350D01*
X0228414Y0023451D02*
X0230068Y0023451D01*
X0230068Y0024552D02*
X0228414Y0024552D01*
X0228414Y0025653D02*
X0230068Y0025653D01*
X0230068Y0026754D02*
X0228414Y0026754D01*
X0226131Y0027087D02*
X0226131Y0012441D01*
X0224477Y0012441D01*
X0224477Y0027087D01*
X0226131Y0027087D01*
X0226131Y0013542D02*
X0224477Y0013542D01*
X0224477Y0014643D02*
X0226131Y0014643D01*
X0226131Y0015744D02*
X0224477Y0015744D01*
X0224477Y0016845D02*
X0226131Y0016845D01*
X0226131Y0017946D02*
X0224477Y0017946D01*
X0224477Y0019047D02*
X0226131Y0019047D01*
X0226131Y0020148D02*
X0224477Y0020148D01*
X0224477Y0021249D02*
X0226131Y0021249D01*
X0226131Y0022350D02*
X0224477Y0022350D01*
X0224477Y0023451D02*
X0226131Y0023451D01*
X0226131Y0024552D02*
X0224477Y0024552D01*
X0224477Y0025653D02*
X0226131Y0025653D01*
X0226131Y0026754D02*
X0224477Y0026754D01*
X0222194Y0027087D02*
X0222194Y0012441D01*
X0220540Y0012441D01*
X0220540Y0027087D01*
X0222194Y0027087D01*
X0222194Y0013542D02*
X0220540Y0013542D01*
X0220540Y0014643D02*
X0222194Y0014643D01*
X0222194Y0015744D02*
X0220540Y0015744D01*
X0220540Y0016845D02*
X0222194Y0016845D01*
X0222194Y0017946D02*
X0220540Y0017946D01*
X0220540Y0019047D02*
X0222194Y0019047D01*
X0222194Y0020148D02*
X0220540Y0020148D01*
X0220540Y0021249D02*
X0222194Y0021249D01*
X0222194Y0022350D02*
X0220540Y0022350D01*
X0220540Y0023451D02*
X0222194Y0023451D01*
X0222194Y0024552D02*
X0220540Y0024552D01*
X0220540Y0025653D02*
X0222194Y0025653D01*
X0222194Y0026754D02*
X0220540Y0026754D01*
X0218257Y0027087D02*
X0218257Y0012441D01*
X0216603Y0012441D01*
X0216603Y0027087D01*
X0218257Y0027087D01*
X0218257Y0013542D02*
X0216603Y0013542D01*
X0216603Y0014643D02*
X0218257Y0014643D01*
X0218257Y0015744D02*
X0216603Y0015744D01*
X0216603Y0016845D02*
X0218257Y0016845D01*
X0218257Y0017946D02*
X0216603Y0017946D01*
X0216603Y0019047D02*
X0218257Y0019047D01*
X0218257Y0020148D02*
X0216603Y0020148D01*
X0216603Y0021249D02*
X0218257Y0021249D01*
X0218257Y0022350D02*
X0216603Y0022350D01*
X0216603Y0023451D02*
X0218257Y0023451D01*
X0218257Y0024552D02*
X0216603Y0024552D01*
X0216603Y0025653D02*
X0218257Y0025653D01*
X0218257Y0026754D02*
X0216603Y0026754D01*
X0214320Y0027087D02*
X0214320Y0012441D01*
X0212666Y0012441D01*
X0212666Y0027087D01*
X0214320Y0027087D01*
X0214320Y0013542D02*
X0212666Y0013542D01*
X0212666Y0014643D02*
X0214320Y0014643D01*
X0214320Y0015744D02*
X0212666Y0015744D01*
X0212666Y0016845D02*
X0214320Y0016845D01*
X0214320Y0017946D02*
X0212666Y0017946D01*
X0212666Y0019047D02*
X0214320Y0019047D01*
X0214320Y0020148D02*
X0212666Y0020148D01*
X0212666Y0021249D02*
X0214320Y0021249D01*
X0214320Y0022350D02*
X0212666Y0022350D01*
X0212666Y0023451D02*
X0214320Y0023451D01*
X0214320Y0024552D02*
X0212666Y0024552D01*
X0212666Y0025653D02*
X0214320Y0025653D01*
X0214320Y0026754D02*
X0212666Y0026754D01*
X0210383Y0027087D02*
X0210383Y0012441D01*
X0208729Y0012441D01*
X0208729Y0027087D01*
X0210383Y0027087D01*
X0210383Y0013542D02*
X0208729Y0013542D01*
X0208729Y0014643D02*
X0210383Y0014643D01*
X0210383Y0015744D02*
X0208729Y0015744D01*
X0208729Y0016845D02*
X0210383Y0016845D01*
X0210383Y0017946D02*
X0208729Y0017946D01*
X0208729Y0019047D02*
X0210383Y0019047D01*
X0210383Y0020148D02*
X0208729Y0020148D01*
X0208729Y0021249D02*
X0210383Y0021249D01*
X0210383Y0022350D02*
X0208729Y0022350D01*
X0208729Y0023451D02*
X0210383Y0023451D01*
X0210383Y0024552D02*
X0208729Y0024552D01*
X0208729Y0025653D02*
X0210383Y0025653D01*
X0210383Y0026754D02*
X0208729Y0026754D01*
X0206446Y0027087D02*
X0206446Y0012441D01*
X0204792Y0012441D01*
X0204792Y0027087D01*
X0206446Y0027087D01*
X0206446Y0013542D02*
X0204792Y0013542D01*
X0204792Y0014643D02*
X0206446Y0014643D01*
X0206446Y0015744D02*
X0204792Y0015744D01*
X0204792Y0016845D02*
X0206446Y0016845D01*
X0206446Y0017946D02*
X0204792Y0017946D01*
X0204792Y0019047D02*
X0206446Y0019047D01*
X0206446Y0020148D02*
X0204792Y0020148D01*
X0204792Y0021249D02*
X0206446Y0021249D01*
X0206446Y0022350D02*
X0204792Y0022350D01*
X0204792Y0023451D02*
X0206446Y0023451D01*
X0206446Y0024552D02*
X0204792Y0024552D01*
X0204792Y0025653D02*
X0206446Y0025653D01*
X0206446Y0026754D02*
X0204792Y0026754D01*
X0202509Y0027087D02*
X0202509Y0012441D01*
X0200855Y0012441D01*
X0200855Y0027087D01*
X0202509Y0027087D01*
X0202509Y0013542D02*
X0200855Y0013542D01*
X0200855Y0014643D02*
X0202509Y0014643D01*
X0202509Y0015744D02*
X0200855Y0015744D01*
X0200855Y0016845D02*
X0202509Y0016845D01*
X0202509Y0017946D02*
X0200855Y0017946D01*
X0200855Y0019047D02*
X0202509Y0019047D01*
X0202509Y0020148D02*
X0200855Y0020148D01*
X0200855Y0021249D02*
X0202509Y0021249D01*
X0202509Y0022350D02*
X0200855Y0022350D01*
X0200855Y0023451D02*
X0202509Y0023451D01*
X0202509Y0024552D02*
X0200855Y0024552D01*
X0200855Y0025653D02*
X0202509Y0025653D01*
X0202509Y0026754D02*
X0200855Y0026754D01*
X0198572Y0027087D02*
X0198572Y0012441D01*
X0196918Y0012441D01*
X0196918Y0027087D01*
X0198572Y0027087D01*
X0198572Y0013542D02*
X0196918Y0013542D01*
X0196918Y0014643D02*
X0198572Y0014643D01*
X0198572Y0015744D02*
X0196918Y0015744D01*
X0196918Y0016845D02*
X0198572Y0016845D01*
X0198572Y0017946D02*
X0196918Y0017946D01*
X0196918Y0019047D02*
X0198572Y0019047D01*
X0198572Y0020148D02*
X0196918Y0020148D01*
X0196918Y0021249D02*
X0198572Y0021249D01*
X0198572Y0022350D02*
X0196918Y0022350D01*
X0196918Y0023451D02*
X0198572Y0023451D01*
X0198572Y0024552D02*
X0196918Y0024552D01*
X0196918Y0025653D02*
X0198572Y0025653D01*
X0198572Y0026754D02*
X0196918Y0026754D01*
X0194635Y0027087D02*
X0194635Y0012441D01*
X0192981Y0012441D01*
X0192981Y0027087D01*
X0194635Y0027087D01*
X0194635Y0013542D02*
X0192981Y0013542D01*
X0192981Y0014643D02*
X0194635Y0014643D01*
X0194635Y0015744D02*
X0192981Y0015744D01*
X0192981Y0016845D02*
X0194635Y0016845D01*
X0194635Y0017946D02*
X0192981Y0017946D01*
X0192981Y0019047D02*
X0194635Y0019047D01*
X0194635Y0020148D02*
X0192981Y0020148D01*
X0192981Y0021249D02*
X0194635Y0021249D01*
X0194635Y0022350D02*
X0192981Y0022350D01*
X0192981Y0023451D02*
X0194635Y0023451D01*
X0194635Y0024552D02*
X0192981Y0024552D01*
X0192981Y0025653D02*
X0194635Y0025653D01*
X0194635Y0026754D02*
X0192981Y0026754D01*
X0190698Y0027087D02*
X0190698Y0012441D01*
X0189044Y0012441D01*
X0189044Y0027087D01*
X0190698Y0027087D01*
X0190698Y0013542D02*
X0189044Y0013542D01*
X0189044Y0014643D02*
X0190698Y0014643D01*
X0190698Y0015744D02*
X0189044Y0015744D01*
X0189044Y0016845D02*
X0190698Y0016845D01*
X0190698Y0017946D02*
X0189044Y0017946D01*
X0189044Y0019047D02*
X0190698Y0019047D01*
X0190698Y0020148D02*
X0189044Y0020148D01*
X0189044Y0021249D02*
X0190698Y0021249D01*
X0190698Y0022350D02*
X0189044Y0022350D01*
X0189044Y0023451D02*
X0190698Y0023451D01*
X0190698Y0024552D02*
X0189044Y0024552D01*
X0189044Y0025653D02*
X0190698Y0025653D01*
X0190698Y0026754D02*
X0189044Y0026754D01*
X0186761Y0027087D02*
X0186761Y0012441D01*
X0185107Y0012441D01*
X0185107Y0027087D01*
X0186761Y0027087D01*
X0186761Y0013542D02*
X0185107Y0013542D01*
X0185107Y0014643D02*
X0186761Y0014643D01*
X0186761Y0015744D02*
X0185107Y0015744D01*
X0185107Y0016845D02*
X0186761Y0016845D01*
X0186761Y0017946D02*
X0185107Y0017946D01*
X0185107Y0019047D02*
X0186761Y0019047D01*
X0186761Y0020148D02*
X0185107Y0020148D01*
X0185107Y0021249D02*
X0186761Y0021249D01*
X0186761Y0022350D02*
X0185107Y0022350D01*
X0185107Y0023451D02*
X0186761Y0023451D01*
X0186761Y0024552D02*
X0185107Y0024552D01*
X0185107Y0025653D02*
X0186761Y0025653D01*
X0186761Y0026754D02*
X0185107Y0026754D01*
X0182824Y0027087D02*
X0182824Y0012441D01*
X0181170Y0012441D01*
X0181170Y0027087D01*
X0182824Y0027087D01*
X0182824Y0013542D02*
X0181170Y0013542D01*
X0181170Y0014643D02*
X0182824Y0014643D01*
X0182824Y0015744D02*
X0181170Y0015744D01*
X0181170Y0016845D02*
X0182824Y0016845D01*
X0182824Y0017946D02*
X0181170Y0017946D01*
X0181170Y0019047D02*
X0182824Y0019047D01*
X0182824Y0020148D02*
X0181170Y0020148D01*
X0181170Y0021249D02*
X0182824Y0021249D01*
X0182824Y0022350D02*
X0181170Y0022350D01*
X0181170Y0023451D02*
X0182824Y0023451D01*
X0182824Y0024552D02*
X0181170Y0024552D01*
X0181170Y0025653D02*
X0182824Y0025653D01*
X0182824Y0026754D02*
X0181170Y0026754D01*
X0178887Y0027087D02*
X0178887Y0012441D01*
X0177233Y0012441D01*
X0177233Y0027087D01*
X0178887Y0027087D01*
X0178887Y0013542D02*
X0177233Y0013542D01*
X0177233Y0014643D02*
X0178887Y0014643D01*
X0178887Y0015744D02*
X0177233Y0015744D01*
X0177233Y0016845D02*
X0178887Y0016845D01*
X0178887Y0017946D02*
X0177233Y0017946D01*
X0177233Y0019047D02*
X0178887Y0019047D01*
X0178887Y0020148D02*
X0177233Y0020148D01*
X0177233Y0021249D02*
X0178887Y0021249D01*
X0178887Y0022350D02*
X0177233Y0022350D01*
X0177233Y0023451D02*
X0178887Y0023451D01*
X0178887Y0024552D02*
X0177233Y0024552D01*
X0177233Y0025653D02*
X0178887Y0025653D01*
X0178887Y0026754D02*
X0177233Y0026754D01*
X0174950Y0027087D02*
X0174950Y0012441D01*
X0173296Y0012441D01*
X0173296Y0027087D01*
X0174950Y0027087D01*
X0174950Y0013542D02*
X0173296Y0013542D01*
X0173296Y0014643D02*
X0174950Y0014643D01*
X0174950Y0015744D02*
X0173296Y0015744D01*
X0173296Y0016845D02*
X0174950Y0016845D01*
X0174950Y0017946D02*
X0173296Y0017946D01*
X0173296Y0019047D02*
X0174950Y0019047D01*
X0174950Y0020148D02*
X0173296Y0020148D01*
X0173296Y0021249D02*
X0174950Y0021249D01*
X0174950Y0022350D02*
X0173296Y0022350D01*
X0173296Y0023451D02*
X0174950Y0023451D01*
X0174950Y0024552D02*
X0173296Y0024552D01*
X0173296Y0025653D02*
X0174950Y0025653D01*
X0174950Y0026754D02*
X0173296Y0026754D01*
X0171013Y0027087D02*
X0171013Y0012441D01*
X0169359Y0012441D01*
X0169359Y0027087D01*
X0171013Y0027087D01*
X0171013Y0013542D02*
X0169359Y0013542D01*
X0169359Y0014643D02*
X0171013Y0014643D01*
X0171013Y0015744D02*
X0169359Y0015744D01*
X0169359Y0016845D02*
X0171013Y0016845D01*
X0171013Y0017946D02*
X0169359Y0017946D01*
X0169359Y0019047D02*
X0171013Y0019047D01*
X0171013Y0020148D02*
X0169359Y0020148D01*
X0169359Y0021249D02*
X0171013Y0021249D01*
X0171013Y0022350D02*
X0169359Y0022350D01*
X0169359Y0023451D02*
X0171013Y0023451D01*
X0171013Y0024552D02*
X0169359Y0024552D01*
X0169359Y0025653D02*
X0171013Y0025653D01*
X0171013Y0026754D02*
X0169359Y0026754D01*
X0167076Y0027087D02*
X0167076Y0012441D01*
X0165422Y0012441D01*
X0165422Y0027087D01*
X0167076Y0027087D01*
X0167076Y0013542D02*
X0165422Y0013542D01*
X0165422Y0014643D02*
X0167076Y0014643D01*
X0167076Y0015744D02*
X0165422Y0015744D01*
X0165422Y0016845D02*
X0167076Y0016845D01*
X0167076Y0017946D02*
X0165422Y0017946D01*
X0165422Y0019047D02*
X0167076Y0019047D01*
X0167076Y0020148D02*
X0165422Y0020148D01*
X0165422Y0021249D02*
X0167076Y0021249D01*
X0167076Y0022350D02*
X0165422Y0022350D01*
X0165422Y0023451D02*
X0167076Y0023451D01*
X0167076Y0024552D02*
X0165422Y0024552D01*
X0165422Y0025653D02*
X0167076Y0025653D01*
X0167076Y0026754D02*
X0165422Y0026754D01*
X0163139Y0027087D02*
X0163139Y0012441D01*
X0161485Y0012441D01*
X0161485Y0027087D01*
X0163139Y0027087D01*
X0163139Y0013542D02*
X0161485Y0013542D01*
X0161485Y0014643D02*
X0163139Y0014643D01*
X0163139Y0015744D02*
X0161485Y0015744D01*
X0161485Y0016845D02*
X0163139Y0016845D01*
X0163139Y0017946D02*
X0161485Y0017946D01*
X0161485Y0019047D02*
X0163139Y0019047D01*
X0163139Y0020148D02*
X0161485Y0020148D01*
X0161485Y0021249D02*
X0163139Y0021249D01*
X0163139Y0022350D02*
X0161485Y0022350D01*
X0161485Y0023451D02*
X0163139Y0023451D01*
X0163139Y0024552D02*
X0161485Y0024552D01*
X0161485Y0025653D02*
X0163139Y0025653D01*
X0163139Y0026754D02*
X0161485Y0026754D01*
X0159202Y0027087D02*
X0159202Y0012441D01*
X0157548Y0012441D01*
X0157548Y0027087D01*
X0159202Y0027087D01*
X0159202Y0013542D02*
X0157548Y0013542D01*
X0157548Y0014643D02*
X0159202Y0014643D01*
X0159202Y0015744D02*
X0157548Y0015744D01*
X0157548Y0016845D02*
X0159202Y0016845D01*
X0159202Y0017946D02*
X0157548Y0017946D01*
X0157548Y0019047D02*
X0159202Y0019047D01*
X0159202Y0020148D02*
X0157548Y0020148D01*
X0157548Y0021249D02*
X0159202Y0021249D01*
X0159202Y0022350D02*
X0157548Y0022350D01*
X0157548Y0023451D02*
X0159202Y0023451D01*
X0159202Y0024552D02*
X0157548Y0024552D01*
X0157548Y0025653D02*
X0159202Y0025653D01*
X0159202Y0026754D02*
X0157548Y0026754D01*
X0155265Y0027087D02*
X0155265Y0012441D01*
X0153611Y0012441D01*
X0153611Y0027087D01*
X0155265Y0027087D01*
X0155265Y0013542D02*
X0153611Y0013542D01*
X0153611Y0014643D02*
X0155265Y0014643D01*
X0155265Y0015744D02*
X0153611Y0015744D01*
X0153611Y0016845D02*
X0155265Y0016845D01*
X0155265Y0017946D02*
X0153611Y0017946D01*
X0153611Y0019047D02*
X0155265Y0019047D01*
X0155265Y0020148D02*
X0153611Y0020148D01*
X0153611Y0021249D02*
X0155265Y0021249D01*
X0155265Y0022350D02*
X0153611Y0022350D01*
X0153611Y0023451D02*
X0155265Y0023451D01*
X0155265Y0024552D02*
X0153611Y0024552D01*
X0153611Y0025653D02*
X0155265Y0025653D01*
X0155265Y0026754D02*
X0153611Y0026754D01*
X0151328Y0027087D02*
X0151328Y0012441D01*
X0149674Y0012441D01*
X0149674Y0027087D01*
X0151328Y0027087D01*
X0151328Y0013542D02*
X0149674Y0013542D01*
X0149674Y0014643D02*
X0151328Y0014643D01*
X0151328Y0015744D02*
X0149674Y0015744D01*
X0149674Y0016845D02*
X0151328Y0016845D01*
X0151328Y0017946D02*
X0149674Y0017946D01*
X0149674Y0019047D02*
X0151328Y0019047D01*
X0151328Y0020148D02*
X0149674Y0020148D01*
X0149674Y0021249D02*
X0151328Y0021249D01*
X0151328Y0022350D02*
X0149674Y0022350D01*
X0149674Y0023451D02*
X0151328Y0023451D01*
X0151328Y0024552D02*
X0149674Y0024552D01*
X0149674Y0025653D02*
X0151328Y0025653D01*
X0151328Y0026754D02*
X0149674Y0026754D01*
X0147391Y0027087D02*
X0147391Y0012441D01*
X0145737Y0012441D01*
X0145737Y0027087D01*
X0147391Y0027087D01*
X0147391Y0013542D02*
X0145737Y0013542D01*
X0145737Y0014643D02*
X0147391Y0014643D01*
X0147391Y0015744D02*
X0145737Y0015744D01*
X0145737Y0016845D02*
X0147391Y0016845D01*
X0147391Y0017946D02*
X0145737Y0017946D01*
X0145737Y0019047D02*
X0147391Y0019047D01*
X0147391Y0020148D02*
X0145737Y0020148D01*
X0145737Y0021249D02*
X0147391Y0021249D01*
X0147391Y0022350D02*
X0145737Y0022350D01*
X0145737Y0023451D02*
X0147391Y0023451D01*
X0147391Y0024552D02*
X0145737Y0024552D01*
X0145737Y0025653D02*
X0147391Y0025653D01*
X0147391Y0026754D02*
X0145737Y0026754D01*
X0143454Y0027087D02*
X0143454Y0012441D01*
X0141800Y0012441D01*
X0141800Y0027087D01*
X0143454Y0027087D01*
X0143454Y0013542D02*
X0141800Y0013542D01*
X0141800Y0014643D02*
X0143454Y0014643D01*
X0143454Y0015744D02*
X0141800Y0015744D01*
X0141800Y0016845D02*
X0143454Y0016845D01*
X0143454Y0017946D02*
X0141800Y0017946D01*
X0141800Y0019047D02*
X0143454Y0019047D01*
X0143454Y0020148D02*
X0141800Y0020148D01*
X0141800Y0021249D02*
X0143454Y0021249D01*
X0143454Y0022350D02*
X0141800Y0022350D01*
X0141800Y0023451D02*
X0143454Y0023451D01*
X0143454Y0024552D02*
X0141800Y0024552D01*
X0141800Y0025653D02*
X0143454Y0025653D01*
X0143454Y0026754D02*
X0141800Y0026754D01*
X0139517Y0027087D02*
X0139517Y0012441D01*
X0137863Y0012441D01*
X0137863Y0027087D01*
X0139517Y0027087D01*
X0139517Y0013542D02*
X0137863Y0013542D01*
X0137863Y0014643D02*
X0139517Y0014643D01*
X0139517Y0015744D02*
X0137863Y0015744D01*
X0137863Y0016845D02*
X0139517Y0016845D01*
X0139517Y0017946D02*
X0137863Y0017946D01*
X0137863Y0019047D02*
X0139517Y0019047D01*
X0139517Y0020148D02*
X0137863Y0020148D01*
X0137863Y0021249D02*
X0139517Y0021249D01*
X0139517Y0022350D02*
X0137863Y0022350D01*
X0137863Y0023451D02*
X0139517Y0023451D01*
X0139517Y0024552D02*
X0137863Y0024552D01*
X0137863Y0025653D02*
X0139517Y0025653D01*
X0139517Y0026754D02*
X0137863Y0026754D01*
X0135580Y0027087D02*
X0135580Y0012441D01*
X0133926Y0012441D01*
X0133926Y0027087D01*
X0135580Y0027087D01*
X0135580Y0013542D02*
X0133926Y0013542D01*
X0133926Y0014643D02*
X0135580Y0014643D01*
X0135580Y0015744D02*
X0133926Y0015744D01*
X0133926Y0016845D02*
X0135580Y0016845D01*
X0135580Y0017946D02*
X0133926Y0017946D01*
X0133926Y0019047D02*
X0135580Y0019047D01*
X0135580Y0020148D02*
X0133926Y0020148D01*
X0133926Y0021249D02*
X0135580Y0021249D01*
X0135580Y0022350D02*
X0133926Y0022350D01*
X0133926Y0023451D02*
X0135580Y0023451D01*
X0135580Y0024552D02*
X0133926Y0024552D01*
X0133926Y0025653D02*
X0135580Y0025653D01*
X0135580Y0026754D02*
X0133926Y0026754D01*
X0131643Y0027087D02*
X0131643Y0012441D01*
X0129989Y0012441D01*
X0129989Y0027087D01*
X0131643Y0027087D01*
X0131643Y0013542D02*
X0129989Y0013542D01*
X0129989Y0014643D02*
X0131643Y0014643D01*
X0131643Y0015744D02*
X0129989Y0015744D01*
X0129989Y0016845D02*
X0131643Y0016845D01*
X0131643Y0017946D02*
X0129989Y0017946D01*
X0129989Y0019047D02*
X0131643Y0019047D01*
X0131643Y0020148D02*
X0129989Y0020148D01*
X0129989Y0021249D02*
X0131643Y0021249D01*
X0131643Y0022350D02*
X0129989Y0022350D01*
X0129989Y0023451D02*
X0131643Y0023451D01*
X0131643Y0024552D02*
X0129989Y0024552D01*
X0129989Y0025653D02*
X0131643Y0025653D01*
X0131643Y0026754D02*
X0129989Y0026754D01*
X0127706Y0027087D02*
X0127706Y0012441D01*
X0126052Y0012441D01*
X0126052Y0027087D01*
X0127706Y0027087D01*
X0127706Y0013542D02*
X0126052Y0013542D01*
X0126052Y0014643D02*
X0127706Y0014643D01*
X0127706Y0015744D02*
X0126052Y0015744D01*
X0126052Y0016845D02*
X0127706Y0016845D01*
X0127706Y0017946D02*
X0126052Y0017946D01*
X0126052Y0019047D02*
X0127706Y0019047D01*
X0127706Y0020148D02*
X0126052Y0020148D01*
X0126052Y0021249D02*
X0127706Y0021249D01*
X0127706Y0022350D02*
X0126052Y0022350D01*
X0126052Y0023451D02*
X0127706Y0023451D01*
X0127706Y0024552D02*
X0126052Y0024552D01*
X0126052Y0025653D02*
X0127706Y0025653D01*
X0127706Y0026754D02*
X0126052Y0026754D01*
X0123769Y0027087D02*
X0123769Y0012441D01*
X0122115Y0012441D01*
X0122115Y0027087D01*
X0123769Y0027087D01*
X0123769Y0013542D02*
X0122115Y0013542D01*
X0122115Y0014643D02*
X0123769Y0014643D01*
X0123769Y0015744D02*
X0122115Y0015744D01*
X0122115Y0016845D02*
X0123769Y0016845D01*
X0123769Y0017946D02*
X0122115Y0017946D01*
X0122115Y0019047D02*
X0123769Y0019047D01*
X0123769Y0020148D02*
X0122115Y0020148D01*
X0122115Y0021249D02*
X0123769Y0021249D01*
X0123769Y0022350D02*
X0122115Y0022350D01*
X0122115Y0023451D02*
X0123769Y0023451D01*
X0123769Y0024552D02*
X0122115Y0024552D01*
X0122115Y0025653D02*
X0123769Y0025653D01*
X0123769Y0026754D02*
X0122115Y0026754D01*
X0119832Y0027087D02*
X0119832Y0012441D01*
X0118178Y0012441D01*
X0118178Y0027087D01*
X0119832Y0027087D01*
X0119832Y0013542D02*
X0118178Y0013542D01*
X0118178Y0014643D02*
X0119832Y0014643D01*
X0119832Y0015744D02*
X0118178Y0015744D01*
X0118178Y0016845D02*
X0119832Y0016845D01*
X0119832Y0017946D02*
X0118178Y0017946D01*
X0118178Y0019047D02*
X0119832Y0019047D01*
X0119832Y0020148D02*
X0118178Y0020148D01*
X0118178Y0021249D02*
X0119832Y0021249D01*
X0119832Y0022350D02*
X0118178Y0022350D01*
X0118178Y0023451D02*
X0119832Y0023451D01*
X0119832Y0024552D02*
X0118178Y0024552D01*
X0118178Y0025653D02*
X0119832Y0025653D01*
X0119832Y0026754D02*
X0118178Y0026754D01*
X0115895Y0027087D02*
X0115895Y0012441D01*
X0114241Y0012441D01*
X0114241Y0027087D01*
X0115895Y0027087D01*
X0115895Y0013542D02*
X0114241Y0013542D01*
X0114241Y0014643D02*
X0115895Y0014643D01*
X0115895Y0015744D02*
X0114241Y0015744D01*
X0114241Y0016845D02*
X0115895Y0016845D01*
X0115895Y0017946D02*
X0114241Y0017946D01*
X0114241Y0019047D02*
X0115895Y0019047D01*
X0115895Y0020148D02*
X0114241Y0020148D01*
X0114241Y0021249D02*
X0115895Y0021249D01*
X0115895Y0022350D02*
X0114241Y0022350D01*
X0114241Y0023451D02*
X0115895Y0023451D01*
X0115895Y0024552D02*
X0114241Y0024552D01*
X0114241Y0025653D02*
X0115895Y0025653D01*
X0115895Y0026754D02*
X0114241Y0026754D01*
X0111958Y0027087D02*
X0111958Y0012441D01*
X0110304Y0012441D01*
X0110304Y0027087D01*
X0111958Y0027087D01*
X0111958Y0013542D02*
X0110304Y0013542D01*
X0110304Y0014643D02*
X0111958Y0014643D01*
X0111958Y0015744D02*
X0110304Y0015744D01*
X0110304Y0016845D02*
X0111958Y0016845D01*
X0111958Y0017946D02*
X0110304Y0017946D01*
X0110304Y0019047D02*
X0111958Y0019047D01*
X0111958Y0020148D02*
X0110304Y0020148D01*
X0110304Y0021249D02*
X0111958Y0021249D01*
X0111958Y0022350D02*
X0110304Y0022350D01*
X0110304Y0023451D02*
X0111958Y0023451D01*
X0111958Y0024552D02*
X0110304Y0024552D01*
X0110304Y0025653D02*
X0111958Y0025653D01*
X0111958Y0026754D02*
X0110304Y0026754D01*
X0108021Y0027087D02*
X0108021Y0012441D01*
X0106367Y0012441D01*
X0106367Y0027087D01*
X0108021Y0027087D01*
X0108021Y0013542D02*
X0106367Y0013542D01*
X0106367Y0014643D02*
X0108021Y0014643D01*
X0108021Y0015744D02*
X0106367Y0015744D01*
X0106367Y0016845D02*
X0108021Y0016845D01*
X0108021Y0017946D02*
X0106367Y0017946D01*
X0106367Y0019047D02*
X0108021Y0019047D01*
X0108021Y0020148D02*
X0106367Y0020148D01*
X0106367Y0021249D02*
X0108021Y0021249D01*
X0108021Y0022350D02*
X0106367Y0022350D01*
X0106367Y0023451D02*
X0108021Y0023451D01*
X0108021Y0024552D02*
X0106367Y0024552D01*
X0106367Y0025653D02*
X0108021Y0025653D01*
X0108021Y0026754D02*
X0106367Y0026754D01*
X0104084Y0027087D02*
X0104084Y0012441D01*
X0102430Y0012441D01*
X0102430Y0027087D01*
X0104084Y0027087D01*
X0104084Y0013542D02*
X0102430Y0013542D01*
X0102430Y0014643D02*
X0104084Y0014643D01*
X0104084Y0015744D02*
X0102430Y0015744D01*
X0102430Y0016845D02*
X0104084Y0016845D01*
X0104084Y0017946D02*
X0102430Y0017946D01*
X0102430Y0019047D02*
X0104084Y0019047D01*
X0104084Y0020148D02*
X0102430Y0020148D01*
X0102430Y0021249D02*
X0104084Y0021249D01*
X0104084Y0022350D02*
X0102430Y0022350D01*
X0102430Y0023451D02*
X0104084Y0023451D01*
X0104084Y0024552D02*
X0102430Y0024552D01*
X0102430Y0025653D02*
X0104084Y0025653D01*
X0104084Y0026754D02*
X0102430Y0026754D01*
X0100147Y0027087D02*
X0100147Y0012441D01*
X0098493Y0012441D01*
X0098493Y0027087D01*
X0100147Y0027087D01*
X0100147Y0013542D02*
X0098493Y0013542D01*
X0098493Y0014643D02*
X0100147Y0014643D01*
X0100147Y0015744D02*
X0098493Y0015744D01*
X0098493Y0016845D02*
X0100147Y0016845D01*
X0100147Y0017946D02*
X0098493Y0017946D01*
X0098493Y0019047D02*
X0100147Y0019047D01*
X0100147Y0020148D02*
X0098493Y0020148D01*
X0098493Y0021249D02*
X0100147Y0021249D01*
X0100147Y0022350D02*
X0098493Y0022350D01*
X0098493Y0023451D02*
X0100147Y0023451D01*
X0100147Y0024552D02*
X0098493Y0024552D01*
X0098493Y0025653D02*
X0100147Y0025653D01*
X0100147Y0026754D02*
X0098493Y0026754D01*
X0096210Y0027087D02*
X0096210Y0012441D01*
X0094556Y0012441D01*
X0094556Y0027087D01*
X0096210Y0027087D01*
X0096210Y0013542D02*
X0094556Y0013542D01*
X0094556Y0014643D02*
X0096210Y0014643D01*
X0096210Y0015744D02*
X0094556Y0015744D01*
X0094556Y0016845D02*
X0096210Y0016845D01*
X0096210Y0017946D02*
X0094556Y0017946D01*
X0094556Y0019047D02*
X0096210Y0019047D01*
X0096210Y0020148D02*
X0094556Y0020148D01*
X0094556Y0021249D02*
X0096210Y0021249D01*
X0096210Y0022350D02*
X0094556Y0022350D01*
X0094556Y0023451D02*
X0096210Y0023451D01*
X0096210Y0024552D02*
X0094556Y0024552D01*
X0094556Y0025653D02*
X0096210Y0025653D01*
X0096210Y0026754D02*
X0094556Y0026754D01*
X0092273Y0027087D02*
X0092273Y0012441D01*
X0090619Y0012441D01*
X0090619Y0027087D01*
X0092273Y0027087D01*
X0092273Y0013542D02*
X0090619Y0013542D01*
X0090619Y0014643D02*
X0092273Y0014643D01*
X0092273Y0015744D02*
X0090619Y0015744D01*
X0090619Y0016845D02*
X0092273Y0016845D01*
X0092273Y0017946D02*
X0090619Y0017946D01*
X0090619Y0019047D02*
X0092273Y0019047D01*
X0092273Y0020148D02*
X0090619Y0020148D01*
X0090619Y0021249D02*
X0092273Y0021249D01*
X0092273Y0022350D02*
X0090619Y0022350D01*
X0090619Y0023451D02*
X0092273Y0023451D01*
X0092273Y0024552D02*
X0090619Y0024552D01*
X0090619Y0025653D02*
X0092273Y0025653D01*
X0092273Y0026754D02*
X0090619Y0026754D01*
X0080462Y0027087D02*
X0080462Y0012441D01*
X0078808Y0012441D01*
X0078808Y0027087D01*
X0080462Y0027087D01*
X0080462Y0013542D02*
X0078808Y0013542D01*
X0078808Y0014643D02*
X0080462Y0014643D01*
X0080462Y0015744D02*
X0078808Y0015744D01*
X0078808Y0016845D02*
X0080462Y0016845D01*
X0080462Y0017946D02*
X0078808Y0017946D01*
X0078808Y0019047D02*
X0080462Y0019047D01*
X0080462Y0020148D02*
X0078808Y0020148D01*
X0078808Y0021249D02*
X0080462Y0021249D01*
X0080462Y0022350D02*
X0078808Y0022350D01*
X0078808Y0023451D02*
X0080462Y0023451D01*
X0080462Y0024552D02*
X0078808Y0024552D01*
X0078808Y0025653D02*
X0080462Y0025653D01*
X0080462Y0026754D02*
X0078808Y0026754D01*
X0076525Y0027087D02*
X0076525Y0012441D01*
X0074871Y0012441D01*
X0074871Y0027087D01*
X0076525Y0027087D01*
X0076525Y0013542D02*
X0074871Y0013542D01*
X0074871Y0014643D02*
X0076525Y0014643D01*
X0076525Y0015744D02*
X0074871Y0015744D01*
X0074871Y0016845D02*
X0076525Y0016845D01*
X0076525Y0017946D02*
X0074871Y0017946D01*
X0074871Y0019047D02*
X0076525Y0019047D01*
X0076525Y0020148D02*
X0074871Y0020148D01*
X0074871Y0021249D02*
X0076525Y0021249D01*
X0076525Y0022350D02*
X0074871Y0022350D01*
X0074871Y0023451D02*
X0076525Y0023451D01*
X0076525Y0024552D02*
X0074871Y0024552D01*
X0074871Y0025653D02*
X0076525Y0025653D01*
X0076525Y0026754D02*
X0074871Y0026754D01*
X0072588Y0027087D02*
X0072588Y0012441D01*
X0070934Y0012441D01*
X0070934Y0027087D01*
X0072588Y0027087D01*
X0072588Y0013542D02*
X0070934Y0013542D01*
X0070934Y0014643D02*
X0072588Y0014643D01*
X0072588Y0015744D02*
X0070934Y0015744D01*
X0070934Y0016845D02*
X0072588Y0016845D01*
X0072588Y0017946D02*
X0070934Y0017946D01*
X0070934Y0019047D02*
X0072588Y0019047D01*
X0072588Y0020148D02*
X0070934Y0020148D01*
X0070934Y0021249D02*
X0072588Y0021249D01*
X0072588Y0022350D02*
X0070934Y0022350D01*
X0070934Y0023451D02*
X0072588Y0023451D01*
X0072588Y0024552D02*
X0070934Y0024552D01*
X0070934Y0025653D02*
X0072588Y0025653D01*
X0072588Y0026754D02*
X0070934Y0026754D01*
X0068651Y0027087D02*
X0068651Y0012441D01*
X0066997Y0012441D01*
X0066997Y0027087D01*
X0068651Y0027087D01*
X0068651Y0013542D02*
X0066997Y0013542D01*
X0066997Y0014643D02*
X0068651Y0014643D01*
X0068651Y0015744D02*
X0066997Y0015744D01*
X0066997Y0016845D02*
X0068651Y0016845D01*
X0068651Y0017946D02*
X0066997Y0017946D01*
X0066997Y0019047D02*
X0068651Y0019047D01*
X0068651Y0020148D02*
X0066997Y0020148D01*
X0066997Y0021249D02*
X0068651Y0021249D01*
X0068651Y0022350D02*
X0066997Y0022350D01*
X0066997Y0023451D02*
X0068651Y0023451D01*
X0068651Y0024552D02*
X0066997Y0024552D01*
X0066997Y0025653D02*
X0068651Y0025653D01*
X0068651Y0026754D02*
X0066997Y0026754D01*
X0064714Y0027087D02*
X0064714Y0012441D01*
X0063060Y0012441D01*
X0063060Y0027087D01*
X0064714Y0027087D01*
X0064714Y0013542D02*
X0063060Y0013542D01*
X0063060Y0014643D02*
X0064714Y0014643D01*
X0064714Y0015744D02*
X0063060Y0015744D01*
X0063060Y0016845D02*
X0064714Y0016845D01*
X0064714Y0017946D02*
X0063060Y0017946D01*
X0063060Y0019047D02*
X0064714Y0019047D01*
X0064714Y0020148D02*
X0063060Y0020148D01*
X0063060Y0021249D02*
X0064714Y0021249D01*
X0064714Y0022350D02*
X0063060Y0022350D01*
X0063060Y0023451D02*
X0064714Y0023451D01*
X0064714Y0024552D02*
X0063060Y0024552D01*
X0063060Y0025653D02*
X0064714Y0025653D01*
X0064714Y0026754D02*
X0063060Y0026754D01*
X0060777Y0027087D02*
X0060777Y0012441D01*
X0059123Y0012441D01*
X0059123Y0027087D01*
X0060777Y0027087D01*
X0060777Y0013542D02*
X0059123Y0013542D01*
X0059123Y0014643D02*
X0060777Y0014643D01*
X0060777Y0015744D02*
X0059123Y0015744D01*
X0059123Y0016845D02*
X0060777Y0016845D01*
X0060777Y0017946D02*
X0059123Y0017946D01*
X0059123Y0019047D02*
X0060777Y0019047D01*
X0060777Y0020148D02*
X0059123Y0020148D01*
X0059123Y0021249D02*
X0060777Y0021249D01*
X0060777Y0022350D02*
X0059123Y0022350D01*
X0059123Y0023451D02*
X0060777Y0023451D01*
X0060777Y0024552D02*
X0059123Y0024552D01*
X0059123Y0025653D02*
X0060777Y0025653D01*
X0060777Y0026754D02*
X0059123Y0026754D01*
X0056840Y0027087D02*
X0056840Y0012441D01*
X0055186Y0012441D01*
X0055186Y0027087D01*
X0056840Y0027087D01*
X0056840Y0013542D02*
X0055186Y0013542D01*
X0055186Y0014643D02*
X0056840Y0014643D01*
X0056840Y0015744D02*
X0055186Y0015744D01*
X0055186Y0016845D02*
X0056840Y0016845D01*
X0056840Y0017946D02*
X0055186Y0017946D01*
X0055186Y0019047D02*
X0056840Y0019047D01*
X0056840Y0020148D02*
X0055186Y0020148D01*
X0055186Y0021249D02*
X0056840Y0021249D01*
X0056840Y0022350D02*
X0055186Y0022350D01*
X0055186Y0023451D02*
X0056840Y0023451D01*
X0056840Y0024552D02*
X0055186Y0024552D01*
X0055186Y0025653D02*
X0056840Y0025653D01*
X0056840Y0026754D02*
X0055186Y0026754D01*
X0052903Y0027087D02*
X0052903Y0012441D01*
X0051249Y0012441D01*
X0051249Y0027087D01*
X0052903Y0027087D01*
X0052903Y0013542D02*
X0051249Y0013542D01*
X0051249Y0014643D02*
X0052903Y0014643D01*
X0052903Y0015744D02*
X0051249Y0015744D01*
X0051249Y0016845D02*
X0052903Y0016845D01*
X0052903Y0017946D02*
X0051249Y0017946D01*
X0051249Y0019047D02*
X0052903Y0019047D01*
X0052903Y0020148D02*
X0051249Y0020148D01*
X0051249Y0021249D02*
X0052903Y0021249D01*
X0052903Y0022350D02*
X0051249Y0022350D01*
X0051249Y0023451D02*
X0052903Y0023451D01*
X0052903Y0024552D02*
X0051249Y0024552D01*
X0051249Y0025653D02*
X0052903Y0025653D01*
X0052903Y0026754D02*
X0051249Y0026754D01*
X0048966Y0027087D02*
X0048966Y0012441D01*
X0047312Y0012441D01*
X0047312Y0027087D01*
X0048966Y0027087D01*
X0048966Y0013542D02*
X0047312Y0013542D01*
X0047312Y0014643D02*
X0048966Y0014643D01*
X0048966Y0015744D02*
X0047312Y0015744D01*
X0047312Y0016845D02*
X0048966Y0016845D01*
X0048966Y0017946D02*
X0047312Y0017946D01*
X0047312Y0019047D02*
X0048966Y0019047D01*
X0048966Y0020148D02*
X0047312Y0020148D01*
X0047312Y0021249D02*
X0048966Y0021249D01*
X0048966Y0022350D02*
X0047312Y0022350D01*
X0047312Y0023451D02*
X0048966Y0023451D01*
X0048966Y0024552D02*
X0047312Y0024552D01*
X0047312Y0025653D02*
X0048966Y0025653D01*
X0048966Y0026754D02*
X0047312Y0026754D01*
X0045029Y0027087D02*
X0045029Y0012441D01*
X0043375Y0012441D01*
X0043375Y0027087D01*
X0045029Y0027087D01*
X0045029Y0013542D02*
X0043375Y0013542D01*
X0043375Y0014643D02*
X0045029Y0014643D01*
X0045029Y0015744D02*
X0043375Y0015744D01*
X0043375Y0016845D02*
X0045029Y0016845D01*
X0045029Y0017946D02*
X0043375Y0017946D01*
X0043375Y0019047D02*
X0045029Y0019047D01*
X0045029Y0020148D02*
X0043375Y0020148D01*
X0043375Y0021249D02*
X0045029Y0021249D01*
X0045029Y0022350D02*
X0043375Y0022350D01*
X0043375Y0023451D02*
X0045029Y0023451D01*
X0045029Y0024552D02*
X0043375Y0024552D01*
X0043375Y0025653D02*
X0045029Y0025653D01*
X0045029Y0026754D02*
X0043375Y0026754D01*
X0041092Y0027087D02*
X0041092Y0012441D01*
X0039438Y0012441D01*
X0039438Y0027087D01*
X0041092Y0027087D01*
X0041092Y0013542D02*
X0039438Y0013542D01*
X0039438Y0014643D02*
X0041092Y0014643D01*
X0041092Y0015744D02*
X0039438Y0015744D01*
X0039438Y0016845D02*
X0041092Y0016845D01*
X0041092Y0017946D02*
X0039438Y0017946D01*
X0039438Y0019047D02*
X0041092Y0019047D01*
X0041092Y0020148D02*
X0039438Y0020148D01*
X0039438Y0021249D02*
X0041092Y0021249D01*
X0041092Y0022350D02*
X0039438Y0022350D01*
X0039438Y0023451D02*
X0041092Y0023451D01*
X0041092Y0024552D02*
X0039438Y0024552D01*
X0039438Y0025653D02*
X0041092Y0025653D01*
X0041092Y0026754D02*
X0039438Y0026754D01*
X0237942Y0027087D02*
X0237942Y0012441D01*
X0236288Y0012441D01*
X0236288Y0027087D01*
X0237942Y0027087D01*
X0237942Y0013542D02*
X0236288Y0013542D01*
X0236288Y0014643D02*
X0237942Y0014643D01*
X0237942Y0015744D02*
X0236288Y0015744D01*
X0236288Y0016845D02*
X0237942Y0016845D01*
X0237942Y0017946D02*
X0236288Y0017946D01*
X0236288Y0019047D02*
X0237942Y0019047D01*
X0237942Y0020148D02*
X0236288Y0020148D01*
X0236288Y0021249D02*
X0237942Y0021249D01*
X0237942Y0022350D02*
X0236288Y0022350D01*
X0236288Y0023451D02*
X0237942Y0023451D01*
X0237942Y0024552D02*
X0236288Y0024552D01*
X0236288Y0025653D02*
X0237942Y0025653D01*
X0237942Y0026754D02*
X0236288Y0026754D01*
X0241879Y0027087D02*
X0241879Y0012441D01*
X0240225Y0012441D01*
X0240225Y0027087D01*
X0241879Y0027087D01*
X0241879Y0013542D02*
X0240225Y0013542D01*
X0240225Y0014643D02*
X0241879Y0014643D01*
X0241879Y0015744D02*
X0240225Y0015744D01*
X0240225Y0016845D02*
X0241879Y0016845D01*
X0241879Y0017946D02*
X0240225Y0017946D01*
X0240225Y0019047D02*
X0241879Y0019047D01*
X0241879Y0020148D02*
X0240225Y0020148D01*
X0240225Y0021249D02*
X0241879Y0021249D01*
X0241879Y0022350D02*
X0240225Y0022350D01*
X0240225Y0023451D02*
X0241879Y0023451D01*
X0241879Y0024552D02*
X0240225Y0024552D01*
X0240225Y0025653D02*
X0241879Y0025653D01*
X0241879Y0026754D02*
X0240225Y0026754D01*
X0245816Y0027087D02*
X0245816Y0012441D01*
X0244162Y0012441D01*
X0244162Y0027087D01*
X0245816Y0027087D01*
X0245816Y0013542D02*
X0244162Y0013542D01*
X0244162Y0014643D02*
X0245816Y0014643D01*
X0245816Y0015744D02*
X0244162Y0015744D01*
X0244162Y0016845D02*
X0245816Y0016845D01*
X0245816Y0017946D02*
X0244162Y0017946D01*
X0244162Y0019047D02*
X0245816Y0019047D01*
X0245816Y0020148D02*
X0244162Y0020148D01*
X0244162Y0021249D02*
X0245816Y0021249D01*
X0245816Y0022350D02*
X0244162Y0022350D01*
X0244162Y0023451D02*
X0245816Y0023451D01*
X0245816Y0024552D02*
X0244162Y0024552D01*
X0244162Y0025653D02*
X0245816Y0025653D01*
X0245816Y0026754D02*
X0244162Y0026754D01*
X0249753Y0027087D02*
X0249753Y0012441D01*
X0248099Y0012441D01*
X0248099Y0027087D01*
X0249753Y0027087D01*
X0249753Y0013542D02*
X0248099Y0013542D01*
X0248099Y0014643D02*
X0249753Y0014643D01*
X0249753Y0015744D02*
X0248099Y0015744D01*
X0248099Y0016845D02*
X0249753Y0016845D01*
X0249753Y0017946D02*
X0248099Y0017946D01*
X0248099Y0019047D02*
X0249753Y0019047D01*
X0249753Y0020148D02*
X0248099Y0020148D01*
X0248099Y0021249D02*
X0249753Y0021249D01*
X0249753Y0022350D02*
X0248099Y0022350D01*
X0248099Y0023451D02*
X0249753Y0023451D01*
X0249753Y0024552D02*
X0248099Y0024552D01*
X0248099Y0025653D02*
X0249753Y0025653D01*
X0249753Y0026754D02*
X0248099Y0026754D01*
X0253690Y0027087D02*
X0253690Y0012441D01*
X0252036Y0012441D01*
X0252036Y0027087D01*
X0253690Y0027087D01*
X0253690Y0013542D02*
X0252036Y0013542D01*
X0252036Y0014643D02*
X0253690Y0014643D01*
X0253690Y0015744D02*
X0252036Y0015744D01*
X0252036Y0016845D02*
X0253690Y0016845D01*
X0253690Y0017946D02*
X0252036Y0017946D01*
X0252036Y0019047D02*
X0253690Y0019047D01*
X0253690Y0020148D02*
X0252036Y0020148D01*
X0252036Y0021249D02*
X0253690Y0021249D01*
X0253690Y0022350D02*
X0252036Y0022350D01*
X0252036Y0023451D02*
X0253690Y0023451D01*
X0253690Y0024552D02*
X0252036Y0024552D01*
X0252036Y0025653D02*
X0253690Y0025653D01*
X0253690Y0026754D02*
X0252036Y0026754D01*
X0257627Y0027087D02*
X0257627Y0012441D01*
X0255973Y0012441D01*
X0255973Y0027087D01*
X0257627Y0027087D01*
X0257627Y0013542D02*
X0255973Y0013542D01*
X0255973Y0014643D02*
X0257627Y0014643D01*
X0257627Y0015744D02*
X0255973Y0015744D01*
X0255973Y0016845D02*
X0257627Y0016845D01*
X0257627Y0017946D02*
X0255973Y0017946D01*
X0255973Y0019047D02*
X0257627Y0019047D01*
X0257627Y0020148D02*
X0255973Y0020148D01*
X0255973Y0021249D02*
X0257627Y0021249D01*
X0257627Y0022350D02*
X0255973Y0022350D01*
X0255973Y0023451D02*
X0257627Y0023451D01*
X0257627Y0024552D02*
X0255973Y0024552D01*
X0255973Y0025653D02*
X0257627Y0025653D01*
X0257627Y0026754D02*
X0255973Y0026754D01*
X0261564Y0027087D02*
X0261564Y0012441D01*
X0259910Y0012441D01*
X0259910Y0027087D01*
X0261564Y0027087D01*
X0261564Y0013542D02*
X0259910Y0013542D01*
X0259910Y0014643D02*
X0261564Y0014643D01*
X0261564Y0015744D02*
X0259910Y0015744D01*
X0259910Y0016845D02*
X0261564Y0016845D01*
X0261564Y0017946D02*
X0259910Y0017946D01*
X0259910Y0019047D02*
X0261564Y0019047D01*
X0261564Y0020148D02*
X0259910Y0020148D01*
X0259910Y0021249D02*
X0261564Y0021249D01*
X0261564Y0022350D02*
X0259910Y0022350D01*
X0259910Y0023451D02*
X0261564Y0023451D01*
X0261564Y0024552D02*
X0259910Y0024552D01*
X0259910Y0025653D02*
X0261564Y0025653D01*
X0261564Y0026754D02*
X0259910Y0026754D01*
X0265501Y0027087D02*
X0265501Y0012441D01*
X0263847Y0012441D01*
X0263847Y0027087D01*
X0265501Y0027087D01*
X0265501Y0013542D02*
X0263847Y0013542D01*
X0263847Y0014643D02*
X0265501Y0014643D01*
X0265501Y0015744D02*
X0263847Y0015744D01*
X0263847Y0016845D02*
X0265501Y0016845D01*
X0265501Y0017946D02*
X0263847Y0017946D01*
X0263847Y0019047D02*
X0265501Y0019047D01*
X0265501Y0020148D02*
X0263847Y0020148D01*
X0263847Y0021249D02*
X0265501Y0021249D01*
X0265501Y0022350D02*
X0263847Y0022350D01*
X0263847Y0023451D02*
X0265501Y0023451D01*
X0265501Y0024552D02*
X0263847Y0024552D01*
X0263847Y0025653D02*
X0265501Y0025653D01*
X0265501Y0026754D02*
X0263847Y0026754D01*
X0269438Y0027087D02*
X0269438Y0012441D01*
X0267784Y0012441D01*
X0267784Y0027087D01*
X0269438Y0027087D01*
X0269438Y0013542D02*
X0267784Y0013542D01*
X0267784Y0014643D02*
X0269438Y0014643D01*
X0269438Y0015744D02*
X0267784Y0015744D01*
X0267784Y0016845D02*
X0269438Y0016845D01*
X0269438Y0017946D02*
X0267784Y0017946D01*
X0267784Y0019047D02*
X0269438Y0019047D01*
X0269438Y0020148D02*
X0267784Y0020148D01*
X0267784Y0021249D02*
X0269438Y0021249D01*
X0269438Y0022350D02*
X0267784Y0022350D01*
X0267784Y0023451D02*
X0269438Y0023451D01*
X0269438Y0024552D02*
X0267784Y0024552D01*
X0267784Y0025653D02*
X0269438Y0025653D01*
X0269438Y0026754D02*
X0267784Y0026754D01*
X0273375Y0027087D02*
X0273375Y0012441D01*
X0271721Y0012441D01*
X0271721Y0027087D01*
X0273375Y0027087D01*
X0273375Y0013542D02*
X0271721Y0013542D01*
X0271721Y0014643D02*
X0273375Y0014643D01*
X0273375Y0015744D02*
X0271721Y0015744D01*
X0271721Y0016845D02*
X0273375Y0016845D01*
X0273375Y0017946D02*
X0271721Y0017946D01*
X0271721Y0019047D02*
X0273375Y0019047D01*
X0273375Y0020148D02*
X0271721Y0020148D01*
X0271721Y0021249D02*
X0273375Y0021249D01*
X0273375Y0022350D02*
X0271721Y0022350D01*
X0271721Y0023451D02*
X0273375Y0023451D01*
X0273375Y0024552D02*
X0271721Y0024552D01*
X0271721Y0025653D02*
X0273375Y0025653D01*
X0273375Y0026754D02*
X0271721Y0026754D01*
X0277312Y0027087D02*
X0277312Y0012441D01*
X0275658Y0012441D01*
X0275658Y0027087D01*
X0277312Y0027087D01*
X0277312Y0013542D02*
X0275658Y0013542D01*
X0275658Y0014643D02*
X0277312Y0014643D01*
X0277312Y0015744D02*
X0275658Y0015744D01*
X0275658Y0016845D02*
X0277312Y0016845D01*
X0277312Y0017946D02*
X0275658Y0017946D01*
X0275658Y0019047D02*
X0277312Y0019047D01*
X0277312Y0020148D02*
X0275658Y0020148D01*
X0275658Y0021249D02*
X0277312Y0021249D01*
X0277312Y0022350D02*
X0275658Y0022350D01*
X0275658Y0023451D02*
X0277312Y0023451D01*
X0277312Y0024552D02*
X0275658Y0024552D01*
X0275658Y0025653D02*
X0277312Y0025653D01*
X0277312Y0026754D02*
X0275658Y0026754D01*
X0281249Y0027087D02*
X0281249Y0012441D01*
X0279595Y0012441D01*
X0279595Y0027087D01*
X0281249Y0027087D01*
X0281249Y0013542D02*
X0279595Y0013542D01*
X0279595Y0014643D02*
X0281249Y0014643D01*
X0281249Y0015744D02*
X0279595Y0015744D01*
X0279595Y0016845D02*
X0281249Y0016845D01*
X0281249Y0017946D02*
X0279595Y0017946D01*
X0279595Y0019047D02*
X0281249Y0019047D01*
X0281249Y0020148D02*
X0279595Y0020148D01*
X0279595Y0021249D02*
X0281249Y0021249D01*
X0281249Y0022350D02*
X0279595Y0022350D01*
X0279595Y0023451D02*
X0281249Y0023451D01*
X0281249Y0024552D02*
X0279595Y0024552D01*
X0279595Y0025653D02*
X0281249Y0025653D01*
X0281249Y0026754D02*
X0279595Y0026754D01*
X0285186Y0027087D02*
X0285186Y0012441D01*
X0283532Y0012441D01*
X0283532Y0027087D01*
X0285186Y0027087D01*
X0285186Y0013542D02*
X0283532Y0013542D01*
X0283532Y0014643D02*
X0285186Y0014643D01*
X0285186Y0015744D02*
X0283532Y0015744D01*
X0283532Y0016845D02*
X0285186Y0016845D01*
X0285186Y0017946D02*
X0283532Y0017946D01*
X0283532Y0019047D02*
X0285186Y0019047D01*
X0285186Y0020148D02*
X0283532Y0020148D01*
X0283532Y0021249D02*
X0285186Y0021249D01*
X0285186Y0022350D02*
X0283532Y0022350D01*
X0283532Y0023451D02*
X0285186Y0023451D01*
X0285186Y0024552D02*
X0283532Y0024552D01*
X0283532Y0025653D02*
X0285186Y0025653D01*
X0285186Y0026754D02*
X0283532Y0026754D01*
X0289123Y0027087D02*
X0289123Y0012441D01*
X0287469Y0012441D01*
X0287469Y0027087D01*
X0289123Y0027087D01*
X0289123Y0013542D02*
X0287469Y0013542D01*
X0287469Y0014643D02*
X0289123Y0014643D01*
X0289123Y0015744D02*
X0287469Y0015744D01*
X0287469Y0016845D02*
X0289123Y0016845D01*
X0289123Y0017946D02*
X0287469Y0017946D01*
X0287469Y0019047D02*
X0289123Y0019047D01*
X0289123Y0020148D02*
X0287469Y0020148D01*
X0287469Y0021249D02*
X0289123Y0021249D01*
X0289123Y0022350D02*
X0287469Y0022350D01*
X0287469Y0023451D02*
X0289123Y0023451D01*
X0289123Y0024552D02*
X0287469Y0024552D01*
X0287469Y0025653D02*
X0289123Y0025653D01*
X0289123Y0026754D02*
X0287469Y0026754D01*
X0293060Y0027087D02*
X0293060Y0012441D01*
X0291406Y0012441D01*
X0291406Y0027087D01*
X0293060Y0027087D01*
X0293060Y0013542D02*
X0291406Y0013542D01*
X0291406Y0014643D02*
X0293060Y0014643D01*
X0293060Y0015744D02*
X0291406Y0015744D01*
X0291406Y0016845D02*
X0293060Y0016845D01*
X0293060Y0017946D02*
X0291406Y0017946D01*
X0291406Y0019047D02*
X0293060Y0019047D01*
X0293060Y0020148D02*
X0291406Y0020148D01*
X0291406Y0021249D02*
X0293060Y0021249D01*
X0293060Y0022350D02*
X0291406Y0022350D01*
X0291406Y0023451D02*
X0293060Y0023451D01*
X0293060Y0024552D02*
X0291406Y0024552D01*
X0291406Y0025653D02*
X0293060Y0025653D01*
X0293060Y0026754D02*
X0291406Y0026754D01*
X0296997Y0027087D02*
X0296997Y0012441D01*
X0295343Y0012441D01*
X0295343Y0027087D01*
X0296997Y0027087D01*
X0296997Y0013542D02*
X0295343Y0013542D01*
X0295343Y0014643D02*
X0296997Y0014643D01*
X0296997Y0015744D02*
X0295343Y0015744D01*
X0295343Y0016845D02*
X0296997Y0016845D01*
X0296997Y0017946D02*
X0295343Y0017946D01*
X0295343Y0019047D02*
X0296997Y0019047D01*
X0296997Y0020148D02*
X0295343Y0020148D01*
X0295343Y0021249D02*
X0296997Y0021249D01*
X0296997Y0022350D02*
X0295343Y0022350D01*
X0295343Y0023451D02*
X0296997Y0023451D01*
X0296997Y0024552D02*
X0295343Y0024552D01*
X0295343Y0025653D02*
X0296997Y0025653D01*
X0296997Y0026754D02*
X0295343Y0026754D01*
X0300934Y0027087D02*
X0300934Y0012441D01*
X0299280Y0012441D01*
X0299280Y0027087D01*
X0300934Y0027087D01*
X0300934Y0013542D02*
X0299280Y0013542D01*
X0299280Y0014643D02*
X0300934Y0014643D01*
X0300934Y0015744D02*
X0299280Y0015744D01*
X0299280Y0016845D02*
X0300934Y0016845D01*
X0300934Y0017946D02*
X0299280Y0017946D01*
X0299280Y0019047D02*
X0300934Y0019047D01*
X0300934Y0020148D02*
X0299280Y0020148D01*
X0299280Y0021249D02*
X0300934Y0021249D01*
X0300934Y0022350D02*
X0299280Y0022350D01*
X0299280Y0023451D02*
X0300934Y0023451D01*
X0300934Y0024552D02*
X0299280Y0024552D01*
X0299280Y0025653D02*
X0300934Y0025653D01*
X0300934Y0026754D02*
X0299280Y0026754D01*
X0304871Y0027087D02*
X0304871Y0012441D01*
X0303217Y0012441D01*
X0303217Y0027087D01*
X0304871Y0027087D01*
X0304871Y0013542D02*
X0303217Y0013542D01*
X0303217Y0014643D02*
X0304871Y0014643D01*
X0304871Y0015744D02*
X0303217Y0015744D01*
X0303217Y0016845D02*
X0304871Y0016845D01*
X0304871Y0017946D02*
X0303217Y0017946D01*
X0303217Y0019047D02*
X0304871Y0019047D01*
X0304871Y0020148D02*
X0303217Y0020148D01*
X0303217Y0021249D02*
X0304871Y0021249D01*
X0304871Y0022350D02*
X0303217Y0022350D01*
X0303217Y0023451D02*
X0304871Y0023451D01*
X0304871Y0024552D02*
X0303217Y0024552D01*
X0303217Y0025653D02*
X0304871Y0025653D01*
X0304871Y0026754D02*
X0303217Y0026754D01*
X0308808Y0027087D02*
X0308808Y0012441D01*
X0307154Y0012441D01*
X0307154Y0027087D01*
X0308808Y0027087D01*
X0308808Y0013542D02*
X0307154Y0013542D01*
X0307154Y0014643D02*
X0308808Y0014643D01*
X0308808Y0015744D02*
X0307154Y0015744D01*
X0307154Y0016845D02*
X0308808Y0016845D01*
X0308808Y0017946D02*
X0307154Y0017946D01*
X0307154Y0019047D02*
X0308808Y0019047D01*
X0308808Y0020148D02*
X0307154Y0020148D01*
X0307154Y0021249D02*
X0308808Y0021249D01*
X0308808Y0022350D02*
X0307154Y0022350D01*
X0307154Y0023451D02*
X0308808Y0023451D01*
X0308808Y0024552D02*
X0307154Y0024552D01*
X0307154Y0025653D02*
X0308808Y0025653D01*
X0308808Y0026754D02*
X0307154Y0026754D01*
X0312745Y0027087D02*
X0312745Y0012441D01*
X0311091Y0012441D01*
X0311091Y0027087D01*
X0312745Y0027087D01*
X0312745Y0013542D02*
X0311091Y0013542D01*
X0311091Y0014643D02*
X0312745Y0014643D01*
X0312745Y0015744D02*
X0311091Y0015744D01*
X0311091Y0016845D02*
X0312745Y0016845D01*
X0312745Y0017946D02*
X0311091Y0017946D01*
X0311091Y0019047D02*
X0312745Y0019047D01*
X0312745Y0020148D02*
X0311091Y0020148D01*
X0311091Y0021249D02*
X0312745Y0021249D01*
X0312745Y0022350D02*
X0311091Y0022350D01*
X0311091Y0023451D02*
X0312745Y0023451D01*
X0312745Y0024552D02*
X0311091Y0024552D01*
X0311091Y0025653D02*
X0312745Y0025653D01*
X0312745Y0026754D02*
X0311091Y0026754D01*
X0316682Y0027087D02*
X0316682Y0012441D01*
X0315028Y0012441D01*
X0315028Y0027087D01*
X0316682Y0027087D01*
X0316682Y0013542D02*
X0315028Y0013542D01*
X0315028Y0014643D02*
X0316682Y0014643D01*
X0316682Y0015744D02*
X0315028Y0015744D01*
X0315028Y0016845D02*
X0316682Y0016845D01*
X0316682Y0017946D02*
X0315028Y0017946D01*
X0315028Y0019047D02*
X0316682Y0019047D01*
X0316682Y0020148D02*
X0315028Y0020148D01*
X0315028Y0021249D02*
X0316682Y0021249D01*
X0316682Y0022350D02*
X0315028Y0022350D01*
X0315028Y0023451D02*
X0316682Y0023451D01*
X0316682Y0024552D02*
X0315028Y0024552D01*
X0315028Y0025653D02*
X0316682Y0025653D01*
X0316682Y0026754D02*
X0315028Y0026754D01*
X0320619Y0027087D02*
X0320619Y0012441D01*
X0318965Y0012441D01*
X0318965Y0027087D01*
X0320619Y0027087D01*
X0320619Y0013542D02*
X0318965Y0013542D01*
X0318965Y0014643D02*
X0320619Y0014643D01*
X0320619Y0015744D02*
X0318965Y0015744D01*
X0318965Y0016845D02*
X0320619Y0016845D01*
X0320619Y0017946D02*
X0318965Y0017946D01*
X0318965Y0019047D02*
X0320619Y0019047D01*
X0320619Y0020148D02*
X0318965Y0020148D01*
X0318965Y0021249D02*
X0320619Y0021249D01*
X0320619Y0022350D02*
X0318965Y0022350D01*
X0318965Y0023451D02*
X0320619Y0023451D01*
X0320619Y0024552D02*
X0318965Y0024552D01*
X0318965Y0025653D02*
X0320619Y0025653D01*
X0320619Y0026754D02*
X0318965Y0026754D01*
X0324556Y0027087D02*
X0324556Y0012441D01*
X0322902Y0012441D01*
X0322902Y0027087D01*
X0324556Y0027087D01*
X0324556Y0013542D02*
X0322902Y0013542D01*
X0322902Y0014643D02*
X0324556Y0014643D01*
X0324556Y0015744D02*
X0322902Y0015744D01*
X0322902Y0016845D02*
X0324556Y0016845D01*
X0324556Y0017946D02*
X0322902Y0017946D01*
X0322902Y0019047D02*
X0324556Y0019047D01*
X0324556Y0020148D02*
X0322902Y0020148D01*
X0322902Y0021249D02*
X0324556Y0021249D01*
X0324556Y0022350D02*
X0322902Y0022350D01*
X0322902Y0023451D02*
X0324556Y0023451D01*
X0324556Y0024552D02*
X0322902Y0024552D01*
X0322902Y0025653D02*
X0324556Y0025653D01*
X0324556Y0026754D02*
X0322902Y0026754D01*
X0328493Y0027087D02*
X0328493Y0012441D01*
X0326839Y0012441D01*
X0326839Y0027087D01*
X0328493Y0027087D01*
X0328493Y0013542D02*
X0326839Y0013542D01*
X0326839Y0014643D02*
X0328493Y0014643D01*
X0328493Y0015744D02*
X0326839Y0015744D01*
X0326839Y0016845D02*
X0328493Y0016845D01*
X0328493Y0017946D02*
X0326839Y0017946D01*
X0326839Y0019047D02*
X0328493Y0019047D01*
X0328493Y0020148D02*
X0326839Y0020148D01*
X0326839Y0021249D02*
X0328493Y0021249D01*
X0328493Y0022350D02*
X0326839Y0022350D01*
X0326839Y0023451D02*
X0328493Y0023451D01*
X0328493Y0024552D02*
X0326839Y0024552D01*
X0326839Y0025653D02*
X0328493Y0025653D01*
X0328493Y0026754D02*
X0326839Y0026754D01*
X0332430Y0027087D02*
X0332430Y0012441D01*
X0330776Y0012441D01*
X0330776Y0027087D01*
X0332430Y0027087D01*
X0332430Y0013542D02*
X0330776Y0013542D01*
X0330776Y0014643D02*
X0332430Y0014643D01*
X0332430Y0015744D02*
X0330776Y0015744D01*
X0330776Y0016845D02*
X0332430Y0016845D01*
X0332430Y0017946D02*
X0330776Y0017946D01*
X0330776Y0019047D02*
X0332430Y0019047D01*
X0332430Y0020148D02*
X0330776Y0020148D01*
X0330776Y0021249D02*
X0332430Y0021249D01*
X0332430Y0022350D02*
X0330776Y0022350D01*
X0330776Y0023451D02*
X0332430Y0023451D01*
X0332430Y0024552D02*
X0330776Y0024552D01*
X0330776Y0025653D02*
X0332430Y0025653D01*
X0332430Y0026754D02*
X0330776Y0026754D01*
X0336367Y0027087D02*
X0336367Y0012441D01*
X0334713Y0012441D01*
X0334713Y0027087D01*
X0336367Y0027087D01*
X0336367Y0013542D02*
X0334713Y0013542D01*
X0334713Y0014643D02*
X0336367Y0014643D01*
X0336367Y0015744D02*
X0334713Y0015744D01*
X0334713Y0016845D02*
X0336367Y0016845D01*
X0336367Y0017946D02*
X0334713Y0017946D01*
X0334713Y0019047D02*
X0336367Y0019047D01*
X0336367Y0020148D02*
X0334713Y0020148D01*
X0334713Y0021249D02*
X0336367Y0021249D01*
X0336367Y0022350D02*
X0334713Y0022350D01*
X0334713Y0023451D02*
X0336367Y0023451D01*
X0336367Y0024552D02*
X0334713Y0024552D01*
X0334713Y0025653D02*
X0336367Y0025653D01*
X0336367Y0026754D02*
X0334713Y0026754D01*
X0340304Y0027087D02*
X0340304Y0012441D01*
X0338650Y0012441D01*
X0338650Y0027087D01*
X0340304Y0027087D01*
X0340304Y0013542D02*
X0338650Y0013542D01*
X0338650Y0014643D02*
X0340304Y0014643D01*
X0340304Y0015744D02*
X0338650Y0015744D01*
X0338650Y0016845D02*
X0340304Y0016845D01*
X0340304Y0017946D02*
X0338650Y0017946D01*
X0338650Y0019047D02*
X0340304Y0019047D01*
X0340304Y0020148D02*
X0338650Y0020148D01*
X0338650Y0021249D02*
X0340304Y0021249D01*
X0340304Y0022350D02*
X0338650Y0022350D01*
X0338650Y0023451D02*
X0340304Y0023451D01*
X0340304Y0024552D02*
X0338650Y0024552D01*
X0338650Y0025653D02*
X0340304Y0025653D01*
X0340304Y0026754D02*
X0338650Y0026754D01*
X0344241Y0027087D02*
X0344241Y0012441D01*
X0342587Y0012441D01*
X0342587Y0027087D01*
X0344241Y0027087D01*
X0344241Y0013542D02*
X0342587Y0013542D01*
X0342587Y0014643D02*
X0344241Y0014643D01*
X0344241Y0015744D02*
X0342587Y0015744D01*
X0342587Y0016845D02*
X0344241Y0016845D01*
X0344241Y0017946D02*
X0342587Y0017946D01*
X0342587Y0019047D02*
X0344241Y0019047D01*
X0344241Y0020148D02*
X0342587Y0020148D01*
X0342587Y0021249D02*
X0344241Y0021249D01*
X0344241Y0022350D02*
X0342587Y0022350D01*
X0342587Y0023451D02*
X0344241Y0023451D01*
X0344241Y0024552D02*
X0342587Y0024552D01*
X0342587Y0025653D02*
X0344241Y0025653D01*
X0344241Y0026754D02*
X0342587Y0026754D01*
X0348178Y0027087D02*
X0348178Y0012441D01*
X0346524Y0012441D01*
X0346524Y0027087D01*
X0348178Y0027087D01*
X0348178Y0013542D02*
X0346524Y0013542D01*
X0346524Y0014643D02*
X0348178Y0014643D01*
X0348178Y0015744D02*
X0346524Y0015744D01*
X0346524Y0016845D02*
X0348178Y0016845D01*
X0348178Y0017946D02*
X0346524Y0017946D01*
X0346524Y0019047D02*
X0348178Y0019047D01*
X0348178Y0020148D02*
X0346524Y0020148D01*
X0346524Y0021249D02*
X0348178Y0021249D01*
X0348178Y0022350D02*
X0346524Y0022350D01*
X0346524Y0023451D02*
X0348178Y0023451D01*
X0348178Y0024552D02*
X0346524Y0024552D01*
X0346524Y0025653D02*
X0348178Y0025653D01*
X0348178Y0026754D02*
X0346524Y0026754D01*
X0352115Y0027087D02*
X0352115Y0012441D01*
X0350461Y0012441D01*
X0350461Y0027087D01*
X0352115Y0027087D01*
X0352115Y0013542D02*
X0350461Y0013542D01*
X0350461Y0014643D02*
X0352115Y0014643D01*
X0352115Y0015744D02*
X0350461Y0015744D01*
X0350461Y0016845D02*
X0352115Y0016845D01*
X0352115Y0017946D02*
X0350461Y0017946D01*
X0350461Y0019047D02*
X0352115Y0019047D01*
X0352115Y0020148D02*
X0350461Y0020148D01*
X0350461Y0021249D02*
X0352115Y0021249D01*
X0352115Y0022350D02*
X0350461Y0022350D01*
X0350461Y0023451D02*
X0352115Y0023451D01*
X0352115Y0024552D02*
X0350461Y0024552D01*
X0350461Y0025653D02*
X0352115Y0025653D01*
X0352115Y0026754D02*
X0350461Y0026754D01*
X0356052Y0027087D02*
X0356052Y0012441D01*
X0354398Y0012441D01*
X0354398Y0027087D01*
X0356052Y0027087D01*
X0356052Y0013542D02*
X0354398Y0013542D01*
X0354398Y0014643D02*
X0356052Y0014643D01*
X0356052Y0015744D02*
X0354398Y0015744D01*
X0354398Y0016845D02*
X0356052Y0016845D01*
X0356052Y0017946D02*
X0354398Y0017946D01*
X0354398Y0019047D02*
X0356052Y0019047D01*
X0356052Y0020148D02*
X0354398Y0020148D01*
X0354398Y0021249D02*
X0356052Y0021249D01*
X0356052Y0022350D02*
X0354398Y0022350D01*
X0354398Y0023451D02*
X0356052Y0023451D01*
X0356052Y0024552D02*
X0354398Y0024552D01*
X0354398Y0025653D02*
X0356052Y0025653D01*
X0356052Y0026754D02*
X0354398Y0026754D01*
X0359989Y0027087D02*
X0359989Y0012441D01*
X0358335Y0012441D01*
X0358335Y0027087D01*
X0359989Y0027087D01*
X0359989Y0013542D02*
X0358335Y0013542D01*
X0358335Y0014643D02*
X0359989Y0014643D01*
X0359989Y0015744D02*
X0358335Y0015744D01*
X0358335Y0016845D02*
X0359989Y0016845D01*
X0359989Y0017946D02*
X0358335Y0017946D01*
X0358335Y0019047D02*
X0359989Y0019047D01*
X0359989Y0020148D02*
X0358335Y0020148D01*
X0358335Y0021249D02*
X0359989Y0021249D01*
X0359989Y0022350D02*
X0358335Y0022350D01*
X0358335Y0023451D02*
X0359989Y0023451D01*
X0359989Y0024552D02*
X0358335Y0024552D01*
X0358335Y0025653D02*
X0359989Y0025653D01*
X0359989Y0026754D02*
X0358335Y0026754D01*
X0363926Y0027087D02*
X0363926Y0012441D01*
X0362272Y0012441D01*
X0362272Y0027087D01*
X0363926Y0027087D01*
X0363926Y0013542D02*
X0362272Y0013542D01*
X0362272Y0014643D02*
X0363926Y0014643D01*
X0363926Y0015744D02*
X0362272Y0015744D01*
X0362272Y0016845D02*
X0363926Y0016845D01*
X0363926Y0017946D02*
X0362272Y0017946D01*
X0362272Y0019047D02*
X0363926Y0019047D01*
X0363926Y0020148D02*
X0362272Y0020148D01*
X0362272Y0021249D02*
X0363926Y0021249D01*
X0363926Y0022350D02*
X0362272Y0022350D01*
X0362272Y0023451D02*
X0363926Y0023451D01*
X0363926Y0024552D02*
X0362272Y0024552D01*
X0362272Y0025653D02*
X0363926Y0025653D01*
X0363926Y0026754D02*
X0362272Y0026754D01*
X0367863Y0027087D02*
X0367863Y0012441D01*
X0366209Y0012441D01*
X0366209Y0027087D01*
X0367863Y0027087D01*
X0367863Y0013542D02*
X0366209Y0013542D01*
X0366209Y0014643D02*
X0367863Y0014643D01*
X0367863Y0015744D02*
X0366209Y0015744D01*
X0366209Y0016845D02*
X0367863Y0016845D01*
X0367863Y0017946D02*
X0366209Y0017946D01*
X0366209Y0019047D02*
X0367863Y0019047D01*
X0367863Y0020148D02*
X0366209Y0020148D01*
X0366209Y0021249D02*
X0367863Y0021249D01*
X0367863Y0022350D02*
X0366209Y0022350D01*
X0366209Y0023451D02*
X0367863Y0023451D01*
X0367863Y0024552D02*
X0366209Y0024552D01*
X0366209Y0025653D02*
X0367863Y0025653D01*
X0367863Y0026754D02*
X0366209Y0026754D01*
D17*
X0364205Y0030000D02*
X0094277Y0030000D01*
X0094277Y0037447D01*
X0092947Y0040658D01*
X0090489Y0043116D01*
X0087278Y0044446D01*
X0083802Y0044446D01*
X0083802Y0044446D01*
X0080591Y0043116D01*
X0078133Y0040658D01*
X0076803Y0037447D01*
X0076803Y0030000D01*
X0043096Y0030000D01*
X0043096Y0041585D01*
X0043096Y0042558D01*
X0042098Y0046282D01*
X0040170Y0049621D01*
X0037444Y0052347D01*
X0034105Y0054275D01*
X0030381Y0055272D01*
X0026526Y0055272D01*
X0022802Y0054275D01*
X0022802Y0054275D01*
X0019463Y0052347D01*
X0016737Y0049621D01*
X0014809Y0046282D01*
X0014809Y0046282D01*
X0013811Y0042558D01*
X0013811Y0030000D01*
X0011600Y0030000D01*
X0011600Y0330121D01*
X0370504Y0330121D01*
X0370504Y0055272D01*
X0369677Y0055272D01*
X0368548Y0055273D01*
X0366473Y0054380D01*
X0366473Y0054380D01*
X0364921Y0052737D01*
X0364921Y0052737D01*
X0364921Y0052737D01*
X0364147Y0050614D01*
X0364147Y0050614D01*
X0364205Y0049625D01*
X0364205Y0030000D01*
X0364205Y0030576D02*
X0094277Y0030576D01*
X0094277Y0032175D02*
X0364205Y0032175D01*
X0364205Y0033773D02*
X0094277Y0033773D01*
X0094277Y0035372D02*
X0364205Y0035372D01*
X0364205Y0036970D02*
X0094277Y0036970D01*
X0093812Y0038569D02*
X0364205Y0038569D01*
X0364205Y0040167D02*
X0093150Y0040167D01*
X0092947Y0040658D02*
X0092947Y0040658D01*
X0091839Y0041766D02*
X0364205Y0041766D01*
X0364205Y0043364D02*
X0089889Y0043364D01*
X0090489Y0043116D02*
X0090489Y0043116D01*
X0081192Y0043364D02*
X0042880Y0043364D01*
X0043096Y0042558D02*
X0043096Y0042558D01*
X0043096Y0041766D02*
X0079241Y0041766D01*
X0078133Y0040658D02*
X0078133Y0040658D01*
X0077930Y0040167D02*
X0043096Y0040167D01*
X0043096Y0038569D02*
X0077268Y0038569D01*
X0076803Y0036970D02*
X0043096Y0036970D01*
X0043096Y0035372D02*
X0076803Y0035372D01*
X0076803Y0033773D02*
X0043096Y0033773D01*
X0043096Y0032175D02*
X0076803Y0032175D01*
X0076803Y0030576D02*
X0043096Y0030576D01*
X0042452Y0044963D02*
X0364205Y0044963D01*
X0364205Y0046561D02*
X0041937Y0046561D01*
X0042098Y0046282D02*
X0042098Y0046282D01*
X0041014Y0048160D02*
X0145246Y0048160D01*
X0145441Y0047965D02*
X0146323Y0047600D01*
X0182277Y0047600D01*
X0183159Y0047965D01*
X0190297Y0055103D01*
X0190786Y0054900D01*
X0192814Y0054900D01*
X0194689Y0055676D01*
X0196124Y0057111D01*
X0196800Y0058744D01*
X0197476Y0057111D01*
X0198911Y0055676D01*
X0200786Y0054900D01*
X0202814Y0054900D01*
X0204689Y0055676D01*
X0206124Y0057111D01*
X0206800Y0058744D01*
X0207476Y0057111D01*
X0208911Y0055676D01*
X0210786Y0054900D01*
X0212814Y0054900D01*
X0214689Y0055676D01*
X0216124Y0057111D01*
X0216800Y0058744D01*
X0217476Y0057111D01*
X0218911Y0055676D01*
X0220786Y0054900D01*
X0222814Y0054900D01*
X0224689Y0055676D01*
X0226124Y0057111D01*
X0226800Y0058744D01*
X0227476Y0057111D01*
X0228911Y0055676D01*
X0230786Y0054900D01*
X0232814Y0054900D01*
X0234689Y0055676D01*
X0236124Y0057111D01*
X0236800Y0058744D01*
X0237476Y0057111D01*
X0238911Y0055676D01*
X0240786Y0054900D01*
X0242814Y0054900D01*
X0244689Y0055676D01*
X0246124Y0057111D01*
X0246800Y0058744D01*
X0247476Y0057111D01*
X0248911Y0055676D01*
X0250786Y0054900D01*
X0252814Y0054900D01*
X0254689Y0055676D01*
X0256124Y0057111D01*
X0256800Y0058744D01*
X0257476Y0057111D01*
X0258911Y0055676D01*
X0260786Y0054900D01*
X0262814Y0054900D01*
X0264689Y0055676D01*
X0266124Y0057111D01*
X0266800Y0058744D01*
X0267476Y0057111D01*
X0268911Y0055676D01*
X0270786Y0054900D01*
X0272814Y0054900D01*
X0274689Y0055676D01*
X0276124Y0057111D01*
X0276800Y0058744D01*
X0277476Y0057111D01*
X0278911Y0055676D01*
X0280786Y0054900D01*
X0282814Y0054900D01*
X0284689Y0055676D01*
X0286124Y0057111D01*
X0286800Y0058744D01*
X0287476Y0057111D01*
X0288911Y0055676D01*
X0290786Y0054900D01*
X0292814Y0054900D01*
X0294689Y0055676D01*
X0296124Y0057111D01*
X0296800Y0058744D01*
X0297476Y0057111D01*
X0298911Y0055676D01*
X0300786Y0054900D01*
X0302814Y0054900D01*
X0304689Y0055676D01*
X0306124Y0057111D01*
X0306800Y0058744D01*
X0307476Y0057111D01*
X0308911Y0055676D01*
X0310786Y0054900D01*
X0312814Y0054900D01*
X0314689Y0055676D01*
X0316124Y0057111D01*
X0316800Y0058744D01*
X0317476Y0057111D01*
X0318911Y0055676D01*
X0320786Y0054900D01*
X0322814Y0054900D01*
X0324689Y0055676D01*
X0326124Y0057111D01*
X0326800Y0058744D01*
X0327476Y0057111D01*
X0328911Y0055676D01*
X0330786Y0054900D01*
X0332814Y0054900D01*
X0334689Y0055676D01*
X0336124Y0057111D01*
X0336708Y0058521D01*
X0336888Y0057966D01*
X0337267Y0057222D01*
X0337757Y0056547D01*
X0338347Y0055957D01*
X0339022Y0055467D01*
X0339766Y0055088D01*
X0340559Y0054830D01*
X0341383Y0054700D01*
X0341800Y0054700D01*
X0342217Y0054700D01*
X0343041Y0054830D01*
X0343834Y0055088D01*
X0344578Y0055467D01*
X0345253Y0055957D01*
X0345843Y0056547D01*
X0346333Y0057222D01*
X0346712Y0057966D01*
X0346969Y0058759D01*
X0347100Y0059583D01*
X0347100Y0060000D01*
X0347100Y0060417D01*
X0346969Y0061241D01*
X0346712Y0062034D01*
X0346333Y0062778D01*
X0345843Y0063453D01*
X0345253Y0064043D01*
X0344578Y0064533D01*
X0343834Y0064912D01*
X0343279Y0065092D01*
X0344689Y0065676D01*
X0346124Y0067111D01*
X0346900Y0068986D01*
X0346900Y0071014D01*
X0346124Y0072889D01*
X0344689Y0074324D01*
X0343056Y0075000D01*
X0344689Y0075676D01*
X0346124Y0077111D01*
X0346900Y0078986D01*
X0346900Y0081014D01*
X0346124Y0082889D01*
X0344689Y0084324D01*
X0343056Y0085000D01*
X0344689Y0085676D01*
X0346124Y0087111D01*
X0346900Y0088986D01*
X0346900Y0091014D01*
X0346124Y0092889D01*
X0344689Y0094324D01*
X0343056Y0095000D01*
X0344689Y0095676D01*
X0346124Y0097111D01*
X0346900Y0098986D01*
X0346900Y0101014D01*
X0346124Y0102889D01*
X0344689Y0104324D01*
X0343056Y0105000D01*
X0344689Y0105676D01*
X0346124Y0107111D01*
X0346900Y0108986D01*
X0346900Y0111014D01*
X0346124Y0112889D01*
X0344689Y0114324D01*
X0343056Y0115000D01*
X0344689Y0115676D01*
X0346124Y0117111D01*
X0346900Y0118986D01*
X0346900Y0121014D01*
X0346124Y0122889D01*
X0344689Y0124324D01*
X0343056Y0125000D01*
X0344689Y0125676D01*
X0346124Y0127111D01*
X0346900Y0128986D01*
X0346900Y0131014D01*
X0346124Y0132889D01*
X0344689Y0134324D01*
X0343056Y0135000D01*
X0344689Y0135676D01*
X0346124Y0137111D01*
X0346900Y0138986D01*
X0346900Y0141014D01*
X0346124Y0142889D01*
X0344689Y0144324D01*
X0343056Y0145000D01*
X0344689Y0145676D01*
X0346124Y0147111D01*
X0346900Y0148986D01*
X0346900Y0151014D01*
X0346124Y0152889D01*
X0344689Y0154324D01*
X0343056Y0155000D01*
X0344689Y0155676D01*
X0346124Y0157111D01*
X0346900Y0158986D01*
X0346900Y0161014D01*
X0346124Y0162889D01*
X0344689Y0164324D01*
X0343056Y0165000D01*
X0344689Y0165676D01*
X0346124Y0167111D01*
X0346900Y0168986D01*
X0346900Y0171014D01*
X0346124Y0172889D01*
X0344689Y0174324D01*
X0343056Y0175000D01*
X0344689Y0175676D01*
X0346124Y0177111D01*
X0346900Y0178986D01*
X0346900Y0181014D01*
X0346124Y0182889D01*
X0344689Y0184324D01*
X0343056Y0185000D01*
X0344689Y0185676D01*
X0346124Y0187111D01*
X0346900Y0188986D01*
X0346900Y0191014D01*
X0346124Y0192889D01*
X0344689Y0194324D01*
X0343056Y0195000D01*
X0344689Y0195676D01*
X0346124Y0197111D01*
X0346900Y0198986D01*
X0346900Y0201014D01*
X0346124Y0202889D01*
X0344689Y0204324D01*
X0343056Y0205000D01*
X0344689Y0205676D01*
X0346124Y0207111D01*
X0346900Y0208986D01*
X0346900Y0211014D01*
X0346124Y0212889D01*
X0344689Y0214324D01*
X0342814Y0215100D01*
X0340786Y0215100D01*
X0338911Y0214324D01*
X0337476Y0212889D01*
X0336800Y0211256D01*
X0336124Y0212889D01*
X0334689Y0214324D01*
X0332814Y0215100D01*
X0330786Y0215100D01*
X0328911Y0214324D01*
X0327476Y0212889D01*
X0326800Y0211256D01*
X0326124Y0212889D01*
X0324689Y0214324D01*
X0322814Y0215100D01*
X0320786Y0215100D01*
X0318911Y0214324D01*
X0317476Y0212889D01*
X0316800Y0211256D01*
X0316124Y0212889D01*
X0314689Y0214324D01*
X0312814Y0215100D01*
X0310786Y0215100D01*
X0308911Y0214324D01*
X0307476Y0212889D01*
X0306800Y0211256D01*
X0306124Y0212889D01*
X0304689Y0214324D01*
X0302814Y0215100D01*
X0300786Y0215100D01*
X0298911Y0214324D01*
X0297476Y0212889D01*
X0296800Y0211256D01*
X0296124Y0212889D01*
X0294689Y0214324D01*
X0292814Y0215100D01*
X0290786Y0215100D01*
X0288911Y0214324D01*
X0287476Y0212889D01*
X0286800Y0211256D01*
X0286124Y0212889D01*
X0284689Y0214324D01*
X0282814Y0215100D01*
X0280786Y0215100D01*
X0278911Y0214324D01*
X0277476Y0212889D01*
X0276800Y0211256D01*
X0276124Y0212889D01*
X0274689Y0214324D01*
X0272814Y0215100D01*
X0270786Y0215100D01*
X0268911Y0214324D01*
X0267476Y0212889D01*
X0266800Y0211256D01*
X0266124Y0212889D01*
X0264689Y0214324D01*
X0262814Y0215100D01*
X0260786Y0215100D01*
X0258911Y0214324D01*
X0257476Y0212889D01*
X0256800Y0211256D01*
X0256124Y0212889D01*
X0254689Y0214324D01*
X0252814Y0215100D01*
X0250786Y0215100D01*
X0248911Y0214324D01*
X0247476Y0212889D01*
X0246800Y0211256D01*
X0246124Y0212889D01*
X0244689Y0214324D01*
X0242814Y0215100D01*
X0240786Y0215100D01*
X0238911Y0214324D01*
X0237476Y0212889D01*
X0236800Y0211256D01*
X0236124Y0212889D01*
X0234689Y0214324D01*
X0232814Y0215100D01*
X0230786Y0215100D01*
X0228911Y0214324D01*
X0227476Y0212889D01*
X0226800Y0211256D01*
X0226124Y0212889D01*
X0224689Y0214324D01*
X0222814Y0215100D01*
X0220786Y0215100D01*
X0218911Y0214324D01*
X0217476Y0212889D01*
X0216800Y0211256D01*
X0216124Y0212889D01*
X0214689Y0214324D01*
X0212814Y0215100D01*
X0210786Y0215100D01*
X0208911Y0214324D01*
X0207476Y0212889D01*
X0206800Y0211256D01*
X0206124Y0212889D01*
X0204689Y0214324D01*
X0202814Y0215100D01*
X0200786Y0215100D01*
X0198911Y0214324D01*
X0197476Y0212889D01*
X0196800Y0211256D01*
X0196124Y0212889D01*
X0194689Y0214324D01*
X0192814Y0215100D01*
X0190786Y0215100D01*
X0188911Y0214324D01*
X0187476Y0212889D01*
X0186700Y0211014D01*
X0186700Y0208986D01*
X0186903Y0208497D01*
X0155806Y0177400D01*
X0155677Y0177400D01*
X0155615Y0177549D01*
X0154349Y0178815D01*
X0152695Y0179500D01*
X0150905Y0179500D01*
X0149251Y0178815D01*
X0147985Y0177549D01*
X0147300Y0175895D01*
X0147300Y0174105D01*
X0147985Y0172451D01*
X0149251Y0171185D01*
X0150905Y0170500D01*
X0152695Y0170500D01*
X0154349Y0171185D01*
X0155615Y0172451D01*
X0155677Y0172600D01*
X0157277Y0172600D01*
X0158159Y0172965D01*
X0187048Y0201853D01*
X0186700Y0201014D01*
X0186700Y0198986D01*
X0186903Y0198497D01*
X0155806Y0167400D01*
X0155677Y0167400D01*
X0155615Y0167549D01*
X0154349Y0168815D01*
X0152695Y0169500D01*
X0150905Y0169500D01*
X0149251Y0168815D01*
X0147985Y0167549D01*
X0147300Y0165895D01*
X0147300Y0164105D01*
X0147985Y0162451D01*
X0149251Y0161185D01*
X0150905Y0160500D01*
X0152695Y0160500D01*
X0154349Y0161185D01*
X0155615Y0162451D01*
X0155677Y0162600D01*
X0157277Y0162600D01*
X0158159Y0162965D01*
X0187048Y0191853D01*
X0186700Y0191014D01*
X0186700Y0188986D01*
X0186903Y0188497D01*
X0155806Y0157400D01*
X0155677Y0157400D01*
X0155615Y0157549D01*
X0154349Y0158815D01*
X0152695Y0159500D01*
X0150905Y0159500D01*
X0149251Y0158815D01*
X0147985Y0157549D01*
X0147300Y0155895D01*
X0147300Y0154105D01*
X0147985Y0152451D01*
X0149251Y0151185D01*
X0150905Y0150500D01*
X0152695Y0150500D01*
X0154349Y0151185D01*
X0155615Y0152451D01*
X0155677Y0152600D01*
X0157277Y0152600D01*
X0158159Y0152965D01*
X0158835Y0153641D01*
X0187048Y0181853D01*
X0186700Y0181014D01*
X0186700Y0178986D01*
X0186903Y0178497D01*
X0155806Y0147400D01*
X0155677Y0147400D01*
X0155615Y0147549D01*
X0154349Y0148815D01*
X0152695Y0149500D01*
X0150905Y0149500D01*
X0149251Y0148815D01*
X0147985Y0147549D01*
X0147300Y0145895D01*
X0147300Y0144105D01*
X0147985Y0142451D01*
X0149251Y0141185D01*
X0150905Y0140500D01*
X0152695Y0140500D01*
X0154349Y0141185D01*
X0155615Y0142451D01*
X0155677Y0142600D01*
X0157277Y0142600D01*
X0158159Y0142965D01*
X0187048Y0171853D01*
X0186700Y0171014D01*
X0186700Y0168986D01*
X0186903Y0168497D01*
X0155806Y0137400D01*
X0155677Y0137400D01*
X0155615Y0137549D01*
X0154349Y0138815D01*
X0152695Y0139500D01*
X0150905Y0139500D01*
X0149251Y0138815D01*
X0147985Y0137549D01*
X0147300Y0135895D01*
X0147300Y0134105D01*
X0147985Y0132451D01*
X0149251Y0131185D01*
X0150905Y0130500D01*
X0152695Y0130500D01*
X0154349Y0131185D01*
X0155615Y0132451D01*
X0155677Y0132600D01*
X0157277Y0132600D01*
X0158159Y0132965D01*
X0187048Y0161853D01*
X0186700Y0161014D01*
X0186700Y0158986D01*
X0186903Y0158497D01*
X0155806Y0127400D01*
X0155677Y0127400D01*
X0155615Y0127549D01*
X0154349Y0128815D01*
X0152695Y0129500D01*
X0150905Y0129500D01*
X0149251Y0128815D01*
X0147985Y0127549D01*
X0147300Y0125895D01*
X0147300Y0124105D01*
X0147985Y0122451D01*
X0149251Y0121185D01*
X0150905Y0120500D01*
X0152695Y0120500D01*
X0154349Y0121185D01*
X0155615Y0122451D01*
X0155677Y0122600D01*
X0157277Y0122600D01*
X0158159Y0122965D01*
X0187048Y0151853D01*
X0186700Y0151014D01*
X0186700Y0148986D01*
X0186903Y0148497D01*
X0155806Y0117400D01*
X0155677Y0117400D01*
X0155615Y0117549D01*
X0154349Y0118815D01*
X0152695Y0119500D01*
X0150905Y0119500D01*
X0149251Y0118815D01*
X0147985Y0117549D01*
X0147300Y0115895D01*
X0147300Y0114105D01*
X0147985Y0112451D01*
X0149251Y0111185D01*
X0150905Y0110500D01*
X0152695Y0110500D01*
X0154349Y0111185D01*
X0155615Y0112451D01*
X0155677Y0112600D01*
X0157277Y0112600D01*
X0158159Y0112965D01*
X0187048Y0141853D01*
X0186700Y0141014D01*
X0186700Y0138986D01*
X0186903Y0138497D01*
X0155806Y0107400D01*
X0155677Y0107400D01*
X0155615Y0107549D01*
X0154349Y0108815D01*
X0152695Y0109500D01*
X0150905Y0109500D01*
X0149251Y0108815D01*
X0147985Y0107549D01*
X0147300Y0105895D01*
X0147300Y0104105D01*
X0147985Y0102451D01*
X0149251Y0101185D01*
X0150905Y0100500D01*
X0152695Y0100500D01*
X0154349Y0101185D01*
X0155615Y0102451D01*
X0155677Y0102600D01*
X0157277Y0102600D01*
X0158159Y0102965D01*
X0187048Y0131853D01*
X0186700Y0131014D01*
X0186700Y0128986D01*
X0186903Y0128497D01*
X0155806Y0097400D01*
X0155677Y0097400D01*
X0155615Y0097549D01*
X0154349Y0098815D01*
X0152695Y0099500D01*
X0150905Y0099500D01*
X0149251Y0098815D01*
X0147985Y0097549D01*
X0147300Y0095895D01*
X0147300Y0094105D01*
X0147985Y0092451D01*
X0149251Y0091185D01*
X0150905Y0090500D01*
X0152695Y0090500D01*
X0154349Y0091185D01*
X0155615Y0092451D01*
X0155677Y0092600D01*
X0157277Y0092600D01*
X0158159Y0092965D01*
X0187048Y0121853D01*
X0186700Y0121014D01*
X0186700Y0118986D01*
X0186903Y0118497D01*
X0155806Y0087400D01*
X0155677Y0087400D01*
X0155615Y0087549D01*
X0154349Y0088815D01*
X0152695Y0089500D01*
X0150905Y0089500D01*
X0149251Y0088815D01*
X0147985Y0087549D01*
X0147300Y0085895D01*
X0147300Y0084105D01*
X0147985Y0082451D01*
X0149251Y0081185D01*
X0150905Y0080500D01*
X0152695Y0080500D01*
X0154349Y0081185D01*
X0155615Y0082451D01*
X0155677Y0082600D01*
X0157277Y0082600D01*
X0158159Y0082965D01*
X0187048Y0111853D01*
X0186700Y0111014D01*
X0186700Y0108986D01*
X0186903Y0108497D01*
X0155806Y0077400D01*
X0155677Y0077400D01*
X0155615Y0077549D01*
X0154349Y0078815D01*
X0152695Y0079500D01*
X0150905Y0079500D01*
X0149251Y0078815D01*
X0147985Y0077549D01*
X0147300Y0075895D01*
X0147300Y0074105D01*
X0147985Y0072451D01*
X0148036Y0072400D01*
X0147794Y0072400D01*
X0144200Y0075994D01*
X0144200Y0110477D01*
X0143835Y0111359D01*
X0143159Y0112035D01*
X0138159Y0117035D01*
X0137277Y0117400D01*
X0095677Y0117400D01*
X0095615Y0117549D01*
X0094349Y0118815D01*
X0092695Y0119500D01*
X0090905Y0119500D01*
X0089251Y0118815D01*
X0087985Y0117549D01*
X0087300Y0115895D01*
X0087300Y0114105D01*
X0087985Y0112451D01*
X0089251Y0111185D01*
X0090905Y0110500D01*
X0092695Y0110500D01*
X0094349Y0111185D01*
X0095615Y0112451D01*
X0095677Y0112600D01*
X0135806Y0112600D01*
X0139400Y0109006D01*
X0139400Y0075794D01*
X0139200Y0075994D01*
X0139200Y0100477D01*
X0138835Y0101359D01*
X0133159Y0107035D01*
X0132277Y0107400D01*
X0095677Y0107400D01*
X0095615Y0107549D01*
X0094349Y0108815D01*
X0092695Y0109500D01*
X0090905Y0109500D01*
X0089251Y0108815D01*
X0087985Y0107549D01*
X0087300Y0105895D01*
X0087300Y0104105D01*
X0087985Y0102451D01*
X0089251Y0101185D01*
X0090905Y0100500D01*
X0092695Y0100500D01*
X0094349Y0101185D01*
X0095615Y0102451D01*
X0095677Y0102600D01*
X0130806Y0102600D01*
X0134400Y0099006D01*
X0134400Y0075794D01*
X0134200Y0075994D01*
X0134200Y0090477D01*
X0133835Y0091359D01*
X0133159Y0092035D01*
X0128159Y0097035D01*
X0127277Y0097400D01*
X0095677Y0097400D01*
X0095615Y0097549D01*
X0094349Y0098815D01*
X0092695Y0099500D01*
X0090905Y0099500D01*
X0089251Y0098815D01*
X0087985Y0097549D01*
X0087300Y0095895D01*
X0087300Y0094105D01*
X0087985Y0092451D01*
X0089251Y0091185D01*
X0090905Y0090500D01*
X0092695Y0090500D01*
X0094349Y0091185D01*
X0095615Y0092451D01*
X0095677Y0092600D01*
X0125806Y0092600D01*
X0129400Y0089006D01*
X0129400Y0075794D01*
X0129200Y0075994D01*
X0129200Y0080477D01*
X0128835Y0081359D01*
X0128159Y0082035D01*
X0123159Y0087035D01*
X0122277Y0087400D01*
X0095677Y0087400D01*
X0095615Y0087549D01*
X0094349Y0088815D01*
X0092695Y0089500D01*
X0090905Y0089500D01*
X0089251Y0088815D01*
X0087985Y0087549D01*
X0087300Y0085895D01*
X0087300Y0084105D01*
X0087985Y0082451D01*
X0089251Y0081185D01*
X0090905Y0080500D01*
X0092695Y0080500D01*
X0094349Y0081185D01*
X0095615Y0082451D01*
X0095677Y0082600D01*
X0120806Y0082600D01*
X0124400Y0079006D01*
X0124400Y0075794D01*
X0123159Y0077035D01*
X0122277Y0077400D01*
X0095677Y0077400D01*
X0095615Y0077549D01*
X0094349Y0078815D01*
X0092695Y0079500D01*
X0090905Y0079500D01*
X0089251Y0078815D01*
X0087985Y0077549D01*
X0087300Y0075895D01*
X0087300Y0074105D01*
X0087985Y0072451D01*
X0089251Y0071185D01*
X0090905Y0070500D01*
X0092695Y0070500D01*
X0094349Y0071185D01*
X0095615Y0072451D01*
X0095677Y0072600D01*
X0120806Y0072600D01*
X0144765Y0048641D01*
X0145441Y0047965D01*
X0146800Y0050000D02*
X0181800Y0050000D01*
X0191800Y0060000D01*
X0196389Y0057751D02*
X0197211Y0057751D01*
X0198435Y0056152D02*
X0195165Y0056152D01*
X0189748Y0054554D02*
X0366877Y0054554D01*
X0365127Y0052955D02*
X0188149Y0052955D01*
X0186551Y0051357D02*
X0364418Y0051357D01*
X0364197Y0049758D02*
X0184952Y0049758D01*
X0183354Y0048160D02*
X0364205Y0048160D01*
X0370504Y0056152D02*
X0345448Y0056152D01*
X0346602Y0057751D02*
X0370504Y0057751D01*
X0370504Y0059349D02*
X0347063Y0059349D01*
X0347100Y0060000D02*
X0341800Y0060000D01*
X0347100Y0060000D01*
X0347016Y0060948D02*
X0370504Y0060948D01*
X0370504Y0062546D02*
X0346451Y0062546D01*
X0345112Y0064145D02*
X0370504Y0064145D01*
X0370504Y0065743D02*
X0344756Y0065743D01*
X0346219Y0067342D02*
X0370504Y0067342D01*
X0370504Y0068940D02*
X0346881Y0068940D01*
X0346900Y0070539D02*
X0370504Y0070539D01*
X0370504Y0072137D02*
X0346435Y0072137D01*
X0345276Y0073736D02*
X0370504Y0073736D01*
X0370504Y0075334D02*
X0343863Y0075334D01*
X0345945Y0076933D02*
X0370504Y0076933D01*
X0370504Y0078532D02*
X0346712Y0078532D01*
X0346900Y0080130D02*
X0370504Y0080130D01*
X0370504Y0081729D02*
X0346604Y0081729D01*
X0345685Y0083327D02*
X0370504Y0083327D01*
X0370504Y0084926D02*
X0343236Y0084926D01*
X0345537Y0086524D02*
X0370504Y0086524D01*
X0370504Y0088123D02*
X0346543Y0088123D01*
X0346900Y0089721D02*
X0370504Y0089721D01*
X0370504Y0091320D02*
X0346774Y0091320D01*
X0346094Y0092918D02*
X0370504Y0092918D01*
X0370504Y0094517D02*
X0344223Y0094517D01*
X0345128Y0096115D02*
X0370504Y0096115D01*
X0370504Y0097714D02*
X0346373Y0097714D01*
X0346900Y0099312D02*
X0370504Y0099312D01*
X0370504Y0100911D02*
X0346900Y0100911D01*
X0346281Y0102509D02*
X0370504Y0102509D01*
X0370504Y0104108D02*
X0344905Y0104108D01*
X0344719Y0105706D02*
X0370504Y0105706D01*
X0370504Y0107305D02*
X0346204Y0107305D01*
X0346866Y0108903D02*
X0370504Y0108903D01*
X0370504Y0110502D02*
X0346900Y0110502D01*
X0346450Y0112100D02*
X0370504Y0112100D01*
X0370504Y0113699D02*
X0345314Y0113699D01*
X0343774Y0115297D02*
X0370504Y0115297D01*
X0370504Y0116896D02*
X0345908Y0116896D01*
X0346697Y0118494D02*
X0370504Y0118494D01*
X0370504Y0120093D02*
X0346900Y0120093D01*
X0346620Y0121691D02*
X0370504Y0121691D01*
X0370504Y0123290D02*
X0345723Y0123290D01*
X0343325Y0124888D02*
X0370504Y0124888D01*
X0370504Y0126487D02*
X0345499Y0126487D01*
X0346527Y0128085D02*
X0370504Y0128085D01*
X0370504Y0129684D02*
X0346900Y0129684D01*
X0346789Y0131282D02*
X0370504Y0131282D01*
X0370504Y0132881D02*
X0346127Y0132881D01*
X0344313Y0134479D02*
X0370504Y0134479D01*
X0370504Y0136078D02*
X0345090Y0136078D01*
X0346358Y0137676D02*
X0370504Y0137676D01*
X0370504Y0139275D02*
X0346900Y0139275D01*
X0346900Y0140873D02*
X0370504Y0140873D01*
X0370504Y0142472D02*
X0346296Y0142472D01*
X0344942Y0144070D02*
X0370504Y0144070D01*
X0370504Y0145669D02*
X0344671Y0145669D01*
X0346188Y0147268D02*
X0370504Y0147268D01*
X0370504Y0148866D02*
X0346850Y0148866D01*
X0346900Y0150465D02*
X0370504Y0150465D01*
X0370504Y0152063D02*
X0346466Y0152063D01*
X0345351Y0153662D02*
X0370504Y0153662D01*
X0370504Y0155260D02*
X0343684Y0155260D01*
X0345871Y0156859D02*
X0370504Y0156859D01*
X0370504Y0158457D02*
X0346681Y0158457D01*
X0346900Y0160056D02*
X0370504Y0160056D01*
X0370504Y0161654D02*
X0346635Y0161654D01*
X0345760Y0163253D02*
X0370504Y0163253D01*
X0370504Y0164851D02*
X0343415Y0164851D01*
X0345462Y0166450D02*
X0370504Y0166450D01*
X0370504Y0168048D02*
X0346512Y0168048D01*
X0346900Y0169647D02*
X0370504Y0169647D01*
X0370504Y0171245D02*
X0346804Y0171245D01*
X0346142Y0172844D02*
X0370504Y0172844D01*
X0370504Y0174442D02*
X0344402Y0174442D01*
X0345053Y0176041D02*
X0370504Y0176041D01*
X0370504Y0177639D02*
X0346342Y0177639D01*
X0346900Y0179238D02*
X0370504Y0179238D01*
X0370504Y0180836D02*
X0346900Y0180836D01*
X0346312Y0182435D02*
X0370504Y0182435D01*
X0370504Y0184033D02*
X0344979Y0184033D01*
X0344581Y0185632D02*
X0370504Y0185632D01*
X0370504Y0187230D02*
X0346173Y0187230D01*
X0346835Y0188829D02*
X0370504Y0188829D01*
X0370504Y0190427D02*
X0346900Y0190427D01*
X0346481Y0192026D02*
X0370504Y0192026D01*
X0370504Y0193624D02*
X0345388Y0193624D01*
X0343594Y0195223D02*
X0370504Y0195223D01*
X0370504Y0196821D02*
X0345834Y0196821D01*
X0346666Y0198420D02*
X0370504Y0198420D01*
X0370504Y0200018D02*
X0346900Y0200018D01*
X0346650Y0201617D02*
X0370504Y0201617D01*
X0370504Y0203215D02*
X0345797Y0203215D01*
X0343505Y0204814D02*
X0370504Y0204814D01*
X0370504Y0206412D02*
X0345425Y0206412D01*
X0346496Y0208011D02*
X0370504Y0208011D01*
X0370504Y0209609D02*
X0346900Y0209609D01*
X0346820Y0211208D02*
X0370504Y0211208D01*
X0370504Y0212806D02*
X0346158Y0212806D01*
X0344492Y0214405D02*
X0370504Y0214405D01*
X0370504Y0216003D02*
X0159198Y0216003D01*
X0159794Y0216600D02*
X0249277Y0216600D01*
X0250159Y0216965D01*
X0261144Y0227949D01*
X0261746Y0227700D01*
X0263854Y0227700D01*
X0265802Y0228507D01*
X0267293Y0229998D01*
X0268100Y0231946D01*
X0268100Y0234054D01*
X0267293Y0236002D01*
X0265802Y0237493D01*
X0263854Y0238300D01*
X0261746Y0238300D01*
X0259798Y0237493D01*
X0258307Y0236002D01*
X0257915Y0235056D01*
X0257897Y0235111D01*
X0257504Y0235883D01*
X0256995Y0236583D01*
X0256383Y0237195D01*
X0255683Y0237704D01*
X0254911Y0238097D01*
X0254088Y0238365D01*
X0253233Y0238500D01*
X0253000Y0238500D01*
X0253000Y0233200D01*
X0252600Y0233200D01*
X0252600Y0238500D01*
X0252367Y0238500D01*
X0251512Y0238365D01*
X0250689Y0238097D01*
X0249917Y0237704D01*
X0249217Y0237195D01*
X0248605Y0236583D01*
X0248096Y0235883D01*
X0247703Y0235111D01*
X0247435Y0234288D01*
X0247300Y0233433D01*
X0247300Y0233200D01*
X0252600Y0233200D01*
X0252600Y0232800D01*
X0253000Y0232800D01*
X0253000Y0227500D01*
X0253233Y0227500D01*
X0254033Y0227627D01*
X0247806Y0221400D01*
X0158323Y0221400D01*
X0157441Y0221035D01*
X0156765Y0220359D01*
X0149765Y0213359D01*
X0149400Y0212477D01*
X0149400Y0208877D01*
X0149251Y0208815D01*
X0147985Y0207549D01*
X0147300Y0205895D01*
X0147300Y0204105D01*
X0147985Y0202451D01*
X0149251Y0201185D01*
X0150905Y0200500D01*
X0152695Y0200500D01*
X0154349Y0201185D01*
X0155615Y0202451D01*
X0156300Y0204105D01*
X0156300Y0205895D01*
X0155615Y0207549D01*
X0154349Y0208815D01*
X0154200Y0208877D01*
X0154200Y0211006D01*
X0159794Y0216600D01*
X0158800Y0219000D02*
X0248800Y0219000D01*
X0262800Y0233000D01*
X0266511Y0236784D02*
X0370504Y0236784D01*
X0370504Y0235186D02*
X0267631Y0235186D01*
X0268100Y0233587D02*
X0370504Y0233587D01*
X0370504Y0231989D02*
X0268100Y0231989D01*
X0267456Y0230390D02*
X0370504Y0230390D01*
X0370504Y0228792D02*
X0266087Y0228792D01*
X0260387Y0227193D02*
X0370504Y0227193D01*
X0370504Y0225595D02*
X0258789Y0225595D01*
X0257190Y0223996D02*
X0370504Y0223996D01*
X0370504Y0222398D02*
X0255592Y0222398D01*
X0253993Y0220799D02*
X0370504Y0220799D01*
X0370504Y0219201D02*
X0252395Y0219201D01*
X0250796Y0217602D02*
X0370504Y0217602D01*
X0370504Y0238383D02*
X0253974Y0238383D01*
X0253000Y0238383D02*
X0252600Y0238383D01*
X0251626Y0238383D02*
X0230913Y0238383D01*
X0231293Y0238002D02*
X0229802Y0239493D01*
X0227854Y0240300D01*
X0225746Y0240300D01*
X0223798Y0239493D01*
X0222307Y0238002D01*
X0222057Y0237400D01*
X0191323Y0237400D01*
X0190441Y0237035D01*
X0189765Y0236359D01*
X0186922Y0233516D01*
X0187100Y0233946D01*
X0187100Y0236054D01*
X0186293Y0238002D01*
X0184802Y0239493D01*
X0182854Y0240300D01*
X0180746Y0240300D01*
X0178798Y0239493D01*
X0177307Y0238002D01*
X0177057Y0237400D01*
X0141323Y0237400D01*
X0140441Y0237035D01*
X0139765Y0236359D01*
X0136922Y0233516D01*
X0137100Y0233946D01*
X0137100Y0236054D01*
X0136293Y0238002D01*
X0134802Y0239493D01*
X0132854Y0240300D01*
X0130746Y0240300D01*
X0128798Y0239493D01*
X0127307Y0238002D01*
X0126500Y0236054D01*
X0126500Y0233946D01*
X0126749Y0233344D01*
X0109765Y0216359D01*
X0109400Y0215477D01*
X0109400Y0170994D01*
X0095806Y0157400D01*
X0095677Y0157400D01*
X0095615Y0157549D01*
X0094349Y0158815D01*
X0092695Y0159500D01*
X0090905Y0159500D01*
X0089251Y0158815D01*
X0087985Y0157549D01*
X0087300Y0155895D01*
X0087300Y0154105D01*
X0087985Y0152451D01*
X0089251Y0151185D01*
X0090905Y0150500D01*
X0092695Y0150500D01*
X0094349Y0151185D01*
X0095615Y0152451D01*
X0095677Y0152600D01*
X0096006Y0152600D01*
X0092844Y0149438D01*
X0092695Y0149500D01*
X0090905Y0149500D01*
X0089251Y0148815D01*
X0087985Y0147549D01*
X0087300Y0145895D01*
X0087300Y0144105D01*
X0087985Y0142451D01*
X0089251Y0141185D01*
X0090905Y0140500D01*
X0092695Y0140500D01*
X0094349Y0141185D01*
X0095615Y0142451D01*
X0096300Y0144105D01*
X0096300Y0145895D01*
X0096238Y0146044D01*
X0099400Y0149206D01*
X0099400Y0145994D01*
X0092844Y0139438D01*
X0092695Y0139500D01*
X0090905Y0139500D01*
X0089251Y0138815D01*
X0087985Y0137549D01*
X0087300Y0135895D01*
X0087300Y0134105D01*
X0087985Y0132451D01*
X0089251Y0131185D01*
X0090905Y0130500D01*
X0092695Y0130500D01*
X0094349Y0131185D01*
X0095615Y0132451D01*
X0096300Y0134105D01*
X0096300Y0135895D01*
X0096238Y0136044D01*
X0103159Y0142965D01*
X0103835Y0143641D01*
X0104200Y0144523D01*
X0104200Y0149006D01*
X0123159Y0167965D01*
X0123835Y0168641D01*
X0124200Y0169523D01*
X0124200Y0209006D01*
X0137794Y0222600D01*
X0182277Y0222600D01*
X0183159Y0222965D01*
X0192794Y0232600D01*
X0222057Y0232600D01*
X0222307Y0231998D01*
X0223798Y0230507D01*
X0225746Y0229700D01*
X0227854Y0229700D01*
X0229802Y0230507D01*
X0231293Y0231998D01*
X0232100Y0233946D01*
X0232100Y0236054D01*
X0231293Y0238002D01*
X0231798Y0236784D02*
X0248806Y0236784D01*
X0247741Y0235186D02*
X0232100Y0235186D01*
X0231951Y0233587D02*
X0247324Y0233587D01*
X0247300Y0232800D02*
X0247300Y0232567D01*
X0247435Y0231712D01*
X0247703Y0230889D01*
X0248096Y0230117D01*
X0248605Y0229417D01*
X0249217Y0228805D01*
X0249917Y0228296D01*
X0250689Y0227903D01*
X0251512Y0227635D01*
X0252367Y0227500D01*
X0252600Y0227500D01*
X0252600Y0232800D01*
X0247300Y0232800D01*
X0247392Y0231989D02*
X0231284Y0231989D01*
X0229520Y0230390D02*
X0247957Y0230390D01*
X0249235Y0228792D02*
X0188986Y0228792D01*
X0190584Y0230390D02*
X0224080Y0230390D01*
X0222316Y0231989D02*
X0192183Y0231989D01*
X0191800Y0235000D02*
X0226800Y0235000D01*
X0222687Y0238383D02*
X0185913Y0238383D01*
X0186798Y0236784D02*
X0190190Y0236784D01*
X0188592Y0235186D02*
X0187100Y0235186D01*
X0186993Y0233587D02*
X0186951Y0233587D01*
X0181800Y0235000D02*
X0141800Y0235000D01*
X0116800Y0210000D01*
X0116800Y0170000D01*
X0091800Y0145000D01*
X0090003Y0140873D02*
X0079200Y0140873D01*
X0079200Y0139275D02*
X0090362Y0139275D01*
X0088112Y0137676D02*
X0079200Y0137676D01*
X0079200Y0136078D02*
X0087376Y0136078D01*
X0087300Y0134479D02*
X0079200Y0134479D01*
X0079200Y0132881D02*
X0087807Y0132881D01*
X0089154Y0131282D02*
X0079200Y0131282D01*
X0079200Y0130994D02*
X0079200Y0165477D01*
X0078835Y0166359D01*
X0073835Y0171359D01*
X0073159Y0172035D01*
X0072277Y0172400D01*
X0054999Y0172400D01*
X0046697Y0180701D01*
X0046900Y0181190D01*
X0046900Y0183219D01*
X0046124Y0185094D01*
X0044689Y0186528D01*
X0042814Y0187305D01*
X0040786Y0187305D01*
X0038911Y0186528D01*
X0037476Y0185094D01*
X0036700Y0183219D01*
X0036700Y0181190D01*
X0037476Y0179316D01*
X0038911Y0177881D01*
X0040786Y0177105D01*
X0042814Y0177105D01*
X0043303Y0177307D01*
X0051970Y0168641D01*
X0051970Y0168641D01*
X0052645Y0167965D01*
X0053527Y0167600D01*
X0070806Y0167600D01*
X0074400Y0164006D01*
X0074400Y0129523D01*
X0074765Y0128641D01*
X0075441Y0127965D01*
X0080441Y0122965D01*
X0081323Y0122600D01*
X0087923Y0122600D01*
X0087985Y0122451D01*
X0089251Y0121185D01*
X0090905Y0120500D01*
X0092695Y0120500D01*
X0094349Y0121185D01*
X0095615Y0122451D01*
X0096300Y0124105D01*
X0096300Y0125895D01*
X0095615Y0127549D01*
X0094349Y0128815D01*
X0092695Y0129500D01*
X0090905Y0129500D01*
X0089251Y0128815D01*
X0087985Y0127549D01*
X0087923Y0127400D01*
X0082794Y0127400D01*
X0079200Y0130994D01*
X0080510Y0129684D02*
X0158090Y0129684D01*
X0159688Y0131282D02*
X0154446Y0131282D01*
X0155079Y0128085D02*
X0156491Y0128085D01*
X0156800Y0125000D02*
X0151800Y0125000D01*
X0147638Y0123290D02*
X0095962Y0123290D01*
X0096300Y0124888D02*
X0147300Y0124888D01*
X0147545Y0126487D02*
X0096055Y0126487D01*
X0095079Y0128085D02*
X0148521Y0128085D01*
X0149154Y0131282D02*
X0094446Y0131282D01*
X0095793Y0132881D02*
X0147807Y0132881D01*
X0147300Y0134479D02*
X0096300Y0134479D01*
X0096272Y0136078D02*
X0147376Y0136078D01*
X0148112Y0137676D02*
X0097871Y0137676D01*
X0099469Y0139275D02*
X0150362Y0139275D01*
X0150003Y0140873D02*
X0101068Y0140873D01*
X0102666Y0142472D02*
X0147976Y0142472D01*
X0147314Y0144070D02*
X0104013Y0144070D01*
X0104200Y0145669D02*
X0147300Y0145669D01*
X0147868Y0147268D02*
X0104200Y0147268D01*
X0104200Y0148866D02*
X0149374Y0148866D01*
X0148373Y0152063D02*
X0107257Y0152063D01*
X0105659Y0150465D02*
X0158870Y0150465D01*
X0160469Y0152063D02*
X0155227Y0152063D01*
X0156800Y0155000D02*
X0151800Y0155000D01*
X0147699Y0156859D02*
X0112053Y0156859D01*
X0113651Y0158457D02*
X0148893Y0158457D01*
X0148782Y0161654D02*
X0116848Y0161654D01*
X0115250Y0160056D02*
X0158462Y0160056D01*
X0160060Y0161654D02*
X0154818Y0161654D01*
X0154707Y0158457D02*
X0156863Y0158457D01*
X0156800Y0155000D02*
X0191800Y0190000D01*
X0186700Y0190427D02*
X0185621Y0190427D01*
X0186765Y0188829D02*
X0184023Y0188829D01*
X0182424Y0187230D02*
X0185636Y0187230D01*
X0184038Y0185632D02*
X0180826Y0185632D01*
X0179227Y0184033D02*
X0182439Y0184033D01*
X0180841Y0182435D02*
X0177629Y0182435D01*
X0176030Y0180836D02*
X0179242Y0180836D01*
X0177644Y0179238D02*
X0174432Y0179238D01*
X0172833Y0177639D02*
X0176045Y0177639D01*
X0174447Y0176041D02*
X0171235Y0176041D01*
X0169636Y0174442D02*
X0172848Y0174442D01*
X0171250Y0172844D02*
X0168038Y0172844D01*
X0166439Y0171245D02*
X0169651Y0171245D01*
X0168053Y0169647D02*
X0164841Y0169647D01*
X0163242Y0168048D02*
X0166454Y0168048D01*
X0164856Y0166450D02*
X0161644Y0166450D01*
X0160045Y0164851D02*
X0163257Y0164851D01*
X0161659Y0163253D02*
X0158447Y0163253D01*
X0156800Y0165000D02*
X0191800Y0200000D01*
X0186700Y0200018D02*
X0185212Y0200018D01*
X0183614Y0198420D02*
X0186826Y0198420D01*
X0185227Y0196821D02*
X0182015Y0196821D01*
X0180417Y0195223D02*
X0183629Y0195223D01*
X0182030Y0193624D02*
X0178818Y0193624D01*
X0177220Y0192026D02*
X0180432Y0192026D01*
X0178833Y0190427D02*
X0175621Y0190427D01*
X0174023Y0188829D02*
X0177235Y0188829D01*
X0175636Y0187230D02*
X0172424Y0187230D01*
X0170826Y0185632D02*
X0174038Y0185632D01*
X0172439Y0184033D02*
X0169227Y0184033D01*
X0167629Y0182435D02*
X0170841Y0182435D01*
X0169242Y0180836D02*
X0166030Y0180836D01*
X0164432Y0179238D02*
X0167644Y0179238D01*
X0166045Y0177639D02*
X0162833Y0177639D01*
X0161235Y0176041D02*
X0164447Y0176041D01*
X0162848Y0174442D02*
X0159636Y0174442D01*
X0161250Y0172844D02*
X0157866Y0172844D01*
X0159651Y0171245D02*
X0154409Y0171245D01*
X0155116Y0168048D02*
X0156454Y0168048D01*
X0158053Y0169647D02*
X0124200Y0169647D01*
X0124200Y0171245D02*
X0149191Y0171245D01*
X0147822Y0172844D02*
X0124200Y0172844D01*
X0124200Y0174442D02*
X0147300Y0174442D01*
X0147360Y0176041D02*
X0124200Y0176041D01*
X0124200Y0177639D02*
X0148075Y0177639D01*
X0150272Y0179238D02*
X0124200Y0179238D01*
X0124200Y0180836D02*
X0150093Y0180836D01*
X0150905Y0180500D02*
X0152695Y0180500D01*
X0154349Y0181185D01*
X0155615Y0182451D01*
X0156300Y0184105D01*
X0156300Y0185895D01*
X0155615Y0187549D01*
X0154349Y0188815D01*
X0152695Y0189500D01*
X0150905Y0189500D01*
X0149251Y0188815D01*
X0147985Y0187549D01*
X0147300Y0185895D01*
X0147300Y0184105D01*
X0147985Y0182451D01*
X0149251Y0181185D01*
X0150905Y0180500D01*
X0153507Y0180836D02*
X0159242Y0180836D01*
X0157644Y0179238D02*
X0153328Y0179238D01*
X0155525Y0177639D02*
X0156045Y0177639D01*
X0156800Y0175000D02*
X0191800Y0210000D01*
X0156800Y0175000D01*
X0151800Y0175000D01*
X0148484Y0168048D02*
X0123242Y0168048D01*
X0121644Y0166450D02*
X0147530Y0166450D01*
X0147300Y0164851D02*
X0120045Y0164851D01*
X0118447Y0163253D02*
X0147653Y0163253D01*
X0151800Y0165000D02*
X0156800Y0165000D01*
X0163651Y0158457D02*
X0166863Y0158457D01*
X0165264Y0156859D02*
X0162053Y0156859D01*
X0160454Y0155260D02*
X0163666Y0155260D01*
X0162067Y0153662D02*
X0158856Y0153662D01*
X0157272Y0148866D02*
X0154226Y0148866D01*
X0151800Y0145000D02*
X0156800Y0145000D01*
X0191800Y0180000D01*
X0186700Y0179238D02*
X0184432Y0179238D01*
X0186030Y0180836D02*
X0186700Y0180836D01*
X0186045Y0177639D02*
X0182833Y0177639D01*
X0181235Y0176041D02*
X0184447Y0176041D01*
X0182848Y0174442D02*
X0179636Y0174442D01*
X0178038Y0172844D02*
X0181250Y0172844D01*
X0179651Y0171245D02*
X0176439Y0171245D01*
X0174841Y0169647D02*
X0178053Y0169647D01*
X0176454Y0168048D02*
X0173242Y0168048D01*
X0171644Y0166450D02*
X0174856Y0166450D01*
X0173257Y0164851D02*
X0170045Y0164851D01*
X0168447Y0163253D02*
X0171659Y0163253D01*
X0170060Y0161654D02*
X0166848Y0161654D01*
X0165250Y0160056D02*
X0168462Y0160056D01*
X0172053Y0156859D02*
X0175264Y0156859D01*
X0173666Y0155260D02*
X0170454Y0155260D01*
X0168856Y0153662D02*
X0172067Y0153662D01*
X0170469Y0152063D02*
X0167257Y0152063D01*
X0165659Y0150465D02*
X0168870Y0150465D01*
X0167272Y0148866D02*
X0164060Y0148866D01*
X0162462Y0147268D02*
X0165673Y0147268D01*
X0164075Y0145669D02*
X0160863Y0145669D01*
X0159265Y0144070D02*
X0162476Y0144070D01*
X0160878Y0142472D02*
X0155624Y0142472D01*
X0153597Y0140873D02*
X0159279Y0140873D01*
X0157681Y0139275D02*
X0153238Y0139275D01*
X0155488Y0137676D02*
X0156082Y0137676D01*
X0156800Y0135000D02*
X0151800Y0135000D01*
X0156800Y0135000D02*
X0191800Y0170000D01*
X0186700Y0169647D02*
X0184841Y0169647D01*
X0186439Y0171245D02*
X0186796Y0171245D01*
X0186454Y0168048D02*
X0183242Y0168048D01*
X0181644Y0166450D02*
X0184856Y0166450D01*
X0183257Y0164851D02*
X0180045Y0164851D01*
X0178447Y0163253D02*
X0181659Y0163253D01*
X0180060Y0161654D02*
X0176848Y0161654D01*
X0175250Y0160056D02*
X0178462Y0160056D01*
X0176863Y0158457D02*
X0173651Y0158457D01*
X0178856Y0153662D02*
X0182067Y0153662D01*
X0180469Y0152063D02*
X0177257Y0152063D01*
X0175659Y0150465D02*
X0178870Y0150465D01*
X0177272Y0148866D02*
X0174060Y0148866D01*
X0172462Y0147268D02*
X0175673Y0147268D01*
X0174075Y0145669D02*
X0170863Y0145669D01*
X0169265Y0144070D02*
X0172476Y0144070D01*
X0170878Y0142472D02*
X0167666Y0142472D01*
X0166068Y0140873D02*
X0169279Y0140873D01*
X0167681Y0139275D02*
X0164469Y0139275D01*
X0162871Y0137676D02*
X0166082Y0137676D01*
X0164484Y0136078D02*
X0161272Y0136078D01*
X0159674Y0134479D02*
X0162885Y0134479D01*
X0161287Y0132881D02*
X0157956Y0132881D01*
X0163279Y0128085D02*
X0166491Y0128085D01*
X0164893Y0126487D02*
X0161681Y0126487D01*
X0160082Y0124888D02*
X0163294Y0124888D01*
X0161696Y0123290D02*
X0158484Y0123290D01*
X0160097Y0121691D02*
X0154855Y0121691D01*
X0154670Y0118494D02*
X0156900Y0118494D01*
X0158499Y0120093D02*
X0011600Y0120093D01*
X0011600Y0121691D02*
X0088745Y0121691D01*
X0088930Y0118494D02*
X0011600Y0118494D01*
X0011600Y0116896D02*
X0087715Y0116896D01*
X0087300Y0115297D02*
X0011600Y0115297D01*
X0011600Y0113699D02*
X0087468Y0113699D01*
X0088336Y0112100D02*
X0011600Y0112100D01*
X0011600Y0110502D02*
X0090901Y0110502D01*
X0092699Y0110502D02*
X0137904Y0110502D01*
X0139400Y0108903D02*
X0094136Y0108903D01*
X0095264Y0112100D02*
X0136306Y0112100D01*
X0136800Y0115000D02*
X0141800Y0110000D01*
X0141800Y0075000D01*
X0146800Y0070000D01*
X0161800Y0070000D01*
X0191800Y0100000D01*
X0185711Y0107305D02*
X0182499Y0107305D01*
X0184097Y0108903D02*
X0186734Y0108903D01*
X0186700Y0110502D02*
X0185696Y0110502D01*
X0182105Y0113699D02*
X0178893Y0113699D01*
X0180491Y0115297D02*
X0183703Y0115297D01*
X0185302Y0116896D02*
X0182090Y0116896D01*
X0183688Y0118494D02*
X0186900Y0118494D01*
X0186700Y0120093D02*
X0185287Y0120093D01*
X0186885Y0121691D02*
X0186980Y0121691D01*
X0183294Y0124888D02*
X0180082Y0124888D01*
X0178484Y0123290D02*
X0181696Y0123290D01*
X0180097Y0121691D02*
X0176885Y0121691D01*
X0175287Y0120093D02*
X0178499Y0120093D01*
X0176900Y0118494D02*
X0173688Y0118494D01*
X0172090Y0116896D02*
X0175302Y0116896D01*
X0173703Y0115297D02*
X0170491Y0115297D01*
X0168893Y0113699D02*
X0172105Y0113699D01*
X0170506Y0112100D02*
X0167294Y0112100D01*
X0165696Y0110502D02*
X0168908Y0110502D01*
X0167309Y0108903D02*
X0164097Y0108903D01*
X0162499Y0107305D02*
X0165711Y0107305D01*
X0164112Y0105706D02*
X0160900Y0105706D01*
X0159302Y0104108D02*
X0162514Y0104108D01*
X0160915Y0102509D02*
X0155639Y0102509D01*
X0153687Y0100911D02*
X0159317Y0100911D01*
X0157718Y0099312D02*
X0153149Y0099312D01*
X0150451Y0099312D02*
X0144200Y0099312D01*
X0144200Y0097714D02*
X0148150Y0097714D01*
X0147391Y0096115D02*
X0144200Y0096115D01*
X0144200Y0094517D02*
X0147300Y0094517D01*
X0147792Y0092918D02*
X0144200Y0092918D01*
X0144200Y0091320D02*
X0149116Y0091320D01*
X0148559Y0088123D02*
X0144200Y0088123D01*
X0144200Y0089721D02*
X0158127Y0089721D01*
X0156528Y0088123D02*
X0155041Y0088123D01*
X0154484Y0091320D02*
X0159726Y0091320D01*
X0161324Y0092918D02*
X0158045Y0092918D01*
X0159711Y0094517D02*
X0162923Y0094517D01*
X0164521Y0096115D02*
X0161309Y0096115D01*
X0162908Y0097714D02*
X0166120Y0097714D01*
X0167718Y0099312D02*
X0164506Y0099312D01*
X0166105Y0100911D02*
X0169317Y0100911D01*
X0170915Y0102509D02*
X0167703Y0102509D01*
X0169302Y0104108D02*
X0172514Y0104108D01*
X0174112Y0105706D02*
X0170900Y0105706D01*
X0172499Y0107305D02*
X0175711Y0107305D01*
X0177309Y0108903D02*
X0174097Y0108903D01*
X0175696Y0110502D02*
X0178908Y0110502D01*
X0180506Y0112100D02*
X0177294Y0112100D01*
X0180900Y0105706D02*
X0184112Y0105706D01*
X0182514Y0104108D02*
X0179302Y0104108D01*
X0177703Y0102509D02*
X0180915Y0102509D01*
X0179317Y0100911D02*
X0176105Y0100911D01*
X0174506Y0099312D02*
X0177718Y0099312D01*
X0176120Y0097714D02*
X0172908Y0097714D01*
X0171309Y0096115D02*
X0174521Y0096115D01*
X0172923Y0094517D02*
X0169711Y0094517D01*
X0168112Y0092918D02*
X0171324Y0092918D01*
X0169726Y0091320D02*
X0166514Y0091320D01*
X0164915Y0089721D02*
X0168127Y0089721D01*
X0166528Y0088123D02*
X0163317Y0088123D01*
X0161718Y0086524D02*
X0164930Y0086524D01*
X0163331Y0084926D02*
X0160120Y0084926D01*
X0158521Y0083327D02*
X0161733Y0083327D01*
X0160134Y0081729D02*
X0154893Y0081729D01*
X0154632Y0078532D02*
X0156937Y0078532D01*
X0158536Y0080130D02*
X0144200Y0080130D01*
X0144200Y0078532D02*
X0148968Y0078532D01*
X0147730Y0076933D02*
X0144200Y0076933D01*
X0144860Y0075334D02*
X0147300Y0075334D01*
X0147453Y0073736D02*
X0146458Y0073736D01*
X0151800Y0075000D02*
X0156800Y0075000D01*
X0191800Y0110000D01*
X0191800Y0120000D02*
X0156800Y0085000D01*
X0151800Y0085000D01*
X0147622Y0083327D02*
X0144200Y0083327D01*
X0144200Y0081729D02*
X0148707Y0081729D01*
X0147300Y0084926D02*
X0144200Y0084926D01*
X0144200Y0086524D02*
X0147561Y0086524D01*
X0139400Y0086524D02*
X0139200Y0086524D01*
X0139200Y0084926D02*
X0139400Y0084926D01*
X0139400Y0083327D02*
X0139200Y0083327D01*
X0139200Y0081729D02*
X0139400Y0081729D01*
X0139400Y0080130D02*
X0139200Y0080130D01*
X0139200Y0078532D02*
X0139400Y0078532D01*
X0139400Y0076933D02*
X0139200Y0076933D01*
X0136800Y0075000D02*
X0146800Y0065000D01*
X0166800Y0065000D01*
X0191800Y0090000D01*
X0191800Y0080000D02*
X0171800Y0060000D01*
X0146800Y0060000D01*
X0131800Y0075000D01*
X0131800Y0090000D01*
X0126800Y0095000D01*
X0091800Y0095000D01*
X0087792Y0092918D02*
X0011600Y0092918D01*
X0011600Y0091320D02*
X0089116Y0091320D01*
X0088559Y0088123D02*
X0011600Y0088123D01*
X0011600Y0089721D02*
X0128685Y0089721D01*
X0129400Y0088123D02*
X0095041Y0088123D01*
X0094484Y0091320D02*
X0127086Y0091320D01*
X0130677Y0094517D02*
X0134400Y0094517D01*
X0134400Y0096115D02*
X0129079Y0096115D01*
X0132276Y0092918D02*
X0134400Y0092918D01*
X0134400Y0091320D02*
X0133851Y0091320D01*
X0134200Y0089721D02*
X0134400Y0089721D01*
X0134400Y0088123D02*
X0134200Y0088123D01*
X0134200Y0086524D02*
X0134400Y0086524D01*
X0134400Y0084926D02*
X0134200Y0084926D01*
X0134200Y0083327D02*
X0134400Y0083327D01*
X0134400Y0081729D02*
X0134200Y0081729D01*
X0134200Y0080130D02*
X0134400Y0080130D01*
X0134400Y0078532D02*
X0134200Y0078532D01*
X0134200Y0076933D02*
X0134400Y0076933D01*
X0136800Y0075000D02*
X0136800Y0100000D01*
X0131800Y0105000D01*
X0091800Y0105000D01*
X0093687Y0100911D02*
X0132495Y0100911D01*
X0130897Y0102509D02*
X0095639Y0102509D01*
X0093149Y0099312D02*
X0134094Y0099312D01*
X0134400Y0097714D02*
X0095450Y0097714D01*
X0090451Y0099312D02*
X0011600Y0099312D01*
X0011600Y0097714D02*
X0088150Y0097714D01*
X0087391Y0096115D02*
X0011600Y0096115D01*
X0011600Y0094517D02*
X0087300Y0094517D01*
X0089913Y0100911D02*
X0011600Y0100911D01*
X0011600Y0102509D02*
X0087961Y0102509D01*
X0087300Y0104108D02*
X0011600Y0104108D01*
X0011600Y0105706D02*
X0087300Y0105706D01*
X0087884Y0107305D02*
X0011600Y0107305D01*
X0011600Y0108903D02*
X0089464Y0108903D01*
X0091800Y0115000D02*
X0136800Y0115000D01*
X0138298Y0116896D02*
X0147715Y0116896D01*
X0147300Y0115297D02*
X0139897Y0115297D01*
X0141495Y0113699D02*
X0147468Y0113699D01*
X0148336Y0112100D02*
X0143094Y0112100D01*
X0144190Y0110502D02*
X0150901Y0110502D01*
X0152699Y0110502D02*
X0158908Y0110502D01*
X0160506Y0112100D02*
X0155264Y0112100D01*
X0156800Y0115000D02*
X0151800Y0115000D01*
X0148930Y0118494D02*
X0094670Y0118494D01*
X0094855Y0121691D02*
X0148745Y0121691D01*
X0156800Y0125000D02*
X0191800Y0160000D01*
X0186700Y0160056D02*
X0185250Y0160056D01*
X0186848Y0161654D02*
X0186965Y0161654D01*
X0186863Y0158457D02*
X0183651Y0158457D01*
X0182053Y0156859D02*
X0185264Y0156859D01*
X0183666Y0155260D02*
X0180454Y0155260D01*
X0185659Y0150465D02*
X0186700Y0150465D01*
X0186749Y0148866D02*
X0184060Y0148866D01*
X0182462Y0147268D02*
X0185673Y0147268D01*
X0184075Y0145669D02*
X0180863Y0145669D01*
X0179265Y0144070D02*
X0182476Y0144070D01*
X0180878Y0142472D02*
X0177666Y0142472D01*
X0176068Y0140873D02*
X0179279Y0140873D01*
X0177681Y0139275D02*
X0174469Y0139275D01*
X0172871Y0137676D02*
X0176082Y0137676D01*
X0174484Y0136078D02*
X0171272Y0136078D01*
X0169674Y0134479D02*
X0172885Y0134479D01*
X0171287Y0132881D02*
X0168075Y0132881D01*
X0166476Y0131282D02*
X0169688Y0131282D01*
X0168090Y0129684D02*
X0164878Y0129684D01*
X0168484Y0123290D02*
X0171696Y0123290D01*
X0173294Y0124888D02*
X0170082Y0124888D01*
X0171681Y0126487D02*
X0174893Y0126487D01*
X0176491Y0128085D02*
X0173279Y0128085D01*
X0174878Y0129684D02*
X0178090Y0129684D01*
X0179688Y0131282D02*
X0176476Y0131282D01*
X0178075Y0132881D02*
X0181287Y0132881D01*
X0182885Y0134479D02*
X0179674Y0134479D01*
X0181272Y0136078D02*
X0184484Y0136078D01*
X0186082Y0137676D02*
X0182871Y0137676D01*
X0184469Y0139275D02*
X0186700Y0139275D01*
X0186700Y0140873D02*
X0186068Y0140873D01*
X0191800Y0140000D02*
X0156800Y0105000D01*
X0151800Y0105000D01*
X0149913Y0100911D02*
X0144200Y0100911D01*
X0144200Y0102509D02*
X0147961Y0102509D01*
X0147300Y0104108D02*
X0144200Y0104108D01*
X0144200Y0105706D02*
X0147300Y0105706D01*
X0147884Y0107305D02*
X0144200Y0107305D01*
X0144200Y0108903D02*
X0149464Y0108903D01*
X0154136Y0108903D02*
X0157309Y0108903D01*
X0158893Y0113699D02*
X0162105Y0113699D01*
X0163703Y0115297D02*
X0160491Y0115297D01*
X0162090Y0116896D02*
X0165302Y0116896D01*
X0166900Y0118494D02*
X0163688Y0118494D01*
X0165287Y0120093D02*
X0168499Y0120093D01*
X0170097Y0121691D02*
X0166885Y0121691D01*
X0156800Y0115000D02*
X0191800Y0150000D01*
X0186811Y0131282D02*
X0186476Y0131282D01*
X0186700Y0129684D02*
X0184878Y0129684D01*
X0183279Y0128085D02*
X0186491Y0128085D01*
X0184893Y0126487D02*
X0181681Y0126487D01*
X0191800Y0130000D02*
X0156800Y0095000D01*
X0151800Y0095000D01*
X0155450Y0097714D02*
X0156120Y0097714D01*
X0139400Y0097714D02*
X0139200Y0097714D01*
X0139200Y0099312D02*
X0139400Y0099312D01*
X0139400Y0100911D02*
X0139021Y0100911D01*
X0139400Y0102509D02*
X0137685Y0102509D01*
X0136086Y0104108D02*
X0139400Y0104108D01*
X0139400Y0105706D02*
X0134488Y0105706D01*
X0132507Y0107305D02*
X0139400Y0107305D01*
X0139400Y0096115D02*
X0139200Y0096115D01*
X0139200Y0094517D02*
X0139400Y0094517D01*
X0139400Y0092918D02*
X0139200Y0092918D01*
X0139200Y0091320D02*
X0139400Y0091320D01*
X0139400Y0089721D02*
X0139200Y0089721D01*
X0139200Y0088123D02*
X0139400Y0088123D01*
X0129400Y0086524D02*
X0123670Y0086524D01*
X0125269Y0084926D02*
X0129400Y0084926D01*
X0129400Y0083327D02*
X0126867Y0083327D01*
X0128466Y0081729D02*
X0129400Y0081729D01*
X0129400Y0080130D02*
X0129200Y0080130D01*
X0129200Y0078532D02*
X0129400Y0078532D01*
X0129400Y0076933D02*
X0129200Y0076933D01*
X0126800Y0075000D02*
X0146800Y0055000D01*
X0176800Y0055000D01*
X0191800Y0070000D01*
X0206389Y0057751D02*
X0207211Y0057751D01*
X0208435Y0056152D02*
X0205165Y0056152D01*
X0215165Y0056152D02*
X0218435Y0056152D01*
X0217211Y0057751D02*
X0216389Y0057751D01*
X0225165Y0056152D02*
X0228435Y0056152D01*
X0227211Y0057751D02*
X0226389Y0057751D01*
X0235165Y0056152D02*
X0238435Y0056152D01*
X0237211Y0057751D02*
X0236389Y0057751D01*
X0245165Y0056152D02*
X0248435Y0056152D01*
X0247211Y0057751D02*
X0246389Y0057751D01*
X0255165Y0056152D02*
X0258435Y0056152D01*
X0257211Y0057751D02*
X0256389Y0057751D01*
X0265165Y0056152D02*
X0268435Y0056152D01*
X0267211Y0057751D02*
X0266389Y0057751D01*
X0275165Y0056152D02*
X0278435Y0056152D01*
X0277211Y0057751D02*
X0276389Y0057751D01*
X0285165Y0056152D02*
X0288435Y0056152D01*
X0287211Y0057751D02*
X0286389Y0057751D01*
X0295165Y0056152D02*
X0298435Y0056152D01*
X0297211Y0057751D02*
X0296389Y0057751D01*
X0305165Y0056152D02*
X0308435Y0056152D01*
X0307211Y0057751D02*
X0306389Y0057751D01*
X0315165Y0056152D02*
X0318435Y0056152D01*
X0317211Y0057751D02*
X0316389Y0057751D01*
X0325165Y0056152D02*
X0328435Y0056152D01*
X0327211Y0057751D02*
X0326389Y0057751D01*
X0335165Y0056152D02*
X0338152Y0056152D01*
X0336998Y0057751D02*
X0336389Y0057751D01*
X0341800Y0057751D02*
X0341800Y0057751D01*
X0341800Y0059349D02*
X0341800Y0059349D01*
X0341800Y0060000D02*
X0341800Y0054700D01*
X0341800Y0060000D01*
X0341800Y0060000D01*
X0341800Y0060000D01*
X0341800Y0056152D02*
X0341800Y0056152D01*
X0186950Y0201617D02*
X0186811Y0201617D01*
X0183220Y0204814D02*
X0156300Y0204814D01*
X0156086Y0206412D02*
X0184818Y0206412D01*
X0186417Y0208011D02*
X0155153Y0208011D01*
X0154200Y0209609D02*
X0186700Y0209609D01*
X0186780Y0211208D02*
X0154402Y0211208D01*
X0156001Y0212806D02*
X0187442Y0212806D01*
X0189108Y0214405D02*
X0157599Y0214405D01*
X0154008Y0217602D02*
X0132796Y0217602D01*
X0131198Y0216003D02*
X0152409Y0216003D01*
X0150811Y0214405D02*
X0129599Y0214405D01*
X0128001Y0212806D02*
X0149536Y0212806D01*
X0149400Y0211208D02*
X0126402Y0211208D01*
X0124804Y0209609D02*
X0149400Y0209609D01*
X0148447Y0208011D02*
X0124200Y0208011D01*
X0124200Y0206412D02*
X0147514Y0206412D01*
X0147300Y0204814D02*
X0124200Y0204814D01*
X0124200Y0203215D02*
X0147668Y0203215D01*
X0148819Y0201617D02*
X0124200Y0201617D01*
X0124200Y0200018D02*
X0178424Y0200018D01*
X0176826Y0198420D02*
X0155027Y0198420D01*
X0154862Y0198585D02*
X0154263Y0199020D01*
X0153604Y0199356D01*
X0152901Y0199584D01*
X0152170Y0199700D01*
X0151950Y0199700D01*
X0151950Y0195150D01*
X0156500Y0195150D01*
X0156500Y0195370D01*
X0156384Y0196101D01*
X0156156Y0196804D01*
X0155820Y0197463D01*
X0155385Y0198062D01*
X0154862Y0198585D01*
X0156147Y0196821D02*
X0175227Y0196821D01*
X0173629Y0195223D02*
X0156500Y0195223D01*
X0156500Y0194850D02*
X0151950Y0194850D01*
X0151950Y0195150D01*
X0151650Y0195150D01*
X0151650Y0199700D01*
X0151430Y0199700D01*
X0150699Y0199584D01*
X0149996Y0199356D01*
X0149337Y0199020D01*
X0148738Y0198585D01*
X0148215Y0198062D01*
X0147780Y0197463D01*
X0147444Y0196804D01*
X0147216Y0196101D01*
X0147100Y0195370D01*
X0147100Y0195150D01*
X0151650Y0195150D01*
X0151650Y0194850D01*
X0151950Y0194850D01*
X0151950Y0190300D01*
X0152170Y0190300D01*
X0152901Y0190416D01*
X0153604Y0190644D01*
X0154263Y0190980D01*
X0154862Y0191415D01*
X0155385Y0191938D01*
X0155820Y0192537D01*
X0156156Y0193196D01*
X0156384Y0193899D01*
X0156500Y0194630D01*
X0156500Y0194850D01*
X0156295Y0193624D02*
X0172030Y0193624D01*
X0170432Y0192026D02*
X0155449Y0192026D01*
X0152936Y0190427D02*
X0168833Y0190427D01*
X0167235Y0188829D02*
X0154316Y0188829D01*
X0155747Y0187230D02*
X0165636Y0187230D01*
X0164038Y0185632D02*
X0156300Y0185632D01*
X0156270Y0184033D02*
X0162439Y0184033D01*
X0160841Y0182435D02*
X0155599Y0182435D01*
X0148001Y0182435D02*
X0124200Y0182435D01*
X0124200Y0184033D02*
X0147330Y0184033D01*
X0147300Y0185632D02*
X0124200Y0185632D01*
X0124200Y0187230D02*
X0147853Y0187230D01*
X0149284Y0188829D02*
X0124200Y0188829D01*
X0124200Y0190427D02*
X0150664Y0190427D01*
X0150699Y0190416D02*
X0151430Y0190300D01*
X0151650Y0190300D01*
X0151650Y0194850D01*
X0147100Y0194850D01*
X0147100Y0194630D01*
X0147216Y0193899D01*
X0147444Y0193196D01*
X0147780Y0192537D01*
X0148215Y0191938D01*
X0148738Y0191415D01*
X0149337Y0190980D01*
X0149996Y0190644D01*
X0150699Y0190416D01*
X0151650Y0190427D02*
X0151950Y0190427D01*
X0151950Y0192026D02*
X0151650Y0192026D01*
X0151650Y0193624D02*
X0151950Y0193624D01*
X0151950Y0195223D02*
X0151650Y0195223D01*
X0151650Y0196821D02*
X0151950Y0196821D01*
X0151950Y0198420D02*
X0151650Y0198420D01*
X0148573Y0198420D02*
X0124200Y0198420D01*
X0124200Y0196821D02*
X0147453Y0196821D01*
X0147100Y0195223D02*
X0124200Y0195223D01*
X0124200Y0193624D02*
X0147305Y0193624D01*
X0148151Y0192026D02*
X0124200Y0192026D01*
X0109400Y0192026D02*
X0101220Y0192026D01*
X0102818Y0193624D02*
X0109400Y0193624D01*
X0109400Y0195223D02*
X0104076Y0195223D01*
X0104200Y0195523D02*
X0104200Y0259257D01*
X0104802Y0259507D01*
X0106293Y0260998D01*
X0107100Y0262946D01*
X0107100Y0265054D01*
X0106293Y0267002D01*
X0104802Y0268493D01*
X0102854Y0269300D01*
X0100746Y0269300D01*
X0098798Y0268493D01*
X0097307Y0267002D01*
X0096800Y0265778D01*
X0096293Y0267002D01*
X0094802Y0268493D01*
X0092854Y0269300D01*
X0090746Y0269300D01*
X0088798Y0268493D01*
X0087307Y0267002D01*
X0086500Y0265054D01*
X0086500Y0262946D01*
X0087307Y0260998D01*
X0088798Y0259507D01*
X0089400Y0259257D01*
X0089400Y0252523D01*
X0089765Y0251641D01*
X0090441Y0250965D01*
X0096400Y0245006D01*
X0096400Y0206001D01*
X0096384Y0206101D01*
X0096156Y0206804D01*
X0095820Y0207463D01*
X0095385Y0208062D01*
X0094862Y0208585D01*
X0094263Y0209020D01*
X0093604Y0209356D01*
X0092901Y0209584D01*
X0092170Y0209700D01*
X0091950Y0209700D01*
X0091950Y0205150D01*
X0091650Y0205150D01*
X0091650Y0209700D01*
X0091430Y0209700D01*
X0090699Y0209584D01*
X0089996Y0209356D01*
X0089337Y0209020D01*
X0088738Y0208585D01*
X0088215Y0208062D01*
X0087780Y0207463D01*
X0087444Y0206804D01*
X0087216Y0206101D01*
X0087100Y0205370D01*
X0087100Y0205150D01*
X0091650Y0205150D01*
X0091650Y0204850D01*
X0091950Y0204850D01*
X0091950Y0200300D01*
X0092170Y0200300D01*
X0092901Y0200416D01*
X0093604Y0200644D01*
X0094263Y0200980D01*
X0094712Y0201306D01*
X0092844Y0199438D01*
X0092695Y0199500D01*
X0090905Y0199500D01*
X0089251Y0198815D01*
X0087985Y0197549D01*
X0087300Y0195895D01*
X0087300Y0194105D01*
X0087985Y0192451D01*
X0089251Y0191185D01*
X0090905Y0190500D01*
X0092695Y0190500D01*
X0093055Y0190649D01*
X0091906Y0189500D01*
X0090905Y0189500D01*
X0089251Y0188815D01*
X0087985Y0187549D01*
X0087300Y0185895D01*
X0087300Y0184105D01*
X0087985Y0182451D01*
X0089251Y0181185D01*
X0090905Y0180500D01*
X0092695Y0180500D01*
X0094349Y0181185D01*
X0095615Y0182451D01*
X0096300Y0184105D01*
X0096300Y0185895D01*
X0095945Y0186751D01*
X0103159Y0193965D01*
X0103835Y0194641D01*
X0104200Y0195523D01*
X0104200Y0196821D02*
X0109400Y0196821D01*
X0109400Y0198420D02*
X0104200Y0198420D01*
X0104200Y0200018D02*
X0109400Y0200018D01*
X0109400Y0201617D02*
X0104200Y0201617D01*
X0104200Y0203215D02*
X0109400Y0203215D01*
X0109400Y0204814D02*
X0104200Y0204814D01*
X0104200Y0206412D02*
X0109400Y0206412D01*
X0109400Y0208011D02*
X0104200Y0208011D01*
X0104200Y0209609D02*
X0109400Y0209609D01*
X0109400Y0211208D02*
X0104200Y0211208D01*
X0104200Y0212806D02*
X0109400Y0212806D01*
X0109400Y0214405D02*
X0104200Y0214405D01*
X0104200Y0216003D02*
X0109618Y0216003D01*
X0111008Y0217602D02*
X0104200Y0217602D01*
X0104200Y0219201D02*
X0112606Y0219201D01*
X0114205Y0220799D02*
X0104200Y0220799D01*
X0104200Y0222398D02*
X0115803Y0222398D01*
X0117402Y0223996D02*
X0104200Y0223996D01*
X0104200Y0225595D02*
X0119000Y0225595D01*
X0120599Y0227193D02*
X0104200Y0227193D01*
X0104200Y0228792D02*
X0122197Y0228792D01*
X0123796Y0230390D02*
X0104200Y0230390D01*
X0104200Y0231989D02*
X0125395Y0231989D01*
X0126649Y0233587D02*
X0104200Y0233587D01*
X0104200Y0235186D02*
X0126500Y0235186D01*
X0126802Y0236784D02*
X0104200Y0236784D01*
X0104200Y0238383D02*
X0127687Y0238383D01*
X0129976Y0239981D02*
X0104200Y0239981D01*
X0104200Y0241580D02*
X0370504Y0241580D01*
X0370504Y0243178D02*
X0104200Y0243178D01*
X0104200Y0244777D02*
X0370504Y0244777D01*
X0370504Y0246375D02*
X0104200Y0246375D01*
X0104200Y0247974D02*
X0370504Y0247974D01*
X0370504Y0249572D02*
X0104200Y0249572D01*
X0104200Y0251171D02*
X0370504Y0251171D01*
X0370504Y0252769D02*
X0104200Y0252769D01*
X0104200Y0254368D02*
X0370504Y0254368D01*
X0370504Y0255966D02*
X0104200Y0255966D01*
X0104200Y0257565D02*
X0370504Y0257565D01*
X0370504Y0259163D02*
X0104200Y0259163D01*
X0106057Y0260762D02*
X0128543Y0260762D01*
X0128798Y0260507D02*
X0130746Y0259700D01*
X0132854Y0259700D01*
X0134802Y0260507D01*
X0136293Y0261998D01*
X0137100Y0263946D01*
X0137100Y0266054D01*
X0136293Y0268002D01*
X0134802Y0269493D01*
X0134200Y0269743D01*
X0134200Y0273015D01*
X0134406Y0273100D01*
X0135700Y0274394D01*
X0136400Y0276085D01*
X0136400Y0283915D01*
X0135700Y0285606D01*
X0134406Y0286900D01*
X0132715Y0287600D01*
X0130885Y0287600D01*
X0129194Y0286900D01*
X0127900Y0285606D01*
X0127200Y0283915D01*
X0127200Y0276085D01*
X0127900Y0274394D01*
X0129194Y0273100D01*
X0129400Y0273015D01*
X0129400Y0269743D01*
X0128798Y0269493D01*
X0127307Y0268002D01*
X0126500Y0266054D01*
X0126500Y0263946D01*
X0127307Y0261998D01*
X0128798Y0260507D01*
X0127157Y0262360D02*
X0106857Y0262360D01*
X0107100Y0263959D02*
X0126500Y0263959D01*
X0126500Y0265557D02*
X0106892Y0265557D01*
X0106139Y0267156D02*
X0126956Y0267156D01*
X0128059Y0268754D02*
X0104171Y0268754D01*
X0101800Y0264000D02*
X0101800Y0196000D01*
X0091800Y0186000D01*
X0091800Y0185000D01*
X0087853Y0187230D02*
X0084200Y0187230D01*
X0084200Y0185632D02*
X0087300Y0185632D01*
X0087330Y0184033D02*
X0084200Y0184033D01*
X0084200Y0182435D02*
X0088001Y0182435D01*
X0090093Y0180836D02*
X0084200Y0180836D01*
X0084200Y0179238D02*
X0090272Y0179238D01*
X0090905Y0179500D02*
X0089251Y0178815D01*
X0087985Y0177549D01*
X0087300Y0175895D01*
X0087300Y0174105D01*
X0087985Y0172451D01*
X0089251Y0171185D01*
X0090905Y0170500D01*
X0092695Y0170500D01*
X0094349Y0171185D01*
X0095615Y0172451D01*
X0096300Y0174105D01*
X0096300Y0175895D01*
X0095615Y0177549D01*
X0094349Y0178815D01*
X0092695Y0179500D01*
X0090905Y0179500D01*
X0093328Y0179238D02*
X0109400Y0179238D01*
X0109400Y0180836D02*
X0093507Y0180836D01*
X0095599Y0182435D02*
X0109400Y0182435D01*
X0109400Y0184033D02*
X0096270Y0184033D01*
X0096300Y0185632D02*
X0109400Y0185632D01*
X0109400Y0187230D02*
X0096424Y0187230D01*
X0098023Y0188829D02*
X0109400Y0188829D01*
X0109400Y0190427D02*
X0099621Y0190427D01*
X0092833Y0190427D02*
X0084200Y0190427D01*
X0084200Y0188829D02*
X0089284Y0188829D01*
X0088410Y0192026D02*
X0084200Y0192026D01*
X0084200Y0193624D02*
X0087499Y0193624D01*
X0087300Y0195223D02*
X0084200Y0195223D01*
X0084200Y0196821D02*
X0087684Y0196821D01*
X0088856Y0198420D02*
X0084200Y0198420D01*
X0084200Y0200018D02*
X0093424Y0200018D01*
X0091650Y0200300D02*
X0091650Y0204850D01*
X0087100Y0204850D01*
X0087100Y0204630D01*
X0087216Y0203899D01*
X0087444Y0203196D01*
X0087780Y0202537D01*
X0088215Y0201938D01*
X0088738Y0201415D01*
X0089337Y0200980D01*
X0089996Y0200644D01*
X0090699Y0200416D01*
X0091430Y0200300D01*
X0091650Y0200300D01*
X0091650Y0201617D02*
X0091950Y0201617D01*
X0091950Y0203215D02*
X0091650Y0203215D01*
X0091650Y0204814D02*
X0091950Y0204814D01*
X0091950Y0206412D02*
X0091650Y0206412D01*
X0091650Y0208011D02*
X0091950Y0208011D01*
X0091950Y0209609D02*
X0091650Y0209609D01*
X0090858Y0209609D02*
X0084200Y0209609D01*
X0084200Y0208011D02*
X0088178Y0208011D01*
X0087317Y0206412D02*
X0084200Y0206412D01*
X0084200Y0204814D02*
X0087100Y0204814D01*
X0087438Y0203215D02*
X0084200Y0203215D01*
X0084200Y0201617D02*
X0088536Y0201617D01*
X0091800Y0195000D02*
X0098800Y0202000D01*
X0098800Y0246000D01*
X0091800Y0253000D01*
X0091800Y0264000D01*
X0086500Y0263959D02*
X0079200Y0263959D01*
X0079200Y0265557D02*
X0086708Y0265557D01*
X0087461Y0267156D02*
X0079200Y0267156D01*
X0079200Y0268754D02*
X0089429Y0268754D01*
X0094171Y0268754D02*
X0099429Y0268754D01*
X0097461Y0267156D02*
X0096139Y0267156D01*
X0089400Y0259163D02*
X0079200Y0259163D01*
X0079200Y0257565D02*
X0089400Y0257565D01*
X0089400Y0255966D02*
X0079228Y0255966D01*
X0079200Y0255994D02*
X0079200Y0270477D01*
X0078835Y0271359D01*
X0078159Y0272035D01*
X0076851Y0273344D01*
X0077100Y0273946D01*
X0077100Y0276054D01*
X0076293Y0278002D01*
X0074802Y0279493D01*
X0074200Y0279743D01*
X0074200Y0299006D01*
X0080144Y0304949D01*
X0080746Y0304700D01*
X0082854Y0304700D01*
X0084802Y0305507D01*
X0086293Y0306998D01*
X0086685Y0307944D01*
X0086703Y0307889D01*
X0087096Y0307117D01*
X0087605Y0306417D01*
X0088217Y0305805D01*
X0088917Y0305296D01*
X0089689Y0304903D01*
X0090512Y0304635D01*
X0091367Y0304500D01*
X0091600Y0304500D01*
X0091600Y0309800D01*
X0092000Y0309800D01*
X0092000Y0310200D01*
X0091600Y0310200D01*
X0091600Y0315500D01*
X0091367Y0315500D01*
X0090512Y0315365D01*
X0089689Y0315097D01*
X0088917Y0314704D01*
X0088217Y0314195D01*
X0087605Y0313583D01*
X0087096Y0312883D01*
X0086703Y0312111D01*
X0086685Y0312056D01*
X0086293Y0313002D01*
X0084802Y0314493D01*
X0082854Y0315300D01*
X0080746Y0315300D01*
X0078798Y0314493D01*
X0077307Y0313002D01*
X0076800Y0311778D01*
X0076293Y0313002D01*
X0074802Y0314493D01*
X0072854Y0315300D01*
X0070746Y0315300D01*
X0068798Y0314493D01*
X0067307Y0313002D01*
X0066500Y0311054D01*
X0066500Y0308946D01*
X0066749Y0308344D01*
X0064765Y0306359D01*
X0064400Y0305477D01*
X0064400Y0285994D01*
X0058456Y0280051D01*
X0057854Y0280300D01*
X0055746Y0280300D01*
X0053798Y0279493D01*
X0052307Y0278002D01*
X0051500Y0276054D01*
X0051500Y0273946D01*
X0052307Y0271998D01*
X0053798Y0270507D01*
X0055746Y0269700D01*
X0057854Y0269700D01*
X0059802Y0270507D01*
X0061293Y0271998D01*
X0062100Y0273946D01*
X0062100Y0276054D01*
X0061851Y0276656D01*
X0068159Y0282965D01*
X0068835Y0283641D01*
X0069200Y0284523D01*
X0069200Y0304006D01*
X0070144Y0304949D01*
X0070746Y0304700D01*
X0072854Y0304700D01*
X0073284Y0304878D01*
X0069765Y0301359D01*
X0069400Y0300477D01*
X0069400Y0279743D01*
X0068798Y0279493D01*
X0067307Y0278002D01*
X0066500Y0276054D01*
X0066500Y0273946D01*
X0067307Y0271998D01*
X0068798Y0270507D01*
X0070746Y0269700D01*
X0072854Y0269700D01*
X0073456Y0269949D01*
X0074400Y0269006D01*
X0074400Y0254523D01*
X0074765Y0253641D01*
X0079400Y0249006D01*
X0079400Y0169523D01*
X0079765Y0168641D01*
X0084765Y0163641D01*
X0085441Y0162965D01*
X0086323Y0162600D01*
X0087923Y0162600D01*
X0087985Y0162451D01*
X0089251Y0161185D01*
X0090905Y0160500D01*
X0092695Y0160500D01*
X0094349Y0161185D01*
X0095615Y0162451D01*
X0096300Y0164105D01*
X0096300Y0165895D01*
X0095615Y0167549D01*
X0094349Y0168815D01*
X0092695Y0169500D01*
X0090905Y0169500D01*
X0089251Y0168815D01*
X0087985Y0167549D01*
X0087923Y0167400D01*
X0087794Y0167400D01*
X0084200Y0170994D01*
X0084200Y0250477D01*
X0083835Y0251359D01*
X0083159Y0252035D01*
X0079200Y0255994D01*
X0080826Y0254368D02*
X0089400Y0254368D01*
X0089400Y0252769D02*
X0082425Y0252769D01*
X0083913Y0251171D02*
X0090235Y0251171D01*
X0091834Y0249572D02*
X0084200Y0249572D01*
X0084200Y0247974D02*
X0093432Y0247974D01*
X0095031Y0246375D02*
X0084200Y0246375D01*
X0084200Y0244777D02*
X0096400Y0244777D01*
X0096400Y0243178D02*
X0084200Y0243178D01*
X0084200Y0241580D02*
X0096400Y0241580D01*
X0096400Y0239981D02*
X0084200Y0239981D01*
X0084200Y0238383D02*
X0096400Y0238383D01*
X0096400Y0236784D02*
X0084200Y0236784D01*
X0084200Y0235186D02*
X0096400Y0235186D01*
X0096400Y0233587D02*
X0084200Y0233587D01*
X0084200Y0231989D02*
X0096400Y0231989D01*
X0096400Y0230390D02*
X0084200Y0230390D01*
X0084200Y0228792D02*
X0096400Y0228792D01*
X0096400Y0227193D02*
X0084200Y0227193D01*
X0084200Y0225595D02*
X0096400Y0225595D01*
X0096400Y0223996D02*
X0084200Y0223996D01*
X0084200Y0222398D02*
X0096400Y0222398D01*
X0096400Y0220799D02*
X0084200Y0220799D01*
X0084200Y0219201D02*
X0096400Y0219201D01*
X0096400Y0217602D02*
X0084200Y0217602D01*
X0084200Y0216003D02*
X0096400Y0216003D01*
X0096400Y0214405D02*
X0084200Y0214405D01*
X0084200Y0212806D02*
X0096400Y0212806D01*
X0096400Y0211208D02*
X0084200Y0211208D01*
X0079400Y0211208D02*
X0045872Y0211208D01*
X0045843Y0211248D02*
X0045253Y0211838D01*
X0044578Y0212328D01*
X0043834Y0212707D01*
X0043041Y0212965D01*
X0042217Y0213095D01*
X0041886Y0213095D01*
X0041886Y0207881D01*
X0047100Y0207881D01*
X0047100Y0208212D01*
X0046969Y0209036D01*
X0046712Y0209830D01*
X0046333Y0210573D01*
X0045843Y0211248D01*
X0046783Y0209609D02*
X0079400Y0209609D01*
X0079400Y0208011D02*
X0047100Y0208011D01*
X0047100Y0207709D02*
X0041886Y0207709D01*
X0041886Y0202495D01*
X0042217Y0202495D01*
X0043041Y0202626D01*
X0043834Y0202884D01*
X0044578Y0203262D01*
X0045253Y0203753D01*
X0045843Y0204343D01*
X0046333Y0205017D01*
X0046712Y0205761D01*
X0046969Y0206554D01*
X0047100Y0207378D01*
X0047100Y0207709D01*
X0046923Y0206412D02*
X0079400Y0206412D01*
X0079400Y0204814D02*
X0046185Y0204814D01*
X0044486Y0203215D02*
X0079400Y0203215D01*
X0079400Y0201617D02*
X0011600Y0201617D01*
X0011600Y0203215D02*
X0039114Y0203215D01*
X0039022Y0203262D02*
X0039766Y0202884D01*
X0040559Y0202626D01*
X0041383Y0202495D01*
X0041714Y0202495D01*
X0041714Y0207709D01*
X0041886Y0207709D01*
X0041886Y0207881D01*
X0041714Y0207881D01*
X0041714Y0207709D01*
X0036500Y0207709D01*
X0036500Y0207378D01*
X0036630Y0206554D01*
X0036888Y0205761D01*
X0037267Y0205017D01*
X0037757Y0204343D01*
X0038347Y0203753D01*
X0039022Y0203262D01*
X0037415Y0204814D02*
X0011600Y0204814D01*
X0011600Y0206412D02*
X0036677Y0206412D01*
X0036500Y0207881D02*
X0041714Y0207881D01*
X0041714Y0213095D01*
X0041383Y0213095D01*
X0040559Y0212965D01*
X0039766Y0212707D01*
X0039022Y0212328D01*
X0038347Y0211838D01*
X0037757Y0211248D01*
X0037267Y0210573D01*
X0036888Y0209830D01*
X0036630Y0209036D01*
X0036500Y0208212D01*
X0036500Y0207881D01*
X0036500Y0208011D02*
X0011600Y0208011D01*
X0011600Y0209609D02*
X0036817Y0209609D01*
X0037728Y0211208D02*
X0011600Y0211208D01*
X0011600Y0212806D02*
X0040072Y0212806D01*
X0041714Y0212806D02*
X0041886Y0212806D01*
X0041886Y0211208D02*
X0041714Y0211208D01*
X0041714Y0209609D02*
X0041886Y0209609D01*
X0041886Y0208011D02*
X0041714Y0208011D01*
X0041714Y0206412D02*
X0041886Y0206412D01*
X0041886Y0204814D02*
X0041714Y0204814D01*
X0041714Y0203215D02*
X0041886Y0203215D01*
X0043528Y0212806D02*
X0079400Y0212806D01*
X0079400Y0214405D02*
X0011600Y0214405D01*
X0011600Y0216003D02*
X0079400Y0216003D01*
X0079400Y0217602D02*
X0011600Y0217602D01*
X0011600Y0219201D02*
X0079400Y0219201D01*
X0079400Y0220799D02*
X0011600Y0220799D01*
X0011600Y0222398D02*
X0079400Y0222398D01*
X0079400Y0223996D02*
X0011600Y0223996D01*
X0011600Y0225595D02*
X0079400Y0225595D01*
X0079400Y0227193D02*
X0011600Y0227193D01*
X0011600Y0228792D02*
X0079400Y0228792D01*
X0079400Y0230390D02*
X0011600Y0230390D01*
X0011600Y0231989D02*
X0079400Y0231989D01*
X0079400Y0233587D02*
X0011600Y0233587D01*
X0011600Y0235186D02*
X0079400Y0235186D01*
X0079400Y0236784D02*
X0011600Y0236784D01*
X0011600Y0238383D02*
X0079400Y0238383D01*
X0079400Y0239981D02*
X0073533Y0239981D01*
X0072854Y0239700D02*
X0074802Y0240507D01*
X0076293Y0241998D01*
X0077100Y0243946D01*
X0077100Y0246054D01*
X0076293Y0248002D01*
X0074802Y0249493D01*
X0072854Y0250300D01*
X0070746Y0250300D01*
X0068798Y0249493D01*
X0067307Y0248002D01*
X0067057Y0247400D01*
X0061543Y0247400D01*
X0061293Y0248002D01*
X0059802Y0249493D01*
X0057854Y0250300D01*
X0055746Y0250300D01*
X0053798Y0249493D01*
X0052307Y0248002D01*
X0051500Y0246054D01*
X0051500Y0243946D01*
X0052307Y0241998D01*
X0053798Y0240507D01*
X0055746Y0239700D01*
X0057854Y0239700D01*
X0059802Y0240507D01*
X0061293Y0241998D01*
X0061543Y0242600D01*
X0067057Y0242600D01*
X0067307Y0241998D01*
X0068798Y0240507D01*
X0070746Y0239700D01*
X0072854Y0239700D01*
X0070067Y0239981D02*
X0058533Y0239981D01*
X0060875Y0241580D02*
X0067725Y0241580D01*
X0071800Y0245000D02*
X0056800Y0245000D01*
X0051500Y0244777D02*
X0011600Y0244777D01*
X0011600Y0246375D02*
X0051633Y0246375D01*
X0052295Y0247974D02*
X0011600Y0247974D01*
X0011600Y0249572D02*
X0053989Y0249572D01*
X0059611Y0249572D02*
X0068989Y0249572D01*
X0067295Y0247974D02*
X0061305Y0247974D01*
X0055067Y0239981D02*
X0011600Y0239981D01*
X0011600Y0241580D02*
X0052725Y0241580D01*
X0051818Y0243178D02*
X0011600Y0243178D01*
X0011600Y0251171D02*
X0077235Y0251171D01*
X0075637Y0252769D02*
X0011600Y0252769D01*
X0011600Y0254368D02*
X0074464Y0254368D01*
X0074400Y0255966D02*
X0011600Y0255966D01*
X0011600Y0257565D02*
X0074400Y0257565D01*
X0074400Y0259163D02*
X0011600Y0259163D01*
X0011600Y0260762D02*
X0074400Y0260762D01*
X0074400Y0262360D02*
X0011600Y0262360D01*
X0011600Y0263959D02*
X0074400Y0263959D01*
X0074400Y0265557D02*
X0011600Y0265557D01*
X0011600Y0267156D02*
X0074400Y0267156D01*
X0074400Y0268754D02*
X0011600Y0268754D01*
X0011600Y0270353D02*
X0054170Y0270353D01*
X0052353Y0271951D02*
X0011600Y0271951D01*
X0011600Y0273550D02*
X0051664Y0273550D01*
X0051500Y0275148D02*
X0011600Y0275148D01*
X0011600Y0276747D02*
X0051787Y0276747D01*
X0052650Y0278345D02*
X0011600Y0278345D01*
X0011600Y0279944D02*
X0054886Y0279944D01*
X0056800Y0275000D02*
X0066800Y0285000D01*
X0066800Y0305000D01*
X0071800Y0310000D01*
X0066856Y0311914D02*
X0011600Y0311914D01*
X0011600Y0310316D02*
X0066500Y0310316D01*
X0066595Y0308717D02*
X0011600Y0308717D01*
X0011600Y0307119D02*
X0065525Y0307119D01*
X0064418Y0305520D02*
X0011600Y0305520D01*
X0011600Y0303922D02*
X0064400Y0303922D01*
X0064400Y0302323D02*
X0011600Y0302323D01*
X0011600Y0300725D02*
X0064400Y0300725D01*
X0064400Y0299126D02*
X0011600Y0299126D01*
X0011600Y0297528D02*
X0064400Y0297528D01*
X0064400Y0295929D02*
X0011600Y0295929D01*
X0011600Y0294331D02*
X0064400Y0294331D01*
X0064400Y0292732D02*
X0011600Y0292732D01*
X0011600Y0291134D02*
X0064400Y0291134D01*
X0064400Y0289535D02*
X0011600Y0289535D01*
X0011600Y0287937D02*
X0064400Y0287937D01*
X0064400Y0286338D02*
X0011600Y0286338D01*
X0011600Y0284739D02*
X0063145Y0284739D01*
X0061547Y0283141D02*
X0011600Y0283141D01*
X0011600Y0281542D02*
X0059948Y0281542D01*
X0063540Y0278345D02*
X0067650Y0278345D01*
X0066787Y0276747D02*
X0061941Y0276747D01*
X0062100Y0275148D02*
X0066500Y0275148D01*
X0066664Y0273550D02*
X0061936Y0273550D01*
X0061247Y0271951D02*
X0067353Y0271951D01*
X0069170Y0270353D02*
X0059430Y0270353D01*
X0065138Y0279944D02*
X0069400Y0279944D01*
X0069400Y0281542D02*
X0066737Y0281542D01*
X0068335Y0283141D02*
X0069400Y0283141D01*
X0069400Y0284739D02*
X0069200Y0284739D01*
X0069200Y0286338D02*
X0069400Y0286338D01*
X0069400Y0287937D02*
X0069200Y0287937D01*
X0069200Y0289535D02*
X0069400Y0289535D01*
X0069400Y0291134D02*
X0069200Y0291134D01*
X0069200Y0292732D02*
X0069400Y0292732D01*
X0069400Y0294331D02*
X0069200Y0294331D01*
X0069200Y0295929D02*
X0069400Y0295929D01*
X0069400Y0297528D02*
X0069200Y0297528D01*
X0069200Y0299126D02*
X0069400Y0299126D01*
X0069502Y0300725D02*
X0069200Y0300725D01*
X0069200Y0302323D02*
X0070729Y0302323D01*
X0069200Y0303922D02*
X0072328Y0303922D01*
X0071800Y0300000D02*
X0081800Y0310000D01*
X0076856Y0311914D02*
X0076744Y0311914D01*
X0075783Y0313513D02*
X0077817Y0313513D01*
X0080290Y0315111D02*
X0073310Y0315111D01*
X0070290Y0315111D02*
X0011600Y0315111D01*
X0011600Y0313513D02*
X0067817Y0313513D01*
X0077517Y0302323D02*
X0136083Y0302323D01*
X0135441Y0302965D02*
X0139765Y0298641D01*
X0139765Y0298641D01*
X0140441Y0297965D01*
X0141323Y0297600D01*
X0189400Y0297600D01*
X0189400Y0286985D01*
X0189194Y0286900D01*
X0187900Y0285606D01*
X0187200Y0283915D01*
X0187200Y0276085D01*
X0187900Y0274394D01*
X0189194Y0273100D01*
X0190885Y0272400D01*
X0192715Y0272400D01*
X0194406Y0273100D01*
X0195700Y0274394D01*
X0196400Y0276085D01*
X0196400Y0283915D01*
X0195700Y0285606D01*
X0194406Y0286900D01*
X0194200Y0286985D01*
X0194200Y0304006D01*
X0195144Y0304949D01*
X0195746Y0304700D01*
X0197854Y0304700D01*
X0199802Y0305507D01*
X0201293Y0306998D01*
X0201500Y0307497D01*
X0201500Y0305637D01*
X0202437Y0304700D01*
X0208706Y0304700D01*
X0220441Y0292965D01*
X0221323Y0292600D01*
X0230806Y0292600D01*
X0234400Y0289006D01*
X0234400Y0286985D01*
X0234194Y0286900D01*
X0232900Y0285606D01*
X0232200Y0283915D01*
X0232200Y0276085D01*
X0232900Y0274394D01*
X0234194Y0273100D01*
X0235885Y0272400D01*
X0237715Y0272400D01*
X0239406Y0273100D01*
X0240700Y0274394D01*
X0241400Y0276085D01*
X0241400Y0283915D01*
X0240700Y0285606D01*
X0239406Y0286900D01*
X0239200Y0286985D01*
X0239200Y0290477D01*
X0238835Y0291359D01*
X0233835Y0296359D01*
X0233159Y0297035D01*
X0232277Y0297400D01*
X0222794Y0297400D01*
X0212100Y0308094D01*
X0212100Y0314363D01*
X0211163Y0315300D01*
X0202437Y0315300D01*
X0201500Y0314363D01*
X0201500Y0312503D01*
X0201293Y0313002D01*
X0199802Y0314493D01*
X0197854Y0315300D01*
X0195746Y0315300D01*
X0193798Y0314493D01*
X0192307Y0313002D01*
X0191800Y0311778D01*
X0191293Y0313002D01*
X0189802Y0314493D01*
X0187854Y0315300D01*
X0185746Y0315300D01*
X0183798Y0314493D01*
X0182307Y0313002D01*
X0181800Y0311778D01*
X0181293Y0313002D01*
X0179802Y0314493D01*
X0179200Y0314743D01*
X0179200Y0320477D01*
X0178835Y0321359D01*
X0178159Y0322035D01*
X0173159Y0327035D01*
X0172277Y0327400D01*
X0121323Y0327400D01*
X0120441Y0327035D01*
X0114765Y0321359D01*
X0114400Y0320477D01*
X0114400Y0314743D01*
X0113798Y0314493D01*
X0112307Y0313002D01*
X0111500Y0311054D01*
X0111500Y0308946D01*
X0112307Y0306998D01*
X0113798Y0305507D01*
X0115746Y0304700D01*
X0117854Y0304700D01*
X0119802Y0305507D01*
X0121293Y0306998D01*
X0121800Y0308222D01*
X0122307Y0306998D01*
X0123798Y0305507D01*
X0125746Y0304700D01*
X0127854Y0304700D01*
X0129802Y0305507D01*
X0131293Y0306998D01*
X0131800Y0308222D01*
X0132307Y0306998D01*
X0133798Y0305507D01*
X0134400Y0305257D01*
X0134400Y0304523D01*
X0134765Y0303641D01*
X0135441Y0302965D01*
X0135441Y0302965D01*
X0134649Y0303922D02*
X0079116Y0303922D01*
X0075919Y0300725D02*
X0137681Y0300725D01*
X0139280Y0299126D02*
X0074320Y0299126D01*
X0074200Y0297528D02*
X0189400Y0297528D01*
X0189400Y0295929D02*
X0074200Y0295929D01*
X0074200Y0294331D02*
X0189400Y0294331D01*
X0189400Y0292732D02*
X0074200Y0292732D01*
X0074200Y0291134D02*
X0189400Y0291134D01*
X0189400Y0289535D02*
X0074200Y0289535D01*
X0074200Y0287937D02*
X0189400Y0287937D01*
X0188633Y0286338D02*
X0184967Y0286338D01*
X0184406Y0286900D02*
X0182715Y0287600D01*
X0180885Y0287600D01*
X0179194Y0286900D01*
X0177900Y0285606D01*
X0177200Y0283915D01*
X0177200Y0276085D01*
X0177900Y0274394D01*
X0179194Y0273100D01*
X0179400Y0273015D01*
X0179400Y0269743D01*
X0178798Y0269493D01*
X0177307Y0268002D01*
X0176500Y0266054D01*
X0176500Y0263946D01*
X0177307Y0261998D01*
X0178798Y0260507D01*
X0180746Y0259700D01*
X0182854Y0259700D01*
X0184802Y0260507D01*
X0186293Y0261998D01*
X0187100Y0263946D01*
X0187100Y0266054D01*
X0186293Y0268002D01*
X0184802Y0269493D01*
X0184200Y0269743D01*
X0184200Y0273015D01*
X0184406Y0273100D01*
X0185700Y0274394D01*
X0186400Y0276085D01*
X0186400Y0283915D01*
X0185700Y0285606D01*
X0184406Y0286900D01*
X0186058Y0284739D02*
X0187542Y0284739D01*
X0187200Y0283141D02*
X0186400Y0283141D01*
X0186400Y0281542D02*
X0187200Y0281542D01*
X0187200Y0279944D02*
X0186400Y0279944D01*
X0186400Y0278345D02*
X0187200Y0278345D01*
X0187200Y0276747D02*
X0186400Y0276747D01*
X0186012Y0275148D02*
X0187588Y0275148D01*
X0188745Y0273550D02*
X0184855Y0273550D01*
X0184200Y0271951D02*
X0224400Y0271951D01*
X0224400Y0273015D02*
X0224400Y0269743D01*
X0223798Y0269493D01*
X0222307Y0268002D01*
X0221500Y0266054D01*
X0221500Y0263946D01*
X0222307Y0261998D01*
X0223798Y0260507D01*
X0225746Y0259700D01*
X0227854Y0259700D01*
X0229802Y0260507D01*
X0231293Y0261998D01*
X0232100Y0263946D01*
X0232100Y0266054D01*
X0231293Y0268002D01*
X0229802Y0269493D01*
X0229200Y0269743D01*
X0229200Y0273015D01*
X0229406Y0273100D01*
X0230700Y0274394D01*
X0231400Y0276085D01*
X0231400Y0283915D01*
X0230700Y0285606D01*
X0229406Y0286900D01*
X0227715Y0287600D01*
X0225885Y0287600D01*
X0224194Y0286900D01*
X0222900Y0285606D01*
X0222200Y0283915D01*
X0222200Y0276085D01*
X0222900Y0274394D01*
X0224194Y0273100D01*
X0224400Y0273015D01*
X0223745Y0273550D02*
X0205138Y0273550D01*
X0204927Y0273339D02*
X0205461Y0273873D01*
X0205905Y0274484D01*
X0206248Y0275157D01*
X0206482Y0275876D01*
X0206600Y0276622D01*
X0206600Y0279800D01*
X0202000Y0279800D01*
X0202000Y0280200D01*
X0206600Y0280200D01*
X0206600Y0283378D01*
X0206482Y0284124D01*
X0206248Y0284843D01*
X0205905Y0285516D01*
X0205461Y0286127D01*
X0204927Y0286661D01*
X0204316Y0287105D01*
X0203643Y0287448D01*
X0202924Y0287682D01*
X0202178Y0287800D01*
X0202000Y0287800D01*
X0202000Y0280200D01*
X0201600Y0280200D01*
X0201600Y0287800D01*
X0201422Y0287800D01*
X0200676Y0287682D01*
X0199957Y0287448D01*
X0199284Y0287105D01*
X0198673Y0286661D01*
X0198139Y0286127D01*
X0197695Y0285516D01*
X0197352Y0284843D01*
X0197118Y0284124D01*
X0197000Y0283378D01*
X0197000Y0280200D01*
X0201600Y0280200D01*
X0201600Y0279800D01*
X0202000Y0279800D01*
X0202000Y0272200D01*
X0202178Y0272200D01*
X0202924Y0272318D01*
X0203643Y0272552D01*
X0204316Y0272895D01*
X0204927Y0273339D01*
X0206244Y0275148D02*
X0222588Y0275148D01*
X0222200Y0276747D02*
X0206600Y0276747D01*
X0206600Y0278345D02*
X0222200Y0278345D01*
X0222200Y0279944D02*
X0202000Y0279944D01*
X0201600Y0279944D02*
X0196400Y0279944D01*
X0197000Y0279800D02*
X0197000Y0276622D01*
X0197118Y0275876D01*
X0197352Y0275157D01*
X0197695Y0274484D01*
X0198139Y0273873D01*
X0198673Y0273339D01*
X0199284Y0272895D01*
X0199957Y0272552D01*
X0200676Y0272318D01*
X0201422Y0272200D01*
X0201600Y0272200D01*
X0201600Y0279800D01*
X0197000Y0279800D01*
X0197000Y0278345D02*
X0196400Y0278345D01*
X0196400Y0276747D02*
X0197000Y0276747D01*
X0197356Y0275148D02*
X0196012Y0275148D01*
X0194855Y0273550D02*
X0198462Y0273550D01*
X0201600Y0273550D02*
X0202000Y0273550D01*
X0202000Y0275148D02*
X0201600Y0275148D01*
X0201600Y0276747D02*
X0202000Y0276747D01*
X0202000Y0278345D02*
X0201600Y0278345D01*
X0201600Y0281542D02*
X0202000Y0281542D01*
X0202000Y0283141D02*
X0201600Y0283141D01*
X0201600Y0284739D02*
X0202000Y0284739D01*
X0202000Y0286338D02*
X0201600Y0286338D01*
X0198350Y0286338D02*
X0194967Y0286338D01*
X0194200Y0287937D02*
X0234400Y0287937D01*
X0233871Y0289535D02*
X0194200Y0289535D01*
X0194200Y0291134D02*
X0232272Y0291134D01*
X0231800Y0295000D02*
X0221800Y0295000D01*
X0206800Y0310000D01*
X0201500Y0307119D02*
X0201343Y0307119D01*
X0201617Y0305520D02*
X0199815Y0305520D01*
X0196800Y0310000D02*
X0191800Y0305000D01*
X0191800Y0300000D01*
X0141800Y0300000D01*
X0136800Y0305000D01*
X0136800Y0310000D01*
X0132257Y0307119D02*
X0131343Y0307119D01*
X0129815Y0305520D02*
X0133785Y0305520D01*
X0123785Y0305520D02*
X0119815Y0305520D01*
X0121343Y0307119D02*
X0122257Y0307119D01*
X0116800Y0310000D02*
X0116800Y0320000D01*
X0121800Y0325000D01*
X0171800Y0325000D01*
X0176800Y0320000D01*
X0176800Y0310000D01*
X0181744Y0311914D02*
X0181856Y0311914D01*
X0182817Y0313513D02*
X0180783Y0313513D01*
X0179200Y0315111D02*
X0185290Y0315111D01*
X0188310Y0315111D02*
X0195290Y0315111D01*
X0192817Y0313513D02*
X0190783Y0313513D01*
X0191744Y0311914D02*
X0191856Y0311914D01*
X0198310Y0315111D02*
X0202248Y0315111D01*
X0201500Y0313513D02*
X0200783Y0313513D01*
X0211352Y0315111D02*
X0370504Y0315111D01*
X0370504Y0313513D02*
X0212100Y0313513D01*
X0212100Y0311914D02*
X0370504Y0311914D01*
X0370504Y0310316D02*
X0212100Y0310316D01*
X0212100Y0308717D02*
X0370504Y0308717D01*
X0370504Y0307119D02*
X0213075Y0307119D01*
X0214674Y0305520D02*
X0370504Y0305520D01*
X0370504Y0303922D02*
X0216272Y0303922D01*
X0217871Y0302323D02*
X0370504Y0302323D01*
X0370504Y0300725D02*
X0219470Y0300725D01*
X0221068Y0299126D02*
X0370504Y0299126D01*
X0370504Y0297528D02*
X0222667Y0297528D01*
X0219075Y0294331D02*
X0194200Y0294331D01*
X0194200Y0295929D02*
X0217477Y0295929D01*
X0215878Y0297528D02*
X0194200Y0297528D01*
X0194200Y0299126D02*
X0214280Y0299126D01*
X0212681Y0300725D02*
X0194200Y0300725D01*
X0194200Y0302323D02*
X0211083Y0302323D01*
X0209484Y0303922D02*
X0194200Y0303922D01*
X0191800Y0300000D02*
X0191800Y0280000D01*
X0196400Y0281542D02*
X0197000Y0281542D01*
X0197000Y0283141D02*
X0196400Y0283141D01*
X0196058Y0284739D02*
X0197318Y0284739D01*
X0205250Y0286338D02*
X0223633Y0286338D01*
X0222542Y0284739D02*
X0206282Y0284739D01*
X0206600Y0283141D02*
X0222200Y0283141D01*
X0222200Y0281542D02*
X0206600Y0281542D01*
X0194200Y0292732D02*
X0221004Y0292732D01*
X0229967Y0286338D02*
X0233633Y0286338D01*
X0232542Y0284739D02*
X0231058Y0284739D01*
X0231400Y0283141D02*
X0232200Y0283141D01*
X0232200Y0281542D02*
X0231400Y0281542D01*
X0231400Y0279944D02*
X0232200Y0279944D01*
X0232200Y0278345D02*
X0231400Y0278345D01*
X0231400Y0276747D02*
X0232200Y0276747D01*
X0232588Y0275148D02*
X0231012Y0275148D01*
X0229855Y0273550D02*
X0233745Y0273550D01*
X0229200Y0271951D02*
X0370504Y0271951D01*
X0370504Y0270353D02*
X0229200Y0270353D01*
X0230541Y0268754D02*
X0370504Y0268754D01*
X0370504Y0267156D02*
X0231644Y0267156D01*
X0232100Y0265557D02*
X0370504Y0265557D01*
X0370504Y0263959D02*
X0232100Y0263959D01*
X0231443Y0262360D02*
X0370504Y0262360D01*
X0370504Y0260762D02*
X0230057Y0260762D01*
X0226800Y0265000D02*
X0226800Y0280000D01*
X0224400Y0270353D02*
X0184200Y0270353D01*
X0185541Y0268754D02*
X0223059Y0268754D01*
X0221956Y0267156D02*
X0186644Y0267156D01*
X0187100Y0265557D02*
X0221500Y0265557D01*
X0221500Y0263959D02*
X0187100Y0263959D01*
X0186443Y0262360D02*
X0222157Y0262360D01*
X0223543Y0260762D02*
X0185057Y0260762D01*
X0181800Y0265000D02*
X0181800Y0280000D01*
X0177200Y0279944D02*
X0152000Y0279944D01*
X0152000Y0279800D02*
X0152000Y0280200D01*
X0156600Y0280200D01*
X0156600Y0283378D01*
X0156482Y0284124D01*
X0156248Y0284843D01*
X0155905Y0285516D01*
X0155461Y0286127D01*
X0154927Y0286661D01*
X0154316Y0287105D01*
X0153643Y0287448D01*
X0152924Y0287682D01*
X0152178Y0287800D01*
X0152000Y0287800D01*
X0152000Y0280200D01*
X0151600Y0280200D01*
X0151600Y0287800D01*
X0151422Y0287800D01*
X0150676Y0287682D01*
X0149957Y0287448D01*
X0149284Y0287105D01*
X0148673Y0286661D01*
X0148139Y0286127D01*
X0147695Y0285516D01*
X0147352Y0284843D01*
X0147118Y0284124D01*
X0147000Y0283378D01*
X0147000Y0280200D01*
X0151600Y0280200D01*
X0151600Y0279800D01*
X0152000Y0279800D01*
X0156600Y0279800D01*
X0156600Y0276622D01*
X0156482Y0275876D01*
X0156248Y0275157D01*
X0155905Y0274484D01*
X0155461Y0273873D01*
X0154927Y0273339D01*
X0154316Y0272895D01*
X0153643Y0272552D01*
X0152924Y0272318D01*
X0152178Y0272200D01*
X0152000Y0272200D01*
X0152000Y0279800D01*
X0151600Y0279800D02*
X0151600Y0272200D01*
X0151422Y0272200D01*
X0150676Y0272318D01*
X0149957Y0272552D01*
X0149284Y0272895D01*
X0148673Y0273339D01*
X0148139Y0273873D01*
X0147695Y0274484D01*
X0147352Y0275157D01*
X0147118Y0275876D01*
X0147000Y0276622D01*
X0147000Y0279800D01*
X0151600Y0279800D01*
X0151600Y0279944D02*
X0146400Y0279944D01*
X0146400Y0281542D02*
X0147000Y0281542D01*
X0147000Y0283141D02*
X0146400Y0283141D01*
X0146400Y0283915D02*
X0145700Y0285606D01*
X0144406Y0286900D01*
X0142715Y0287600D01*
X0140885Y0287600D01*
X0139194Y0286900D01*
X0137900Y0285606D01*
X0137200Y0283915D01*
X0137200Y0276085D01*
X0137900Y0274394D01*
X0139194Y0273100D01*
X0140885Y0272400D01*
X0142715Y0272400D01*
X0144406Y0273100D01*
X0145700Y0274394D01*
X0146400Y0276085D01*
X0146400Y0283915D01*
X0146058Y0284739D02*
X0147318Y0284739D01*
X0148350Y0286338D02*
X0144967Y0286338D01*
X0138633Y0286338D02*
X0134967Y0286338D01*
X0136058Y0284739D02*
X0137542Y0284739D01*
X0137200Y0283141D02*
X0136400Y0283141D01*
X0136400Y0281542D02*
X0137200Y0281542D01*
X0137200Y0279944D02*
X0136400Y0279944D01*
X0136400Y0278345D02*
X0137200Y0278345D01*
X0137200Y0276747D02*
X0136400Y0276747D01*
X0136012Y0275148D02*
X0137588Y0275148D01*
X0138745Y0273550D02*
X0134855Y0273550D01*
X0134200Y0271951D02*
X0179400Y0271951D01*
X0179400Y0270353D02*
X0134200Y0270353D01*
X0135541Y0268754D02*
X0178059Y0268754D01*
X0176956Y0267156D02*
X0136644Y0267156D01*
X0137100Y0265557D02*
X0176500Y0265557D01*
X0176500Y0263959D02*
X0137100Y0263959D01*
X0136443Y0262360D02*
X0177157Y0262360D01*
X0178543Y0260762D02*
X0135057Y0260762D01*
X0131800Y0265000D02*
X0131800Y0280000D01*
X0127200Y0279944D02*
X0074200Y0279944D01*
X0074200Y0281542D02*
X0127200Y0281542D01*
X0127200Y0283141D02*
X0074200Y0283141D01*
X0074200Y0284739D02*
X0127542Y0284739D01*
X0128633Y0286338D02*
X0074200Y0286338D01*
X0075950Y0278345D02*
X0127200Y0278345D01*
X0127200Y0276747D02*
X0076813Y0276747D01*
X0077100Y0275148D02*
X0127588Y0275148D01*
X0128745Y0273550D02*
X0076936Y0273550D01*
X0078243Y0271951D02*
X0129400Y0271951D01*
X0129400Y0270353D02*
X0079200Y0270353D01*
X0076800Y0270000D02*
X0076800Y0255000D01*
X0081800Y0250000D01*
X0081800Y0170000D01*
X0086800Y0165000D01*
X0091800Y0165000D01*
X0095116Y0168048D02*
X0106454Y0168048D01*
X0104856Y0166450D02*
X0096070Y0166450D01*
X0096300Y0164851D02*
X0103257Y0164851D01*
X0101659Y0163253D02*
X0095947Y0163253D01*
X0094818Y0161654D02*
X0100060Y0161654D01*
X0098461Y0160056D02*
X0079200Y0160056D01*
X0079200Y0161654D02*
X0088782Y0161654D01*
X0088893Y0158457D02*
X0079200Y0158457D01*
X0079200Y0156859D02*
X0087699Y0156859D01*
X0087300Y0155260D02*
X0079200Y0155260D01*
X0079200Y0153662D02*
X0087484Y0153662D01*
X0088373Y0152063D02*
X0079200Y0152063D01*
X0079200Y0150465D02*
X0093870Y0150465D01*
X0095227Y0152063D02*
X0095469Y0152063D01*
X0096800Y0155000D02*
X0091800Y0155000D01*
X0094707Y0158457D02*
X0096863Y0158457D01*
X0096800Y0155000D02*
X0111800Y0170000D01*
X0111800Y0215000D01*
X0131800Y0235000D01*
X0137100Y0235186D02*
X0138592Y0235186D01*
X0140190Y0236784D02*
X0136798Y0236784D01*
X0135913Y0238383D02*
X0177687Y0238383D01*
X0179976Y0239981D02*
X0133624Y0239981D01*
X0136951Y0233587D02*
X0136993Y0233587D01*
X0136800Y0225000D02*
X0181800Y0225000D01*
X0191800Y0235000D01*
X0187387Y0227193D02*
X0253599Y0227193D01*
X0253000Y0228792D02*
X0252600Y0228792D01*
X0252600Y0230390D02*
X0253000Y0230390D01*
X0253000Y0231989D02*
X0252600Y0231989D01*
X0252600Y0233587D02*
X0253000Y0233587D01*
X0253000Y0235186D02*
X0252600Y0235186D01*
X0252600Y0236784D02*
X0253000Y0236784D01*
X0256794Y0236784D02*
X0259089Y0236784D01*
X0257969Y0235186D02*
X0257859Y0235186D01*
X0252000Y0225595D02*
X0185789Y0225595D01*
X0184190Y0223996D02*
X0250402Y0223996D01*
X0248803Y0222398D02*
X0137592Y0222398D01*
X0135993Y0220799D02*
X0157205Y0220799D01*
X0155606Y0219201D02*
X0134395Y0219201D01*
X0136800Y0225000D02*
X0121800Y0210000D01*
X0121800Y0170000D01*
X0101800Y0150000D01*
X0101800Y0145000D01*
X0091800Y0135000D01*
X0093597Y0140873D02*
X0094279Y0140873D01*
X0095624Y0142472D02*
X0095878Y0142472D01*
X0096286Y0144070D02*
X0097476Y0144070D01*
X0096300Y0145669D02*
X0099075Y0145669D01*
X0099400Y0147268D02*
X0097462Y0147268D01*
X0099060Y0148866D02*
X0099400Y0148866D01*
X0089374Y0148866D02*
X0079200Y0148866D01*
X0079200Y0147268D02*
X0087868Y0147268D01*
X0087300Y0145669D02*
X0079200Y0145669D01*
X0079200Y0144070D02*
X0087314Y0144070D01*
X0087976Y0142472D02*
X0079200Y0142472D01*
X0074400Y0142472D02*
X0011600Y0142472D01*
X0011600Y0144070D02*
X0074400Y0144070D01*
X0074400Y0145669D02*
X0011600Y0145669D01*
X0011600Y0147268D02*
X0074400Y0147268D01*
X0074400Y0148866D02*
X0011600Y0148866D01*
X0011600Y0150465D02*
X0074400Y0150465D01*
X0074400Y0152063D02*
X0011600Y0152063D01*
X0011600Y0153662D02*
X0074400Y0153662D01*
X0074400Y0155260D02*
X0011600Y0155260D01*
X0011600Y0156859D02*
X0074400Y0156859D01*
X0074400Y0158457D02*
X0011600Y0158457D01*
X0011600Y0160056D02*
X0074400Y0160056D01*
X0074400Y0161654D02*
X0011600Y0161654D01*
X0011600Y0163253D02*
X0074400Y0163253D01*
X0073555Y0164851D02*
X0011600Y0164851D01*
X0011600Y0166450D02*
X0071956Y0166450D01*
X0071800Y0170000D02*
X0054005Y0170000D01*
X0041800Y0182205D01*
X0037037Y0184033D02*
X0011600Y0184033D01*
X0011600Y0182435D02*
X0036700Y0182435D01*
X0036847Y0180836D02*
X0011600Y0180836D01*
X0011600Y0179238D02*
X0037554Y0179238D01*
X0039495Y0177639D02*
X0011600Y0177639D01*
X0011600Y0176041D02*
X0044570Y0176041D01*
X0046168Y0174442D02*
X0011600Y0174442D01*
X0011600Y0172844D02*
X0047767Y0172844D01*
X0049365Y0171245D02*
X0011600Y0171245D01*
X0011600Y0169647D02*
X0050964Y0169647D01*
X0052562Y0168048D02*
X0011600Y0168048D01*
X0011600Y0185632D02*
X0038015Y0185632D01*
X0040606Y0187230D02*
X0011600Y0187230D01*
X0011600Y0188829D02*
X0079400Y0188829D01*
X0079400Y0190427D02*
X0011600Y0190427D01*
X0011600Y0192026D02*
X0079400Y0192026D01*
X0079400Y0193624D02*
X0011600Y0193624D01*
X0011600Y0195223D02*
X0079400Y0195223D01*
X0079400Y0196821D02*
X0011600Y0196821D01*
X0011600Y0198420D02*
X0079400Y0198420D01*
X0079400Y0200018D02*
X0011600Y0200018D01*
X0042994Y0187230D02*
X0079400Y0187230D01*
X0079400Y0185632D02*
X0045585Y0185632D01*
X0046563Y0184033D02*
X0079400Y0184033D01*
X0079400Y0182435D02*
X0046900Y0182435D01*
X0046753Y0180836D02*
X0079400Y0180836D01*
X0079400Y0179238D02*
X0048161Y0179238D01*
X0049760Y0177639D02*
X0079400Y0177639D01*
X0079400Y0176041D02*
X0051358Y0176041D01*
X0052957Y0174442D02*
X0079400Y0174442D01*
X0079400Y0172844D02*
X0054555Y0172844D01*
X0071800Y0170000D02*
X0076800Y0165000D01*
X0076800Y0130000D01*
X0081800Y0125000D01*
X0091800Y0125000D01*
X0088521Y0128085D02*
X0082109Y0128085D01*
X0078518Y0124888D02*
X0011600Y0124888D01*
X0011600Y0123290D02*
X0080116Y0123290D01*
X0076919Y0126487D02*
X0011600Y0126487D01*
X0011600Y0128085D02*
X0075321Y0128085D01*
X0074400Y0129684D02*
X0011600Y0129684D01*
X0011600Y0131282D02*
X0074400Y0131282D01*
X0074400Y0132881D02*
X0011600Y0132881D01*
X0011600Y0134479D02*
X0074400Y0134479D01*
X0074400Y0136078D02*
X0011600Y0136078D01*
X0011600Y0137676D02*
X0074400Y0137676D01*
X0074400Y0139275D02*
X0011600Y0139275D01*
X0011600Y0140873D02*
X0074400Y0140873D01*
X0079200Y0163253D02*
X0085153Y0163253D01*
X0083555Y0164851D02*
X0079200Y0164851D01*
X0078744Y0166450D02*
X0081956Y0166450D01*
X0080358Y0168048D02*
X0077146Y0168048D01*
X0075547Y0169647D02*
X0079400Y0169647D01*
X0079400Y0171245D02*
X0073949Y0171245D01*
X0084200Y0171245D02*
X0089191Y0171245D01*
X0087822Y0172844D02*
X0084200Y0172844D01*
X0084200Y0174442D02*
X0087300Y0174442D01*
X0087360Y0176041D02*
X0084200Y0176041D01*
X0084200Y0177639D02*
X0088075Y0177639D01*
X0095525Y0177639D02*
X0109400Y0177639D01*
X0109400Y0176041D02*
X0096240Y0176041D01*
X0096300Y0174442D02*
X0109400Y0174442D01*
X0109400Y0172844D02*
X0095778Y0172844D01*
X0094409Y0171245D02*
X0109400Y0171245D01*
X0108053Y0169647D02*
X0085547Y0169647D01*
X0087146Y0168048D02*
X0088484Y0168048D01*
X0108856Y0153662D02*
X0147484Y0153662D01*
X0147300Y0155260D02*
X0110454Y0155260D01*
X0154781Y0201617D02*
X0180023Y0201617D01*
X0181621Y0203215D02*
X0155932Y0203215D01*
X0151800Y0205000D02*
X0151800Y0212000D01*
X0158800Y0219000D01*
X0183624Y0239981D02*
X0224976Y0239981D01*
X0228624Y0239981D02*
X0370504Y0239981D01*
X0339108Y0214405D02*
X0334492Y0214405D01*
X0336158Y0212806D02*
X0337442Y0212806D01*
X0329108Y0214405D02*
X0324492Y0214405D01*
X0326158Y0212806D02*
X0327442Y0212806D01*
X0319108Y0214405D02*
X0314492Y0214405D01*
X0316158Y0212806D02*
X0317442Y0212806D01*
X0309108Y0214405D02*
X0304492Y0214405D01*
X0306158Y0212806D02*
X0307442Y0212806D01*
X0299108Y0214405D02*
X0294492Y0214405D01*
X0296158Y0212806D02*
X0297442Y0212806D01*
X0289108Y0214405D02*
X0284492Y0214405D01*
X0286158Y0212806D02*
X0287442Y0212806D01*
X0279108Y0214405D02*
X0274492Y0214405D01*
X0276158Y0212806D02*
X0277442Y0212806D01*
X0269108Y0214405D02*
X0264492Y0214405D01*
X0266158Y0212806D02*
X0267442Y0212806D01*
X0259108Y0214405D02*
X0254492Y0214405D01*
X0256158Y0212806D02*
X0257442Y0212806D01*
X0249108Y0214405D02*
X0244492Y0214405D01*
X0246158Y0212806D02*
X0247442Y0212806D01*
X0239108Y0214405D02*
X0234492Y0214405D01*
X0236158Y0212806D02*
X0237442Y0212806D01*
X0229108Y0214405D02*
X0224492Y0214405D01*
X0226158Y0212806D02*
X0227442Y0212806D01*
X0219108Y0214405D02*
X0214492Y0214405D01*
X0216158Y0212806D02*
X0217442Y0212806D01*
X0209108Y0214405D02*
X0204492Y0214405D01*
X0206158Y0212806D02*
X0207442Y0212806D01*
X0199108Y0214405D02*
X0194492Y0214405D01*
X0196158Y0212806D02*
X0197442Y0212806D01*
X0243673Y0273339D02*
X0244284Y0272895D01*
X0244957Y0272552D01*
X0245676Y0272318D01*
X0246422Y0272200D01*
X0246600Y0272200D01*
X0246600Y0279800D01*
X0247000Y0279800D01*
X0247000Y0280200D01*
X0251600Y0280200D01*
X0251600Y0283378D01*
X0251482Y0284124D01*
X0251248Y0284843D01*
X0250905Y0285516D01*
X0250461Y0286127D01*
X0249927Y0286661D01*
X0249316Y0287105D01*
X0248643Y0287448D01*
X0247924Y0287682D01*
X0247178Y0287800D01*
X0247000Y0287800D01*
X0247000Y0280200D01*
X0246600Y0280200D01*
X0246600Y0287800D01*
X0246422Y0287800D01*
X0245676Y0287682D01*
X0244957Y0287448D01*
X0244284Y0287105D01*
X0243673Y0286661D01*
X0243139Y0286127D01*
X0242695Y0285516D01*
X0242352Y0284843D01*
X0242118Y0284124D01*
X0242000Y0283378D01*
X0242000Y0280200D01*
X0246600Y0280200D01*
X0246600Y0279800D01*
X0242000Y0279800D01*
X0242000Y0276622D01*
X0242118Y0275876D01*
X0242352Y0275157D01*
X0242695Y0274484D01*
X0243139Y0273873D01*
X0243673Y0273339D01*
X0243462Y0273550D02*
X0239855Y0273550D01*
X0241012Y0275148D02*
X0242356Y0275148D01*
X0242000Y0276747D02*
X0241400Y0276747D01*
X0241400Y0278345D02*
X0242000Y0278345D01*
X0241400Y0279944D02*
X0246600Y0279944D01*
X0247000Y0279944D02*
X0370504Y0279944D01*
X0370504Y0281542D02*
X0251600Y0281542D01*
X0251600Y0283141D02*
X0370504Y0283141D01*
X0370504Y0284739D02*
X0251282Y0284739D01*
X0250250Y0286338D02*
X0370504Y0286338D01*
X0370504Y0287937D02*
X0239200Y0287937D01*
X0239200Y0289535D02*
X0370504Y0289535D01*
X0370504Y0291134D02*
X0238928Y0291134D01*
X0237462Y0292732D02*
X0370504Y0292732D01*
X0370504Y0294331D02*
X0235864Y0294331D01*
X0234265Y0295929D02*
X0370504Y0295929D01*
X0370504Y0278345D02*
X0251600Y0278345D01*
X0251600Y0279800D02*
X0247000Y0279800D01*
X0247000Y0272200D01*
X0247178Y0272200D01*
X0247924Y0272318D01*
X0248643Y0272552D01*
X0249316Y0272895D01*
X0249927Y0273339D01*
X0250461Y0273873D01*
X0250905Y0274484D01*
X0251248Y0275157D01*
X0251482Y0275876D01*
X0251600Y0276622D01*
X0251600Y0279800D01*
X0251600Y0276747D02*
X0370504Y0276747D01*
X0370504Y0275148D02*
X0251244Y0275148D01*
X0250138Y0273550D02*
X0370504Y0273550D01*
X0370504Y0316710D02*
X0179200Y0316710D01*
X0179200Y0318308D02*
X0370504Y0318308D01*
X0370504Y0319907D02*
X0179200Y0319907D01*
X0178689Y0321505D02*
X0370504Y0321505D01*
X0370504Y0323104D02*
X0177090Y0323104D01*
X0175492Y0324702D02*
X0370504Y0324702D01*
X0370504Y0326301D02*
X0173893Y0326301D01*
X0178633Y0286338D02*
X0155250Y0286338D01*
X0156282Y0284739D02*
X0177542Y0284739D01*
X0177200Y0283141D02*
X0156600Y0283141D01*
X0156600Y0281542D02*
X0177200Y0281542D01*
X0177200Y0278345D02*
X0156600Y0278345D01*
X0156600Y0276747D02*
X0177200Y0276747D01*
X0177588Y0275148D02*
X0156244Y0275148D01*
X0155138Y0273550D02*
X0178745Y0273550D01*
X0152000Y0273550D02*
X0151600Y0273550D01*
X0151600Y0275148D02*
X0152000Y0275148D01*
X0152000Y0276747D02*
X0151600Y0276747D01*
X0151600Y0278345D02*
X0152000Y0278345D01*
X0152000Y0281542D02*
X0151600Y0281542D01*
X0151600Y0283141D02*
X0152000Y0283141D01*
X0152000Y0284739D02*
X0151600Y0284739D01*
X0151600Y0286338D02*
X0152000Y0286338D01*
X0147000Y0278345D02*
X0146400Y0278345D01*
X0146400Y0276747D02*
X0147000Y0276747D01*
X0147356Y0275148D02*
X0146012Y0275148D01*
X0144855Y0273550D02*
X0148462Y0273550D01*
X0113785Y0305520D02*
X0094991Y0305520D01*
X0094683Y0305296D02*
X0095383Y0305805D01*
X0095995Y0306417D01*
X0096504Y0307117D01*
X0096897Y0307889D01*
X0097165Y0308712D01*
X0097300Y0309567D01*
X0097300Y0309800D01*
X0092000Y0309800D01*
X0092000Y0304500D01*
X0092233Y0304500D01*
X0093088Y0304635D01*
X0093911Y0304903D01*
X0094683Y0305296D01*
X0096505Y0307119D02*
X0112257Y0307119D01*
X0111595Y0308717D02*
X0097165Y0308717D01*
X0097300Y0310200D02*
X0097300Y0310433D01*
X0097165Y0311288D01*
X0096897Y0312111D01*
X0096504Y0312883D01*
X0095995Y0313583D01*
X0095383Y0314195D01*
X0094683Y0314704D01*
X0093911Y0315097D01*
X0093088Y0315365D01*
X0092233Y0315500D01*
X0092000Y0315500D01*
X0092000Y0310200D01*
X0097300Y0310200D01*
X0097300Y0310316D02*
X0111500Y0310316D01*
X0111856Y0311914D02*
X0096961Y0311914D01*
X0096046Y0313513D02*
X0112817Y0313513D01*
X0114400Y0315111D02*
X0093868Y0315111D01*
X0092000Y0315111D02*
X0091600Y0315111D01*
X0091600Y0313513D02*
X0092000Y0313513D01*
X0092000Y0311914D02*
X0091600Y0311914D01*
X0091600Y0310316D02*
X0092000Y0310316D01*
X0092000Y0308717D02*
X0091600Y0308717D01*
X0091600Y0307119D02*
X0092000Y0307119D01*
X0092000Y0305520D02*
X0091600Y0305520D01*
X0088609Y0305520D02*
X0084815Y0305520D01*
X0086343Y0307119D02*
X0087095Y0307119D01*
X0087554Y0313513D02*
X0085783Y0313513D01*
X0083310Y0315111D02*
X0089732Y0315111D01*
X0071800Y0300000D02*
X0071800Y0275000D01*
X0076800Y0270000D01*
X0079200Y0262360D02*
X0086742Y0262360D01*
X0087543Y0260762D02*
X0079200Y0260762D01*
X0078834Y0249572D02*
X0074611Y0249572D01*
X0076305Y0247974D02*
X0079400Y0247974D01*
X0079400Y0246375D02*
X0076967Y0246375D01*
X0077100Y0244777D02*
X0079400Y0244777D01*
X0079400Y0243178D02*
X0076782Y0243178D01*
X0075875Y0241580D02*
X0079400Y0241580D01*
X0092742Y0209609D02*
X0096400Y0209609D01*
X0096400Y0208011D02*
X0095422Y0208011D01*
X0096283Y0206412D02*
X0096400Y0206412D01*
X0114400Y0316710D02*
X0011600Y0316710D01*
X0011600Y0318308D02*
X0114400Y0318308D01*
X0114400Y0319907D02*
X0011600Y0319907D01*
X0011600Y0321505D02*
X0114911Y0321505D01*
X0116510Y0323104D02*
X0011600Y0323104D01*
X0011600Y0324702D02*
X0118108Y0324702D01*
X0119707Y0326301D02*
X0011600Y0326301D01*
X0011600Y0327899D02*
X0370504Y0327899D01*
X0370504Y0329498D02*
X0011600Y0329498D01*
X0231800Y0295000D02*
X0236800Y0290000D01*
X0236800Y0280000D01*
X0241400Y0281542D02*
X0242000Y0281542D01*
X0242000Y0283141D02*
X0241400Y0283141D01*
X0241058Y0284739D02*
X0242318Y0284739D01*
X0243350Y0286338D02*
X0239967Y0286338D01*
X0246600Y0286338D02*
X0247000Y0286338D01*
X0247000Y0284739D02*
X0246600Y0284739D01*
X0246600Y0283141D02*
X0247000Y0283141D01*
X0247000Y0281542D02*
X0246600Y0281542D01*
X0246600Y0278345D02*
X0247000Y0278345D01*
X0247000Y0276747D02*
X0246600Y0276747D01*
X0246600Y0275148D02*
X0247000Y0275148D01*
X0247000Y0273550D02*
X0246600Y0273550D01*
X0087561Y0086524D02*
X0011600Y0086524D01*
X0011600Y0084926D02*
X0087300Y0084926D01*
X0087622Y0083327D02*
X0011600Y0083327D01*
X0011600Y0081729D02*
X0088707Y0081729D01*
X0088968Y0078532D02*
X0011600Y0078532D01*
X0011600Y0080130D02*
X0123276Y0080130D01*
X0124400Y0078532D02*
X0094632Y0078532D01*
X0094893Y0081729D02*
X0121677Y0081729D01*
X0121800Y0085000D02*
X0126800Y0080000D01*
X0126800Y0075000D01*
X0124400Y0076933D02*
X0123261Y0076933D01*
X0121800Y0075000D02*
X0146800Y0050000D01*
X0143648Y0049758D02*
X0040033Y0049758D01*
X0040170Y0049621D02*
X0040170Y0049621D01*
X0038434Y0051357D02*
X0142049Y0051357D01*
X0140451Y0052955D02*
X0036390Y0052955D01*
X0037444Y0052347D02*
X0037444Y0052347D01*
X0034105Y0054275D02*
X0034105Y0054275D01*
X0033063Y0054554D02*
X0138852Y0054554D01*
X0137254Y0056152D02*
X0011600Y0056152D01*
X0011600Y0054554D02*
X0023844Y0054554D01*
X0020517Y0052955D02*
X0011600Y0052955D01*
X0011600Y0051357D02*
X0018473Y0051357D01*
X0019463Y0052347D02*
X0019463Y0052347D01*
X0016874Y0049758D02*
X0011600Y0049758D01*
X0011600Y0048160D02*
X0015893Y0048160D01*
X0016737Y0049621D02*
X0016737Y0049621D01*
X0014970Y0046561D02*
X0011600Y0046561D01*
X0011600Y0044963D02*
X0014455Y0044963D01*
X0014027Y0043364D02*
X0011600Y0043364D01*
X0011600Y0041766D02*
X0013811Y0041766D01*
X0013811Y0040167D02*
X0011600Y0040167D01*
X0011600Y0038569D02*
X0013811Y0038569D01*
X0013811Y0036970D02*
X0011600Y0036970D01*
X0011600Y0035372D02*
X0013811Y0035372D01*
X0013811Y0033773D02*
X0011600Y0033773D01*
X0011600Y0032175D02*
X0013811Y0032175D01*
X0013811Y0030576D02*
X0011600Y0030576D01*
X0011600Y0057751D02*
X0135655Y0057751D01*
X0134056Y0059349D02*
X0011600Y0059349D01*
X0011600Y0060948D02*
X0132458Y0060948D01*
X0130859Y0062546D02*
X0011600Y0062546D01*
X0011600Y0064145D02*
X0129261Y0064145D01*
X0127662Y0065743D02*
X0011600Y0065743D01*
X0011600Y0067342D02*
X0126064Y0067342D01*
X0124465Y0068940D02*
X0011600Y0068940D01*
X0011600Y0070539D02*
X0090811Y0070539D01*
X0092789Y0070539D02*
X0122867Y0070539D01*
X0121268Y0072137D02*
X0095301Y0072137D01*
X0091800Y0075000D02*
X0121800Y0075000D01*
X0121800Y0085000D02*
X0091800Y0085000D01*
X0087730Y0076933D02*
X0011600Y0076933D01*
X0011600Y0075334D02*
X0087300Y0075334D01*
X0087453Y0073736D02*
X0011600Y0073736D01*
X0011600Y0072137D02*
X0088299Y0072137D01*
M02*
